<?xml version="1.0" encoding="UTF-8" standalone="no"?>
<!-- Created with Inkscape (http://www.inkscape.org/) -->

<svg
   version="1.1"
   id="svg1"
   width="210.37334"
   height="193.8"
   viewBox="0 0 210.37334 193.8"
   sodipodi:docname="23-24-2-电路与电子学基础-期末（A卷）-题图2.9.pdf"
   xmlns:inkscape="http://www.inkscape.org/namespaces/inkscape"
   xmlns:sodipodi="http://sodipodi.sourceforge.net/DTD/sodipodi-0.dtd"
   xmlns="http://www.w3.org/2000/svg"
   xmlns:svg="http://www.w3.org/2000/svg">
  <defs
     id="defs1" />
  <sodipodi:namedview
     id="namedview1"
     pagecolor="#ffffff"
     bordercolor="#111111"
     borderopacity="1"
     inkscape:showpageshadow="0"
     inkscape:pageopacity="0"
     inkscape:pagecheckerboard="1"
     inkscape:deskcolor="#d1d1d1">
    <inkscape:page
       x="0"
       y="0"
       inkscape:label="1"
       id="page1"
       width="210.37334"
       height="193.8"
       margin="0"
       bleed="0" />
  </sodipodi:namedview>
  <g
     id="g1"
     inkscape:groupmode="layer"
     inkscape:label="1">
    <path
       id="path1"
       d="m 0,0 h -7.6537 m 0,0 h -7.65373 l 10e-6,22.394 m 0,31.74838 -10e-6,22.39401"
       style="fill:none;stroke:#000000;stroke-width:0.3985;stroke-linecap:butt;stroke-linejoin:miter;stroke-miterlimit:10;stroke-dasharray:none;stroke-opacity:1"
       transform="matrix(1.3333333,0,0,-1.3333333,97.110667,112.00933)" />
    <path
       id="path2"
       d="M 23.81145,22.0263 V 8.73067 L 11.90573,3.27391"
       style="fill:none;stroke:#000000;stroke-width:0.3985;stroke-linecap:butt;stroke-linejoin:miter;stroke-miterlimit:10;stroke-dasharray:none;stroke-opacity:1"
       transform="matrix(1.3333333,0,0,-1.3333333,97.110667,112.00933)" />
    <path
       id="path3"
       d="M 11.90573,8.73067 V -8.73067"
       style="fill:none;stroke:#000000;stroke-width:0.797;stroke-linecap:butt;stroke-linejoin:miter;stroke-miterlimit:10;stroke-dasharray:none;stroke-opacity:1"
       transform="matrix(1.3333333,0,0,-1.3333333,97.110667,112.00933)" />
    <path
       id="path4"
       d="M 11.90573,-3.27391 23.81145,-8.73067 V -22.0263"
       style="fill:none;stroke:#000000;stroke-width:0.3985;stroke-linecap:butt;stroke-linejoin:miter;stroke-miterlimit:10;stroke-dasharray:none;stroke-opacity:1"
       transform="matrix(1.3333333,0,0,-1.3333333,97.110667,112.00933)" />
    <path
       id="path5"
       d="m 16.0992,-5.19592 0.95274,2.07878 3.6927,-4.20789 -5.5982,0.05033 z"
       style="fill:#000000;fill-opacity:1;fill-rule:nonzero;stroke:none"
       transform="matrix(1.3333333,0,0,-1.3333333,97.110667,112.00933)" />
    <path
       id="path6"
       d="M 11.90573,0 H -0.19925"
       style="fill:none;stroke:#000000;stroke-width:0.3985;stroke-linecap:butt;stroke-linejoin:miter;stroke-miterlimit:10;stroke-dasharray:none;stroke-opacity:1"
       transform="matrix(1.3333333,0,0,-1.3333333,97.110667,112.00933)" />
    <path
       id="path7"
       d="m 4.2546563,-6.0477188 c 0.070312,-0.28125 0.1054687,-0.3398437 0.234375,-0.3632812 0.082031,-0.023437 0.4101562,-0.023437 0.6210937,-0.023437 1.0078125,0 1.453125,0.035156 1.453125,0.8203125 0,0.140625 -0.035156,0.5273437 -0.082031,0.796875 0,0.035156 -0.023437,0.1523437 -0.023437,0.1875 0,0.058594 0.023437,0.1289062 0.1171875,0.1289062 0.1054687,0 0.1289062,-0.082031 0.1523437,-0.234375 l 0.2695313,-1.734375 c 0.011719,-0.035156 0.011719,-0.140625 0.011719,-0.1640625 0,-0.1054687 -0.09375,-0.1054687 -0.2695312,-0.1054687 H 1.2195 c -0.24609375,0 -0.2578125,0 -0.31640625,0.1992187 L 0.3054375,-4.7938125 C 0.29371875,-4.770375 0.235125,-4.62975 0.235125,-4.6180313 c 0,0.070312 0.0585937,0.1171875 0.12890625,0.1171875 0.09375,0 0.10546875,-0.046875 0.1640625,-0.2109375 C 1.0671563,-6.2586563 1.3249688,-6.4344375 2.8015313,-6.4344375 H 3.18825 c 0.28125,0 0.28125,0.035156 0.28125,0.1171875 0,0.058594 -0.035156,0.1757812 -0.046875,0.2109375 L 2.0984063,-0.786 c -0.09375,0.36328125 -0.1289063,0.48046875 -1.19531255,0.48046875 -0.3515625,0 -0.41015625,0 -0.41015625,0.1875 0,0.1171875 0.10546875,0.1171875 0.1640625,0.1171875 0.26953125,0 0.5507813,-0.0234375 0.8203125,-0.0234375 0.28125,0 0.5625,-0.01171875 0.84375,-0.01171875 0.28125,0 0.5625,0.01171875 0.8320313,0.01171875 0.28125,0 0.5859375,0.0234375 0.8671875,0.0234375 0.09375,0 0.2109375,0 0.2109375,-0.19921875 0,-0.10546875 -0.082031,-0.10546875 -0.3398438,-0.10546875 -0.2460937,0 -0.375,0 -0.6328125,-0.0234375 C 2.9655938,-0.364125 2.8952813,-0.3875625 2.8952813,-0.551625 c 0,-0.0117188 0,-0.0585938 0.035156,-0.2109375 z m 0,0"
       style="fill:#000000;fill-opacity:1;fill-rule:nonzero;stroke:none"
       aria-label="T"
       transform="matrix(1.3333333,0,0,1.3333333,142.624,116.548)" />
    <path
       id="path8"
       d="m -13.72028,0 c 0,0.87656 -0.71058,1.58714 -1.58715,1.58714 -0.87656,0 -1.58715,-0.71058 -1.58715,-1.58714 0,-0.87656 0.71059,-1.58714 1.58715,-1.58714 0.87657,0 1.58715,0.71058 1.58715,1.58714 z"
       style="fill:#000000;fill-opacity:1;fill-rule:nonzero;stroke:#000000;stroke-width:0.3985;stroke-linecap:butt;stroke-linejoin:miter;stroke-miterlimit:10;stroke-dasharray:none;stroke-opacity:1"
       transform="matrix(1.3333333,0,0,-1.3333333,97.110667,112.00933)" />
    <path
       id="path9"
       d="M -9.35455,54.14238 V 22.394 h -11.90572 v 31.74838 z"
       style="fill:none;stroke:#000000;stroke-width:0.797;stroke-linecap:butt;stroke-linejoin:miter;stroke-miterlimit:10;stroke-dasharray:none;stroke-opacity:1"
       transform="matrix(1.3333333,0,0,-1.3333333,97.110667,112.00933)" />
    <g
       id="g9"
       aria-label="R&#10;B"
       transform="matrix(1.3333333,0,0,1.3333333,46.593333,63.848)">
      <path
         id="path10"
         d="m 3.7385937,-6.1174453 c 0.058594,-0.234375 0.082031,-0.3398438 0.28125,-0.3632813 0.082031,-0.011719 0.3984375,-0.011719 0.5976563,-0.011719 0.7148437,0 1.8164062,0 1.8164062,0.984375 0,0.3398437 -0.1523437,1.0195312 -0.5507812,1.4179687 -0.2578125,0.2578125 -0.7851563,0.5742188 -1.6757813,0.5742188 H 3.0940625 Z m 1.4296875,2.7304687 c 1.0078125,-0.2226562 2.1914063,-0.9140625 2.1914063,-1.921875 0,-0.8554687 -0.890625,-1.5 -2.203125,-1.5 H 2.320625 c -0.1992188,0 -0.2929688,0 -0.2929688,0.1992188 0,0.1171875 0.09375,0.1171875 0.28125,0.1171875 0.023437,0 0.2109375,0 0.3867188,0.011719 0.1757812,0.023437 0.2578125,0.035156 0.2578125,0.1640625 0,0.035156 0,0.070312 -0.035156,0.1875 L 1.582344,-0.77369501 c -0.09375,0.38671875 -0.1171875,0.46875 -0.9023437,0.46875 -0.17578125,0 -0.26953125,0 -0.26953125,0.19921875 0,0.1054687475 0.1171875,0.1054687475 0.140625,0.1054687475 0.28125,0 0.97265625,-0.0351562475 1.25390625,-0.0351562475 0.28125,0 0.984375,0.0351562475 1.265625,0.0351562475 0.082031,0 0.1992187,0 0.1992187,-0.1992187475 0,-0.10546875 -0.09375,-0.10546875 -0.28125,-0.10546875 -0.3632812,0 -0.6445312,0 -0.6445312,-0.1875 0,-0.0585938 0.011719,-0.10546875 0.023437,-0.1640625 L 3.02375,-3.2932266 h 1.1953125 c 0.9023437,0 1.078125,0.5507813 1.078125,0.9023438 0,0.1523437 -0.082031,0.4570312 -0.140625,0.6914062 -0.070312,0.2695313 -0.1523438,0.6445313 -0.1523438,0.84375004 0,1.078125 1.1953125,1.078125 1.3242188,1.078125 0.84375,0 1.1953125,-1.0078125 1.1953125,-1.1484375 0,-0.11718754 -0.1171875,-0.11718754 -0.1171875,-0.11718754 -0.09375,0 -0.1171875,0.0703125 -0.1289063,0.14062504 -0.2578125,0.73828125 -0.6796875,0.9023437475 -0.9140625,0.9023437475 -0.328125,0 -0.3984375,-0.2226562475 -0.3984375,-0.6093749975 0,-0.3046875 0.058594,-0.82031249 0.1054688,-1.13671879 0.011719,-0.140625 0.035156,-0.328125 0.035156,-0.46875 0,-0.7617187 -0.6679687,-1.078125 -0.9374998,-1.171875 z m 0,0"
         style="fill:#000000;fill-opacity:1;fill-rule:nonzero;stroke:none" />
      <path
         id="path11"
         d="M 8.8889844,0.95482031 C 8.8303906,1.1891953 8.8186719,1.2477891 8.2796094,1.2477891 c -0.1171875,0 -0.2109375,0 -0.2109375,0.140625 0,0.1054687 0.082031,0.1054687 0.2109375,0.1054687 h 2.6953126 c 1.171875,0 2.074219,-0.79687499 2.074219,-1.48828124 0,-0.50390625 -0.457032,-0.92578125 -1.195313,-0.99609375 0.84375,-0.16406251 1.546875,-0.69140621 1.546875,-1.28906251 0,-0.5273437 -0.539062,-0.984375 -1.441406,-0.984375 H 9.4163281 c -0.1289062,0 -0.2226562,0 -0.2226562,0.1523438 0,0.09375 0.082031,0.09375 0.2226562,0.09375 0.011719,0 0.140625,0 0.2695313,0.011719 0.140625,0.011719 0.1640625,0.035156 0.1640625,0.1054688 0,0.011719 0,0.046875 -0.035156,0.1523437 z m 1.1132816,-2.03906251 0.433593,-1.6992187 c 0.04687,-0.2109375 0.05859,-0.234375 0.351563,-0.234375 h 1.054687 c 0.714844,0 0.878907,0.46875 0.878907,0.7382812 0,0.5625 -0.632813,1.1953125 -1.570313,1.1953125 z M 9.6741406,1.2477891 c -0.2226562,0 -0.2226562,-0.011719 -0.2226562,-0.070312 0,-0.011719 0,-0.046875 0.023437,-0.1523438 l 0.4804687,-1.91015624 h 1.4765629 c 0.65625,0 0.914063,0.43359375 0.914063,0.84375 0,0.6796875 -0.714844,1.28906254 -1.558594,1.28906254 z m 0,0"
         style="fill:#000000;fill-opacity:1;fill-rule:nonzero;stroke:none" />
    </g>
    <path
       id="path12"
       d="m -15.30743,0 h -21.54364 m -7.93695,0 H -66.3317 m 0,-51.02426 45.0546,10e-6 m 0,0 45.05457,-10e-6 0.03398,29.1972"
       style="fill:none;stroke:#000000;stroke-width:0.3985;stroke-linecap:butt;stroke-linejoin:miter;stroke-miterlimit:10;stroke-dasharray:none;stroke-opacity:1"
       transform="matrix(1.3333333,0,0,-1.3333333,97.110667,112.00933)" />
    <path
       id="path13"
       d="m -36.85107,-11.90572 v 23.81144 m -7.93695,-23.81144 v 23.81144"
       style="fill:none;stroke:#000000;stroke-width:0.797;stroke-linecap:butt;stroke-linejoin:miter;stroke-miterlimit:10;stroke-dasharray:none;stroke-opacity:1"
       transform="matrix(1.3333333,0,0,-1.3333333,97.110667,112.00933)" />
    <g
       id="g13"
       aria-label="C&#10;1"
       transform="matrix(1.3333333,0,0,1.3333333,34.957333,90.253333)">
      <path
         id="path14"
         d="m 7.5700859,-6.9253516 c 0,-0.023437 -0.023437,-0.09375 -0.1054687,-0.09375 -0.035156,0 -0.046875,0.011719 -0.1523438,0.1171875 l -0.703125,0.7617188 c -0.082031,-0.140625 -0.5390625,-0.8789063 -1.6523437,-0.8789063 -2.2148438,0 -4.45312501,2.203125 -4.45312501,4.5117188 0,1.64062499 1.17187501,2.73046874 2.69531251,2.73046874 0.8671875,0 1.6171875,-0.3984375 2.1445312,-0.85546875 0.9375,-0.82031249 1.1015625,-1.72265629 1.1015625,-1.75781249 0,-0.1054688 -0.1054687,-0.1054688 -0.1171875,-0.1054688 -0.058594,0 -0.1171875,0.023437 -0.1289062,0.1054688 -0.09375,0.2929687 -0.3164063,0.9960937 -1.0078125,1.57031249 -0.6914063,0.5625 -1.3125,0.7265625 -1.8398438,0.7265625 -0.890625,0 -1.9453125,-0.515625 -1.9453125,-2.06249999 0,-0.5742188 0.2109375,-2.1914063 1.2070313,-3.3515625 0.609375,-0.703125 1.5351562,-1.2070313 2.4257812,-1.2070313 1.0195313,0 1.6054688,0.7734375 1.6054688,1.921875 0,0.3984375 -0.035156,0.4101563 -0.035156,0.5039063 0,0.1054687 0.1171875,0.1054687 0.1523438,0.1054687 0.1289062,0 0.1289062,-0.023437 0.1757812,-0.1992187 z m 0,0"
         style="fill:#000000;fill-opacity:1;fill-rule:nonzero;stroke:none" />
      <path
         id="path15"
         d="m 9.453875,-2.9351172 c 0,-0.1875 -0.011719,-0.1992187 -0.2109375,-0.1992187 -0.4453125,0.4335937 -1.078125,0.4453125 -1.359375,0.4453125 v 0.2460937 c 0.1640625,0 0.6210938,0 1.0078125,-0.1875 v 3.55078126 c 0,0.23437504 0,0.32812504 -0.6914062,0.32812504 H 7.9304375 v 0.2460937 c 0.1289063,-0.011719 0.984375,-0.023437 1.2421875,-0.023437 0.2109375,0 1.089844,0.011719 1.242188,0.023437 V 1.2484766 H 10.157 c -0.703125,0 -0.703125,-0.09375 -0.703125,-0.32812504 z m 0,0"
         style="fill:#000000;fill-opacity:1;fill-rule:nonzero;stroke:none" />
    </g>
    <path
       id="path16"
       d="m -64.74455,0 c 0,0.87656 -0.71059,1.58714 -1.58715,1.58714 -0.87655,0 -1.58714,-0.71058 -1.58714,-1.58714 0,-0.87656 0.71059,-1.58714 1.58714,-1.58714 0.87656,0 1.58715,0.71058 1.58715,1.58714 z"
       style="fill:#ffffff;fill-opacity:1;fill-rule:nonzero;stroke:#000000;stroke-width:0.3985;stroke-linecap:butt;stroke-linejoin:miter;stroke-miterlimit:10;stroke-dasharray:none;stroke-opacity:1"
       transform="matrix(1.3333333,0,0,-1.3333333,97.110667,112.00933)" />
    <path
       id="path17"
       d="m -64.74455,-51.02426 c 0,0.87656 -0.71059,1.58714 -1.58715,1.58714 -0.87655,0 -1.58714,-0.71058 -1.58714,-1.58714 0,-0.87656 0.71059,-1.58714 1.58714,-1.58714 0.87656,0 1.58715,0.71058 1.58715,1.58714 z"
       style="fill:#ffffff;fill-opacity:1;fill-rule:nonzero;stroke:#000000;stroke-width:0.3985;stroke-linecap:butt;stroke-linejoin:miter;stroke-miterlimit:10;stroke-dasharray:none;stroke-opacity:1"
       transform="matrix(1.3333333,0,0,-1.3333333,97.110667,112.00933)" />
    <path
       id="path18"
       d="m 4.0790547,-2.2973125 h 2.7773437 c 0.140625,0 0.328125,0 0.328125,-0.1992188 0,-0.1992187 -0.1875,-0.1992187 -0.328125,-0.1992187 H 4.0790547 v -2.7890625 c 0,-0.1289063 0,-0.328125 -0.1992188,-0.328125 -0.1992187,0 -0.1992187,0.1992187 -0.1992187,0.328125 V -2.69575 H 0.89155469 c -0.140625,0 -0.328125,0 -0.328125,0.1992187 0,0.1992188 0.1875,0.1992188 0.328125,0.1992188 H 3.6806172 v 2.80078125 c 0,0.12890625 0,0.328125 0.1992187,0.328125 0.1992188,0 0.1992188,-0.19921875 0.1992188,-0.328125 z m 0,0"
       style="fill:#000000;fill-opacity:1;fill-rule:nonzero;stroke:none"
       aria-label="+"
       transform="matrix(1.3333333,0,0,1.3333333,3.5026667,125.46933)" />
    <path
       id="path19"
       d="m 6.5634297,-2.2978828 c 0.1757812,0 0.3515625,0 0.3515625,-0.1992188 0,-0.1992187 -0.1757813,-0.1992187 -0.3515625,-0.1992187 h -5.390625 c -0.1640625,0 -0.33984376,0 -0.33984376,0.1992187 0,0.1992188 0.17578126,0.1992188 0.33984376,0.1992188 z m 0,0"
       style="fill:#000000;fill-opacity:1;fill-rule:nonzero;stroke:none"
       aria-label="−"
       transform="matrix(1.3333333,0,0,1.3333333,3.5026667,173.224)" />
    <g
       id="g19"
       aria-label="u&#10;i"
       transform="matrix(1.3333333,0,0,1.3333333,2.6546667,147.88933)">
      <path
         id="path20"
         d="M 3.493375,-0.56153125 C 3.5988437,-0.151375 3.9504062,0.1064375 4.3722812,0.1064375 c 0.3515625,0 0.5742188,-0.22265625 0.7382813,-0.5390625 0.1757812,-0.36328125 0.3046875,-0.9726563 0.3046875,-0.9960938 0,-0.09375 -0.09375,-0.09375 -0.1289063,-0.09375 -0.09375,0 -0.1054687,0.035156 -0.140625,0.1757813 C 5.0168125,-0.7841875 4.8175937,-0.1045 4.4074375,-0.1045 4.1965,-0.1045 4.0910312,-0.23340625 4.0910312,-0.56153125 4.0910312,-0.7841875 4.2199375,-1.2529375 4.29025,-1.6045 L 4.5715,-2.682625 c 0.035156,-0.140625 0.1289062,-0.5273438 0.1757812,-0.6679688 0.046875,-0.234375 0.140625,-0.609375 0.140625,-0.6679687 0,-0.1875 -0.140625,-0.2695313 -0.28125,-0.2695313 -0.058594,0 -0.3164062,0 -0.3867187,0.3398438 -0.1992188,0.7265625 -0.6328125,2.4726562 -0.75,3 -0.011719,0.046875 -0.4101563,0.84375 -1.1367188,0.84375 -0.515625,0 -0.6210937,-0.45703125 -0.6210937,-0.8203125 0,-0.5625 0.28125,-1.3476563 0.5390625,-2.0273438 0.1171875,-0.3046875 0.1757812,-0.4453125 0.1757812,-0.6328125 0,-0.4453125 -0.328125,-0.8203125 -0.8203125,-0.8203125 -0.9492187,0 -1.31249995,1.453125 -1.31249995,1.5351563 0,0.1054687 0.09375,0.1054687 0.1171875,0.1054687 0.09375,0 0.10546875,-0.023437 0.15234375,-0.1875 C 0.8215,-3.8193438 1.1965,-4.182625 1.5715,-4.182625 c 0.09375,0 0.2578125,0.011719 0.2578125,0.328125 0,0.234375 -0.1171875,0.5273437 -0.1757813,0.6796875 -0.3632812,0.984375 -0.5742187,1.6054687 -0.5742187,2.0859375 0,0.94921875 0.6796875,1.1953125 1.21875,1.1953125 0.65625,0 1.0195312,-0.4453125 1.1953125,-0.66796875 z m 0,0"
         style="fill:#000000;fill-opacity:1;fill-rule:nonzero;stroke:none" />
      <path
         id="path21"
         d="m 7.9670078,-2.8642656 c 0,-0.1054688 -0.082031,-0.2578125 -0.28125,-0.2578125 -0.1875,0 -0.3867187,0.1757812 -0.3867187,0.375 0,0.1171875 0.082031,0.2695312 0.2695312,0.2695312 0.2109375,0 0.3984375,-0.1992187 0.3984375,-0.3867187 z M 6.5373203,0.67479687 c -0.023437,0.09375 -0.058594,0.17578125 -0.058594,0.29296875 0,0.32812498 0.28125,0.59765628 0.6679687,0.59765628 0.6914063,0 0.9960938,-0.96093753 0.9960938,-1.06640628 0,-0.09375 -0.082031,-0.09375 -0.1054688,-0.09375 -0.1054687,0 -0.1054687,0.046875 -0.140625,0.1171875 C 7.7443516,1.0849531 7.4396641,1.3662031 7.1584141,1.3662031 c -0.140625,0 -0.1757813,-0.082031 -0.1757813,-0.2460937 0,-0.15234378 0.058594,-0.29296878 0.1171875,-0.44531253 0.070312,-0.1875 0.140625,-0.375 0.2226563,-0.55078125 0.058594,-0.1640625 0.3164062,-0.80859375 0.3398437,-0.890625 0.023437,-0.0703125 0.046875,-0.15234375 0.046875,-0.22265625 0,-0.32812497 -0.28125,-0.58593747 -0.6679687,-0.58593747 -0.6914063,0 -1.0078125,0.94921872 -1.0078125,1.06640622 0,0.0820313 0.09375,0.0820313 0.1171875,0.0820313 0.09375,0 0.1054687,-0.0351563 0.1289062,-0.10546875 0.1757813,-0.59765627 0.4804688,-0.85546877 0.7382813,-0.85546877 0.1171875,0 0.1757812,0.058594 0.1757812,0.2460937 0,0.16406257 -0.035156,0.26953132 -0.2109375,0.70312507 z m 0,0"
         style="fill:#000000;fill-opacity:1;fill-rule:nonzero;stroke:none" />
    </g>
    <path
       id="path22"
       d="m 25.36461,-51.02426 c 0,0.87656 -0.71059,1.58714 -1.58714,1.58714 -0.87656,0 -1.58715,-0.71058 -1.58715,-1.58714 0,-0.87656 0.71059,-1.58714 1.58715,-1.58714 0.87655,0 1.58714,0.71058 1.58714,1.58714 z"
       style="fill:#000000;fill-opacity:1;fill-rule:nonzero;stroke:#000000;stroke-width:0.3985;stroke-linecap:butt;stroke-linejoin:miter;stroke-miterlimit:10;stroke-dasharray:none;stroke-opacity:1"
       transform="matrix(1.3333333,0,0,-1.3333333,97.110667,112.00933)" />
    <path
       id="path23"
       d="M 23.77747,-51.02426 V -60.9456"
       style="fill:none;stroke:#000000;stroke-width:0.3985;stroke-linecap:butt;stroke-linejoin:miter;stroke-miterlimit:10;stroke-dasharray:none;stroke-opacity:1"
       transform="matrix(1.3333333,0,0,-1.3333333,97.110667,112.00933)" />
    <path
       id="path24"
       d="m 17.82462,-60.9456 h 11.9057"
       style="fill:none;stroke:#000000;stroke-width:0.797;stroke-linecap:round;stroke-linejoin:miter;stroke-miterlimit:10;stroke-dasharray:none;stroke-opacity:1"
       transform="matrix(1.3333333,0,0,-1.3333333,97.110667,112.00933)" />
    <path
       id="path25"
       d="m -25.51212,76.53639 h 5.10236 m 0,0 h 5.10233 39.0849 l 0.007,-11.48071 m 0.01986,-31.74791 0.0071,-11.48071 22.3941,-0.06014 m 7.93671,-0.02132 22.39413,-0.06014"
       style="fill:none;stroke:#000000;stroke-width:0.3985;stroke-linecap:butt;stroke-linejoin:miter;stroke-miterlimit:10;stroke-dasharray:none;stroke-opacity:1"
       transform="matrix(1.3333333,0,0,-1.3333333,97.110667,112.00933)" />
    <g
       id="g25"
       aria-label="V&#10;CC"
       transform="matrix(1.3333333,0,0,1.3333333,33.448,13.502667)">
      <path
         id="path26"
         d="m 6.2587266,-5.6709453 c 0.4804687,-0.7734375 0.9023437,-0.8085938 1.2773437,-0.8203125 0.1171875,-0.011719 0.1289063,-0.1875 0.1289063,-0.1875 0,-0.082031 -0.058594,-0.1289063 -0.1289063,-0.1289063 -0.2578125,0 -0.5507812,0.035156 -0.8203125,0.035156 -0.328125,0 -0.6679687,-0.035156 -0.984375,-0.035156 -0.058594,0 -0.1875,0 -0.1875,0.1992188 0,0.1054687 0.082031,0.1171875 0.1523438,0.1171875 0.2695312,0.011719 0.4570312,0.1171875 0.4570312,0.328125 0,0.1523437 -0.140625,0.3632812 -0.140625,0.375 L 2.9540391,-0.92485156 2.2743516,-6.1982891 c 0,-0.1640625 0.2226562,-0.2929687 0.6796875,-0.2929687 0.140625,0 0.2578125,0 0.2578125,-0.1992188 0,-0.09375 -0.082031,-0.1171875 -0.140625,-0.1171875 -0.3984375,0 -0.8320313,0.035156 -1.2421875,0.035156 -0.1757813,0 -0.3632813,-0.011719 -0.5390625,-0.011719 -0.1875,0 -0.37500004,-0.023437 -0.53906254,-0.023437 -0.0703125,0 -0.1875,0 -0.1875,0.1992188 0,0.1171875 0.0820313,0.1171875 0.24609375,0.1171875 0.55078129,0 0.56249999,0.082031 0.59765629,0.3398437 l 0.7851562,6.14062504 c 0.035156,0.19921875 0.070312,0.234375 0.1992188,0.234375 0.1640625,0 0.1992187,-0.0585938 0.28125,-0.1875 z m 0,0"
         style="fill:#000000;fill-opacity:1;fill-rule:nonzero;stroke:none" />
      <path
         id="path27"
         d="m 11.696227,-3.3213359 c 0,-0.035156 -0.02344,-0.082031 -0.09375,-0.082031 -0.04687,0 -0.07031,0.011719 -0.128907,0.082031 l -0.503906,0.5390625 c -0.07031,-0.082031 -0.457031,-0.6210938 -1.3124999,-0.6210938 -1.6992188,0 -3.3515625,1.5 -3.3515625,3.07031251 0,1.13671875 0.890625,1.96874999 2.1328125,1.96874999 0.375,0 1.0546875,-0.082031 1.7695309,-0.67968749 0.550782,-0.46875 0.703125,-1.078125 0.703125,-1.13671875 0,-0.09375 -0.08203,-0.09375 -0.117187,-0.09375 -0.09375,0 -0.105469,0.0351563 -0.128906,0.1171875 -0.28125,0.94921875 -1.2656254,1.53515624 -2.1093754,1.53515624 -0.7382813,0 -1.5585938,-0.38671874 -1.5585938,-1.48828124 0,-0.2109375 0.046875,-1.31249996 0.8554688,-2.19140626 0.4804687,-0.5273437 1.2070312,-0.8554687 1.875,-0.8554687 0.8085934,0 1.2773434,0.5859375 1.2773434,1.3710937 0,0.1875 -0.02344,0.2460938 -0.02344,0.28125 0,0.09375 0.09375,0.09375 0.128906,0.09375 0.117188,0 0.117188,-0.023437 0.152344,-0.1523437 z m 6.199218,0 c 0,-0.035156 -0.02344,-0.082031 -0.09375,-0.082031 -0.04687,0 -0.07031,0.011719 -0.128906,0.082031 l -0.503906,0.5390625 c -0.07031,-0.082031 -0.457031,-0.6210938 -1.3125,-0.6210938 -1.699219,0 -3.351563,1.5 -3.351563,3.07031251 0,1.13671875 0.890625,1.96874999 2.132813,1.96874999 0.375,0 1.054687,-0.082031 1.769531,-0.67968749 0.550781,-0.46875 0.703125,-1.078125 0.703125,-1.13671875 0,-0.09375 -0.08203,-0.09375 -0.117187,-0.09375 -0.09375,0 -0.105469,0.0351563 -0.128907,0.1171875 -0.28125,0.94921875 -1.265625,1.53515624 -2.109375,1.53515624 -0.738281,0 -1.558593,-0.38671874 -1.558593,-1.48828124 0,-0.2109375 0.04687,-1.31249996 0.855468,-2.19140626 0.480469,-0.5273437 1.207032,-0.8554687 1.875,-0.8554687 0.808594,0 1.277344,0.5859375 1.277344,1.3710937 0,0.1875 -0.02344,0.2460938 -0.02344,0.28125 0,0.09375 0.09375,0.09375 0.128906,0.09375 0.117187,0 0.117187,-0.023437 0.152344,-0.1523437 z m 0,0"
         style="fill:#000000;fill-opacity:1;fill-rule:nonzero;stroke:none" />
    </g>
    <path
       id="path28"
       d="m -23.92497,76.53639 c 0,0.87656 -0.71059,1.58715 -1.58715,1.58715 -0.87657,0 -1.58715,-0.71059 -1.58715,-1.58715 0,-0.87655 0.71058,-1.58714 1.58715,-1.58714 0.87656,0 1.58715,0.71059 1.58715,1.58714 z"
       style="fill:#ffffff;fill-opacity:1;fill-rule:nonzero;stroke:#000000;stroke-width:0.3985;stroke-linecap:butt;stroke-linejoin:miter;stroke-miterlimit:10;stroke-dasharray:none;stroke-opacity:1"
       transform="matrix(1.3333333,0,0,-1.3333333,97.110667,112.00933)" />
    <path
       id="path29"
       d="m -13.72028,76.53639 c 0,0.87656 -0.71058,1.58715 -1.58715,1.58715 -0.87656,0 -1.58715,-0.71059 -1.58715,-1.58715 0,-0.87655 0.71059,-1.58714 1.58715,-1.58714 0.87657,0 1.58715,0.71059 1.58715,1.58714 z"
       style="fill:#000000;fill-opacity:1;fill-rule:nonzero;stroke:#000000;stroke-width:0.3985;stroke-linecap:butt;stroke-linejoin:miter;stroke-miterlimit:10;stroke-dasharray:none;stroke-opacity:1"
       transform="matrix(1.3333333,0,0,-1.3333333,97.110667,112.00933)" />
    <path
       id="path30"
       d="m 17.85161,33.30406 -0.01985,31.74791 11.90551,0.0074 0.01987,-31.74791 z"
       style="fill:none;stroke:#000000;stroke-width:0.797;stroke-linecap:butt;stroke-linejoin:miter;stroke-miterlimit:10;stroke-dasharray:none;stroke-opacity:1"
       transform="matrix(1.3333333,0,0,-1.3333333,97.110667,112.00933)" />
    <path
       id="path31"
       d="m 25.39859,21.82706 c 0,0.87655 -0.71059,1.58714 -1.58714,1.58714 -0.87657,0 -1.58715,-0.71059 -1.58715,-1.58714 0,-0.87657 0.71058,-1.58715 1.58715,-1.58715 0.87655,0 1.58714,0.71058 1.58714,1.58715 z"
       style="fill:#000000;fill-opacity:1;fill-rule:nonzero;stroke:#000000;stroke-width:0.3985;stroke-linecap:butt;stroke-linejoin:miter;stroke-miterlimit:10;stroke-dasharray:none;stroke-opacity:1"
       transform="matrix(1.3333333,0,0,-1.3333333,97.110667,112.00933)" />
    <g
       id="g31"
       aria-label="R&#10;C"
       transform="matrix(1.3333333,0,0,1.3333333,98.938667,49.301333)">
      <path
         id="path32"
         d="m 3.7374063,-6.1176016 c 0.058594,-0.234375 0.082031,-0.3398437 0.28125,-0.3632812 0.082031,-0.011719 0.3984375,-0.011719 0.5976562,-0.011719 0.7148438,0 1.8164063,0 1.8164063,0.984375 0,0.3398438 -0.1523438,1.0195313 -0.5507813,1.4179688 -0.2578125,0.2578125 -0.7851562,0.5742187 -1.6757812,0.5742187 H 3.092875 Z m 1.4296875,2.7304688 C 6.1749063,-3.6097891 7.3585,-4.3011953 7.3585,-5.3090078 c 0,-0.8554688 -0.890625,-1.5 -2.203125,-1.5 H 2.3194375 c -0.1992187,0 -0.2929687,0 -0.2929687,0.1992187 0,0.1171875 0.09375,0.1171875 0.28125,0.1171875 0.023437,0 0.2109375,0 0.3867187,0.011719 0.1757813,0.023437 0.2578125,0.035156 0.2578125,0.1640625 0,0.035156 0,0.070312 -0.035156,0.1875 l -1.3359375,5.35546874 c -0.09375,0.38671875 -0.1171875,0.46875 -0.9023438,0.46875 -0.17578125,0 -0.26953125,0 -0.26953125,0.19921875 0,0.1054687475 0.1171875,0.1054687475 0.140625,0.1054687475 0.28125,0 0.97265625,-0.0351562475 1.25390625,-0.0351562475 0.28125,0 0.984375,0.0351562475 1.265625,0.0351562475 0.082031,0 0.1992188,0 0.1992188,-0.1992187475 0,-0.10546875 -0.09375,-0.10546875 -0.28125,-0.10546875 -0.3632813,0 -0.6445313,0 -0.6445313,-0.1875 0,-0.0585938 0.011719,-0.10546875 0.023437,-0.1640625 l 0.65625,-2.63671874 H 4.217875 c 0.9023438,0 1.078125,0.5507812 1.078125,0.9023437 0,0.1523438 -0.082031,0.4570313 -0.140625,0.6914063 -0.070312,0.2695312 -0.1523437,0.6445312 -0.1523437,0.84374999 0,1.078125 1.1953125,1.078125 1.3242187,1.078125 0.84375,0 1.1953125,-1.0078125 1.1953125,-1.1484375 0,-0.11718749 -0.1171875,-0.11718749 -0.1171875,-0.11718749 -0.09375,0 -0.1171875,0.0703125 -0.1289062,0.14062499 -0.2578125,0.73828125 -0.6796875,0.9023437475 -0.9140625,0.9023437475 -0.328125,0 -0.3984375,-0.2226562475 -0.3984375,-0.6093749975 0,-0.3046875 0.058594,-0.82031254 0.1054687,-1.13671874 0.011719,-0.140625 0.035156,-0.328125 0.035156,-0.46875 0,-0.7617188 -0.6679688,-1.078125 -0.9374997,-1.1718752 z m 0,0"
         style="fill:#000000;fill-opacity:1;fill-rule:nonzero;stroke:none" />
      <path
         id="path33"
         d="m 13.446391,-3.3226797 c 0,-0.035156 -0.02344,-0.082031 -0.09375,-0.082031 -0.04687,0 -0.07031,0.011719 -0.128907,0.082031 l -0.503906,0.5390625 c -0.07031,-0.082031 -0.457031,-0.6210937 -1.3125,-0.6210937 -1.6992186,0 -3.3515624,1.5 -3.3515624,3.07031246 0,1.13671875 0.890625,1.96875004 2.1328124,1.96875004 0.375,0 1.054688,-0.082031 1.769531,-0.67968754 0.550782,-0.46875 0.703125,-1.078125 0.703125,-1.13671875 0,-0.09375 -0.08203,-0.09375 -0.117187,-0.09375 -0.09375,0 -0.105469,0.0351563 -0.128906,0.1171875 -0.28125,0.94921875 -1.265625,1.53515629 -2.109375,1.53515629 -0.7382816,0 -1.5585941,-0.38671879 -1.5585941,-1.48828129 0,-0.2109375 0.046875,-1.31250001 0.8554687,-2.19140621 0.4804684,-0.5273438 1.2070314,-0.8554688 1.8750004,-0.8554688 0.808593,0 1.277343,0.5859375 1.277343,1.3710938 0,0.1875 -0.02344,0.2460937 -0.02344,0.28125 0,0.09375 0.09375,0.09375 0.128906,0.09375 0.117188,0 0.117188,-0.023437 0.152344,-0.1523438 z m 0,0"
         style="fill:#000000;fill-opacity:1;fill-rule:nonzero;stroke:none" />
    </g>
    <path
       id="path34"
       d="M 46.23752,33.67227 46.17358,9.86156 m 8.00066,23.7894 -0.06395,-23.8107"
       style="fill:none;stroke:#000000;stroke-width:0.797;stroke-linecap:butt;stroke-linejoin:miter;stroke-miterlimit:10;stroke-dasharray:none;stroke-opacity:1"
       transform="matrix(1.3333333,0,0,-1.3333333,97.110667,112.00933)" />
    <path
       id="path35"
       d="m 78.12354,21.68546 c 0,0.87657 -0.71059,1.58715 -1.58715,1.58715 -0.87655,0 -1.58714,-0.71058 -1.58714,-1.58715 0,-0.87656 0.71059,-1.58715 1.58714,-1.58715 0.87656,0 1.58715,0.71059 1.58715,1.58715 z"
       style="fill:#ffffff;fill-opacity:1;fill-rule:nonzero;stroke:#000000;stroke-width:0.3985;stroke-linecap:butt;stroke-linejoin:miter;stroke-miterlimit:10;stroke-dasharray:none;stroke-opacity:1"
       transform="matrix(1.3333333,0,0,-1.3333333,97.110667,112.00933)" />
    <g
       id="g35"
       aria-label="C&#10;2"
       transform="matrix(1.3333333,0,0,1.3333333,156.32933,61.245333)">
      <path
         id="path36"
         d="m 7.5694063,-6.9252109 c 0,-0.023437 -0.023437,-0.09375 -0.1054688,-0.09375 -0.035156,0 -0.046875,0.011719 -0.1523437,0.1171875 l -0.703125,0.7617187 c -0.082031,-0.140625 -0.5390625,-0.8789062 -1.6523438,-0.8789062 -2.2148437,0 -4.453125,2.203125 -4.453125,4.5117187 0,1.64062501 1.171875,2.73046876 2.6953125,2.73046876 0.8671875,0 1.6171875,-0.3984375 2.1445313,-0.85546875 0.9375,-0.82031251 1.1015625,-1.72265621 1.1015625,-1.75781251 0,-0.1054687 -0.1054688,-0.1054687 -0.1171875,-0.1054687 -0.058594,0 -0.1171875,0.023437 -0.1289063,0.1054687 -0.09375,0.2929688 -0.3164062,0.9960938 -1.0078125,1.57031251 -0.6914062,0.5625 -1.3125,0.7265625 -1.8398437,0.7265625 -0.890625,0 -1.9453125,-0.515625 -1.9453125,-2.06250001 0,-0.5742187 0.2109375,-2.1914062 1.2070312,-3.3515625 0.609375,-0.703125 1.5351563,-1.2070312 2.4257813,-1.2070312 1.0195312,0 1.6054687,0.7734375 1.6054687,1.921875 0,0.3984375 -0.035156,0.4101562 -0.035156,0.5039062 0,0.1054688 0.1171875,0.1054688 0.1523437,0.1054688 0.1289063,0 0.1289063,-0.023437 0.1757813,-0.1992188 z m 0,0"
         style="fill:#000000;fill-opacity:1;fill-rule:nonzero;stroke:none" />
      <path
         id="path37"
         d="m 10.636789,0.22908594 h -0.234375 c -0.02344,0.15234375 -0.08203,0.5625 -0.175781,0.6328125 -0.05859,0.0351563 -0.5976564,0.0351563 -0.6914064,0.0351563 H 8.2461641 c 0.7382812,-0.64453125 0.984375,-0.84375 1.3945312,-1.171875 0.5156247,-0.41015625 0.9960937,-0.84374994 0.9960937,-1.49999994 0,-0.8437501 -0.7382812,-1.3593751 -1.6289062,-1.3593751 -0.8671875,0 -1.453125,0.609375 -1.453125,1.2421876 0,0.3632812 0.3046875,0.3984375 0.375,0.3984375 0.1640625,0 0.375,-0.1171875 0.375,-0.375 0,-0.1289063 -0.058594,-0.3632814 -0.421875,-0.3632814 0.2226563,-0.5039062 0.6914063,-0.65625 1.0195313,-0.65625 0.703125,0 1.0664062,0.5507813 1.0664062,1.1132813 0,0.609375 -0.4335937,1.08984379 -0.65625,1.33593754 l -1.6875,1.66406246 c -0.070312,0.058594 -0.070312,0.070312 -0.070312,0.2695312 H 10.43757 Z m 0,0"
         style="fill:#000000;fill-opacity:1;fill-rule:nonzero;stroke:none" />
    </g>
    <g
       id="g37"
       aria-label="u&#10;0"
       transform="matrix(1.3333333,0,0,1.3333333,192.37733,93.508)">
      <path
         id="path38"
         d="m 3.4933672,-0.56264063 c 0.1054687,0.41015625 0.4570312,0.66796875 0.8789062,0.66796875 0.3515625,0 0.5742188,-0.22265625 0.7382813,-0.5390625 0.1757812,-0.36328125 0.3046875,-0.97265622 0.3046875,-0.99609372 0,-0.09375 -0.09375,-0.09375 -0.1289063,-0.09375 -0.09375,0 -0.1054687,0.035156 -0.140625,0.1757812 -0.1289062,0.56250002 -0.328125,1.24218752 -0.7382812,1.24218752 -0.2109375,0 -0.3164063,-0.12890625 -0.3164063,-0.45703125 0,-0.22265625 0.1289063,-0.69140627 0.1992188,-1.04296877 l 0.28125,-1.078125 c 0.035156,-0.140625 0.1289062,-0.5273437 0.1757812,-0.6679687 0.046875,-0.234375 0.140625,-0.609375 0.140625,-0.6679688 0,-0.1875 -0.140625,-0.2695312 -0.28125,-0.2695312 -0.058594,0 -0.3164062,0 -0.3867187,0.3398437 -0.1992188,0.7265625 -0.6328125,2.4726563 -0.75,3.00000002 -0.011719,0.046875 -0.4101563,0.84375 -1.1367188,0.84375 -0.515625,0 -0.6210937,-0.45703125 -0.6210937,-0.8203125 0,-0.56250002 0.28125,-1.34765622 0.5390625,-2.02734372 0.1171875,-0.3046875 0.1757812,-0.4453125 0.1757812,-0.6328125 0,-0.4453125 -0.328125,-0.8203125 -0.8203125,-0.8203125 -0.94921871,0 -1.31249996,1.453125 -1.31249996,1.5351562 0,0.1054688 0.09375,0.1054688 0.1171875,0.1054688 0.09375,0 0.10546875,-0.023437 0.15234375,-0.1875 0.2578125,-0.8671875 0.63281251,-1.2304688 1.00781251,-1.2304688 0.09375,0 0.2578125,0.011719 0.2578125,0.328125 0,0.234375 -0.1171875,0.5273438 -0.1757813,0.6796875 -0.3632812,0.984375 -0.5742187,1.6054688 -0.5742187,2.0859375 0,0.94921877 0.6796875,1.19531252 1.21875,1.19531252 0.65625,0 1.0195312,-0.4453125 1.1953125,-0.66796875 z m 0,0"
         style="fill:#000000;fill-opacity:1;fill-rule:nonzero;stroke:none" />
      <path
         id="path39"
         d="m 9.3029375,-0.7325625 c 0,-0.7617188 -0.09375,-1.3125 -0.4101562,-1.8046875 C 8.670125,-2.8536563 8.24825,-3.1349063 7.68575,-3.1349063 c -1.6171875,0 -1.6171875,1.8984375 -1.6171875,2.4023438 0,0.50390625 0,2.3671875 1.6171875,2.3671875 1.6171875,0 1.6171875,-1.86328125 1.6171875,-2.3671875 z M 7.68575,1.4354062 c -0.3164062,0 -0.75,-0.1875 -0.890625,-0.7617187 -0.09375,-0.41015625 -0.09375,-0.984375 -0.09375,-1.5 0,-0.5039063 0,-1.03125 0.1054688,-1.4179688 C 6.9591875,-2.7950625 7.4045,-2.9356875 7.68575,-2.9356875 c 0.375,0 0.7382813,0.2226562 0.8671875,0.6328125 0.1054688,0.375 0.1171875,0.8789062 0.1171875,1.4765625 0,0.515625 0,1.04296875 -0.09375,1.4765625 C 8.43575,1.2830625 7.967,1.4354062 7.68575,1.4354062 Z m 0,0"
         style="fill:#000000;fill-opacity:1;fill-rule:nonzero;stroke:none" />
    </g>
  </g>
</svg>
