<?xml version="1.0" encoding="UTF-8" standalone="no"?>
<!-- Created with Inkscape (http://www.inkscape.org/) -->

<svg
   version="1.1"
   id="svg1"
   width="350.50668"
   height="261.82666"
   viewBox="0 0 350.50668 261.82666"
   sodipodi:docname="23-24-2-电路与电子学基础-期末（A卷）-题图6.pdf"
   xmlns:inkscape="http://www.inkscape.org/namespaces/inkscape"
   xmlns:sodipodi="http://sodipodi.sourceforge.net/DTD/sodipodi-0.dtd"
   xmlns="http://www.w3.org/2000/svg"
   xmlns:svg="http://www.w3.org/2000/svg">
  <defs
     id="defs1" />
  <sodipodi:namedview
     id="namedview1"
     pagecolor="#ffffff"
     bordercolor="#111111"
     borderopacity="1"
     inkscape:showpageshadow="0"
     inkscape:pageopacity="0"
     inkscape:pagecheckerboard="1"
     inkscape:deskcolor="#d1d1d1">
    <inkscape:page
       x="0"
       y="0"
       inkscape:label="1"
       id="page1"
       width="350.50668"
       height="261.82666"
       margin="0"
       bleed="0" />
  </sodipodi:namedview>
  <g
     id="g1"
     inkscape:groupmode="layer"
     inkscape:label="1">
    <path
       id="path1"
       d="m 0,0 h -25.51212 l 2e-5,-35.15007 m 0,-31.74838 -2e-5,-35.15009"
       style="fill:none;stroke:#000000;stroke-width:0.3985;stroke-linecap:butt;stroke-linejoin:miter;stroke-miterlimit:10;stroke-dasharray:none;stroke-opacity:1"
       transform="matrix(1.3333333,0,0,-1.3333333,179.05333,112.004)" />
    <path
       id="path2"
       d="M 23.81145,22.0263 V 8.73067 L 11.90573,3.27391"
       style="fill:none;stroke:#000000;stroke-width:0.3985;stroke-linecap:butt;stroke-linejoin:miter;stroke-miterlimit:10;stroke-dasharray:none;stroke-opacity:1"
       transform="matrix(1.3333333,0,0,-1.3333333,179.05333,112.004)" />
    <path
       id="path3"
       d="M 11.90573,8.73067 V -8.73067"
       style="fill:none;stroke:#000000;stroke-width:0.797;stroke-linecap:butt;stroke-linejoin:miter;stroke-miterlimit:10;stroke-dasharray:none;stroke-opacity:1"
       transform="matrix(1.3333333,0,0,-1.3333333,179.05333,112.004)" />
    <path
       id="path4"
       d="M 11.90573,-3.27391 23.81145,-8.73067 V -22.0263"
       style="fill:none;stroke:#000000;stroke-width:0.3985;stroke-linecap:butt;stroke-linejoin:miter;stroke-miterlimit:10;stroke-dasharray:none;stroke-opacity:1"
       transform="matrix(1.3333333,0,0,-1.3333333,179.05333,112.004)" />
    <path
       id="path5"
       d="m 16.0992,-5.19592 0.95274,2.07878 3.6927,-4.20789 -5.5982,0.05033 z"
       style="fill:#000000;fill-opacity:1;fill-rule:nonzero;stroke:none"
       transform="matrix(1.3333333,0,0,-1.3333333,179.05333,112.004)" />
    <path
       id="path6"
       d="M 11.90573,0 H -0.19925"
       style="fill:none;stroke:#000000;stroke-width:0.3985;stroke-linecap:butt;stroke-linejoin:miter;stroke-miterlimit:10;stroke-dasharray:none;stroke-opacity:1"
       transform="matrix(1.3333333,0,0,-1.3333333,179.05333,112.004)" />
    <path
       id="path7"
       d="m 4.2526797,-6.0466484 c 0.070312,-0.28125 0.1054687,-0.3398438 0.234375,-0.3632813 0.082031,-0.023437 0.4101562,-0.023437 0.6210937,-0.023437 1.0078125,0 1.453125,0.035156 1.453125,0.8203125 0,0.140625 -0.035156,0.5273438 -0.082031,0.796875 0,0.035156 -0.023437,0.1523438 -0.023437,0.1875 0,0.058594 0.023437,0.1289063 0.1171875,0.1289063 0.1054687,0 0.1289062,-0.082031 0.1523437,-0.234375 l 0.2695313,-1.734375 c 0.011719,-0.035156 0.011719,-0.140625 0.011719,-0.1640625 0,-0.1054688 -0.09375,-0.1054688 -0.2695312,-0.1054688 H 1.2175234 c -0.24609371,0 -0.25781246,0 -0.31640621,0.1992188 l -0.59765625,1.7460937 c -0.0117188,0.023437 -0.0703125,0.1640625 -0.0703125,0.1757813 0,0.070312 0.0585938,0.1171875 0.12890625,0.1171875 0.09375,0 0.10546875,-0.046875 0.1640625,-0.2109375 0.53906251,-1.546875 0.79687501,-1.7226563 2.27343751,-1.7226563 h 0.3867187 c 0.28125,0 0.28125,0.035156 0.28125,0.1171875 0,0.058594 -0.035156,0.1757813 -0.046875,0.2109375 l -1.3242187,5.32031251 c -0.09375,0.36328125 -0.1289063,0.48046875 -1.19531251,0.48046875 -0.3515625,0 -0.41015625,0 -0.41015625,0.1875 0,0.1171875025 0.10546875,0.1171875025 0.1640625,0.1171875025 0.26953125,0 0.55078126,-0.0234375025 0.82031246,-0.0234375025 0.28125,0 0.5625,-0.01171875 0.84375,-0.01171875 0.28125,0 0.5625,0.01171875 0.8320313,0.01171875 0.28125,0 0.5859375,0.0234375025 0.8671875,0.0234375025 0.09375,0 0.2109375,0 0.2109375,-0.1992187525 0,-0.10546875 -0.082031,-0.10546875 -0.3398438,-0.10546875 -0.2460937,0 -0.375,0 -0.6328125,-0.0234375 -0.2929687,-0.0351563 -0.3632812,-0.0585938 -0.3632812,-0.22265625 0,-0.0117188 0,-0.0585938 0.035156,-0.2109375 z m 0,0"
       style="fill:#000000;fill-opacity:1;fill-rule:nonzero;stroke:none"
       aria-label="T"
       transform="matrix(1.3333333,0,0,1.3333333,210.95867,116.54267)" />
    <path
       id="path8"
       d="m -31.46495,-66.89845 v 31.74838 h 11.9057 v -31.74838 z"
       style="fill:none;stroke:#000000;stroke-width:0.797;stroke-linecap:butt;stroke-linejoin:miter;stroke-miterlimit:10;stroke-dasharray:none;stroke-opacity:1"
       transform="matrix(1.3333333,0,0,-1.3333333,179.05333,112.004)" />
    <path
       id="path9"
       d="m -23.92497,0 c 0,0.87656 -0.71059,1.58714 -1.58715,1.58714 -0.87657,0 -1.58715,-0.71058 -1.58715,-1.58714 0,-0.87656 0.71058,-1.58714 1.58715,-1.58714 0.87656,0 1.58715,0.71058 1.58715,1.58714 z"
       style="fill:#000000;fill-opacity:1;fill-rule:nonzero;stroke:#000000;stroke-width:0.3985;stroke-linecap:butt;stroke-linejoin:miter;stroke-miterlimit:10;stroke-dasharray:none;stroke-opacity:1"
       transform="matrix(1.3333333,0,0,-1.3333333,179.05333,112.004)" />
    <g
       id="g9"
       aria-label="R&#10;B2"
       transform="matrix(1.3333333,0,0,1.3333333,109.63467,182.89867)">
      <path
         id="path10"
         d="m 3.7368906,-6.1173594 c 0.058594,-0.234375 0.082031,-0.3398437 0.28125,-0.3632812 0.082031,-0.011719 0.3984375,-0.011719 0.5976563,-0.011719 0.7148437,0 1.8164062,0 1.8164062,0.984375 0,0.3398438 -0.1523437,1.0195313 -0.5507812,1.4179688 -0.2578125,0.2578125 -0.7851563,0.5742187 -1.6757813,0.5742187 H 3.0923594 Z m 1.4296875,2.7304688 c 1.0078125,-0.2226563 2.1914063,-0.9140625 2.1914063,-1.921875 0,-0.8554688 -0.890625,-1.5 -2.203125,-1.5 H 2.3189219 c -0.1992188,0 -0.2929688,0 -0.2929688,0.1992187 0,0.1171875 0.09375,0.1171875 0.28125,0.1171875 0.023437,0 0.2109375,0 0.3867188,0.011719 0.1757812,0.023437 0.2578125,0.035156 0.2578125,0.1640625 0,0.035156 0,0.070312 -0.035156,0.1875 l -1.3359375,5.35546873 c -0.09375,0.38671875 -0.1171875,0.46875 -0.90234372,0.46875 -0.17578125,0 -0.26953125,0 -0.26953125,0.19921875 0,0.105468745 0.1171875,0.105468745 0.140625,0.105468745 0.28125,0 0.97265627,-0.035156245 1.25390627,-0.035156245 0.28125,0 0.984375,0.035156245 1.265625,0.035156245 0.082031,0 0.1992187,0 0.1992187,-0.199218745 0,-0.10546875 -0.09375,-0.10546875 -0.28125,-0.10546875 -0.3632812,0 -0.6445312,0 -0.6445312,-0.1875 0,-0.0585937 0.011719,-0.10546875 0.023437,-0.1640625 l 0.65625,-2.63671873 h 1.1953125 c 0.9023437,0 1.078125,0.5507812 1.078125,0.9023437 0,0.1523438 -0.082031,0.4570313 -0.140625,0.6914063 -0.070312,0.2695312 -0.1523438,0.6445312 -0.1523438,0.84374998 0,1.078125 1.1953125,1.078125 1.3242188,1.078125 0.84375,0 1.1953125,-1.0078125 1.1953125,-1.1484375 0,-0.11718748 -0.1171875,-0.11718748 -0.1171875,-0.11718748 -0.09375,0 -0.1171875,0.0703125 -0.1289063,0.14062498 -0.2578125,0.73828125 -0.6796875,0.902343745 -0.9140625,0.902343745 -0.328125,0 -0.3984375,-0.222656245 -0.3984375,-0.609374995 0,-0.3046875 0.058594,-0.82031253 0.1054688,-1.13671873 0.011719,-0.140625 0.035156,-0.328125 0.035156,-0.46875 0,-0.7617188 -0.6679687,-1.078125 -0.9374996,-1.1718752 z m 0,0"
         style="fill:#000000;fill-opacity:1;fill-rule:nonzero;stroke:none" />
      <path
         id="path11"
         d="M 8.8872813,0.95490625 C 8.8286875,1.1892813 8.8169688,1.247875 8.2779063,1.247875 c -0.1171875,0 -0.2109375,0 -0.2109375,0.140625 0,0.1054688 0.082031,0.1054688 0.2109375,0.1054688 h 2.6953127 c 1.171875,0 2.074219,-0.79687505 2.074219,-1.4882813 0,-0.50390625 -0.457032,-0.92578125 -1.195313,-0.99609375 C 12.695875,-1.1544687 13.399,-1.6818125 13.399,-2.2794687 c 0,-0.5273438 -0.539062,-0.984375 -1.441406,-0.984375 H 9.414625 c -0.1289062,0 -0.2226562,0 -0.2226562,0.1523437 0,0.09375 0.082031,0.09375 0.2226562,0.09375 0.011719,0 0.140625,0 0.2695313,0.011719 0.140625,0.011719 0.1640625,0.035156 0.1640625,0.1054687 0,0.011719 0,0.046875 -0.035156,0.1523438 z M 10.000563,-1.0841562 10.434156,-2.783375 c 0.04687,-0.2109375 0.05859,-0.234375 0.351563,-0.234375 h 1.054687 c 0.714844,0 0.878907,0.46875 0.878907,0.7382813 0,0.5625 -0.632813,1.1953125 -1.570313,1.1953125 z M 9.6724375,1.247875 c -0.2226562,0 -0.2226562,-0.011719 -0.2226562,-0.070312 0,-0.011719 0,-0.046875 0.023437,-0.1523437 L 9.9536875,-0.8849375 H 11.43025 c 0.65625,0 0.914063,0.43359375 0.914063,0.84375 0,0.6796875 -0.714844,1.2890625 -1.558594,1.2890625 z m 0,0"
         style="fill:#000000;fill-opacity:1;fill-rule:nonzero;stroke:none" />
      <path
         id="path12"
         d="m 17.439039,0.22834375 h -0.234375 c -0.02344,0.15234375 -0.08203,0.5625 -0.175781,0.6328125 -0.05859,0.0351563 -0.597656,0.0351563 -0.691406,0.0351563 h -1.289063 c 0.738281,-0.64453125 0.984375,-0.84375 1.394531,-1.171875 0.515625,-0.41015625 0.996094,-0.84374995 0.996094,-1.49999995 0,-0.84375 -0.738281,-1.359375 -1.628906,-1.359375 -0.867188,0 -1.453125,0.609375 -1.453125,1.2421875 0,0.3632813 0.304687,0.3984375 0.375,0.3984375 0.164062,0 0.375,-0.1171875 0.375,-0.375 0,-0.1289062 -0.05859,-0.3632812 -0.421875,-0.3632812 0.222656,-0.5039063 0.691406,-0.65625 1.019531,-0.65625 0.703125,0 1.066406,0.5507812 1.066406,1.1132812 0,0.609375 -0.433593,1.0898437 -0.65625,1.33593745 l -1.6875,1.66406255 c -0.07031,0.058594 -0.07031,0.070312 -0.07031,0.2695313 h 2.882812 z m 0,0"
         style="fill:#000000;fill-opacity:1;fill-rule:nonzero;stroke:none" />
    </g>
    <path
       id="path13"
       d="M 102.04854,76.53639 H 38.2682 m 0,0 h -63.78032 l 2e-5,-22.39401 m 0,-31.74838 -2e-5,-22.394 h -34.29972 m -7.93696,0 h -34.29974 v -9.63792 m 0,-31.74838 v -9.63796 -13.60642 m 0,-23.81143 v -13.60643 h 204.09708 v 46.1201 m 0,31.74839 v 46.1201 L 66.89839,21.8893 M 58.96156,21.87779 23.81145,21.82706 23.74002,33.3085 M 23.5429,65.05495 23.4715,76.53639"
       style="fill:none;stroke:#000000;stroke-width:0.3985;stroke-linecap:butt;stroke-linejoin:miter;stroke-miterlimit:10;stroke-dasharray:none;stroke-opacity:1"
       transform="matrix(1.3333333,0,0,-1.3333333,179.05333,112.004)" />
    <g
       id="g13"
       aria-label="U&#10;CC"
       transform="matrix(1.3333333,0,0,1.3333333,319.81067,13.497333)">
      <path
         id="path14"
         d="m 6.3295,-5.7548359 c 0.09375,-0.4101563 0.28125,-0.7148438 1.078125,-0.7382813 0.046875,0 0.1640625,-0.011719 0.1640625,-0.1992187 0,-0.011719 0,-0.1171875 -0.1289062,-0.1171875 -0.328125,0 -0.6796875,0.035156 -1.0195313,0.035156 -0.3398437,0 -0.703125,-0.035156 -1.03125,-0.035156 -0.058594,0 -0.1757812,0 -0.1757812,0.1992187 0,0.1171875 0.09375,0.1171875 0.1757812,0.1171875 0.5625,0.011719 0.6796875,0.2109375 0.6796875,0.4335938 0,0.035156 -0.023437,0.1757812 -0.035156,0.2109375 l -0.890625,3.5507812 c -0.3398438,1.33593751 -1.4882813,2.20312501 -2.484375,2.20312501 -0.6796875,0 -1.21875,-0.43359375 -1.21875,-1.28906251 0,-0.023437 0,-0.3398437 0.1171875,-0.7734375 l 0.9609375,-3.8789062 c 0.09375,-0.3632813 0.1054687,-0.4570313 0.8320312,-0.4570313 0.2695313,0 0.3398438,0 0.3398438,-0.1992187 0,-0.1171875 -0.1054688,-0.1171875 -0.140625,-0.1171875 -0.2695313,0 -0.9960938,0.035156 -1.265625,0.035156 -0.2929688,0 -0.9960938,-0.035156 -1.28906255,-0.035156 -0.0820313,0 -0.1875,0 -0.1875,0.1992187 0,0.1171875 0.09375,0.1171875 0.28125005,0.1171875 0.011719,0 0.2109375,0 0.375,0.011719 0.1757812,0.023437 0.2695312,0.035156 0.2695312,0.1640625 0,0.058594 -0.1054687,0.4804687 -0.1757812,0.703125 l -0.2109375,0.8789062 c -0.09375,0.3867188 -0.5742188,2.2734375 -0.60937505,2.4609375 -0.0703125,0.28125 -0.0703125,0.4335938 -0.0703125,0.5742188 0,1.21874996 0.90234375,1.92187496 1.95703125,1.92187496 1.2539063,0 2.484375,-1.125 2.8125,-2.44921876 z m 0,0"
         style="fill:#000000;fill-opacity:1;fill-rule:nonzero;stroke:none" />
      <path
         id="path15"
         d="m 12.683992,-3.3231953 c 0,-0.035156 -0.02344,-0.082031 -0.09375,-0.082031 -0.04687,0 -0.07031,0.011719 -0.128906,0.082031 l -0.503906,0.5390625 c -0.07031,-0.082031 -0.457032,-0.6210938 -1.3125,-0.6210938 -1.6992191,0 -3.3515628,1.5 -3.3515628,3.07031254 0,1.13671875 0.890625,1.96874996 2.1328125,1.96874996 0.375,0 1.0546873,-0.082031 1.7695313,-0.67968746 0.550781,-0.46875 0.703125,-1.078125 0.703125,-1.13671875 0,-0.09375 -0.08203,-0.09375 -0.117188,-0.09375 -0.09375,0 -0.105468,0.0351563 -0.128906,0.1171875 -0.28125,0.94921875 -1.265625,1.53515621 -2.1093748,1.53515621 -0.7382813,0 -1.5585938,-0.38671871 -1.5585938,-1.48828121 0,-0.2109375 0.046875,-1.31249999 0.8554688,-2.19140629 0.4804687,-0.5273437 1.2070308,-0.8554687 1.8749998,-0.8554687 0.808594,0 1.277344,0.5859375 1.277344,1.3710937 0,0.1875 -0.02344,0.2460938 -0.02344,0.28125 0,0.09375 0.09375,0.09375 0.128907,0.09375 0.117187,0 0.117187,-0.023437 0.152343,-0.1523437 z m 6.199219,0 c 0,-0.035156 -0.02344,-0.082031 -0.09375,-0.082031 -0.04687,0 -0.07031,0.011719 -0.128906,0.082031 l -0.503907,0.5390625 c -0.07031,-0.082031 -0.457031,-0.6210938 -1.3125,-0.6210938 -1.699218,0 -3.351562,1.5 -3.351562,3.07031254 0,1.13671875 0.890625,1.96874996 2.132812,1.96874996 0.375,0 1.054688,-0.082031 1.769532,-0.67968746 0.550781,-0.46875 0.703125,-1.078125 0.703125,-1.13671875 0,-0.09375 -0.08203,-0.09375 -0.117188,-0.09375 -0.09375,0 -0.105469,0.0351563 -0.128906,0.1171875 -0.28125,0.94921875 -1.265625,1.53515621 -2.109375,1.53515621 -0.738281,0 -1.558594,-0.38671871 -1.558594,-1.48828121 0,-0.2109375 0.04687,-1.31249999 0.855469,-2.19140629 0.480469,-0.5273437 1.207031,-0.8554687 1.875,-0.8554687 0.808594,0 1.277344,0.5859375 1.277344,1.3710937 0,0.1875 -0.02344,0.2460938 -0.02344,0.28125 0,0.09375 0.09375,0.09375 0.128906,0.09375 0.117188,0 0.117188,-0.023437 0.152344,-0.1523437 z m 0,0"
         style="fill:#000000;fill-opacity:1;fill-rule:nonzero;stroke:none" />
    </g>
    <path
       id="path16"
       d="m 103.63568,76.53639 c 0,0.87656 -0.71058,1.58715 -1.58714,1.58715 -0.87657,0 -1.58716,-0.71059 -1.58716,-1.58715 0,-0.87655 0.71059,-1.58714 1.58716,-1.58714 0.87656,0 1.58714,0.71059 1.58714,1.58714 z"
       style="fill:#ffffff;fill-opacity:1;fill-rule:nonzero;stroke:#000000;stroke-width:0.3985;stroke-linecap:butt;stroke-linejoin:miter;stroke-miterlimit:10;stroke-dasharray:none;stroke-opacity:1"
       transform="matrix(1.3333333,0,0,-1.3333333,179.05333,112.004)" />
    <path
       id="path17"
       d="m -31.46495,22.394 v 31.74838 h 11.9057 V 22.394 Z"
       style="fill:none;stroke:#000000;stroke-width:0.797;stroke-linecap:butt;stroke-linejoin:miter;stroke-miterlimit:10;stroke-dasharray:none;stroke-opacity:1"
       transform="matrix(1.3333333,0,0,-1.3333333,179.05333,112.004)" />
    <g
       id="g17"
       aria-label="R&#10;B1"
       transform="matrix(1.3333333,0,0,1.3333333,109.63467,63.842667)">
      <path
         id="path18"
         d="m 3.7368906,-6.116375 c 0.058594,-0.234375 0.082031,-0.3398437 0.28125,-0.3632812 0.082031,-0.011719 0.3984375,-0.011719 0.5976563,-0.011719 0.7148437,0 1.8164062,0 1.8164062,0.984375 0,0.3398438 -0.1523437,1.0195313 -0.5507812,1.4179688 -0.2578125,0.2578125 -0.7851563,0.5742187 -1.6757813,0.5742187 H 3.0923594 Z m 1.4296875,2.7304688 c 1.0078125,-0.2226563 2.1914063,-0.9140625 2.1914063,-1.921875 0,-0.8554688 -0.890625,-1.5 -2.203125,-1.5 H 2.3189219 c -0.1992188,0 -0.2929688,0 -0.2929688,0.1992187 0,0.1171875 0.09375,0.1171875 0.28125,0.1171875 0.023437,0 0.2109375,0 0.3867188,0.011719 0.1757812,0.023437 0.2578125,0.035156 0.2578125,0.1640625 0,0.035156 0,0.070312 -0.035156,0.1875 L 1.5806406,-0.772625 c -0.09375,0.38671875 -0.1171875,0.46875 -0.90234372,0.46875 -0.17578125,0 -0.26953125,0 -0.26953125,0.19921875 0,0.10546875 0.1171875,0.10546875 0.140625,0.10546875 0.28125,0 0.97265627,-0.03515625 1.25390627,-0.03515625 0.28125,0 0.984375,0.03515625 1.265625,0.03515625 0.082031,0 0.1992187,0 0.1992187,-0.19921875 0,-0.10546875 -0.09375,-0.10546875 -0.28125,-0.10546875 -0.3632812,0 -0.6445312,0 -0.6445312,-0.1875 0,-0.0585938 0.011719,-0.10546875 0.023437,-0.1640625 l 0.65625,-2.6367187 h 1.1953125 c 0.9023437,0 1.078125,0.5507812 1.078125,0.9023437 0,0.1523438 -0.082031,0.4570313 -0.140625,0.6914063 -0.070312,0.2695312 -0.1523438,0.6445312 -0.1523438,0.84374995 0,1.078125 1.1953125,1.078125 1.3242188,1.078125 0.84375,0 1.1953125,-1.0078125 1.1953125,-1.1484375 0,-0.11718745 -0.1171875,-0.11718745 -0.1171875,-0.11718745 -0.09375,0 -0.1171875,0.0703124 -0.1289063,0.14062495 C 7.0181406,-0.16325 6.5962656,8.125e-4 6.3618906,8.125e-4 c -0.328125,0 -0.3984375,-0.22265625 -0.3984375,-0.609375 0,-0.3046875 0.058594,-0.8203125 0.1054688,-1.1367187 0.011719,-0.140625 0.035156,-0.328125 0.035156,-0.46875 0,-0.7617188 -0.6679687,-1.078125 -0.9374998,-1.171875 z m 0,0"
         style="fill:#000000;fill-opacity:1;fill-rule:nonzero;stroke:none" />
      <path
         id="path19"
         d="M 8.8872813,0.95589063 C 8.8286875,1.1902656 8.8169688,1.2488594 8.2779063,1.2488594 c -0.1171875,0 -0.2109375,0 -0.2109375,0.140625 0,0.1054687 0.082031,0.1054687 0.2109375,0.1054687 h 2.6953127 c 1.171875,0 2.074219,-0.79687497 2.074219,-1.48828122 0,-0.50390625 -0.457032,-0.92578125 -1.195313,-0.99609375 C 12.695875,-1.1534844 13.399,-1.6808281 13.399,-2.2784844 c 0,-0.5273437 -0.539062,-0.984375 -1.441406,-0.984375 H 9.414625 c -0.1289062,0 -0.2226562,0 -0.2226562,0.1523438 0,0.09375 0.082031,0.09375 0.2226562,0.09375 0.011719,0 0.140625,0 0.2695313,0.011719 0.140625,0.011719 0.1640625,0.035156 0.1640625,0.1054688 0,0.011719 0,0.046875 -0.035156,0.1523437 z m 1.1132817,-2.03906253 0.433593,-1.6992187 c 0.04687,-0.2109375 0.05859,-0.234375 0.351563,-0.234375 h 1.054687 c 0.714844,0 0.878907,0.46875 0.878907,0.7382812 0,0.5625 -0.632813,1.1953125 -1.570313,1.1953125 z M 9.6724375,1.2488594 c -0.2226562,0 -0.2226562,-0.011719 -0.2226562,-0.070312 0,-0.011719 0,-0.046875 0.023437,-0.1523438 L 9.9536875,-0.88395312 H 11.43025 c 0.65625,0 0.914063,0.43359375 0.914063,0.84375 0,0.6796875 -0.714844,1.28906252 -1.558594,1.28906252 z m 0,0"
         style="fill:#000000;fill-opacity:1;fill-rule:nonzero;stroke:none" />
      <path
         id="path20"
         d="m 16.255445,-2.9347344 c 0,-0.1875 -0.01172,-0.1992187 -0.210937,-0.1992187 -0.445313,0.4335937 -1.078125,0.4453125 -1.359375,0.4453125 v 0.2460937 c 0.164062,0 0.621094,0 1.007812,-0.1875 v 3.55078128 c 0,0.23437502 0,0.32812502 -0.691406,0.32812502 h -0.269531 v 0.2460937 c 0.128906,-0.011719 0.984375,-0.023437 1.242187,-0.023437 0.210938,0 1.089844,0.011719 1.242188,0.023437 V 1.2488594 H 16.95857 c -0.703125,0 -0.703125,-0.09375 -0.703125,-0.32812502 z m 0,0"
         style="fill:#000000;fill-opacity:1;fill-rule:nonzero;stroke:none" />
    </g>
    <path
       id="path21"
       d="M -59.81184,-11.90572 V 11.90572 M -67.7488,-11.90572 V 11.90572"
       style="fill:none;stroke:#000000;stroke-width:0.797;stroke-linecap:butt;stroke-linejoin:miter;stroke-miterlimit:10;stroke-dasharray:none;stroke-opacity:1"
       transform="matrix(1.3333333,0,0,-1.3333333,179.05333,112.004)" />
    <g
       id="g21"
       aria-label="C&#10;1"
       transform="matrix(1.3333333,0,0,1.3333333,86.286667,90.248)">
      <path
         id="path22"
         d="m 7.5691797,-6.9272109 c 0,-0.023437 -0.023437,-0.09375 -0.1054688,-0.09375 -0.035156,0 -0.046875,0.011719 -0.1523437,0.1171875 l -0.703125,0.7617187 c -0.082031,-0.140625 -0.5390625,-0.8789062 -1.6523438,-0.8789062 -2.2148437,0 -4.45312496,2.203125 -4.45312496,4.5117187 0,1.64062501 1.17187496,2.73046876 2.69531246,2.73046876 0.8671875,0 1.6171875,-0.3984375 2.1445313,-0.85546875 0.9375,-0.82031251 1.1015625,-1.72265621 1.1015625,-1.75781251 0,-0.1054687 -0.1054688,-0.1054687 -0.1171875,-0.1054687 -0.058594,0 -0.1171875,0.023437 -0.1289063,0.1054687 -0.09375,0.2929688 -0.3164062,0.9960938 -1.0078125,1.57031251 -0.6914062,0.5625 -1.3125,0.7265625 -1.8398437,0.7265625 -0.890625,0 -1.9453125,-0.515625 -1.9453125,-2.06250001 0,-0.5742187 0.2109375,-2.1914062 1.2070312,-3.3515625 0.609375,-0.703125 1.5351563,-1.2070312 2.4257813,-1.2070312 1.0195312,0 1.6054687,0.7734375 1.6054687,1.921875 0,0.3984375 -0.035156,0.4101562 -0.035156,0.5039062 0,0.1054688 0.1171875,0.1054688 0.1523437,0.1054688 0.1289063,0 0.1289063,-0.023437 0.1757813,-0.1992188 z m 0,0"
         style="fill:#000000;fill-opacity:1;fill-rule:nonzero;stroke:none" />
      <path
         id="path23"
         d="m 9.4529687,-2.9369766 c 0,-0.1875 -0.011719,-0.1992187 -0.2109375,-0.1992187 -0.4453125,0.4335937 -1.078125,0.4453125 -1.359375,0.4453125 v 0.2460937 c 0.1640625,0 0.6210938,0 1.0078125,-0.1875 v 3.55078129 c 0,0.23437501 0,0.32812501 -0.6914062,0.32812501 H 7.9295312 v 0.2460937 c 0.1289063,-0.011719 0.984375,-0.023437 1.2421875,-0.023437 0.2109375,0 1.0898433,0.011719 1.2421873,0.023437 V 1.2466172 h -0.257812 c -0.7031253,0 -0.7031253,-0.09375 -0.7031253,-0.32812501 z m 0,0"
         style="fill:#000000;fill-opacity:1;fill-rule:nonzero;stroke:none" />
    </g>
    <path
       id="path24"
       d="m -108.00139,-41.3863 v 31.74838 h 11.9057 V -41.3863 Z"
       style="fill:none;stroke:#000000;stroke-width:0.797;stroke-linecap:butt;stroke-linejoin:miter;stroke-miterlimit:10;stroke-dasharray:none;stroke-opacity:1"
       transform="matrix(1.3333333,0,0,-1.3333333,179.05333,112.004)" />
    <g
       id="g24"
       aria-label="R&#10;s"
       transform="matrix(1.3333333,0,0,1.3333333,16.346667,148.88267)">
      <path
         id="path25"
         d="m 3.7390234,-6.1170781 c 0.058594,-0.234375 0.082031,-0.3398438 0.28125,-0.3632813 0.082031,-0.011719 0.3984375,-0.011719 0.5976563,-0.011719 0.7148437,0 1.8164062,0 1.8164062,0.984375 0,0.3398437 -0.1523437,1.0195312 -0.5507812,1.4179687 -0.2578125,0.2578125 -0.7851563,0.5742188 -1.6757813,0.5742188 H 3.0944922 Z m 1.4296875,2.7304687 c 1.0078125,-0.2226562 2.1914063,-0.9140625 2.1914063,-1.921875 0,-0.8554687 -0.890625,-1.5 -2.203125,-1.5 H 2.3210547 c -0.1992188,0 -0.2929688,0 -0.2929688,0.1992188 0,0.1171875 0.09375,0.1171875 0.28125,0.1171875 0.023437,0 0.2109375,0 0.3867188,0.011719 0.1757812,0.023437 0.2578125,0.035156 0.2578125,0.1640625 0,0.035156 0,0.070312 -0.035156,0.1875 l -1.3359375,5.35546877 c -0.09375,0.38671875 -0.1171875,0.46875 -0.90234371,0.46875 -0.17578125,0 -0.26953125,0 -0.26953125,0.19921875 0,0.105468755 0.1171875,0.105468755 0.140625,0.105468755 0.28125,0 0.97265626,-0.035156255 1.25390626,-0.035156255 0.28125,0 0.984375,0.035156255 1.265625,0.035156255 0.082031,0 0.1992187,0 0.1992187,-0.199218755 0,-0.10546875 -0.09375,-0.10546875 -0.28125,-0.10546875 -0.3632812,0 -0.6445312,0 -0.6445312,-0.1875 0,-0.0585938 0.011719,-0.10546875 0.023437,-0.1640625 l 0.65625,-2.63671877 H 4.219492 c 0.9023437,0 1.078125,0.5507813 1.078125,0.9023438 0,0.1523437 -0.082031,0.4570312 -0.140625,0.6914062 -0.070312,0.2695313 -0.1523438,0.6445313 -0.1523438,0.84375002 0,1.078125 1.1953125,1.078125 1.3242188,1.078125 0.84375,0 1.1953125,-1.0078125 1.1953125,-1.1484375 0,-0.11718752 -0.1171875,-0.11718752 -0.1171875,-0.11718752 -0.09375,0 -0.1171875,0.0703125 -0.1289063,0.14062502 -0.2578125,0.73828125 -0.6796875,0.902343755 -0.9140625,0.902343755 -0.328125,0 -0.3984375,-0.222656255 -0.3984375,-0.609375005 0,-0.3046875 0.058594,-0.82031247 0.1054688,-1.13671877 0.011719,-0.140625 0.035156,-0.328125 0.035156,-0.46875 0,-0.7617187 -0.6679687,-1.078125 -0.9374996,-1.1718753 z m 0,0"
         style="fill:#000000;fill-opacity:1;fill-rule:nonzero;stroke:none" />
      <path
         id="path26"
         d="m 10.565195,-1.13075 c -0.175781,0.046875 -0.292968,0.1875 -0.292968,0.328125 0,0.1640625 0.140625,0.22265625 0.234375,0.22265625 0.07031,0 0.339843,-0.0351563 0.339843,-0.3984375 0,-0.44531255 -0.503906,-0.59765625 -0.9257809,-0.59765625 -1.0898438,0 -1.2890625,0.796875 -1.2890625,1.0078125 0,0.2578125 0.1523437,0.43359375 0.2460937,0.515625 0.1757813,0.140625 0.3046875,0.1640625 0.7851563,0.24609375 0.1523437,0.0351563 0.5976564,0.1171875 0.5976564,0.46875 0,0.1171875 -0.08203,0.37499995 -0.3750002,0.55078125 -0.2695312,0.1523437 -0.609375,0.1523437 -0.6914062,0.1523437 -0.28125,0 -0.6796875,-0.058594 -0.84375,-0.2929687 0.234375,-0.023437 0.3867187,-0.19921875 0.3867187,-0.3984375 0,-0.1640625 -0.1289062,-0.2578125 -0.2695312,-0.2578125 -0.1992188,0 -0.4101563,0.1640625 -0.4101563,0.46875 0,0.421875 0.4453125,0.6796875 1.125,0.6796875 1.2890622,0 1.5234372,-0.87890625 1.5234372,-1.1484375 0,-0.64453125 -0.703125,-0.7734375 -0.9609372,-0.8203125 -0.070312,-0.0117188 -0.2460937,-0.0351563 -0.28125,-0.0585938 -0.2578125,-0.046875 -0.3867187,-0.1875 -0.3867187,-0.33984375 0,-0.1640625 0.1289062,-0.35156245 0.28125,-0.44531245 0.1875,-0.1289063 0.4335937,-0.140625 0.5507812,-0.140625 0.1406247,0 0.5039067,0.023437 0.6562497,0.2578125 z m 0,0"
         style="fill:#000000;fill-opacity:1;fill-rule:nonzero;stroke:none" />
    </g>
    <path
       id="path27"
       d="m -90.1428,-76.53639 c 0,6.57542 -5.33031,11.90571 -11.90574,11.90571 -6.57541,0 -11.90571,-5.33029 -11.90571,-11.90571 0,-6.57541 5.3303,-11.90572 11.90571,-11.90572 6.57543,0 11.90574,5.33031 11.90574,11.90572 z"
       style="fill:none;stroke:#000000;stroke-width:0.797;stroke-linecap:butt;stroke-linejoin:miter;stroke-miterlimit:10;stroke-dasharray:none;stroke-opacity:1"
       transform="matrix(1.3333333,0,0,-1.3333333,179.05333,112.004)" />
    <path
       id="path28"
       d="M -102.04854,-64.63068 V -88.44211"
       style="fill:none;stroke:#000000;stroke-width:0.797;stroke-linecap:butt;stroke-linejoin:miter;stroke-miterlimit:10;stroke-dasharray:none;stroke-opacity:1"
       transform="matrix(1.3333333,0,0,-1.3333333,179.05333,112.004)" />
    <path
       id="path29"
       d="m 4.0775156,-2.2977969 h 2.7773438 c 0.140625,0 0.328125,0 0.328125,-0.1992187 0,-0.1992188 -0.1875,-0.1992188 -0.328125,-0.1992188 H 4.0775156 v -2.7890625 c 0,-0.1289062 0,-0.328125 -0.1992187,-0.328125 -0.1992188,0 -0.1992188,0.1992188 -0.1992188,0.328125 v 2.7890625 H 0.89001562 c -0.140625,0 -0.328125,0 -0.328125,0.1992188 0,0.1992187 0.1875,0.1992187 0.328125,0.1992187 H 3.6790781 v 2.80078128 c 0,0.12890625 0,0.328125 0.1992188,0.328125 0.1992187,0 0.1992187,-0.19921875 0.1992187,-0.328125 z m 0,0"
       style="fill:#000000;fill-opacity:1;fill-rule:nonzero;stroke:none"
       aria-label="+"
       transform="matrix(1.3333333,0,0,1.3333333,16.868,205.27467)" />
    <path
       id="path30"
       d="m 6.5618906,-2.2963828 c 0.1757813,0 0.3515625,0 0.3515625,-0.1992188 0,-0.1992187 -0.1757812,-0.1992187 -0.3515625,-0.1992187 h -5.390625 c -0.1640625,0 -0.33984373,0 -0.33984373,0.1992187 0,0.1992188 0.17578123,0.1992188 0.33984373,0.1992188 z m 0,0"
       style="fill:#000000;fill-opacity:1;fill-rule:nonzero;stroke:none"
       aria-label="−"
       transform="matrix(1.3333333,0,0,1.3333333,16.868,229.472)" />
    <g
       id="g30"
       aria-label="u&#10;s"
       transform="matrix(1.3333333,0,0,1.3333333,2.6546667,215.916)">
      <path
         id="path31"
         d="m 3.493375,-0.56395313 c 0.1054687,0.41015625 0.4570312,0.66796875 0.8789062,0.66796875 0.3515625,0 0.5742188,-0.22265625 0.7382813,-0.5390625 C 5.2863437,-0.79832813 5.41525,-1.4077031 5.41525,-1.4311406 c 0,-0.09375 -0.09375,-0.09375 -0.1289063,-0.09375 -0.09375,0 -0.1054687,0.035156 -0.140625,0.1757812 -0.1289062,0.56250002 -0.328125,1.24218752 -0.7382812,1.24218752 -0.2109375,0 -0.3164063,-0.12890625 -0.3164063,-0.45703125 0,-0.22265625 0.1289063,-0.69140627 0.1992188,-1.04296877 l 0.28125,-1.078125 c 0.035156,-0.140625 0.1289062,-0.5273437 0.1757812,-0.6679687 0.046875,-0.234375 0.140625,-0.609375 0.140625,-0.6679688 0,-0.1875 -0.140625,-0.2695312 -0.28125,-0.2695312 -0.058594,0 -0.3164062,0 -0.3867187,0.3398437 -0.1992188,0.7265625 -0.6328125,2.4726563 -0.75,3.00000002 -0.011719,0.046875 -0.4101563,0.84375 -1.1367188,0.84375 -0.515625,0 -0.6210937,-0.45703125 -0.6210937,-0.8203125 0,-0.56250002 0.28125,-1.34765622 0.5390625,-2.02734372 0.1171875,-0.3046875 0.1757812,-0.4453125 0.1757812,-0.6328125 0,-0.4453125 -0.328125,-0.8203125 -0.8203125,-0.8203125 -0.9492187,0 -1.31249995,1.453125 -1.31249995,1.5351562 0,0.1054688 0.09375,0.1054688 0.1171875,0.1054688 0.09375,0 0.10546875,-0.023437 0.15234375,-0.1875 C 0.8215,-3.8217656 1.1965,-4.1850469 1.5715,-4.1850469 c 0.09375,0 0.2578125,0.011719 0.2578125,0.328125 0,0.234375 -0.1171875,0.5273438 -0.1757813,0.6796875 -0.3632812,0.984375 -0.5742187,1.6054688 -0.5742187,2.0859375 0,0.94921877 0.6796875,1.19531252 1.21875,1.19531252 0.65625,0 1.0195312,-0.4453125 1.1953125,-0.66796875 z m 0,0"
         style="fill:#000000;fill-opacity:1;fill-rule:nonzero;stroke:none" />
      <path
         id="path32"
         d="m 8.7023594,-1.1323125 c -0.1757813,0.046875 -0.2929688,0.1875 -0.2929688,0.328125 0,0.1640625 0.140625,0.22265625 0.234375,0.22265625 0.070312,0 0.3398438,-0.0351563 0.3398438,-0.3984375 0,-0.44531255 -0.5039063,-0.59765625 -0.9257813,-0.59765625 -1.0898437,0 -1.2890625,0.796875 -1.2890625,1.0078125 0,0.2578125 0.1523438,0.43359375 0.2460938,0.515625 0.1757812,0.140625 0.3046875,0.1640625 0.7851562,0.24609375 0.1523438,0.0351563 0.5976563,0.1171875 0.5976563,0.46875 0,0.1171875 -0.082031,0.37499995 -0.375,0.55078125 -0.2695313,0.1523437 -0.609375,0.1523437 -0.6914063,0.1523437 -0.28125,0 -0.6796875,-0.058594 -0.84375,-0.2929687 0.234375,-0.023437 0.3867188,-0.19921875 0.3867188,-0.3984375 0,-0.1640625 -0.1289063,-0.2578125 -0.2695313,-0.2578125 -0.1992187,0 -0.4101562,0.1640625 -0.4101562,0.46875 0,0.421875 0.4453125,0.6796875 1.125,0.6796875 1.2890625,0 1.5234375,-0.87890625 1.5234375,-1.1484375 0,-0.64453125 -0.703125,-0.7734375 -0.9609375,-0.8203125 -0.070312,-0.0117188 -0.2460938,-0.0351563 -0.28125,-0.0585938 -0.2578125,-0.046875 -0.3867188,-0.1875 -0.3867188,-0.33984375 0,-0.1640625 0.1289063,-0.35156245 0.28125,-0.44531245 0.1875,-0.1289063 0.4335938,-0.140625 0.5507813,-0.140625 0.140625,0 0.5039062,0.023437 0.65625,0.2578125 z m 0,0"
         style="fill:#000000;fill-opacity:1;fill-rule:nonzero;stroke:none" />
    </g>
    <path
       id="path33"
       d="m 108.00139,-24.18005 v -31.74839 h -11.9057 v 31.74839 z"
       style="fill:none;stroke:#000000;stroke-width:0.797;stroke-linecap:butt;stroke-linejoin:miter;stroke-miterlimit:10;stroke-dasharray:none;stroke-opacity:1"
       transform="matrix(1.3333333,0,0,-1.3333333,179.05333,112.004)" />
    <g
       id="g33"
       aria-label="R&#10;L"
       transform="matrix(1.3333333,0,0,1.3333333,286.20267,168.272)">
      <path
         id="path34"
         d="m 3.738625,-6.1161094 c 0.058594,-0.234375 0.082031,-0.3398437 0.28125,-0.3632812 0.082031,-0.011719 0.3984375,-0.011719 0.5976562,-0.011719 0.7148438,0 1.8164063,0 1.8164063,0.984375 0,0.3398438 -0.1523438,1.0195313 -0.5507813,1.4179688 C 5.6253437,-3.8309531 5.098,-3.5145469 4.207375,-3.5145469 H 3.0940937 Z m 1.4296875,2.7304688 c 1.0078125,-0.2226563 2.1914062,-0.9140625 2.1914062,-1.921875 0,-0.8554688 -0.890625,-1.5 -2.203125,-1.5 H 2.3206562 c -0.1992187,0 -0.2929687,0 -0.2929687,0.1992187 0,0.1171875 0.09375,0.1171875 0.28125,0.1171875 0.023437,0 0.2109375,0 0.3867187,0.011719 0.1757813,0.023437 0.2578125,0.035156 0.2578125,0.1640625 0,0.035156 0,0.070312 -0.035156,0.1875 L 1.582375,-0.77235937 c -0.09375,0.38671875 -0.1171875,0.46875 -0.90234375,0.46875 -0.17578125,0 -0.26953125,0 -0.26953125,0.19921875 0,0.10546875 0.1171875,0.10546875 0.140625,0.10546875 0.28125,0 0.9726562,-0.03515625 1.2539062,-0.03515625 0.28125,0 0.984375,0.03515625 1.265625,0.03515625 0.082031,0 0.1992188,0 0.1992188,-0.19921875 0,-0.10546875 -0.09375,-0.10546875 -0.28125,-0.10546875 -0.3632813,0 -0.6445313,0 -0.6445313,-0.1875 0,-0.0585938 0.011719,-0.10546875 0.023437,-0.1640625 l 0.65625,-2.63671873 h 1.1953125 c 0.9023438,0 1.078125,0.5507812 1.078125,0.9023437 0,0.1523438 -0.082031,0.4570313 -0.140625,0.6914063 -0.070312,0.2695312 -0.1523437,0.6445312 -0.1523437,0.84374998 0,1.078125 1.1953125,1.078125 1.3242187,1.078125 0.84375,0 1.1953125,-1.0078125 1.1953125,-1.1484375 0,-0.11718748 -0.1171875,-0.11718748 -0.1171875,-0.11718748 -0.09375,0 -0.1171875,0.0703125 -0.1289062,0.14062498 C 7.019875,-0.16298437 6.598,0.00107813 6.363625,0.00107813 c -0.328125,0 -0.3984375,-0.22265625 -0.3984375,-0.609375 0,-0.3046875 0.058594,-0.82031253 0.1054687,-1.13671873 0.011719,-0.140625 0.035156,-0.328125 0.035156,-0.46875 0,-0.7617188 -0.6679688,-1.078125 -0.9374997,-1.171875 z m 0,0"
         style="fill:#000000;fill-opacity:1;fill-rule:nonzero;stroke:none" />
      <path
         id="path35"
         d="m 10.435891,-2.7000937 c 0.05859,-0.2460938 0.08203,-0.3164063 0.726562,-0.3164063 0.210938,0 0.28125,0 0.28125,-0.1523437 0,-0.011719 0,-0.09375 -0.117187,-0.09375 -0.152344,0 -0.339844,0.011719 -0.515625,0.011719 -0.175782,0.011719 -0.375,0.011719 -0.550782,0.011719 -0.152343,0 -0.3398434,-0.011719 -0.4804684,-0.011719 -0.1523437,0 -0.3164062,-0.011719 -0.4570312,-0.011719 -0.046875,0 -0.1523438,0 -0.1523438,0.1523437 0,0.09375 0.09375,0.09375 0.2226563,0.09375 0.011719,0 0.140625,0 0.2695312,0.011719 0.1523438,0.011719 0.1640625,0.035156 0.1640625,0.1054687 0,0.011719 0,0.046875 -0.035156,0.1523438 L 8.8655781,0.95615625 C 8.8069844,1.1905313 8.7952656,1.249125 8.2562031,1.249125 c -0.1171875,0 -0.2109375,0 -0.2109375,0.140625 0,0.1054688 0.082031,0.1054688 0.2109375,0.1054688 h 3.5039059 c 0.175782,0 0.1875,-0.011719 0.234375,-0.140625 0.07031,-0.1875 0.597657,-1.5351563 0.597657,-1.59375005 0,-0.0234375 -0.01172,-0.09375 -0.117188,-0.09375 -0.08203,0 -0.09375,0.0234375 -0.140625,0.140625 C 12.064797,0.4756875 11.760109,1.249125 10.482766,1.249125 H 9.6976094 c -0.2109375,0 -0.2226563,-0.011719 -0.2226563,-0.070312 0,-0.011719 0,-0.046875 0.023437,-0.1523437 z m 0,0"
         style="fill:#000000;fill-opacity:1;fill-rule:nonzero;stroke:none" />
    </g>
    <path
       id="path36"
       d="m 6.5623906,-2.2964297 c 0.1757813,0 0.3515625,0 0.3515625,-0.1992187 0,-0.1992188 -0.1757812,-0.1992188 -0.3515625,-0.1992188 h -5.390625 c -0.1640625,0 -0.33984373,0 -0.33984373,0.1992188 0,0.1992187 0.17578123,0.1992187 0.33984373,0.1992187 z m 0,0"
       style="fill:#000000;fill-opacity:1;fill-rule:nonzero;stroke:none"
       aria-label="−"
       transform="matrix(1.3333333,0,0,1.3333333,319.61733,224.808)" />
    <path
       id="path37"
       d="m 4.0780156,-2.2976172 h 2.7773438 c 0.140625,0 0.328125,0 0.328125,-0.1992187 0,-0.1992188 -0.1875,-0.1992188 -0.328125,-0.1992188 H 4.0780156 v -2.7890625 c 0,-0.1289062 0,-0.328125 -0.1992187,-0.328125 -0.1992188,0 -0.1992188,0.1992188 -0.1992188,0.328125 v 2.7890625 H 0.89051562 c -0.140625,0 -0.328125,0 -0.328125,0.1992188 0,0.1992187 0.1875,0.1992187 0.328125,0.1992187 H 3.6795781 v 2.80078126 c 0,0.12890625 0,0.328125 0.1992188,0.328125 0.1992187,0 0.1992187,-0.19921875 0.1992187,-0.328125 z m 0,0"
       style="fill:#000000;fill-opacity:1;fill-rule:nonzero;stroke:none"
       aria-label="+"
       transform="matrix(1.3333333,0,0,1.3333333,319.61733,112.65333)" />
    <g
       id="g37"
       aria-label="u&#10;o"
       transform="matrix(1.3333333,0,0,1.3333333,331.004,167.27333)">
      <path
         id="path38"
         d="m 3.4921172,-0.56242187 c 0.1054687,0.41015625 0.4570312,0.66796875 0.8789062,0.66796875 0.3515625,0 0.5742188,-0.22265625 0.7382813,-0.5390625 0.1757812,-0.36328125 0.3046875,-0.97265628 0.3046875,-0.99609378 0,-0.09375 -0.09375,-0.09375 -0.1289063,-0.09375 -0.09375,0 -0.1054687,0.035156 -0.140625,0.1757813 -0.1289062,0.56249998 -0.328125,1.24218748 -0.7382812,1.24218748 -0.2109375,0 -0.3164063,-0.12890625 -0.3164063,-0.45703125 0,-0.22265625 0.1289063,-0.69140623 0.1992188,-1.04296873 l 0.28125,-1.078125 c 0.035156,-0.140625 0.1289062,-0.5273438 0.1757812,-0.6679688 0.046875,-0.234375 0.140625,-0.609375 0.140625,-0.6679687 0,-0.1875 -0.140625,-0.2695313 -0.28125,-0.2695313 -0.058594,0 -0.3164062,0 -0.3867187,0.3398438 -0.1992188,0.7265625 -0.6328125,2.4726562 -0.75,2.99999998 -0.011719,0.046875 -0.4101563,0.84375 -1.1367188,0.84375 -0.515625,0 -0.6210937,-0.45703125 -0.6210937,-0.8203125 0,-0.56249998 0.28125,-1.34765628 0.5390625,-2.02734378 0.1171875,-0.3046875 0.1757812,-0.4453125 0.1757812,-0.6328125 0,-0.4453125 -0.328125,-0.8203125 -0.8203125,-0.8203125 -0.94921871,0 -1.31249996,1.453125 -1.31249996,1.5351563 0,0.1054687 0.09375,0.1054687 0.1171875,0.1054687 0.09375,0 0.10546875,-0.023437 0.15234375,-0.1875 0.2578125,-0.8671875 0.63281251,-1.2304687 1.00781251,-1.2304687 0.09375,0 0.2578125,0.011719 0.2578125,0.328125 0,0.234375 -0.1171875,0.5273437 -0.1757813,0.6796875 -0.3632812,0.984375 -0.5742187,1.6054687 -0.5742187,2.0859375 0,0.94921873 0.6796875,1.19531248 1.21875,1.19531248 0.65625,0 1.0195312,-0.4453125 1.1953125,-0.66796875 z m 0,0"
         style="fill:#000000;fill-opacity:1;fill-rule:nonzero;stroke:none" />
      <path
         id="path39"
         d="m 9.4071562,-0.35734375 c 0,-0.77343745 -0.5742187,-1.21874995 -1.265625,-1.21874995 -1.03125,0 -2.0039062,0.96093745 -2.0039062,1.92187495 0,0.69140625 0.5039062,1.21875005 1.265625,1.21875005 0.9960937,0 2.0039062,-0.9257813 2.0039062,-1.92187505 z M 7.4149687,1.3653125 c -0.3515625,0 -0.703125,-0.2226562 -0.703125,-0.7734375 0,-0.28125 0.140625,-0.9609375 0.4101563,-1.359375 0.2929687,-0.4335937 0.703125,-0.6210937 1.0195312,-0.6210937 0.375,0 0.6914063,0.2578125 0.6914063,0.77343745 0,0.17578125 -0.082031,0.85546875 -0.3867188,1.34765625 -0.2695312,0.4101563 -0.6796875,0.6328125 -1.03125,0.6328125 z m 0,0"
         style="fill:#000000;fill-opacity:1;fill-rule:nonzero;stroke:none" />
    </g>
    <path
       id="path40"
       d="m 66.91565,9.98375 -0.0345,23.81108 M 58.97882,9.97226 58.9443,33.78334"
       style="fill:none;stroke:#000000;stroke-width:0.797;stroke-linecap:butt;stroke-linejoin:miter;stroke-miterlimit:10;stroke-dasharray:none;stroke-opacity:1"
       transform="matrix(1.3333333,0,0,-1.3333333,179.05333,112.004)" />
    <g
       id="g40"
       aria-label="C&#10;2"
       transform="matrix(1.3333333,0,0,1.3333333,255.208,61.070667)">
      <path
         id="path41"
         d="m 7.5695859,-6.9260469 c 0,-0.023437 -0.023437,-0.09375 -0.1054687,-0.09375 -0.035156,0 -0.046875,0.011719 -0.1523438,0.1171875 l -0.703125,0.7617188 c -0.082031,-0.140625 -0.5390625,-0.8789063 -1.6523437,-0.8789063 -2.2148438,0 -4.45312501,2.203125 -4.45312501,4.5117188 0,1.64062498 1.17187501,2.73046873 2.69531251,2.73046873 0.8671875,0 1.6171875,-0.3984375 2.1445312,-0.85546875 0.9375,-0.82031248 1.1015625,-1.72265628 1.1015625,-1.75781248 0,-0.1054688 -0.1054687,-0.1054688 -0.1171875,-0.1054688 -0.058594,0 -0.1171875,0.023437 -0.1289062,0.1054688 -0.09375,0.2929687 -0.3164063,0.9960937 -1.0078125,1.57031248 -0.6914063,0.5625 -1.3125,0.7265625 -1.8398438,0.7265625 -0.890625,0 -1.9453125,-0.515625 -1.9453125,-2.06249998 0,-0.5742188 0.2109375,-2.1914063 1.2070313,-3.3515625 0.609375,-0.703125 1.5351562,-1.2070313 2.4257812,-1.2070313 1.0195313,0 1.6054688,0.7734375 1.6054688,1.921875 0,0.3984375 -0.035156,0.4101563 -0.035156,0.5039063 0,0.1054687 0.1171875,0.1054687 0.1523438,0.1054687 0.1289062,0 0.1289062,-0.023437 0.1757812,-0.1992187 z m 0,0"
         style="fill:#000000;fill-opacity:1;fill-rule:nonzero;stroke:none" />
      <path
         id="path42"
         d="m 10.636969,0.22825 h -0.234375 c -0.02344,0.15234375 -0.08203,0.5625 -0.175782,0.6328125 -0.05859,0.0351563 -0.5976558,0.0351563 -0.6914058,0.0351563 H 8.2463437 c 0.7382813,-0.64453125 0.984375,-0.84375 1.3945313,-1.171875 0.515625,-0.41015625 0.996094,-0.8437499 0.996094,-1.5 0,-0.84375 -0.7382815,-1.359375 -1.6289065,-1.359375 -0.8671875,0 -1.453125,0.609375 -1.453125,1.2421875 0,0.3632813 0.3046875,0.3984375 0.375,0.3984375 0.1640625,0 0.375,-0.1171875 0.375,-0.375 0,-0.1289062 -0.058594,-0.3632813 -0.421875,-0.3632813 0.2226562,-0.5039062 0.6914062,-0.65625 1.0195312,-0.65625 0.703125,0 1.0664063,0.5507813 1.0664063,1.1132813 0,0.609375 -0.4335938,1.08984375 -0.65625,1.3359375 L 7.62525,1.2243438 C 7.554938,1.2829378 7.554938,1.2946558 7.554938,1.493875 h 2.882812 z m 0,0"
         style="fill:#000000;fill-opacity:1;fill-rule:nonzero;stroke:none" />
    </g>
    <path
       id="path43"
       d="M 29.49538,65.0919 29.6925,33.34546 17.78754,33.27155 17.5904,65.01799 Z"
       style="fill:none;stroke:#000000;stroke-width:0.797;stroke-linecap:butt;stroke-linejoin:miter;stroke-miterlimit:10;stroke-dasharray:none;stroke-opacity:1"
       transform="matrix(1.3333333,0,0,-1.3333333,179.05333,112.004)" />
    <g
       id="g43"
       aria-label="R&#10;C"
       transform="matrix(1.3333333,0,0,1.3333333,180.67733,49.345333)">
      <path
         id="path44"
         d="m 3.7371172,-6.118375 c 0.058594,-0.234375 0.082031,-0.3398438 0.28125,-0.3632813 0.082031,-0.011719 0.3984375,-0.011719 0.5976562,-0.011719 0.7148438,0 1.8164063,0 1.8164063,0.984375 0,0.3398437 -0.1523438,1.0195312 -0.5507813,1.4179687 -0.2578125,0.2578125 -0.7851562,0.5742188 -1.6757812,0.5742188 H 3.0925859 Z m 1.4296875,2.7304687 c 1.0078125,-0.2226562 2.1914062,-0.9140625 2.1914062,-1.921875 0,-0.8554687 -0.890625,-1.5 -2.203125,-1.5 H 2.3191484 c -0.1992187,0 -0.2929687,0 -0.2929687,0.1992188 0,0.1171875 0.09375,0.1171875 0.28125,0.1171875 0.023437,0 0.2109375,0 0.3867187,0.011719 0.1757813,0.023437 0.2578125,0.035156 0.2578125,0.1640625 0,0.035156 0,0.070312 -0.035156,0.1875 L 1.5808672,-0.774625 c -0.09375,0.38671875 -0.1171875,0.46875 -0.90234376,0.46875 -0.17578125,0 -0.26953125,0 -0.26953125,0.19921875 0,0.10546875 0.1171875,0.10546875 0.140625,0.10546875 0.28125,0 0.97265621,-0.03515625 1.25390621,-0.03515625 0.28125,0 0.984375,0.03515625 1.265625,0.03515625 0.082031,0 0.1992188,0 0.1992188,-0.19921875 0,-0.10546875 -0.09375,-0.10546875 -0.28125,-0.10546875 -0.3632813,0 -0.6445313,0 -0.6445313,-0.1875 0,-0.0585938 0.011719,-0.10546875 0.023437,-0.1640625 l 0.65625,-2.6367188 h 1.1953125 c 0.9023438,0 1.078125,0.5507813 1.078125,0.9023438 0,0.1523437 -0.082031,0.4570312 -0.140625,0.6914062 -0.070312,0.2695313 -0.1523437,0.6445313 -0.1523437,0.84375005 0,1.078125 1.1953125,1.078125 1.3242187,1.078125 0.84375,0 1.1953125,-1.0078125 1.1953125,-1.1484375 0,-0.11718755 -0.1171875,-0.11718755 -0.1171875,-0.11718755 -0.09375,0 -0.1171875,0.0703126 -0.1289062,0.14062505 -0.257812,0.73828125 -0.679687,0.90234375 -0.914062,0.90234375 -0.328125,0 -0.3984375,-0.22265625 -0.3984375,-0.609375 0,-0.3046875 0.058594,-0.8203125 0.1054687,-1.1367188 0.011719,-0.140625 0.035156,-0.328125 0.035156,-0.46875 0,-0.7617187 -0.6679688,-1.078125 -0.9374997,-1.171875 z m 0,0"
         style="fill:#000000;fill-opacity:1;fill-rule:nonzero;stroke:none" />
      <path
         id="path45"
         d="m 13.446102,-3.3234531 c 0,-0.035156 -0.02344,-0.082031 -0.09375,-0.082031 -0.04687,0 -0.07031,0.011719 -0.128907,0.082031 l -0.503906,0.5390625 c -0.07031,-0.082031 -0.457031,-0.6210938 -1.3125,-0.6210938 -1.6992187,0 -3.3515624,1.5 -3.3515624,3.07031252 0,1.13671875 0.890625,1.96874998 2.1328124,1.96874998 0.375,0 1.054688,-0.082031 1.769531,-0.67968748 0.550782,-0.46875 0.703125,-1.078125 0.703125,-1.13671875 0,-0.09375 -0.08203,-0.09375 -0.117187,-0.09375 -0.09375,0 -0.105469,0.0351562 -0.128906,0.1171875 -0.28125,0.94921875 -1.265625,1.53515623 -2.109375,1.53515623 -0.7382817,0 -1.5585942,-0.38671873 -1.5585942,-1.48828123 0,-0.2109375 0.046875,-1.31249997 0.8554688,-2.19140627 0.4804684,-0.5273437 1.2070314,-0.8554687 1.8750004,-0.8554687 0.808593,0 1.277343,0.5859375 1.277343,1.3710937 0,0.1875 -0.02344,0.2460938 -0.02344,0.28125 0,0.09375 0.09375,0.09375 0.128906,0.09375 0.117188,0 0.117188,-0.023437 0.152344,-0.1523437 z m 0,0"
         style="fill:#000000;fill-opacity:1;fill-rule:nonzero;stroke:none" />
    </g>
    <path
       id="path46"
       d="m 23.4715,-102.04854 0.10287,24.23728 m 0.13417,31.74693 0.10291,24.23727 22.11007,-0.11299 V -58.0258 m 0,-7.93695 v -36.08579"
       style="fill:none;stroke:#000000;stroke-width:0.3985;stroke-linecap:butt;stroke-linejoin:miter;stroke-miterlimit:10;stroke-dasharray:none;stroke-opacity:1"
       transform="matrix(1.3333333,0,0,-1.3333333,179.05333,112.004)" />
    <path
       id="path47"
       d="m 23.4715,-102.04854 v -9.92134"
       style="fill:none;stroke:#000000;stroke-width:0.3985;stroke-linecap:butt;stroke-linejoin:miter;stroke-miterlimit:10;stroke-dasharray:none;stroke-opacity:1"
       transform="matrix(1.3333333,0,0,-1.3333333,179.05333,112.004)" />
    <path
       id="path48"
       d="m 17.51865,-111.96988 h 11.9057"
       style="fill:none;stroke:#000000;stroke-width:0.797;stroke-linecap:round;stroke-linejoin:miter;stroke-miterlimit:10;stroke-dasharray:none;stroke-opacity:1"
       transform="matrix(1.3333333,0,0,-1.3333333,179.05333,112.004)" />
    <path
       id="path49"
       d="m 29.66112,-46.0895 -0.13417,-31.74691 -11.90515,0.05031 0.13417,31.74693 z"
       style="fill:none;stroke:#000000;stroke-width:0.797;stroke-linecap:butt;stroke-linejoin:miter;stroke-miterlimit:10;stroke-dasharray:none;stroke-opacity:1"
       transform="matrix(1.3333333,0,0,-1.3333333,179.05333,112.004)" />
    <path
       id="path50"
       d="m 25.05864,-102.04854 c 0,0.87657 -0.71059,1.58716 -1.58714,1.58716 -0.87656,0 -1.58715,-0.71059 -1.58715,-1.58716 0,-0.87656 0.71059,-1.58714 1.58715,-1.58714 0.87655,0 1.58714,0.71058 1.58714,1.58714 z"
       style="fill:#000000;fill-opacity:1;fill-rule:nonzero;stroke:#000000;stroke-width:0.3985;stroke-linecap:butt;stroke-linejoin:miter;stroke-miterlimit:10;stroke-dasharray:none;stroke-opacity:1"
       transform="matrix(1.3333333,0,0,-1.3333333,179.05333,112.004)" />
    <g
       id="g50"
       aria-label="R&#10;E"
       transform="matrix(1.3333333,0,0,1.3333333,180.63733,197.41333)">
      <path
         id="path51"
         d="m 3.7378203,-6.1166406 c 0.058594,-0.234375 0.082031,-0.3398438 0.28125,-0.3632813 0.082031,-0.011719 0.3984375,-0.011719 0.5976563,-0.011719 0.7148437,0 1.8164062,0 1.8164062,0.984375 0,0.3398437 -0.1523437,1.0195312 -0.5507812,1.4179687 -0.2578125,0.2578125 -0.7851563,0.5742188 -1.6757813,0.5742188 H 3.0932891 Z m 1.4296875,2.7304687 c 1.0078125,-0.2226562 2.1914063,-0.9140625 2.1914063,-1.921875 0,-0.8554687 -0.890625,-1.5 -2.203125,-1.5 H 2.3198516 c -0.1992188,0 -0.2929688,0 -0.2929688,0.1992188 0,0.1171875 0.09375,0.1171875 0.28125,0.1171875 0.023437,0 0.2109375,0 0.3867188,0.011719 0.1757812,0.023437 0.2578125,0.035156 0.2578125,0.1640625 0,0.035156 0,0.070312 -0.035156,0.1875 l -1.3359375,5.35546877 c -0.09375,0.38671875 -0.1171875,0.46875 -0.90234374,0.46875 -0.17578125,0 -0.26953125,0 -0.26953125,0.19921875 0,0.105468755 0.1171875,0.105468755 0.140625,0.105468755 0.28125,0 0.97265629,-0.035156255 1.25390629,-0.035156255 0.28125,0 0.984375,0.035156255 1.265625,0.035156255 0.082031,0 0.1992187,0 0.1992187,-0.199218755 0,-0.10546875 -0.09375,-0.10546875 -0.28125,-0.10546875 -0.3632812,0 -0.6445312,0 -0.6445312,-0.1875 0,-0.0585938 0.011719,-0.10546875 0.023437,-0.1640625 l 0.65625,-2.63671877 h 1.1953125 c 0.9023437,0 1.078125,0.5507813 1.078125,0.9023438 0,0.1523437 -0.082031,0.4570312 -0.140625,0.6914062 -0.070312,0.2695313 -0.1523438,0.6445313 -0.1523438,0.84375002 0,1.078125 1.1953125,1.078125 1.3242188,1.078125 0.84375,0 1.1953125,-1.0078125 1.1953125,-1.1484375 0,-0.11718752 -0.1171875,-0.11718752 -0.1171875,-0.11718752 -0.09375,0 -0.1171875,0.0703125 -0.1289063,0.14062502 -0.2578125,0.73828125 -0.6796875,0.902343755 -0.9140625,0.902343755 -0.328125,0 -0.3984375,-0.222656255 -0.3984375,-0.609375005 0,-0.3046875 0.058594,-0.82031247 0.1054688,-1.13671877 0.011719,-0.140625 0.035156,-0.328125 0.035156,-0.46875 0,-0.7617187 -0.6679687,-1.078125 -0.9374996,-1.1718753 z m 0,0"
         style="fill:#000000;fill-opacity:1;fill-rule:nonzero;stroke:none" />
      <path
         id="path52"
         d="m 13.083523,-0.11078125 c 0.04687,-0.09375 0.04687,-0.12890625 0.04687,-0.12890625 0,-0.046875 -0.03516,-0.09375 -0.117187,-0.09375 -0.01172,0 -0.04687,0 -0.08203,0.0234375 -0.01172,0.0117188 -0.02344,0.0234375 -0.105469,0.19921875 -0.445313,1.0078125 -0.808594,1.35937495 -1.945313,1.35937495 H 9.6968047 c -0.2109375,0 -0.2226563,-0.011719 -0.2226563,-0.070312 0,-0.011719 0,-0.046875 0.023437,-0.1523437 l 0.46875,-1.86328125 h 0.7851556 c 0.550781,0 0.632813,0.0820313 0.632813,0.31640625 0,0.0820313 -0.02344,0.19921875 -0.04687,0.31640625 -0.02344,0.0585938 -0.02344,0.0703125 -0.02344,0.0820313 0,0.0117188 0.01172,0.09375 0.117188,0.09375 0.105468,0 0.105468,-0.03515625 0.140625,-0.15234375 l 0.375,-1.5234375 c 0.02344,-0.082031 0.02344,-0.09375 0.02344,-0.1054687 0,-0.070312 -0.05859,-0.09375 -0.117186,-0.09375 -0.09375,0 -0.09375,0.035156 -0.140625,0.1757812 -0.140625,0.5507813 -0.351564,0.6328125 -0.949219,0.6328125 H 10.036648 L 10.446805,-2.7475 c 0.05859,-0.2226563 0.07031,-0.2460938 0.363281,-0.2460938 h 1.136719 c 0.914062,0 1.136718,0.1875 1.136718,0.8085938 0,0.1875 -0.02344,0.3984375 -0.02344,0.4335937 0,0.046875 0.02344,0.1171875 0.117187,0.1171875 0.105469,0 0.105469,-0.070312 0.128907,-0.1875 l 0.11719,-1.2070312 c 0.02344,-0.2109375 -0.02344,-0.2109375 -0.199219,-0.2109375 H 9.3921172 c -0.140625,0 -0.2226563,0 -0.2226563,0.1523437 0,0.09375 0.070312,0.09375 0.2226563,0.09375 0.1171875,0 0.140625,0 0.2695312,0.023437 0.140625,0.011719 0.1523438,0.023437 0.1523438,0.09375 0,0.046875 -0.023437,0.1171875 -0.023437,0.1523438 L 8.8764922,0.92046875 C 8.8061797,1.19 8.7944609,1.2485937 8.2553984,1.2485937 c -0.1289062,0 -0.2109375,0 -0.2109375,0.1523438 0,0.09375 0.082031,0.09375 0.2109375,0.09375 h 3.9374996 c 0.175782,0 0.1875,0 0.234375,-0.1289063 z m 0,0"
         style="fill:#000000;fill-opacity:1;fill-rule:nonzero;stroke:none" />
    </g>
    <path
       id="path53"
       d="M 57.82724,-58.0258 H 34.01581 m 23.81143,-7.93695 H 34.01581"
       style="fill:none;stroke:#000000;stroke-width:0.797;stroke-linecap:butt;stroke-linejoin:miter;stroke-miterlimit:10;stroke-dasharray:none;stroke-opacity:1"
       transform="matrix(1.3333333,0,0,-1.3333333,179.05333,112.004)" />
    <g
       id="g53"
       aria-label="C&#10;3"
       transform="matrix(1.3333333,0,0,1.3333333,259.89067,197.52533)">
      <path
         id="path54"
         d="m 7.5702812,-6.9272031 c 0,-0.023437 -0.023437,-0.09375 -0.1054687,-0.09375 -0.035156,0 -0.046875,0.011719 -0.1523438,0.1171875 l -0.703125,0.7617187 C 6.5273125,-6.2826719 6.0702812,-7.0209531 4.957,-7.0209531 c -2.2148438,0 -4.453125,2.203125 -4.453125,4.5117187 0,1.64062502 1.171875,2.73046877 2.6953125,2.73046877 0.8671875,0 1.6171875,-0.3984375 2.1445312,-0.85546875 0.9375,-0.82031252 1.1015625,-1.72265622 1.1015625,-1.75781252 0,-0.1054687 -0.1054687,-0.1054687 -0.1171875,-0.1054687 -0.058594,0 -0.1171875,0.023437 -0.1289062,0.1054687 -0.09375,0.2929688 -0.3164063,0.9960938 -1.0078125,1.57031252 -0.6914063,0.5625 -1.3125,0.7265625 -1.8398438,0.7265625 -0.890625,0 -1.9453125,-0.515625 -1.9453125,-2.06250002 0,-0.5742187 0.2109375,-2.1914062 1.2070313,-3.3515625 0.609375,-0.703125 1.5351562,-1.2070312 2.4257812,-1.2070312 1.0195313,0 1.6054688,0.7734375 1.6054688,1.921875 0,0.3984375 -0.035156,0.4101562 -0.035156,0.5039062 0,0.1054688 0.1171875,0.1054688 0.1523438,0.1054688 0.1289062,0 0.1289062,-0.023437 0.1757812,-0.1992188 z m 0,0"
         style="fill:#000000;fill-opacity:1;fill-rule:nonzero;stroke:none" />
      <path
         id="path55"
         d="m 9.0175469,-0.8393125 c 0.5507812,0 0.9375,0.375 0.9375,1.125 0,0.8671875 -0.5039063,1.125 -0.9023438,1.125 -0.28125,0 -0.890625,-0.082031 -1.1835937,-0.4921875 0.328125,-0.0117188 0.3984375,-0.24609375 0.3984375,-0.38671875 0,-0.22265625 -0.1640625,-0.38671875 -0.3867188,-0.38671875 -0.1875,0 -0.3867187,0.1171875 -0.3867187,0.41015625 0,0.65624995 0.7265625,1.07812495 1.5703125,1.07812495 0.9726561,0 1.6406251,-0.6445312 1.6406251,-1.3476562 0,-0.5390625 -0.445313,-1.08984375 -1.2187501,-1.2421875 0.7382811,-0.2695313 0.9960941,-0.796875 0.9960941,-1.21875 0,-0.5507813 -0.6328129,-0.9609375 -1.4062504,-0.9609375 -0.7734375,0 -1.359375,0.375 -1.359375,0.9375 0,0.234375 0.1523438,0.3632812 0.3632813,0.3632812 0.2109375,0 0.3515625,-0.1640625 0.3515625,-0.3515625 0,-0.1992187 -0.140625,-0.3515625 -0.3515625,-0.3632812 0.234375,-0.3046875 0.7148437,-0.3867188 0.9726562,-0.3867188 0.3164063,0 0.7617188,0.1523438 0.7617188,0.7617188 0,0.2929687 -0.1054688,0.609375 -0.28125,0.8320312 -0.234375,0.2578125 -0.421875,0.28125 -0.7734375,0.2929688 -0.1757813,0.023437 -0.1875,0.023437 -0.2226563,0.023437 -0.011719,0 -0.070312,0.011719 -0.070312,0.09375 0,0.09375 0.058594,0.09375 0.1757813,0.09375 z m 0,0"
         style="fill:#000000;fill-opacity:1;fill-rule:nonzero;stroke:none" />
    </g>
    <path
       id="path56"
       d="m 4.0784922,-2.2968984 h 2.7773437 c 0.140625,0 0.328125,0 0.328125,-0.1992188 0,-0.1992187 -0.1875,-0.1992187 -0.328125,-0.1992187 H 4.0784922 v -2.7890625 c 0,-0.1289063 0,-0.328125 -0.1992188,-0.328125 -0.1992187,0 -0.1992187,0.1992187 -0.1992187,0.328125 v 2.7890625 H 0.89099219 c -0.140625,0 -0.328125,0 -0.328125,0.1992187 0,0.1992188 0.1875,0.1992188 0.328125,0.1992188 H 3.6800547 v 2.80078121 c 0,0.12890625 0,0.328125 0.1992187,0.328125 0.1992188,0 0.1992188,-0.19921875 0.1992188,-0.328125 z m 0,0"
       style="fill:#000000;fill-opacity:1;fill-rule:nonzero;stroke:none"
       aria-label="+"
       transform="matrix(1.3333333,0,0,1.3333333,65.034667,135.668)" />
    <path
       id="path57"
       d="m 6.5628672,-2.2957187 c 0.1757812,0 0.3515625,0 0.3515625,-0.1992188 0,-0.1992187 -0.1757813,-0.1992187 -0.3515625,-0.1992187 h -5.390625 c -0.1640625,0 -0.33984376,0 -0.33984376,0.1992187 0,0.1992188 0.17578126,0.1992188 0.33984376,0.1992188 z m 0,0"
       style="fill:#000000;fill-opacity:1;fill-rule:nonzero;stroke:none"
       aria-label="−"
       transform="matrix(1.3333333,0,0,1.3333333,65.034667,231.04533)" />
    <g
       id="g57"
       aria-label="u&#10;i"
       transform="matrix(1.3333333,0,0,1.3333333,64.188,181.9)">
      <path
         id="path58"
         d="m 3.4918125,-0.56367188 c 0.1054687,0.41015625 0.4570312,0.66796875 0.8789062,0.66796875 0.3515625,0 0.5742188,-0.22265625 0.7382813,-0.5390625 0.1757812,-0.36328125 0.3046875,-0.97265627 0.3046875,-0.99609377 0,-0.09375 -0.09375,-0.09375 -0.1289063,-0.09375 -0.09375,0 -0.1054687,0.035156 -0.140625,0.1757813 -0.1289062,0.56249997 -0.328125,1.24218747 -0.7382812,1.24218747 -0.2109375,0 -0.3164063,-0.12890625 -0.3164063,-0.45703125 0,-0.22265625 0.1289063,-0.69140622 0.1992188,-1.04296872 l 0.28125,-1.078125 c 0.035156,-0.140625 0.1289062,-0.5273438 0.1757812,-0.6679688 0.046875,-0.234375 0.140625,-0.609375 0.140625,-0.6679687 0,-0.1875 -0.140625,-0.2695313 -0.28125,-0.2695313 -0.058594,0 -0.3164062,0 -0.3867187,0.3398438 -0.1992188,0.7265625 -0.6328125,2.4726562 -0.75,2.99999997 -0.011719,0.046875 -0.4101563,0.84375 -1.1367188,0.84375 -0.515625,0 -0.6210937,-0.45703125 -0.6210937,-0.8203125 0,-0.56249997 0.28125,-1.34765627 0.5390625,-2.02734377 0.1171875,-0.3046875 0.1757812,-0.4453125 0.1757812,-0.6328125 0,-0.4453125 -0.328125,-0.8203125 -0.8203125,-0.8203125 -0.9492187,0 -1.31249995,1.453125 -1.31249995,1.5351563 0,0.1054687 0.09375,0.1054687 0.1171875,0.1054687 0.09375,0 0.10546875,-0.023437 0.15234375,-0.1875 0.2578125,-0.8671875 0.6328125,-1.2304687 1.0078125,-1.2304687 0.09375,0 0.2578125,0.011719 0.2578125,0.328125 0,0.234375 -0.1171875,0.5273437 -0.1757813,0.6796875 -0.3632812,0.984375 -0.5742187,1.6054687 -0.5742187,2.0859375 0,0.94921872 0.6796875,1.19531247 1.21875,1.19531247 0.65625,0 1.0195312,-0.4453125 1.1953125,-0.66796875 z m 0,0"
         style="fill:#000000;fill-opacity:1;fill-rule:nonzero;stroke:none" />
      <path
         id="path59"
         d="m 7.9654453,-2.8664063 c 0,-0.1054687 -0.082031,-0.2578125 -0.28125,-0.2578125 -0.1875,0 -0.3867187,0.1757813 -0.3867187,0.375 0,0.1171875 0.082031,0.2695313 0.2695312,0.2695313 0.2109375,0 0.3984375,-0.1992188 0.3984375,-0.3867188 z M 6.5357578,0.67265625 c -0.023437,0.09375 -0.058594,0.17578125 -0.058594,0.29296875 0,0.328125 0.28125,0.5976562 0.6679687,0.5976562 0.6914063,0 0.9960938,-0.96093745 0.9960938,-1.0664062 0,-0.09375 -0.082031,-0.09375 -0.1054688,-0.09375 -0.1054687,0 -0.1054687,0.046875 -0.140625,0.1171875 -0.1523437,0.5625 -0.4570312,0.84375 -0.7382812,0.84375 -0.140625,0 -0.1757813,-0.082031 -0.1757813,-0.2460938 0,-0.1523437 0.058594,-0.2929687 0.1171875,-0.44531245 0.070312,-0.1875 0.140625,-0.375 0.2226563,-0.55078125 0.058594,-0.1640625 0.3164062,-0.80859375 0.3398437,-0.890625 0.023437,-0.0703125 0.046875,-0.15234375 0.046875,-0.22265625 0,-0.32812505 -0.28125,-0.58593755 -0.6679687,-0.58593755 -0.6914063,0 -1.0078125,0.9492188 -1.0078125,1.0664063 0,0.0820313 0.09375,0.0820313 0.1171875,0.0820313 0.09375,0 0.1054687,-0.0351563 0.1289062,-0.10546875 0.1757813,-0.59765625 0.4804688,-0.85546875 0.7382813,-0.85546875 0.1171875,0 0.1757812,0.058594 0.1757812,0.2460937 0,0.16406255 -0.035156,0.2695313 -0.2109375,0.70312505 z m 0,0"
         style="fill:#000000;fill-opacity:1;fill-rule:nonzero;stroke:none" />
    </g>
    <path
       id="path60"
       d="m 23.81145,21.82706 -2e-5,-7.65374 m 0,0 2e-5,-7.6537"
       style="fill:none;stroke:#000000;stroke-width:0.3985;stroke-linecap:butt;stroke-linejoin:miter;stroke-miterlimit:10;stroke-dasharray:none;stroke-opacity:1"
       transform="matrix(1.3333333,0,0,-1.3333333,179.05333,112.004)" />
    <path
       id="path61"
       d="m 23.81143,15.90955 h -1.98425 l 1.98425,-4.21654 1.98425,4.21654 z"
       style="fill:#000000;fill-opacity:1;fill-rule:nonzero;stroke:#000000;stroke-width:0.3985;stroke-linecap:butt;stroke-linejoin:miter;stroke-miterlimit:10;stroke-dasharray:none;stroke-opacity:1"
       transform="matrix(1.3333333,0,0,-1.3333333,179.05333,112.004)" />
    <g
       id="g61"
       aria-label="i&#10;C"
       transform="matrix(1.3333333,0,0,1.3333333,192.59733,96.490667)">
      <path
         id="path62"
         d="m 2.8244609,-6.2215156 c 0,-0.1992188 -0.1289062,-0.3632813 -0.3632812,-0.3632813 -0.2695313,0 -0.5390625,0.2578125 -0.5390625,0.5273438 0,0.1875 0.140625,0.3632812 0.375,0.3632812 0.234375,0 0.5273437,-0.234375 0.5273437,-0.5273437 z m -0.75,3.7382812 c 0.1171875,-0.28125 0.1171875,-0.3046875 0.2226563,-0.5742187 0.070312,-0.1992188 0.1289062,-0.3398438 0.1289062,-0.5273438 0,-0.4453125 -0.328125,-0.8203125 -0.8203125,-0.8203125 -0.93749996,0 -1.31249996,1.453125 -1.31249996,1.5351563 0,0.1054687 0.09375,0.1054687 0.1171875,0.1054687 0.09375,0 0.10546875,-0.023437 0.15234375,-0.1875 0.26953125,-0.9375 0.66796871,-1.2304687 1.00781251,-1.2304687 0.082031,0 0.2578125,0 0.2578125,0.3164062 0,0.2109375 -0.070312,0.421875 -0.1171875,0.515625 -0.082031,0.2578125 -0.5273438,1.4179688 -0.6796875,1.8515625 -0.10546876,0.2578125 -0.23437501,0.58593753 -0.23437501,0.79687503 0,0.46875 0.33984371,0.80859375 0.82031251,0.80859375 0.9375,0 1.3007812,-1.44140628 1.3007812,-1.53515628 0,-0.09375 -0.09375,-0.09375 -0.1171875,-0.09375 -0.1054687,0 -0.1054687,0.023437 -0.1523437,0.1757813 -0.1757813,0.63281248 -0.5039063,1.24218748 -1.0195313,1.24218748 -0.1640625,0 -0.234375,-0.10546875 -0.234375,-0.328125 0,-0.2578125 0.058594,-0.3984375 0.2929688,-0.99609378 z m 0,0"
         style="fill:#000000;fill-opacity:1;fill-rule:nonzero;stroke:none" />
      <path
         id="path63"
         d="m 9.3137188,-3.321125 c 0,-0.035156 -0.023437,-0.082031 -0.09375,-0.082031 -0.046875,0 -0.070312,0.011719 -0.1289063,0.082031 l -0.5039062,0.5390625 c -0.070312,-0.082031 -0.4570313,-0.6210937 -1.3125,-0.6210937 -1.6992188,0 -3.3515625,1.5 -3.3515625,3.07031245 0,1.13671875 0.890625,1.96875005 2.1328125,1.96875005 0.375,0 1.0546875,-0.082031 1.7695312,-0.67968755 0.5507813,-0.46875 0.703125,-1.078125 0.703125,-1.13671875 0,-0.09375 -0.082031,-0.09375 -0.1171875,-0.09375 -0.09375,0 -0.1054687,0.0351563 -0.1289062,0.1171875 -0.28125,0.94921875 -1.265625,1.5351563 -2.109375,1.5351563 -0.7382813,0 -1.5585938,-0.3867188 -1.5585938,-1.4882813 0,-0.2109375 0.046875,-1.3125 0.8554688,-2.1914062 0.4804687,-0.5273438 1.2070312,-0.8554688 1.875,-0.8554688 0.8085937,0 1.2773437,0.5859375 1.2773437,1.3710938 0,0.1875 -0.023437,0.2460937 -0.023437,0.28125 0,0.09375 0.09375,0.09375 0.1289063,0.09375 0.1171875,0 0.1171875,-0.023437 0.1523437,-0.1523438 z m 0,0"
         style="fill:#000000;fill-opacity:1;fill-rule:nonzero;stroke:none" />
    </g>
  </g>
</svg>
