<?xml version="1.0" encoding="UTF-8" standalone="no"?>
<!-- Created with Inkscape (http://www.inkscape.org/) -->

<svg
   version="1.1"
   id="svg1"
   width="195.56"
   height="93.546669"
   viewBox="0 0 195.56 93.546669"
   sodipodi:docname="23-24-2-电路与电子学基础-期末（A卷）-题图4.pdf"
   xmlns:inkscape="http://www.inkscape.org/namespaces/inkscape"
   xmlns:sodipodi="http://sodipodi.sourceforge.net/DTD/sodipodi-0.dtd"
   xmlns="http://www.w3.org/2000/svg"
   xmlns:svg="http://www.w3.org/2000/svg">
  <defs
     id="defs1" />
  <sodipodi:namedview
     id="namedview1"
     pagecolor="#ffffff"
     bordercolor="#111111"
     borderopacity="1"
     inkscape:showpageshadow="0"
     inkscape:pageopacity="0"
     inkscape:pagecheckerboard="1"
     inkscape:deskcolor="#d1d1d1">
    <inkscape:page
       x="0"
       y="0"
       inkscape:label="1"
       id="page1"
       width="195.56"
       height="93.546669"
       margin="0"
       bleed="0" />
  </sodipodi:namedview>
  <g
     id="g1"
     inkscape:groupmode="layer"
     inkscape:label="1">
    <path
       id="path1"
       d="M 102.04854,0 H 76.53639 m 0,0 H 51.02426 0 v 13.6064 m 0,23.81143 v 13.60643 l 21.54364,-10e-6 m 7.93695,0 21.54367,10e-6 25.51213,-10e-6 m 0,0 25.51215,10e-6"
       style="fill:none;stroke:#000000;stroke-width:0.3985;stroke-linecap:butt;stroke-linejoin:miter;stroke-miterlimit:10;stroke-dasharray:none;stroke-opacity:1"
       transform="matrix(1.3333333,0,0,-1.3333333,42.989333,84.437333)" />
    <path
       id="path2"
       d="m 5.1909766,-2.1567578 c 0,-1.265625 -0.9726563,-2.25 -2.109375,-2.25 -0.7851563,0 -1.2070313,0.46875 -1.3710938,0.65625 v -3.1640625 l -1.42968749,0.1054687 v 0.3164063 c 0.69140625,0 0.77343749,0.070312 0.77343749,0.5507812 V -5.078125e-4 H 1.3003516 L 1.6636328,-0.62160156 c 0.1523438,0.234375 0.5625,0.7265625 1.3007813,0.7265625 1.1835937,0 2.2265625,-0.97265625 2.2265625,-2.26171874 z m -0.8320313,0 c 0,0.3632812 -0.011719,0.9609375 -0.3046875,1.40624999 -0.2109375,0.31640625 -0.5859375,0.64453125 -1.125,0.64453125 -0.4453125,0 -0.8085937,-0.24609375 -1.0429687,-0.609375 -0.140625,-0.2109375 -0.140625,-0.24609375 -0.140625,-0.42187504 v -2.0507812 c 0,-0.1875 0,-0.1992188 0.1054687,-0.3632813 0.3867188,-0.5507812 0.9375,-0.6328125 1.171875,-0.6328125 0.4570313,0 0.8085938,0.2578125 1.0546875,0.6328125 0.2578125,0.4101563 0.28125,0.984375 0.28125,1.3945313 z m 0,0"
       style="fill:#000000;fill-opacity:1;fill-rule:nonzero;stroke:none"
       aria-label="b"
       transform="matrix(1.3333333,0,0,1.3333333,183.74667,88.973333)" />
    <path
       id="path3"
       d="m 103.63568,0 c 0,0.87656 -0.71058,1.58714 -1.58714,1.58714 -0.87657,0 -1.58716,-0.71058 -1.58716,-1.58714 0,-0.87656 0.71059,-1.58714 1.58716,-1.58714 0.87656,0 1.58714,0.71058 1.58714,1.58714 z"
       style="fill:#ffffff;fill-opacity:1;fill-rule:nonzero;stroke:#000000;stroke-width:0.3985;stroke-linecap:butt;stroke-linejoin:miter;stroke-miterlimit:10;stroke-dasharray:none;stroke-opacity:1"
       transform="matrix(1.3333333,0,0,-1.3333333,42.989333,84.437333)" />
    <path
       id="path4"
       d="m 52.6114,0 c 0,0.87656 -0.71058,1.58714 -1.58714,1.58714 -0.87656,0 -1.58714,-0.71058 -1.58714,-1.58714 0,-0.87656 0.71058,-1.58714 1.58714,-1.58714 0.87656,0 1.58714,0.71058 1.58714,1.58714 z"
       style="fill:#000000;fill-opacity:1;fill-rule:nonzero;stroke:#000000;stroke-width:0.3985;stroke-linecap:butt;stroke-linejoin:miter;stroke-miterlimit:10;stroke-dasharray:none;stroke-opacity:1"
       transform="matrix(1.3333333,0,0,-1.3333333,42.989333,84.437333)" />
    <path
       id="path5"
       d="M -11.90572,25.51212 C -11.90572,18.9367 -6.57541,13.6064 0,13.6064 c 6.57541,0 11.90572,5.3303 11.90572,11.90572 0,6.57542 -5.33031,11.90571 -11.90572,11.90571 -6.57541,0 -11.90572,-5.33029 -11.90572,-11.90571 z"
       style="fill:none;stroke:#000000;stroke-width:0.797;stroke-linecap:butt;stroke-linejoin:miter;stroke-miterlimit:10;stroke-dasharray:none;stroke-opacity:1"
       transform="matrix(1.3333333,0,0,-1.3333333,42.989333,84.437333)" />
    <path
       id="path6"
       d="M 0,13.6064 V 37.41783"
       style="fill:none;stroke:#000000;stroke-width:0.797;stroke-linecap:butt;stroke-linejoin:miter;stroke-miterlimit:10;stroke-dasharray:none;stroke-opacity:1"
       transform="matrix(1.3333333,0,0,-1.3333333,42.989333,84.437333)" />
    <path
       id="path7"
       d="m 6.5638203,-2.2969922 c 0.1757813,0 0.3515625,0 0.3515625,-0.1992187 0,-0.1992188 -0.1757812,-0.1992188 -0.3515625,-0.1992188 h -5.390625 c -0.1640625,0 -0.33984374,0 -0.33984374,0.1992188 0,0.1992187 0.17578124,0.1992187 0.33984374,0.1992187 z m 0,0"
       style="fill:#000000;fill-opacity:1;fill-rule:nonzero;stroke:none"
       aria-label="−"
       transform="matrix(1.3333333,0,0,1.3333333,16.869333,65.84)" />
    <path
       id="path8"
       d="m 4.0794453,-2.2964766 h 2.7773438 c 0.140625,0 0.328125,0 0.328125,-0.1992187 0,-0.1992188 -0.1875,-0.1992188 -0.328125,-0.1992188 H 4.0794453 v -2.7890625 c 0,-0.1289062 0,-0.328125 -0.1992187,-0.328125 -0.1992188,0 -0.1992188,0.1992188 -0.1992188,0.328125 v 2.7890625 H 0.89194531 c -0.140625,0 -0.328125,0 -0.328125,0.1992188 0,0.1992187 0.1875,0.1992187 0.328125,0.1992187 H 3.6810078 v 2.80078129 c 0,0.12890625 0,0.328125 0.1992188,0.328125 0.1992187,0 0.1992187,-0.19921875 0.1992187,-0.328125 z m 0,0"
       style="fill:#000000;fill-opacity:1;fill-rule:nonzero;stroke:none"
       aria-label="+"
       transform="matrix(1.3333333,0,0,1.3333333,16.869333,41.644)" />
    <g
       id="g8"
       aria-label="u&#10;s"
       transform="matrix(1.3333333,0,0,1.3333333,2.656,52.284)">
      <path
         id="path9"
         d="m 3.492375,-0.56163281 c 0.1054687,0.41015625 0.4570312,0.66796875 0.8789062,0.66796875 0.3515625,0 0.5742188,-0.22265625 0.7382813,-0.5390625 C 5.2853437,-0.79600781 5.41425,-1.4053828 5.41425,-1.4288203 c 0,-0.09375 -0.09375,-0.09375 -0.1289063,-0.09375 -0.09375,0 -0.1054687,0.035156 -0.140625,0.1757812 -0.1289062,0.56250004 -0.328125,1.24218754 -0.7382812,1.24218754 -0.2109375,0 -0.3164063,-0.12890625 -0.3164063,-0.45703125 0,-0.22265625 0.1289063,-0.69140629 0.1992188,-1.04296879 l 0.28125,-1.078125 c 0.035156,-0.140625 0.1289062,-0.5273437 0.1757812,-0.6679687 0.046875,-0.234375 0.140625,-0.609375 0.140625,-0.6679688 0,-0.1875 -0.140625,-0.2695312 -0.28125,-0.2695312 -0.058594,0 -0.3164062,0 -0.3867187,0.3398437 -0.1992188,0.7265625 -0.6328125,2.4726563 -0.75,3.00000004 -0.011719,0.046875 -0.4101563,0.84375 -1.1367188,0.84375 -0.515625,0 -0.6210937,-0.45703125 -0.6210937,-0.8203125 0,-0.56250004 0.28125,-1.34765624 0.5390625,-2.02734374 0.1171875,-0.3046875 0.1757812,-0.4453125 0.1757812,-0.6328125 0,-0.4453125 -0.328125,-0.8203125 -0.8203125,-0.8203125 -0.9492187,0 -1.31249995,1.453125 -1.31249995,1.5351562 0,0.1054688 0.09375,0.1054688 0.1171875,0.1054688 0.09375,0 0.10546875,-0.023437 0.15234375,-0.1875 C 0.8205,-3.8194453 1.1955,-4.1827266 1.5705,-4.1827266 c 0.09375,0 0.2578125,0.011719 0.2578125,0.328125 0,0.234375 -0.1171875,0.5273438 -0.1757813,0.6796875 -0.3632812,0.984375 -0.5742187,1.6054688 -0.5742187,2.0859375 0,0.94921879 0.6796875,1.19531254 1.21875,1.19531254 0.65625,0 1.0195312,-0.4453125 1.1953125,-0.66796875 z m 0,0"
         style="fill:#000000;fill-opacity:1;fill-rule:nonzero;stroke:none" />
      <path
         id="path10"
         d="m 8.7042891,-1.1299922 c -0.1757813,0.046875 -0.2929688,0.18750001 -0.2929688,0.32812501 0,0.1640625 0.140625,0.22265625 0.234375,0.22265625 0.070312,0 0.3398438,-0.0351563 0.3398438,-0.3984375 0,-0.44531246 -0.5039063,-0.59765626 -0.9257813,-0.59765626 -1.0898437,0 -1.2890625,0.79687501 -1.2890625,1.00781251 0,0.2578125 0.1523438,0.43359375 0.2460938,0.515625 0.1757812,0.140625 0.3046875,0.1640625 0.7851562,0.24609375 0.1523438,0.0351563 0.5976563,0.1171875 0.5976563,0.46875 0,0.1171875 -0.082031,0.37500004 -0.375,0.55078124 -0.2695313,0.1523438 -0.609375,0.1523438 -0.6914063,0.1523438 -0.28125,0 -0.6796875,-0.058594 -0.84375,-0.2929688 0.234375,-0.023437 0.3867188,-0.19921874 0.3867188,-0.39843749 0,-0.1640625 -0.1289063,-0.2578125 -0.2695313,-0.2578125 -0.1992187,0 -0.4101562,0.1640625 -0.4101562,0.46875 0,0.42187499 0.4453125,0.67968749 1.125,0.67968749 1.2890625,0 1.5234375,-0.87890624 1.5234375,-1.14843749 0,-0.64453125 -0.703125,-0.7734375 -0.9609375,-0.8203125 -0.070312,-0.0117188 -0.2460938,-0.0351563 -0.28125,-0.0585938 -0.2578125,-0.046875 -0.3867188,-0.1875 -0.3867188,-0.33984375 0,-0.1640625 0.1289063,-0.35156256 0.28125,-0.44531256 0.1875,-0.1289062 0.4335938,-0.140625 0.5507813,-0.140625 0.140625,0 0.5039062,0.023437 0.65625,0.2578126 z m 0,0"
         style="fill:#000000;fill-opacity:1;fill-rule:nonzero;stroke:none" />
    </g>
    <path
       id="path11"
       d="M 21.54364,62.92996 V 39.11853 m 7.93695,23.81143 V 39.11853"
       style="fill:none;stroke:#000000;stroke-width:0.797;stroke-linecap:butt;stroke-linejoin:miter;stroke-miterlimit:10;stroke-dasharray:none;stroke-opacity:1"
       transform="matrix(1.3333333,0,0,-1.3333333,42.989333,84.437333)" />
    <g
       id="g11"
       aria-label="25µF"
       transform="matrix(1.3333333,0,0,1.3333333,60.061333,47.172)">
      <path
         id="path12"
         d="m 1.2665,-0.7618125 1.0546875,-1.03125 c 1.5585937,-1.3710937 2.15625,-1.9101562 2.15625,-2.90625 0,-1.1367187 -0.9023438,-1.9335937 -2.1210938,-1.9335937 -1.125,0 -1.85156245,0.9140625 -1.85156245,1.8046875 0,0.5507812 0.4921875,0.5507812 0.52734375,0.5507812 0.1640625,0 0.515625,-0.1171875 0.515625,-0.5273437 0,-0.2578125 -0.1875,-0.515625 -0.5273438,-0.515625 -0.0820312,0 -0.1054687,0 -0.1289062,0.011719 0.2226562,-0.6445312 0.7617187,-1.0195312 1.3359375,-1.0195312 0.9140625,0 1.3359375,0.8085937 1.3359375,1.6289062 0,0.796875 -0.4921875,1.5820313 -1.0429688,2.203125 L 0.61025,-0.363375 C 0.50478125,-0.25790625 0.50478125,-0.23446875 0.50478125,-9.375e-5 H 4.1961875 l 0.28125,-1.73437495 H 4.219625 C 4.17275,-1.4297812 4.1024375,-0.9961875 4.0086875,-0.84384375 3.938375,-0.7618125 3.282125,-0.7618125 3.0594687,-0.7618125 Z M 9.4579062,-2.004 c 0,-1.1835937 -0.8203125,-2.1796875 -1.8984375,-2.1796875 -0.4804687,0 -0.9023437,0.1640625 -1.265625,0.5039063 V -5.613375 c 0.1992188,0.058594 0.5273438,0.1289063 0.84375,0.1289063 1.2304688,0 1.9335938,-0.9140625 1.9335938,-1.0429688 0,-0.058594 -0.035156,-0.1054687 -0.1054688,-0.1054687 -0.011719,0 -0.035156,0 -0.082031,0.023437 C 8.6844687,-6.5157187 8.204,-6.3165 7.5360312,-6.3165 c -0.3984375,0 -0.8554687,-0.070312 -1.3242187,-0.28125 -0.082031,-0.023437 -0.1054688,-0.023437 -0.1289063,-0.023437 -0.09375,0 -0.09375,0.082031 -0.09375,0.234375 v 2.953125 c 0,0.1757813 0,0.2578125 0.140625,0.2578125 0.070312,0 0.082031,-0.035156 0.1289063,-0.09375 0.1054687,-0.1523437 0.4804687,-0.6914062 1.2773437,-0.6914062 0.5273438,0 0.7734375,0.4570312 0.8554688,0.6328125 0.1523437,0.375 0.1757812,0.7617187 0.1757812,1.2539062 0,0.3515625 0,0.9492188 -0.234375,1.37109375 C 8.0868125,-0.3165 7.7235312,-0.0586875 7.2665,-0.0586875 c -0.7265625,0 -1.3007813,-0.52734375 -1.4648438,-1.1132812 0.023437,0.011719 0.058594,0.011719 0.1640625,0.011719 0.328125,0 0.5039063,-0.2460937 0.5039063,-0.4804687 0,-0.2460938 -0.1757813,-0.4921875 -0.5039063,-0.4921875 -0.140625,0 -0.4804687,0.070312 -0.4804687,0.5273437 0,0.85546875 0.6796875,1.828125 1.7929687,1.828125 1.1601563,0 2.1796875,-0.9609375 2.1796875,-2.2265628 z m 0,0"
         style="fill:#000000;fill-opacity:1;fill-rule:nonzero;stroke:none" />
      <path
         id="path13"
         d="m 13.91982,-3.4922812 c 0.05859,-0.2109375 0.152344,-0.5976563 0.152344,-0.6445313 0,-0.1640625 -0.117187,-0.2695312 -0.292969,-0.2695312 -0.02344,0 -0.304687,0.011719 -0.398437,0.3632812 l -1.429688,5.765625 c -0.02344,0.1171875 -0.02344,0.140625 -0.02344,0.1640625 0,0.140625 0.105469,0.2695313 0.269531,0.2695313 0.210938,0 0.328125,-0.1875 0.351563,-0.2109375 0.03516,-0.09375 0.175781,-0.609375 0.550781,-2.1445313 0.316406,0.26953125 0.761719,0.3046875 0.960937,0.3046875 0.703125,0 1.089844,-0.4453125 1.324219,-0.7265625 0.09375,0.45703125 0.457031,0.7265625 0.902344,0.7265625 0.351562,0 0.574219,-0.22265625 0.738281,-0.5390625 0.164063,-0.36328125 0.292969,-0.9726562 0.292969,-0.9960937 0,-0.09375 -0.08203,-0.09375 -0.117188,-0.09375 -0.09375,0 -0.105468,0.035156 -0.140625,0.1757812 -0.164062,0.64453125 -0.351562,1.2421875 -0.75,1.2421875 -0.269531,0 -0.304687,-0.2578125 -0.304687,-0.45703125 0,-0.22265625 0.117187,-0.69140625 0.199219,-1.04296875 l 0.28125,-1.078125 c 0.02344,-0.140625 0.128906,-0.5273437 0.164062,-0.6679687 0.05859,-0.234375 0.152344,-0.609375 0.152344,-0.6679688 0,-0.1875 -0.140625,-0.2695312 -0.292969,-0.2695312 -0.04687,0 -0.304687,0 -0.386719,0.3398437 l -0.46875,1.8632813 C 15.537008,-1.582125 15.431539,-1.16025 15.396383,-1.0665 c -0.01172,0.046875 -0.480469,0.9609375 -1.289063,0.9609375 -0.503906,0 -0.738281,-0.328125 -0.738281,-0.8671875 0,-0.2929687 0.07031,-0.5742187 0.140625,-0.8554687 z m 6.723633,0.2578125 h 0.960938 c 0.75,0 0.832031,0.1523437 0.832031,0.4453125 0,0.070312 0,0.1875 -0.07031,0.4921875 -0.02344,0.046875 -0.03516,0.082031 -0.03516,0.1054687 0,0.082031 0.05859,0.1171875 0.117188,0.1171875 0.105468,0 0.105468,-0.023437 0.152343,-0.2109375 l 0.550782,-2.15625 c 0.02344,-0.1054687 0.02344,-0.1289062 0.02344,-0.1640625 0,-0.011719 -0.01172,-0.1054687 -0.117187,-0.1054687 -0.09375,0 -0.105469,0.046875 -0.152344,0.2109375 -0.199219,0.7734375 -0.433594,0.9492187 -1.277344,0.9492187 h -0.914062 l 0.644531,-2.53125 c 0.08203,-0.3398437 0.09375,-0.3867187 0.539062,-0.3867187 h 1.3125 c 1.21875,0 1.453125,0.328125 1.453125,1.1015625 0,0.2226562 0,0.2695312 -0.03516,0.5390625 -0.01172,0.1289062 -0.01172,0.140625 -0.01172,0.1757812 0,0.046875 0.02344,0.1171875 0.117188,0.1171875 0.105469,0 0.117187,-0.058594 0.140625,-0.2460937 L 25.073141,-6.504 c 0.02344,-0.2695312 -0.02344,-0.2695312 -0.269532,-0.2695312 h -4.886718 c -0.199219,0 -0.292969,0 -0.292969,0.1992187 0,0.1054688 0.09375,0.1054688 0.28125,0.1054688 0.363281,0 0.644531,0 0.644531,0.1875 0,0.035156 0,0.058594 -0.04687,0.234375 l -1.324219,5.27343745 c -0.09375,0.38671875 -0.117187,0.46875 -0.902343,0.46875 -0.164063,0 -0.28125,0 -0.28125,0.1875 0,0.1171875 0.128906,0.1171875 0.152343,0.1171875 0.292969,0 1.03125,-0.03515625 1.3125,-0.03515625 0.328125,0 1.160157,0.03515625 1.488282,0.03515625 0.09375,0 0.210937,0 0.210937,-0.1875 0,-0.0820313 -0.05859,-0.10546875 -0.05859,-0.1171875 -0.03516,0 -0.05859,0 -0.28125,0 -0.222656,0 -0.269531,0 -0.515625,-0.0234375 -0.292968,-0.0351563 -0.328125,-0.0703125 -0.328125,-0.19921875 0,-0.0234375 0,-0.0820313 0.04687,-0.234375 z m 0,0"
         style="fill:#000000;fill-opacity:1;fill-rule:nonzero;stroke:none" />
    </g>
    <path
       id="path14"
       d="m 52.6114,51.02426 c 0,0.87656 -0.71058,1.58714 -1.58714,1.58714 -0.87656,0 -1.58714,-0.71058 -1.58714,-1.58714 0,-0.87656 0.71058,-1.58714 1.58714,-1.58714 0.87656,0 1.58714,0.71058 1.58714,1.58714 z"
       style="fill:#000000;fill-opacity:1;fill-rule:nonzero;stroke:#000000;stroke-width:0.3985;stroke-linecap:butt;stroke-linejoin:miter;stroke-miterlimit:10;stroke-dasharray:none;stroke-opacity:1"
       transform="matrix(1.3333333,0,0,-1.3333333,42.989333,84.437333)" />
    <path
       id="path15"
       d="m 103.63568,51.02426 c 0,0.87656 -0.71058,1.58714 -1.58714,1.58714 -0.87657,0 -1.58716,-0.71058 -1.58716,-1.58714 0,-0.87656 0.71059,-1.58714 1.58716,-1.58714 0.87656,0 1.58714,0.71058 1.58714,1.58714 z"
       style="fill:#ffffff;fill-opacity:1;fill-rule:nonzero;stroke:#000000;stroke-width:0.3985;stroke-linecap:butt;stroke-linejoin:miter;stroke-miterlimit:10;stroke-dasharray:none;stroke-opacity:1"
       transform="matrix(1.3333333,0,0,-1.3333333,42.989333,84.437333)" />
    <path
       id="path16"
       d="M 4.8159766,-0.89017969 V -1.4409609 H 4.5581641 v 0.55078121 c 0,0.5859375 -0.2460938,0.64453125 -0.3515625,0.64453125 -0.328125,0 -0.375,-0.45703125 -0.375,-0.50390625 V -2.7417422 c 0,-0.4101562 0,-0.8085937 -0.3515625,-1.171875 -0.3867188,-0.3867187 -0.890625,-0.5507812 -1.3710938,-0.5507812 -0.8085937,0 -1.49999999,0.46875 -1.49999999,1.125 0,0.3046875 0.19921875,0.46875 0.45703129,0.46875 0.28125,0 0.4570312,-0.1992188 0.4570312,-0.4570313 0,-0.1171875 -0.046875,-0.4453125 -0.5039062,-0.4570312 0.2695312,-0.3515625 0.75,-0.4570313 1.078125,-0.4570313 0.4804687,0 1.0546875,0.3867188 1.0546875,1.2773438 v 0.3632812 c -0.515625,0.035156 -1.2070313,0.058594 -1.8398438,0.3632813 -0.74999999,0.3398437 -0.99609374,0.8554687 -0.99609374,1.28906246 0,0.80859375 0.97265624,1.0546875 1.59375004,1.0546875 0.65625,0 1.1132812,-0.3984375 1.3125,-0.8671875 0.035156,0.3984375 0.3046875,0.8203125 0.7734375,0.8203125 0.2109375,0 0.8203125,-0.140625 0.8203125,-0.94921875 z M 3.1519141,-1.3940859 c 0,0.94921871 -0.7265625,1.28906246 -1.171875,1.28906246 -0.4804688,0 -0.890625,-0.3515625 -0.890625,-0.85546875 0,-0.53906251 0.4101562,-1.37109371 2.0625,-1.42968751 z m 0,0"
       style="fill:#000000;fill-opacity:1;fill-rule:nonzero;stroke:none"
       aria-label="a"
       transform="matrix(1.3333333,0,0,1.3333333,183.74667,19.308)" />
    <path
       id="path17"
       d="m 51.02426,0 -10e-6,9.63792 m 0,31.74838 10e-6,9.63796"
       style="fill:none;stroke:#000000;stroke-width:0.3985;stroke-linecap:butt;stroke-linejoin:miter;stroke-miterlimit:10;stroke-dasharray:none;stroke-opacity:1"
       transform="matrix(1.3333333,0,0,-1.3333333,42.989333,84.437333)" />
    <path
       id="path18"
       d="m 51.18364,9.23943 c -3.28755,0 -5.95256,1.82136 -5.95256,4.06816 0,2.24681 2.66501,4.06817 5.95256,4.06817 -3.28755,0 -5.95256,1.82137 -5.95256,4.06818 0,2.24679 2.66501,4.06816 5.95256,4.06816 -3.28755,0 -5.95256,1.82137 -5.95256,4.06818 0,2.24681 2.66501,4.06817 5.95256,4.06817 -3.28755,0 -5.95256,1.82137 -5.95256,4.06816 0,2.24681 2.66501,4.06818 5.95256,4.06818"
       style="fill:none;stroke:#000000;stroke-width:0.797;stroke-linecap:butt;stroke-linejoin:bevel;stroke-miterlimit:10;stroke-dasharray:none;stroke-opacity:1"
       transform="matrix(1.3333333,0,0,-1.3333333,42.989333,84.437333)" />
    <g
       id="g18"
       aria-label="0.8mH"
       transform="matrix(1.3333333,0,0,1.3333333,116.07867,53.284)">
      <path
         id="path19"
         d="m 4.581625,-3.1866328 c 0,-0.796875 -0.046875,-1.59375 -0.3984375,-2.3320313 -0.4570312,-0.9609375 -1.2773437,-1.1132812 -1.6875,-1.1132812 -0.5976562,0 -1.3359375,0.2578125 -1.734375,1.1835937 -0.328125,0.6914063 -0.375,1.4648438 -0.375,2.2617188 0,0.75 0.046875,1.640625 0.4453125,2.40234374 0.4335938,0.80859375 1.1601563,1.0078125 1.6523438,1.0078125 0.5390625,0 1.2890625,-0.2109375 1.734375,-1.16015625 C 4.53475,-1.6280391 4.581625,-2.4014766 4.581625,-3.1866328 Z M 2.4839688,8.671875e-4 c -0.3867188,0 -0.984375,-0.2460937475 -1.1601563,-1.2070312875 -0.1054687,-0.5976562 -0.1054687,-1.5117187 -0.1054687,-2.0976562 0,-0.6445313 0,-1.3007813 0.082031,-1.8398438 0.1875,-1.1835937 0.9257813,-1.265625 1.1835938,-1.265625 0.328125,0 0.984375,0.1757813 1.171875,1.1601563 0.09375,0.5625 0.09375,1.3125 0.09375,1.9453125 0,0.75 0,1.4179687 -0.1054688,2.0625 C 3.4917813,-0.30382031 2.9292813,8.671875e-4 2.4839688,8.671875e-4 Z m 0,0"
         style="fill:#000000;fill-opacity:1;fill-rule:nonzero;stroke:none" />
      <path
         id="path20"
         d="m 6.8931484,-0.52647656 c 0,-0.29296875 -0.234375,-0.52734374 -0.5273437,-0.52734374 -0.28125,0 -0.5273438,0.23437499 -0.5273438,0.52734374 0,0.29296875 0.2460938,0.5273437475 0.5273438,0.5273437475 0.2929687,0 0.5273437,-0.2343749975 0.5273437,-0.5273437475 z m 0,0"
         style="fill:#000000;fill-opacity:1;fill-rule:nonzero;stroke:none" />
      <path
         id="path21"
         d="m 9.3775234,-4.5460078 c -0.46875,-0.3046875 -0.5039062,-0.6445313 -0.5039062,-0.8085938 0,-0.609375 0.6445312,-1.03125 1.3593748,-1.03125 0.726563,0 1.359375,0.515625 1.359375,1.2421875 0,0.5625 -0.386719,1.0429688 -0.984375,1.3945313 z m 1.4531246,0.9375 c 0.714844,-0.3632813 1.207032,-0.8789063 1.207032,-1.5351563 0,-0.9257812 -0.890625,-1.4882812 -1.792969,-1.4882812 -0.9960938,0 -1.8046876,0.7382812 -1.8046876,1.6640625 0,0.1757812 0.011719,0.6210937 0.4335938,1.0898437 0.1054687,0.1289063 0.4804687,0.375 0.7265625,0.5390625 -0.5742188,0.2929688 -1.4296875,0.84375 -1.4296875,1.8398438 0,1.05468749 1.0078125,1.72265624 2.0624998,1.72265624 1.125,0 2.0625,-0.83203125 2.0625,-1.89843754 0,-0.3515625 -0.105469,-0.8085937 -0.480469,-1.21875 -0.1875,-0.2109375 -0.351562,-0.3164062 -0.984375,-0.7148437 z m -0.9960933,0.421875 1.2187503,0.7734375 c 0.28125,0.1875 0.75,0.4921875 0.75,1.1015625 0,0.73828124 -0.75,1.25390624 -1.558594,1.25390624 -0.8671876,0 -1.5820313,-0.62109375 -1.5820313,-1.44140624 0,-0.5859375 0.3164062,-1.21875 1.171875,-1.6875 z m 0,0"
         style="fill:#000000;fill-opacity:1;fill-rule:nonzero;stroke:none" />
      <path
         id="path22"
         d="m 15.269125,-0.58507031 c -0.03516,0.15234375 -0.09375,0.375 -0.09375,0.421875 0,0.1875 0.140625,0.26953125 0.292969,0.26953125 0.117187,0 0.292969,-0.0703125 0.363281,-0.26953125 0.01172,-0.0234375 0.128906,-0.4921875 0.1875,-0.73828125 l 0.222656,-0.90234374 c 0.05859,-0.2226563 0.117188,-0.4335938 0.175782,-0.6679688 0.03516,-0.1640625 0.117187,-0.4570312 0.128906,-0.4921875 0.140625,-0.3164062 0.667969,-1.21875 1.617187,-1.21875 0.445313,0 0.539063,0.3632813 0.539063,0.6914063 0,0.2578125 -0.07031,0.5390625 -0.152344,0.8320312 l -0.269531,1.1601563 -0.199219,0.74999999 c -0.04687,0.19921875 -0.140625,0.5390625 -0.140625,0.5859375 0,0.1875 0.140625,0.26953125 0.292969,0.26953125 0.304687,0 0.375,-0.24609375 0.445312,-0.5625 0.140625,-0.56250004 0.515625,-2.01562504 0.597657,-2.40234374 0.03516,-0.1289063 0.5625,-1.3242188 1.652343,-1.3242188 0.421875,0 0.539063,0.3398438 0.539063,0.6914063 0,0.5742187 -0.421875,1.7109375 -0.621094,2.2382812 -0.09375,0.234375 -0.128906,0.35156254 -0.128906,0.55078129 0,0.46875 0.351562,0.80859375 0.808594,0.80859375 0.9375,0 1.3125,-1.45312504 1.3125,-1.53515624 0,-0.09375 -0.09375,-0.09375 -0.117188,-0.09375 -0.105469,0 -0.105469,0.023437 -0.152344,0.1757812 -0.152343,0.52734379 -0.46875,1.24218754 -1.019531,1.24218754 -0.164062,0 -0.234375,-0.10546875 -0.234375,-0.328125 0,-0.2578125 0.08203,-0.4921875 0.175781,-0.71484374 0.1875,-0.515625 0.609375,-1.6171875 0.609375,-2.1914063 0,-0.6445312 -0.398437,-1.0664062 -1.148437,-1.0664062 -0.75,0 -1.253906,0.4453125 -1.617188,0.9726562 -0.01172,-0.1289062 -0.04687,-0.46875 -0.328125,-0.7148437 -0.246093,-0.1992188 -0.5625,-0.2578125 -0.808593,-0.2578125 -0.902344,0 -1.382813,0.6445312 -1.558594,0.8671875 -0.04687,-0.5625 -0.46875,-0.8671875 -0.914063,-0.8671875 -0.457031,0 -0.644531,0.3867187 -0.738281,0.5742187 -0.175781,0.3398438 -0.304687,0.9375 -0.304687,0.9609375 0,0.1054688 0.09375,0.1054688 0.117187,0.1054688 0.09375,0 0.105469,-0.011719 0.164063,-0.234375 0.175781,-0.703125 0.375,-1.1835938 0.726562,-1.1835938 0.164063,0 0.316406,0.082031 0.316406,0.4570313 0,0.2109375 -0.03516,0.3164062 -0.164062,0.8320312 z M 30.743734,-6.0342891 c 0.08203,-0.3632812 0.105469,-0.4570312 0.832032,-0.4570312 0.257812,0 0.339843,0 0.339843,-0.1992188 0,-0.1171875 -0.105468,-0.1171875 -0.140625,-0.1171875 -0.28125,0 -0.996093,0.035156 -1.277343,0.035156 -0.28125,0 -0.996094,-0.035156 -1.277344,-0.035156 -0.08203,0 -0.199219,0 -0.199219,0.1992188 0,0.1171875 0.09375,0.1171875 0.28125,0.1171875 0.02344,0 0.210938,0 0.375,0.011719 0.1875,0.023437 0.269531,0.035156 0.269531,0.1640625 0,0.035156 0,0.058594 -0.03516,0.1875 l -0.597656,2.4375 h -3.035156 l 0.585937,-2.34375 c 0.09375,-0.3632812 0.117188,-0.4570312 0.832031,-0.4570312 0.257813,0 0.339844,0 0.339844,-0.1992188 0,-0.1171875 -0.105469,-0.1171875 -0.140625,-0.1171875 -0.269531,0 -0.996094,0.035156 -1.265625,0.035156 -0.292969,0 -0.996094,-0.035156 -1.289062,-0.035156 -0.08203,0 -0.1875,0 -0.1875,0.1992188 0,0.1171875 0.08203,0.1171875 0.28125,0.1171875 0.01172,0 0.199218,0 0.375,0.011719 0.175781,0.023437 0.269531,0.035156 0.269531,0.1640625 0,0.035156 -0.01172,0.070312 -0.04687,0.1875 l -1.335938,5.35546879 c -0.09375,0.38671875 -0.117187,0.46875 -0.902343,0.46875 -0.175782,0 -0.269532,0 -0.269532,0.19921875 0,0.1054687475 0.117188,0.1054687475 0.140625,0.1054687475 0.28125,0 0.984375,-0.0351562475 1.265625,-0.0351562475 0.210938,0 0.433594,0.01171875 0.632813,0.01171875 0.222656,0 0.445312,0.0234374975 0.65625,0.0234374975 0.07031,0 0.199219,0 0.199219,-0.1992187475 0,-0.10546875 -0.09375,-0.10546875 -0.28125,-0.10546875 -0.375,0 -0.644532,0 -0.644532,-0.1875 0,-0.0585938 0.01172,-0.10546875 0.02344,-0.1640625 L 26.196862,-3.385851 h 3.035157 c -0.410157,1.6523438 -0.644532,2.60156254 -0.679688,2.75390629 -0.105469,0.31640625 -0.292969,0.328125 -0.914062,0.328125 -0.152344,0 -0.234375,0 -0.234375,0.19921875 0,0.1054687475 0.117187,0.1054687475 0.140625,0.1054687475 0.28125,0 0.984375,-0.0351562475 1.265625,-0.0351562475 0.210937,0 0.421875,0.01171875 0.632812,0.01171875 0.222656,0 0.433594,0.0234374975 0.644531,0.0234374975 0.08203,0 0.199219,0 0.199219,-0.1992187475 0,-0.10546875 -0.08203,-0.10546875 -0.269531,-0.10546875 -0.375,0 -0.65625,0 -0.65625,-0.1875 0,-0.0585938 0.02344,-0.10546875 0.03516,-0.1640625 z m 0,0"
         style="fill:#000000;fill-opacity:1;fill-rule:nonzero;stroke:none" />
    </g>
  </g>
</svg>
