<?xml version="1.0" encoding="UTF-8" standalone="no"?>
<!-- Created with Inkscape (http://www.inkscape.org/) -->

<svg
   version="1.1"
   id="svg1"
   width="83.853333"
   height="95.986664"
   viewBox="0 0 83.853333 95.986664"
   sodipodi:docname="23-24-2-电路与电子学基础-期末（A卷）-题图2.8.pdf"
   xmlns:inkscape="http://www.inkscape.org/namespaces/inkscape"
   xmlns:sodipodi="http://sodipodi.sourceforge.net/DTD/sodipodi-0.dtd"
   xmlns="http://www.w3.org/2000/svg"
   xmlns:svg="http://www.w3.org/2000/svg">
  <defs
     id="defs1" />
  <sodipodi:namedview
     id="namedview1"
     pagecolor="#ffffff"
     bordercolor="#111111"
     borderopacity="1"
     inkscape:showpageshadow="0"
     inkscape:pageopacity="0"
     inkscape:pagecheckerboard="1"
     inkscape:deskcolor="#d1d1d1">
    <inkscape:page
       x="0"
       y="0"
       inkscape:label="1"
       id="page1"
       width="83.853333"
       height="95.986664"
       margin="0"
       bleed="0" />
  </sodipodi:namedview>
  <g
     id="g1"
     inkscape:groupmode="layer"
     inkscape:label="1">
    <path
       id="path1"
       d="M 23.81145,22.0263 V 8.73067 L 11.90573,3.27391"
       style="fill:none;stroke:#000000;stroke-width:0.3985;stroke-linecap:butt;stroke-linejoin:miter;stroke-miterlimit:10;stroke-dasharray:none;stroke-opacity:1"
       transform="matrix(1.3333333,0,0,-1.3333333,27.938667,48.398667)" />
    <path
       id="path2"
       d="M 11.90573,8.73067 V -8.73067"
       style="fill:none;stroke:#000000;stroke-width:0.797;stroke-linecap:butt;stroke-linejoin:miter;stroke-miterlimit:10;stroke-dasharray:none;stroke-opacity:1"
       transform="matrix(1.3333333,0,0,-1.3333333,27.938667,48.398667)" />
    <path
       id="path3"
       d="M 11.90573,-3.27391 23.81145,-8.73067 V -22.0263"
       style="fill:none;stroke:#000000;stroke-width:0.3985;stroke-linecap:butt;stroke-linejoin:miter;stroke-miterlimit:10;stroke-dasharray:none;stroke-opacity:1"
       transform="matrix(1.3333333,0,0,-1.3333333,27.938667,48.398667)" />
    <path
       id="path4"
       d="m 16.0992,-5.19592 0.95274,2.07878 3.6927,-4.20789 -5.5982,0.05033 z"
       style="fill:#000000;fill-opacity:1;fill-rule:nonzero;stroke:none"
       transform="matrix(1.3333333,0,0,-1.3333333,27.938667,48.398667)" />
    <path
       id="path5"
       d="M 11.90573,0 H -0.19925"
       style="fill:none;stroke:#000000;stroke-width:0.3985;stroke-linecap:butt;stroke-linejoin:miter;stroke-miterlimit:10;stroke-dasharray:none;stroke-opacity:1"
       transform="matrix(1.3333333,0,0,-1.3333333,27.938667,48.398667)" />
    <g
       id="g5"
       aria-label="7V"
       transform="matrix(1.3333333,0,0,1.3333333,4.4266667,52.789333)">
      <path
         id="path6"
         d="m 4.7454297,-6.0705156 c 0.082031,-0.1171875 0.082031,-0.140625 0.082031,-0.3398438 H 2.4133984 c -1.21875,0 -1.2421875,-0.1289062 -1.2773437,-0.328125 H 0.88996094 l -0.328125,2.0507813 h 0.24609375 c 0.0234375,-0.1523438 0.1171875,-0.7851563 0.24609371,-0.9023438 0.070312,-0.058594 0.84375,-0.058594 0.9726563,-0.058594 h 2.0625 c -0.1054688,0.1640625 -0.890625,1.2421875 -1.1132813,1.5703125 -0.890625,1.3476562 -1.21875,2.7304687 -1.21875,3.74999998 0,0.09375 0,0.55078125 0.4570313,0.55078125 0.4570312,0 0.4570312,-0.45703125 0.4570312,-0.55078125 v -0.50390625 c 0,-0.55078123 0.023437,-1.10156253 0.1054688,-1.64062503 0.046875,-0.2226562 0.1757812,-1.078125 0.6210937,-1.6992187 z m 0,0"
         style="fill:#000000;fill-opacity:1;fill-rule:nonzero;stroke:none" />
      <path
         id="path7"
         d="m 13.918281,-6.4923906 v -0.3164063 c -0.316406,0.023437 -0.714844,0.035156 -0.972656,0.035156 l -1.136719,-0.035156 v 0.3164063 c 0.515625,0.011719 0.726563,0.2695312 0.726563,0.4921875 0,0.082031 -0.02344,0.140625 -0.04687,0.1992187 l -1.82813,4.80468753 -1.8984378,-5.02734373 c -0.058594,-0.140625 -0.058594,-0.1875 -0.058594,-0.1875 0,-0.28125 0.5625,-0.28125 0.8203125,-0.28125 v -0.3164063 c -0.3632813,0.035156 -1.0546875,0.035156 -1.4296875,0.035156 l -1.265625,-0.035156 v 0.3164063 c 0.6445312,0 0.84375,0 0.9726562,0.375 l 2.3203126,6.117187475 c 0.07031,0.187500005 0.117188,0.222656255 0.246094,0.222656255 0.164062,0 0.1875,-0.0585938 0.234375,-0.1875 l 2.226562,-5.85937503 c 0.140625,-0.375 0.410157,-0.65625 1.089844,-0.6679687 z m 0,0"
         style="fill:#000000;fill-opacity:1;fill-rule:nonzero;stroke:none" />
    </g>
    <g
       id="g7"
       aria-label="+6.7V"
       transform="matrix(1.3333333,0,0,1.3333333,39.946667,13.496)">
      <path
         id="path8"
         d="m 4.0771094,-2.2968047 h 2.7773437 c 0.140625,0 0.328125,0 0.328125,-0.1992187 0,-0.1992188 -0.1875,-0.1992188 -0.328125,-0.1992188 H 4.0771094 v -2.7890625 c 0,-0.1289062 0,-0.328125 -0.1992188,-0.328125 -0.1992187,0 -0.1992187,0.1992188 -0.1992187,0.328125 v 2.7890625 H 0.88960937 c -0.140625,0 -0.328125,0 -0.328125,0.1992188 0,0.1992187 0.1875,0.1992187 0.328125,0.1992187 H 3.6786719 v 2.80078126 c 0,0.12890625 0,0.328125 0.1992187,0.328125 0.1992188,0 0.1992188,-0.19921875 0.1992188,-0.328125 z m 4.977539,-0.9726562 v -0.234375 c 0,-2.5195313 1.2421876,-2.8828125 1.7460936,-2.8828125 0.234375,0 0.65625,0.058594 0.878906,0.3984375 -0.152343,0 -0.550781,0 -0.550781,0.4453125 0,0.3164062 0.234375,0.4570312 0.457031,0.4570312 0.164063,0 0.457032,-0.082031 0.457032,-0.46875 0,-0.5976562 -0.433594,-1.078125 -1.265625,-1.078125 -1.2773441,0 -2.6132816,1.2890625 -2.6132816,3.4804688 0,2.66015621 1.1484375,3.37499996 2.0742186,3.37499996 1.113281,0 2.050781,-0.9375 2.050781,-2.24999996 0,-1.265625 -0.878906,-2.2265625 -1.992187,-2.2265625 -0.6679688,0 -1.0429688,0.5039062 -1.2421876,0.984375 z m 1.1835936,3.21093746 c -0.6210936,0 -0.9257811,-0.59765625 -0.9843748,-0.75 C 9.0780859,-1.2772734 9.0780859,-2.0741484 9.0780859,-2.2499297 c 0,-0.7734375 0.3164063,-1.7695312 1.2187501,-1.7695312 0.152344,0 0.609375,0 0.925781,0.609375 0.175781,0.375 0.175781,0.8789062 0.175781,1.3710937 0,0.4804688 0,0.9726563 -0.164062,1.33593751 -0.304688,0.59765625 -0.761719,0.64453125 -0.996094,0.64453125 z m 0,0"
         style="fill:#000000;fill-opacity:1;fill-rule:nonzero;stroke:none" />
      <path
         id="path9"
         d="m 14.641562,-0.52727344 c 0,-0.29296875 -0.234375,-0.52734376 -0.527343,-0.52734376 -0.28125,0 -0.527344,0.23437501 -0.527344,0.52734376 0,0.29296875 0.246094,0.5273437525 0.527344,0.5273437525 0.292968,0 0.527343,-0.2343750025 0.527343,-0.5273437525 z m 0,0"
         style="fill:#000000;fill-opacity:1;fill-rule:nonzero;stroke:none" />
      <path
         id="path10"
         d="m 20.243125,-6.0702422 c 0.08203,-0.1171875 0.08203,-0.140625 0.08203,-0.3398437 h -2.414062 c -1.21875,0 -1.242188,-0.1289063 -1.277344,-0.328125 h -0.246094 l -0.328125,2.0507812 h 0.246094 c 0.02344,-0.1523437 0.117187,-0.7851562 0.246094,-0.9023437 0.07031,-0.058594 0.84375,-0.058594 0.972656,-0.058594 h 2.0625 c -0.105469,0.1640625 -0.890625,1.2421875 -1.113281,1.5703125 -0.890625,1.3476563 -1.21875,2.7304688 -1.21875,3.75000001 0,0.09375 0,0.55078125 0.457031,0.55078125 0.457031,0 0.457031,-0.45703125 0.457031,-0.55078125 v -0.50390625 c 0,-0.55078126 0.02344,-1.10156246 0.105469,-1.64062496 0.04687,-0.2226563 0.175781,-1.078125 0.621094,-1.6992188 z m 0,0"
         style="fill:#000000;fill-opacity:1;fill-rule:nonzero;stroke:none" />
      <path
         id="path11"
         d="m 29.415977,-6.4921172 v -0.3164062 c -0.316407,0.023437 -0.714844,0.035156 -0.972657,0.035156 l -1.136718,-0.035156 v 0.3164062 c 0.515625,0.011719 0.726562,0.2695313 0.726562,0.4921875 0,0.082031 -0.02344,0.140625 -0.04687,0.1992188 l -1.828125,4.80468746 -1.898437,-5.02734376 c -0.05859,-0.140625 -0.05859,-0.1875 -0.05859,-0.1875 0,-0.28125 0.5625,-0.28125 0.820312,-0.28125 v -0.3164062 c -0.363281,0.035156 -1.054687,0.035156 -1.429687,0.035156 l -1.265625,-0.035156 v 0.3164062 c 0.644531,0 0.84375,0 0.972656,0.375 L 25.619102,7.03125e-5 c 0.07031,0.1874999975 0.117187,0.2226562475 0.246093,0.2226562475 0.164063,0 0.1875,-0.0585938 0.234375,-0.1875 l 2.226563,-5.85937496 c 0.140625,-0.375 0.410156,-0.65625 1.089844,-0.6679688 z m 0,0"
         style="fill:#000000;fill-opacity:1;fill-rule:nonzero;stroke:none" />
    </g>
    <g
       id="g11"
       aria-label="6.3V"
       transform="matrix(1.3333333,0,0,1.3333333,45.112,91.266667)">
      <path
         id="path12"
         d="m 1.3134609,-3.2703125 v -0.234375 c 0,-2.5195313 1.2421875,-2.8828125 1.7460938,-2.8828125 0.234375,0 0.65625,0.058594 0.8789062,0.3984375 -0.1523437,0 -0.5507812,0 -0.5507812,0.4453125 0,0.3164062 0.234375,0.4570312 0.4570312,0.4570312 0.1640625,0 0.4570313,-0.082031 0.4570313,-0.46875 0,-0.5976562 -0.4335938,-1.078125 -1.265625,-1.078125 -1.2773438,0 -2.61328126,1.2890625 -2.61328126,3.4804688 0,2.66015625 1.14843746,3.375 2.07421876,3.375 1.1132812,0 2.0507812,-0.9375 2.0507812,-2.25 0,-1.265625 -0.8789062,-2.2265625 -1.9921875,-2.2265625 -0.6679687,0 -1.0429687,0.5039062 -1.2421875,0.984375 z m 1.1835938,3.2109375 c -0.6210938,0 -0.9257813,-0.59765625 -0.984375,-0.75 C 1.3368984,-1.278125 1.3368984,-2.075 1.3368984,-2.2507813 c 0,-0.7734375 0.3164063,-1.7695312 1.21875,-1.7695312 0.1523438,0 0.609375,0 0.9257813,0.609375 0.1757812,0.375 0.1757812,0.8789062 0.1757812,1.3710937 0,0.4804688 0,0.9726563 -0.1640625,1.33593755 C 3.1884609,-0.10625 2.7314297,-0.059375 2.4970547,-0.059375 Z m 0,0"
         style="fill:#000000;fill-opacity:1;fill-rule:nonzero;stroke:none" />
      <path
         id="path13"
         d="m 6.8915859,-0.528125 c 0,-0.29296875 -0.234375,-0.5273438 -0.5273437,-0.5273438 -0.28125,0 -0.5273438,0.23437505 -0.5273438,0.5273438 0,0.29296875 0.2460938,0.52734375 0.5273438,0.52734375 0.2929687,0 0.5273437,-0.234375 0.5273437,-0.52734375 z m 0,0"
         style="fill:#000000;fill-opacity:1;fill-rule:nonzero;stroke:none" />
      <path
         id="path14"
         d="m 10.644516,-3.5046875 c 0.808593,-0.2695313 1.394531,-0.9726563 1.394531,-1.7578125 0,-0.8203125 -0.878906,-1.3710938 -1.839844,-1.3710938 -1.0078124,0 -1.7578124,0.5976563 -1.7578124,1.3476563 0,0.3398437 0.2109375,0.5273437 0.5039063,0.5273437 0.3046875,0 0.5039062,-0.2226562 0.5039062,-0.515625 0,-0.4921875 -0.46875,-0.4921875 -0.609375,-0.4921875 C 9.1445156,-6.2585938 9.8007656,-6.3875 10.164047,-6.3875 c 0.410156,0 0.949219,0.2226562 0.949219,1.1132812 0,0.1289063 -0.01172,0.703125 -0.269532,1.1367188 -0.304687,0.4804687 -0.644531,0.515625 -0.8906246,0.515625 -0.082031,0.011719 -0.3164063,0.035156 -0.3867188,0.035156 -0.082031,0.011719 -0.1523437,0.023437 -0.1523437,0.1171875 0,0.1171875 0.070312,0.1171875 0.234375,0.1171875 h 0.4453121 c 0.808594,0 1.183594,0.6679688 1.183594,1.6523438 0,1.34765625 -0.691406,1.640625 -1.125,1.640625 -0.4335936,0 -1.1718749,-0.17578125 -1.5234374,-0.76171875 0.3515625,0.0585938 0.65625,-0.1640625 0.65625,-0.53906255 0,-0.3632812 -0.2695312,-0.5625 -0.5625,-0.5625 -0.234375,0 -0.5507812,0.140625 -0.5507812,0.5742188 0,0.9140625 0.9257812,1.5703125 2.0039066,1.5703125 1.21875,0 2.121093,-0.9140625 2.121093,-1.921875 0,-0.8203125 -0.621093,-1.59375 -1.652343,-1.8046873 z m 0,0"
         style="fill:#000000;fill-opacity:1;fill-rule:nonzero;stroke:none" />
      <path
         id="path15"
         d="M 21.666,-6.4929688 V -6.809375 c -0.316406,0.023437 -0.714844,0.035156 -0.972656,0.035156 l -1.136719,-0.035156 v 0.3164062 c 0.515625,0.011719 0.726562,0.2695313 0.726562,0.4921875 0,0.082031 -0.02344,0.140625 -0.04687,0.1992188 l -1.82813,4.8046875 -1.898437,-5.0273438 c -0.05859,-0.140625 -0.05859,-0.1875 -0.05859,-0.1875 0,-0.28125 0.5625,-0.28125 0.820313,-0.28125 V -6.809375 c -0.363282,0.035156 -1.054688,0.035156 -1.429688,0.035156 L 14.57616,-6.809375 v 0.3164062 c 0.644531,0 0.84375,0 0.972656,0.375 l 2.320313,6.11718755 c 0.07031,0.1875 0.117187,0.22265625 0.246094,0.22265625 0.164062,0 0.1875,-0.0585938 0.234375,-0.1875 L 20.576156,-5.825 C 20.716781,-6.2 20.986312,-6.48125 21.666,-6.4929688 Z m 0,0"
         style="fill:#000000;fill-opacity:1;fill-rule:nonzero;stroke:none" />
    </g>
  </g>
</svg>
