<?xml version="1.0" encoding="UTF-8" standalone="no"?>
<!-- Created with Inkscape (http://www.inkscape.org/) -->

<svg
   version="1.1"
   id="svg1"
   width="297.62668"
   height="181.97333"
   viewBox="0 0 297.62668 181.97333"
   sodipodi:docname="23-24-2-电路与电子学基础-期末（A卷）-题图3.1.pdf"
   xmlns:inkscape="http://www.inkscape.org/namespaces/inkscape"
   xmlns:sodipodi="http://sodipodi.sourceforge.net/DTD/sodipodi-0.dtd"
   xmlns="http://www.w3.org/2000/svg"
   xmlns:svg="http://www.w3.org/2000/svg">
  <defs
     id="defs1" />
  <sodipodi:namedview
     id="namedview1"
     pagecolor="#ffffff"
     bordercolor="#111111"
     borderopacity="1"
     inkscape:showpageshadow="0"
     inkscape:pageopacity="0"
     inkscape:pagecheckerboard="1"
     inkscape:deskcolor="#d1d1d1">
    <inkscape:page
       x="0"
       y="0"
       inkscape:label="1"
       id="page1"
       width="297.62668"
       height="181.97333"
       margin="0"
       bleed="0" />
  </sodipodi:namedview>
  <g
     id="g1"
     inkscape:groupmode="layer"
     inkscape:label="1">
    <path
       id="path1"
       d="m 0,0 h 68.59944 m 15.8739,0 h 68.59946 25.51213 m 0,0 h 25.51215"
       style="fill:none;stroke:#000000;stroke-width:0.3985;stroke-linecap:butt;stroke-linejoin:miter;stroke-miterlimit:10;stroke-dasharray:none;stroke-opacity:1"
       transform="matrix(1.3333333,0,0,-1.3333333,13.341333,32.150667)" />
    <g
       id="g2"
       aria-label="v&#10;I1"
       transform="matrix(1.3333333,0,0,1.3333333,4.4266667,25.465333)">
      <path
         id="path2"
         d="m 4.6633984,-3.7034922 c 0,-0.5390625 -0.2578125,-0.703125 -0.4453125,-0.703125 -0.2460937,0 -0.4804687,0.2578125 -0.4804687,0.4804688 0,0.1289062 0.046875,0.1875 0.1523437,0.3046875 0.2109375,0.1992187 0.3398438,0.4570312 0.3398438,0.8085937 0,0.421875 -0.609375,2.70703126 -1.7695313,2.70703126 -0.5039062,0 -0.7382812,-0.3515625 -0.7382812,-0.8671875 0,-0.56249996 0.2695312,-1.28906246 0.5742187,-2.12109376 0.070312,-0.1640625 0.1289063,-0.3046875 0.1289063,-0.4921875 0,-0.4453125 -0.328125,-0.8203125 -0.8203125,-0.8203125 -0.93750001,0 -1.31250001,1.453125 -1.31250001,1.5351563 0,0.1054687 0.09375,0.1054687 0.1171875,0.1054687 0.09375,0 0.10546875,-0.023437 0.15234375,-0.1875 0.29296875,-0.9960937 0.72656246,-1.2304687 1.00781246,-1.2304687 0.082031,0 0.2578125,0 0.2578125,0.3164062 0,0.2460938 -0.1054687,0.515625 -0.1757812,0.703125 -0.4335938,1.1484375 -0.5625,1.6054688 -0.5625,2.0390625 0,1.07812501 0.8671875,1.23046876 1.3359375,1.23046876 1.6640625,0 2.2382812,-3.29296876 2.2382812,-3.80859376 z m 0,0"
         style="fill:#000000;fill-opacity:1;fill-rule:nonzero;stroke:none" />
      <path
         id="path3"
         d="m 7.7132031,-2.7132578 c 0.058594,-0.2460938 0.070312,-0.3046875 0.5976563,-0.3046875 0.1757812,0 0.2578125,0 0.2578125,-0.140625 0,-0.070312 -0.046875,-0.1054688 -0.1171875,-0.1054688 -0.140625,0 -0.3164063,0.011719 -0.4570313,0.011719 -0.1640625,0 -0.328125,0.011719 -0.4804687,0.011719 0,0 -0.4804688,-0.011719 -0.4804688,-0.011719 -0.1523437,0 -0.328125,-0.011719 -0.4804687,-0.011719 -0.046875,0 -0.1523438,0 -0.1523438,0.1523438 0,0.09375 0.082031,0.09375 0.234375,0.09375 0.011719,0 0.1523438,0 0.2695313,0.011719 0.140625,0.011719 0.1875,0.023437 0.1875,0.1054688 0,0.035156 -0.011719,0.082031 -0.035156,0.140625 L 6.1311719,0.94299219 C 6.0842969,1.1773672 6.0608594,1.2476797 5.5335156,1.2476797 c -0.1875,0 -0.2578125,0 -0.2578125,0.1523437 0,0 0,0.09375 0.1171875,0.09375 0.1992188,0 0.7265625,-0.023437 0.9375,-0.023437 h 0.4804688 c 0.1523437,0 0.328125,0.023437 0.4804687,0.023437 0.046875,0 0.1523438,0 0.1523438,-0.1523437 0,-0.09375 -0.09375,-0.09375 -0.234375,-0.09375 -0.011719,0 -0.1523438,0 -0.2929688,-0.023437 -0.1640625,-0.011719 -0.1640625,-0.035156 -0.1640625,-0.1054688 0,0 0,-0.046875 0.035156,-0.15234371 z m 0,0"
         style="fill:#000000;fill-opacity:1;fill-rule:nonzero;stroke:none" />
      <path
         id="path4"
         d="m 11.234687,-2.9359141 c 0,-0.1875 -0.01172,-0.1992187 -0.210937,-0.1992187 -0.445313,0.4335937 -1.078125,0.4453125 -1.359375,0.4453125 v 0.2460937 c 0.1640625,0 0.621094,0 1.007812,-0.1875 v 3.55078129 c 0,0.23437501 0,0.32812501 -0.6914058,0.32812501 H 9.71125 v 0.2460937 c 0.1289062,-0.011719 0.984375,-0.023437 1.242187,-0.023437 0.210938,0 1.089844,0.011719 1.242188,0.023437 V 1.2476797 h -0.257813 c -0.703125,0 -0.703125,-0.09375 -0.703125,-0.32812501 z m 0,0"
         style="fill:#000000;fill-opacity:1;fill-rule:nonzero;stroke:none" />
    </g>
    <path
       id="path5"
       d="M 84.47334,0 68.59944,9.92134 V -9.92134 Z"
       style="fill:none;stroke:#000000;stroke-width:0.797;stroke-linecap:butt;stroke-linejoin:miter;stroke-miterlimit:10;stroke-dasharray:none;stroke-opacity:1"
       transform="matrix(1.3333333,0,0,-1.3333333,13.341333,32.150667)" />
    <path
       id="path6"
       d="M 84.47334,-9.92134 V 9.92134"
       style="fill:none;stroke:#000000;stroke-width:0.797;stroke-linecap:butt;stroke-linejoin:miter;stroke-miterlimit:10;stroke-dasharray:none;stroke-opacity:1"
       transform="matrix(1.3333333,0,0,-1.3333333,13.341333,32.150667)" />
    <path
       id="path7"
       d="M 1.58714,0 C 1.58714,0.87656 0.87656,1.58714 0,1.58714 -0.87656,1.58714 -1.58714,0.87656 -1.58714,0 c 0,-0.87656 0.71058,-1.58714 1.58714,-1.58714 0.87656,0 1.58714,0.71058 1.58714,1.58714 z"
       style="fill:#ffffff;fill-opacity:1;fill-rule:nonzero;stroke:#000000;stroke-width:0.3985;stroke-linecap:butt;stroke-linejoin:miter;stroke-miterlimit:10;stroke-dasharray:none;stroke-opacity:1"
       transform="matrix(1.3333333,0,0,-1.3333333,13.341333,32.150667)" />
    <g
       id="g7"
       aria-label="D&#10;1"
       transform="matrix(1.3333333,0,0,1.3333333,106.91067,13.305333)">
      <path
         id="path8"
         d="m 1.5816484,-0.77392188 c -0.09375,0.38671875 -0.1171875,0.46875 -0.90234371,0.46875 -0.17578125,0 -0.28125,0 -0.28125,0.1875 0,0.117187505 0.09375,0.117187505 0.28125,0.117187505 H 3.9722734 c 2.0742188,0 4.03125,-2.097656225 4.03125,-4.289062525 0,-1.3945312 -0.84375,-2.5195312 -2.3320312,-2.5195312 H 2.3199297 c -0.1875,0 -0.2929688,0 -0.2929688,0.1992187 0,0.1171875 0.082031,0.1171875 0.28125,0.1171875 0.1289063,0 0.3164063,0.011719 0.4335938,0.011719 0.1523437,0.023437 0.2109375,0.058594 0.2109375,0.1640625 0,0.035156 0,0.070312 -0.035156,0.1875 z m 2.15625,-5.34375002 c 0.082031,-0.3515625 0.1054688,-0.375 0.5390625,-0.375 h 1.0664063 c 0.9726562,0 1.7929687,0.5273438 1.7929687,1.8398438 0,0.4921875 -0.1992187,2.1210937 -1.0429687,3.2226562 -0.28125,0.3632813 -1.078125,1.12500002 -2.296875,1.12500002 h -1.125 c -0.140625,0 -0.1640625,0 -0.2226563,-0.0117188 -0.09375,-0.0117188 -0.1289062,-0.0234375 -0.1289062,-0.10546875 0,-0.0234375 0,-0.046875 0.046875,-0.22265625 z m 0,0"
         style="fill:#000000;fill-opacity:1;fill-rule:nonzero;stroke:none" />
      <path
         id="path9"
         d="m 10.578719,-2.9360313 c 0,-0.1875 -0.01172,-0.1992187 -0.210938,-0.1992187 -0.4453122,0.4335937 -1.0781247,0.4453125 -1.3593747,0.4453125 v 0.2460937 c 0.1640625,0 0.6210937,0 1.0078127,-0.1875 v 3.5507813 c 0,0.234375 0,0.328125 -0.6914065,0.328125 H 9.0552813 v 0.2460937 c 0.1289062,-0.011719 0.9843747,-0.023437 1.2421877,-0.023437 0.210937,0 1.089844,0.011719 1.242187,0.023437 V 1.2475625 h -0.257812 c -0.703125,0 -0.703125,-0.09375 -0.703125,-0.328125 z m 0,0"
         style="fill:#000000;fill-opacity:1;fill-rule:nonzero;stroke:none" />
    </g>
    <path
       id="path10"
       d="m 205.68422,0 c 0,0.87656 -0.71059,1.58714 -1.58714,1.58714 -0.87658,0 -1.58716,-0.71058 -1.58716,-1.58714 0,-0.87656 0.71058,-1.58714 1.58716,-1.58714 0.87655,0 1.58714,0.71058 1.58714,1.58714 z"
       style="fill:#ffffff;fill-opacity:1;fill-rule:nonzero;stroke:#000000;stroke-width:0.3985;stroke-linecap:butt;stroke-linejoin:miter;stroke-miterlimit:10;stroke-dasharray:none;stroke-opacity:1"
       transform="matrix(1.3333333,0,0,-1.3333333,13.341333,32.150667)" />
    <g
       id="g10"
       aria-label="v&#10;O"
       transform="matrix(1.3333333,0,0,1.3333333,277.736,42.562667)">
      <path
         id="path11"
         d="m 4.6628438,-3.70325 c 0,-0.5390625 -0.2578125,-0.703125 -0.4453125,-0.703125 -0.2460938,0 -0.4804688,0.2578125 -0.4804688,0.4804687 0,0.1289063 0.046875,0.1875 0.1523438,0.3046875 C 4.1003438,-3.422 4.22925,-3.1641875 4.22925,-2.812625 c 0,0.421875 -0.609375,2.70703125 -1.7695312,2.70703125 -0.5039063,0 -0.7382813,-0.3515625 -0.7382813,-0.8671875 0,-0.56250005 0.2695313,-1.28906255 0.5742188,-2.12109375 0.070312,-0.1640625 0.1289062,-0.3046875 0.1289062,-0.4921875 0,-0.4453125 -0.328125,-0.8203125 -0.8203125,-0.8203125 -0.9375,0 -1.3125,1.453125 -1.3125,1.5351562 0,0.1054688 0.09375,0.1054688 0.1171875,0.1054688 0.09375,0 0.10546875,-0.023437 0.15234375,-0.1875 C 0.85425,-3.9493438 1.2878438,-4.1837188 1.5690938,-4.1837188 c 0.082031,0 0.2578125,0 0.2578125,0.3164063 0,0.2460937 -0.1054688,0.515625 -0.1757813,0.703125 -0.4335937,1.1484375 -0.5625,1.6054687 -0.5625,2.0390625 0,1.078125 0.8671875,1.23046875 1.3359375,1.23046875 1.6640625,0 2.2382813,-3.29296875 2.2382813,-3.80859375 z m 0,0"
         style="fill:#000000;fill-opacity:1;fill-rule:nonzero;stroke:none" />
      <path
         id="path12"
         d="m 10.60718,-1.4708281 c 0,-1.0898438 -0.7851566,-1.9335938 -2.0156253,-1.9335938 -1.6640625,0 -3.28125,1.5585938 -3.28125,3.12890627 0,1.125 0.8320312,1.91015623 2.0273437,1.91015623 1.6640625,0 3.2695316,-1.52343748 3.2695316,-3.1054687 z M 7.3962422,1.4002656 c -0.7382813,0 -1.3710938,-0.50390623 -1.3710938,-1.53515623 0,-0.3515625 0.1054688,-1.33593747 0.7382813,-2.13281247 0.46875,-0.5742188 1.1484375,-0.9140625 1.7695312,-0.9140625 0.7265625,0 1.3945313,0.4570312 1.3945313,1.4648437 0,0.515625 -0.2109375,1.53515627 -0.8671875,2.27343752 -0.4804688,0.56249998 -1.125,0.84374998 -1.6640625,0.84374998 z m 0,0"
         style="fill:#000000;fill-opacity:1;fill-rule:nonzero;stroke:none" />
    </g>
    <path
       id="path13"
       d="m 0,-51.02426 68.59944,10e-6 m 15.8739,0 68.59946,-10e-6"
       style="fill:none;stroke:#000000;stroke-width:0.3985;stroke-linecap:butt;stroke-linejoin:miter;stroke-miterlimit:10;stroke-dasharray:none;stroke-opacity:1"
       transform="matrix(1.3333333,0,0,-1.3333333,13.341333,32.150667)" />
    <g
       id="g13"
       aria-label="v&#10;I2"
       transform="matrix(1.3333333,0,0,1.3333333,4.4266667,93.497333)">
      <path
         id="path14"
         d="m 4.6633984,-3.7040547 c 0,-0.5390625 -0.2578125,-0.703125 -0.4453125,-0.703125 -0.2460937,0 -0.4804687,0.2578125 -0.4804687,0.4804688 0,0.1289062 0.046875,0.1875 0.1523437,0.3046875 0.2109375,0.1992187 0.3398438,0.4570312 0.3398438,0.8085937 0,0.421875 -0.609375,2.70703126 -1.7695313,2.70703126 -0.5039062,0 -0.7382812,-0.3515625 -0.7382812,-0.8671875 0,-0.56249996 0.2695312,-1.28906246 0.5742187,-2.12109376 0.070312,-0.1640625 0.1289063,-0.3046875 0.1289063,-0.4921875 0,-0.4453125 -0.328125,-0.8203125 -0.8203125,-0.8203125 -0.93750001,0 -1.31250001,1.453125 -1.31250001,1.5351563 0,0.1054687 0.09375,0.1054687 0.1171875,0.1054687 0.09375,0 0.10546875,-0.023437 0.15234375,-0.1875 0.29296875,-0.9960937 0.72656246,-1.2304687 1.00781246,-1.2304687 0.082031,0 0.2578125,0 0.2578125,0.3164062 0,0.2460938 -0.1054687,0.515625 -0.1757812,0.703125 -0.4335938,1.1484375 -0.5625,1.6054688 -0.5625,2.0390625 0,1.07812501 0.8671875,1.23046876 1.3359375,1.23046876 1.6640625,0 2.2382812,-3.29296876 2.2382812,-3.80859376 z m 0,0"
         style="fill:#000000;fill-opacity:1;fill-rule:nonzero;stroke:none" />
      <path
         id="path15"
         d="m 7.7132031,-2.7138203 c 0.058594,-0.2460938 0.070312,-0.3046875 0.5976563,-0.3046875 0.1757812,0 0.2578125,0 0.2578125,-0.140625 0,-0.070312 -0.046875,-0.1054688 -0.1171875,-0.1054688 -0.140625,0 -0.3164063,0.011719 -0.4570313,0.011719 -0.1640625,0 -0.328125,0.011719 -0.4804687,0.011719 0,0 -0.4804688,-0.011719 -0.4804688,-0.011719 -0.1523437,0 -0.328125,-0.011719 -0.4804687,-0.011719 -0.046875,0 -0.1523438,0 -0.1523438,0.1523438 0,0.09375 0.082031,0.09375 0.234375,0.09375 0.011719,0 0.1523438,0 0.2695313,0.011719 0.140625,0.011719 0.1875,0.023437 0.1875,0.1054688 0,0.035156 -0.011719,0.082031 -0.035156,0.140625 L 6.1311719,0.94242969 C 6.0842969,1.1768047 6.0608594,1.2471172 5.5335156,1.2471172 c -0.1875,0 -0.2578125,0 -0.2578125,0.1523437 0,0 0,0.09375 0.1171875,0.09375 0.1992188,0 0.7265625,-0.023437 0.9375,-0.023437 h 0.4804688 c 0.1523437,0 0.328125,0.023437 0.4804687,0.023437 0.046875,0 0.1523438,0 0.1523438,-0.1523437 0,-0.09375 -0.09375,-0.09375 -0.234375,-0.09375 -0.011719,0 -0.1523438,0 -0.2929688,-0.023437 -0.1640625,-0.011719 -0.1640625,-0.035156 -0.1640625,-0.1054688 0,0 0,-0.046875 0.035156,-0.15234371 z m 0,0"
         style="fill:#000000;fill-opacity:1;fill-rule:nonzero;stroke:none" />
      <path
         id="path16"
         d="m 12.418281,0.22758594 h -0.234375 c -0.02344,0.15234375 -0.08203,0.5625 -0.175781,0.6328125 -0.05859,0.0351563 -0.597656,0.0351563 -0.691406,0.0351563 h -1.289063 c 0.738281,-0.64453125 0.984375,-0.84375 1.394531,-1.171875 0.515625,-0.41015625 0.996094,-0.84374994 0.996094,-1.49999994 0,-0.8437501 -0.738281,-1.3593751 -1.628906,-1.3593751 -0.8671875,0 -1.453125,0.609375 -1.453125,1.2421876 0,0.3632812 0.3046875,0.3984375 0.375,0.3984375 0.1640625,0 0.375,-0.1171875 0.375,-0.375 0,-0.1289063 -0.05859,-0.3632814 -0.421875,-0.3632814 0.2226562,-0.5039062 0.691406,-0.65625 1.019531,-0.65625 0.703125,0 1.066406,0.5507813 1.066406,1.1132813 0,0.609375 -0.433593,1.08984379 -0.65625,1.33593754 L 9.4065625,1.2236797 C 9.33625,1.2822734 9.33625,1.2939922 9.33625,1.4932109 h 2.882812 z m 0,0"
         style="fill:#000000;fill-opacity:1;fill-rule:nonzero;stroke:none" />
    </g>
    <path
       id="path17"
       d="m 84.47334,-51.02425 -15.8739,9.92135 v -19.84269 z"
       style="fill:none;stroke:#000000;stroke-width:0.797;stroke-linecap:butt;stroke-linejoin:miter;stroke-miterlimit:10;stroke-dasharray:none;stroke-opacity:1"
       transform="matrix(1.3333333,0,0,-1.3333333,13.341333,32.150667)" />
    <path
       id="path18"
       d="M 84.47334,-60.94559 V -41.1029"
       style="fill:none;stroke:#000000;stroke-width:0.797;stroke-linecap:butt;stroke-linejoin:miter;stroke-miterlimit:10;stroke-dasharray:none;stroke-opacity:1"
       transform="matrix(1.3333333,0,0,-1.3333333,13.341333,32.150667)" />
    <path
       id="path19"
       d="m 1.58714,-51.02426 c 0,0.87656 -0.71058,1.58714 -1.58714,1.58714 -0.87656,0 -1.58714,-0.71058 -1.58714,-1.58714 0,-0.87656 0.71058,-1.58714 1.58714,-1.58714 0.87656,0 1.58714,0.71058 1.58714,1.58714 z"
       style="fill:#ffffff;fill-opacity:1;fill-rule:nonzero;stroke:#000000;stroke-width:0.3985;stroke-linecap:butt;stroke-linejoin:miter;stroke-miterlimit:10;stroke-dasharray:none;stroke-opacity:1"
       transform="matrix(1.3333333,0,0,-1.3333333,13.341333,32.150667)" />
    <g
       id="g19"
       aria-label="D&#10;2"
       transform="matrix(1.3333333,0,0,1.3333333,106.91067,81.337333)">
      <path
         id="path20"
         d="m 1.5816484,-0.77448438 c -0.09375,0.38671875 -0.1171875,0.46875 -0.90234371,0.46875 -0.17578125,0 -0.28125,0 -0.28125,0.1875 0,0.1171875 0.09375,0.1171875 0.28125,0.1171875 H 3.9722734 c 2.0742188,0 4.03125,-2.09765622 4.03125,-4.28906252 0,-1.3945312 -0.84375,-2.5195312 -2.3320312,-2.5195312 H 2.3199297 c -0.1875,0 -0.2929688,0 -0.2929688,0.1992187 0,0.1171875 0.082031,0.1171875 0.28125,0.1171875 0.1289063,0 0.3164063,0.011719 0.4335938,0.011719 0.1523437,0.023437 0.2109375,0.058594 0.2109375,0.1640625 0,0.035156 0,0.070312 -0.035156,0.1875 z m 2.15625,-5.34375002 c 0.082031,-0.3515625 0.1054688,-0.375 0.5390625,-0.375 h 1.0664063 c 0.9726562,0 1.7929687,0.5273438 1.7929687,1.8398438 0,0.4921875 -0.1992187,2.1210937 -1.0429687,3.2226562 -0.28125,0.3632813 -1.078125,1.12500002 -2.296875,1.12500002 h -1.125 c -0.140625,0 -0.1640625,0 -0.2226563,-0.0117188 -0.09375,-0.0117188 -0.1289062,-0.0234375 -0.1289062,-0.10546875 0,-0.0234375 0,-0.046875 0.046875,-0.22265625 z m 0,0"
         style="fill:#000000;fill-opacity:1;fill-rule:nonzero;stroke:none" />
      <path
         id="path21"
         d="m 11.762313,0.22746875 h -0.234375 c -0.02344,0.15234375 -0.08203,0.5625 -0.175782,0.6328125 C 11.293563,0.8954375 10.7545,0.8954375 10.66075,0.8954375 H 9.3716875 c 0.7382815,-0.64453125 0.9843755,-0.84375 1.3945315,-1.171875 0.515625,-0.41015625 0.996094,-0.84375 0.996094,-1.5 0,-0.84375 -0.738282,-1.359375 -1.628907,-1.359375 -0.8671872,0 -1.4531247,0.609375 -1.4531247,1.2421875 0,0.3632812 0.3046875,0.3984375 0.375,0.3984375 0.1640625,0 0.375,-0.1171875 0.375,-0.375 0,-0.1289063 -0.058594,-0.3632813 -0.421875,-0.3632813 0.2226562,-0.5039062 0.6914062,-0.65625 1.0195317,-0.65625 0.703125,0 1.066406,0.5507813 1.066406,1.1132813 0,0.609375 -0.433594,1.08984375 -0.65625,1.3359375 L 8.7505938,1.2235625 c -0.070312,0.058594 -0.070312,0.070312 -0.070312,0.2695312 h 2.8828132 z m 0,0"
         style="fill:#000000;fill-opacity:1;fill-rule:nonzero;stroke:none" />
    </g>
    <path
       id="path22"
       d="m 153.0728,0 v -51.02426 l -2e-5,-9.63794 m 0,-31.74838 2e-5,-9.63796"
       style="fill:none;stroke:#000000;stroke-width:0.3985;stroke-linecap:butt;stroke-linejoin:miter;stroke-miterlimit:10;stroke-dasharray:none;stroke-opacity:1"
       transform="matrix(1.3333333,0,0,-1.3333333,13.341333,32.150667)" />
    <path
       id="path23"
       d="m 147.11993,-92.41058 v 31.74838 h 11.9057 v -31.74838 z"
       style="fill:none;stroke:#000000;stroke-width:0.797;stroke-linecap:butt;stroke-linejoin:miter;stroke-miterlimit:10;stroke-dasharray:none;stroke-opacity:1"
       transform="matrix(1.3333333,0,0,-1.3333333,13.341333,32.150667)" />
    <path
       id="path24"
       d="m 3.7385859,-6.1163125 c 0.058594,-0.234375 0.082031,-0.3398438 0.28125,-0.3632813 0.082031,-0.011719 0.3984375,-0.011719 0.5976563,-0.011719 0.7148437,0 1.8164062,0 1.8164062,0.984375 0,0.3398437 -0.1523437,1.0195312 -0.5507812,1.4179687 C 5.6253047,-3.8311563 5.0979609,-3.51475 4.2073359,-3.51475 H 3.0940547 Z m 1.4296875,2.7304687 c 1.0078125,-0.2226562 2.1914063,-0.9140625 2.1914063,-1.921875 0,-0.8554687 -0.890625,-1.5 -2.203125,-1.5 H 2.3206172 c -0.1992188,0 -0.2929688,0 -0.2929688,0.1992188 0,0.1171875 0.09375,0.1171875 0.28125,0.1171875 0.023437,0 0.2109375,0 0.3867188,0.011719 0.1757812,0.023437 0.2578125,0.035156 0.2578125,0.1640625 0,0.035156 0,0.070312 -0.035156,0.1875 l -1.3359375,5.3554688 c -0.09375,0.38671875 -0.1171875,0.46875 -0.90234371,0.46875 -0.17578125,0 -0.26953125,0 -0.26953125,0.19921875 0,0.10546875 0.1171875,0.10546875 0.140625,0.10546875 0.28125,0 0.97265626,-0.03515625 1.25390626,-0.03515625 0.28125,0 0.984375,0.03515625 1.265625,0.03515625 0.082031,0 0.1992187,0 0.1992187,-0.19921875 0,-0.10546875 -0.09375,-0.10546875 -0.28125,-0.10546875 -0.3632812,0 -0.6445312,0 -0.6445312,-0.1875 0,-0.0585938 0.011719,-0.10546875 0.023437,-0.1640625 l 0.65625,-2.6367188 h 1.1953125 c 0.9023437,0 1.078125,0.5507813 1.078125,0.9023438 0,0.1523437 -0.082031,0.4570312 -0.140625,0.6914062 -0.070312,0.2695313 -0.1523438,0.6445313 -0.1523438,0.84375005 0,1.078125 1.1953125,1.078125 1.3242188,1.078125 0.84375,0 1.1953125,-1.0078125 1.1953125,-1.1484375 0,-0.11718755 -0.1171875,-0.11718755 -0.1171875,-0.11718755 -0.09375,0 -0.1171875,0.0703125 -0.1289063,0.14062505 C 7.0198359,-0.1631875 6.5979609,8.75e-4 6.3635859,8.75e-4 c -0.328125,0 -0.3984375,-0.22265625 -0.3984375,-0.609375 0,-0.3046875 0.058594,-0.8203125 0.1054688,-1.1367188 0.011719,-0.140625 0.035156,-0.328125 0.035156,-0.46875 0,-0.7617187 -0.6679687,-1.078125 -0.9374998,-1.171875 z m 0,0"
       style="fill:#000000;fill-opacity:1;fill-rule:nonzero;stroke:none"
       aria-label="R"
       transform="matrix(1.3333333,0,0,1.3333333,228.316,137.06133)" />
    <path
       id="path25"
       d="m 153.0728,-102.04854 v -9.92134"
       style="fill:none;stroke:#000000;stroke-width:0.3985;stroke-linecap:butt;stroke-linejoin:miter;stroke-miterlimit:10;stroke-dasharray:none;stroke-opacity:1"
       transform="matrix(1.3333333,0,0,-1.3333333,13.341333,32.150667)" />
    <path
       id="path26"
       d="m 147.11995,-111.96988 h 11.9057"
       style="fill:none;stroke:#000000;stroke-width:0.797;stroke-linecap:round;stroke-linejoin:miter;stroke-miterlimit:10;stroke-dasharray:none;stroke-opacity:1"
       transform="matrix(1.3333333,0,0,-1.3333333,13.341333,32.150667)" />
  </g>
</svg>
