<?xml version="1.0" encoding="UTF-8" standalone="no"?>
<!-- Created with Inkscape (http://www.inkscape.org/) -->

<svg
   version="1.1"
   id="svg1"
   width="261.57333"
   height="179.44"
   viewBox="0 0 261.57333 179.44"
   sodipodi:docname="23-24-2-电路与电子学基础-期末（A卷）-题图2.10.pdf"
   xmlns:inkscape="http://www.inkscape.org/namespaces/inkscape"
   xmlns:sodipodi="http://sodipodi.sourceforge.net/DTD/sodipodi-0.dtd"
   xmlns="http://www.w3.org/2000/svg"
   xmlns:svg="http://www.w3.org/2000/svg">
  <defs
     id="defs1" />
  <sodipodi:namedview
     id="namedview1"
     pagecolor="#ffffff"
     bordercolor="#111111"
     borderopacity="1"
     inkscape:showpageshadow="0"
     inkscape:pageopacity="0"
     inkscape:pagecheckerboard="1"
     inkscape:deskcolor="#d1d1d1">
    <inkscape:page
       x="0"
       y="0"
       inkscape:label="1"
       id="page1"
       width="261.57333"
       height="179.44"
       margin="0"
       bleed="0" />
  </sodipodi:namedview>
  <g
     id="g1"
     inkscape:groupmode="layer"
     inkscape:label="1">
    <path
       id="path1"
       d="m 0,0 h 30.61487 10.20468 m 0,0 h 10.20471"
       style="fill:none;stroke:#000000;stroke-width:0.3985;stroke-linecap:butt;stroke-linejoin:miter;stroke-miterlimit:10;stroke-dasharray:none;stroke-opacity:1"
       transform="matrix(1.3333333,0,0,-1.3333333,180.80267,79.129333)" />
    <path
       id="path2"
       d="m -10.11984,0 -47.2253,27.77963 v -55.55926 z"
       style="fill:none;stroke:#000000;stroke-width:0.797;stroke-linecap:butt;stroke-linejoin:miter;stroke-miterlimit:10;stroke-dasharray:none;stroke-opacity:1"
       transform="matrix(1.3333333,0,0,-1.3333333,180.80267,79.129333)" />
    <path
       id="path3"
       d="m -67.46501,13.88982 h 10.11987 m -10.11987,-27.77964 h 10.11987 M 0,0 h -10.11986"
       style="fill:none;stroke:#000000;stroke-width:0.3985;stroke-linecap:square;stroke-linejoin:miter;stroke-miterlimit:10;stroke-dasharray:none;stroke-opacity:1"
       transform="matrix(1.3333333,0,0,-1.3333333,180.80267,79.129333)" />
    <path
       id="path4"
       d="m 7.4875,-2.1921406 c 0.1523438,0 0.4453125,0 0.4453125,-0.3046875 0,-0.3046875 -0.28125,-0.3046875 -0.4453125,-0.3046875 H 1.4054688 c -0.1523438,0 -0.44531255,0 -0.44531255,0.3046875 0,0.3046875 0.28125005,0.3046875 0.44531255,0.3046875 z m 0,0"
       style="fill:#000000;fill-opacity:1;fill-rule:nonzero;stroke:none"
       aria-label="−"
       transform="matrix(1.3333333,0,0,1.3333333,108.76667,63.930667)" />
    <path
       id="path5"
       d="m 4.7453125,-2.1928437 h 3.0820313 c 0.1289062,0 0.4335937,0 0.4335937,-0.3046875 0,-0.3046875 -0.2929687,-0.3046875 -0.4335937,-0.3046875 H 4.7453125 V -5.88425 c 0,-0.1289062 0,-0.421875 -0.2929687,-0.421875 -0.3046875,0 -0.3046875,0.2929688 -0.3046875,0.421875 v 3.0820313 H 1.065625 c -0.140625,0 -0.43359375,0 -0.43359375,0.3046875 0,0.3046875 0.3046875,0.3046875 0.43359375,0.3046875 h 3.0820313 v 3.09374995 c 0,0.11718755 0,0.41015625 0.2929687,0.41015625 0.3046875,0 0.3046875,-0.28125 0.3046875,-0.41015625 z m 0,0"
       style="fill:#000000;fill-opacity:1;fill-rule:nonzero;stroke:none"
       aria-label="+"
       transform="matrix(1.3333333,0,0,1.3333333,108.76667,100.97067)" />
    <path
       id="path6"
       d="m 1.7809922,-1.1484609 c -0.3984375,0.66796871 -0.78515626,0.80859371 -1.21875001,0.84374996 -0.12890625,0 -0.2109375,0 -0.2109375,0.19921875 0,0.05859375 0.046875,0.1054687525 0.12890625,0.1054687525 0.26953125,0 0.57421876,-0.0351562525 0.85546876,-0.0351562525 0.328125,0 0.6796875,0.0351562525 0.9960937,0.0351562525 0.058594,0 0.1875,0 0.1875,-0.1875000025 0,-0.1171875 -0.09375,-0.1171875 -0.1640625,-0.1171875 -0.2226562,-0.0234375 -0.4570312,-0.10546875 -0.4570312,-0.3515625 0,-0.1171875 0.058594,-0.234375 0.1289062,-0.37499996 l 0.7617188,-1.265625 h 2.4960937 c 0.023437,0.1992187 0.1640625,1.55859371 0.1640625,1.66406246 0,0.29296875 -0.515625,0.328125 -0.7148437,0.328125 -0.140625,0 -0.2460938,0 -0.2460938,0.19921875 0,0.1054687525 0.1289063,0.1054687525 0.140625,0.1054687525 0.4101563,0 0.84375,-0.0351562525 1.2539063,-0.0351562525 0.2460937,0 0.8671875,0.0351562525 1.125,0.0351562525 0.058594,0 0.1757812,0 0.1757812,-0.1992187525 0,-0.10546875 -0.1054687,-0.10546875 -0.234375,-0.10546875 -0.609375,0 -0.609375,-0.0703125 -0.6445312,-0.36328125 L 5.6950547,-6.8906484 c -0.011719,-0.1992188 -0.011719,-0.2460938 -0.1875,-0.2460938 -0.1640625,0 -0.1992188,0.070312 -0.2578125,0.1757813 z m 1.1953125,-1.4648438 1.96875,-3.28125 0.3164062,3.28125 z m 0,0"
       style="fill:#000000;fill-opacity:1;fill-rule:nonzero;stroke:none"
       aria-label="A"
       transform="matrix(1.3333333,0,0,1.3333333,129.848,83.668)" />
    <path
       id="path7"
       d="m 32.20201,0 c 0,0.87656 -0.71059,1.58714 -1.58714,1.58714 -0.87657,0 -1.58716,-0.71058 -1.58716,-1.58714 0,-0.87656 0.71059,-1.58714 1.58716,-1.58714 0.87655,0 1.58714,0.71058 1.58714,1.58714 z"
       style="fill:#000000;fill-opacity:1;fill-rule:nonzero;stroke:#000000;stroke-width:0.3985;stroke-linecap:butt;stroke-linejoin:miter;stroke-miterlimit:10;stroke-dasharray:none;stroke-opacity:1"
       transform="matrix(1.3333333,0,0,-1.3333333,180.80267,79.129333)" />
    <path
       id="path8"
       d="m 52.6114,0 c 0,0.87656 -0.71058,1.58714 -1.58714,1.58714 -0.87656,0 -1.58714,-0.71058 -1.58714,-1.58714 0,-0.87656 0.71058,-1.58714 1.58714,-1.58714 0.87656,0 1.58714,0.71058 1.58714,1.58714 z"
       style="fill:#ffffff;fill-opacity:1;fill-rule:nonzero;stroke:#000000;stroke-width:0.3985;stroke-linecap:butt;stroke-linejoin:miter;stroke-miterlimit:10;stroke-dasharray:none;stroke-opacity:1"
       transform="matrix(1.3333333,0,0,-1.3333333,180.80267,79.129333)" />
    <g
       id="g8"
       aria-label="u&#10;O"
       transform="matrix(1.3333333,0,0,1.3333333,240.51733,89.541333)">
      <path
         id="path9"
         d="m 3.4909062,-0.56127344 c 0.1054688,0.41015625 0.4570313,0.66796875 0.8789063,0.66796875 0.3515625,0 0.5742187,-0.22265625 0.7382812,-0.5390625 0.1757813,-0.36328125 0.3046875,-0.97265621 0.3046875,-0.99609371 0,-0.09375 -0.09375,-0.09375 -0.1289062,-0.09375 -0.09375,0 -0.1054688,0.035156 -0.140625,0.1757812 -0.1289063,0.56250001 -0.328125,1.24218751 -0.7382813,1.24218751 -0.2109375,0 -0.3164062,-0.12890625 -0.3164062,-0.45703125 0,-0.22265625 0.1289062,-0.69140626 0.1992187,-1.04296876 l 0.28125,-1.078125 c 0.035156,-0.140625 0.1289063,-0.5273437 0.1757813,-0.6679687 0.046875,-0.234375 0.140625,-0.609375 0.140625,-0.6679688 0,-0.1875 -0.140625,-0.2695312 -0.28125,-0.2695312 -0.058594,0 -0.3164063,0 -0.3867188,0.3398437 -0.1992187,0.7265625 -0.6328125,2.4726563 -0.75,3.00000001 -0.011719,0.046875 -0.4101562,0.84375 -1.1367187,0.84375 -0.515625,0 -0.6210938,-0.45703125 -0.6210938,-0.8203125 0,-0.56250001 0.28125,-1.34765621 0.5390625,-2.02734371 C 2.3659062,-3.2565859 2.4245,-3.3972109 2.4245,-3.5847109 c 0,-0.4453125 -0.328125,-0.8203125 -0.8203125,-0.8203125 -0.94921875,0 -1.3125,1.453125 -1.3125,1.5351562 0,0.1054688 0.09375,0.1054688 0.1171875,0.1054688 0.09375,0 0.10546875,-0.023437 0.15234375,-0.1875 0.2578125,-0.8671875 0.63281245,-1.2304688 1.00781245,-1.2304688 0.09375,0 0.2578125,0.011719 0.2578125,0.328125 0,0.234375 -0.1171875,0.5273438 -0.1757812,0.6796875 -0.3632813,0.984375 -0.5742188,1.6054688 -0.5742188,2.0859375 0,0.94921876 0.6796875,1.19531251 1.21875,1.19531251 0.65625,0 1.0195313,-0.4453125 1.1953125,-0.66796875 z m 0,0"
         style="fill:#000000;fill-opacity:1;fill-rule:nonzero;stroke:none" />
      <path
         id="path10"
         d="m 11.480164,-1.4694766 c 0,-1.0898437 -0.785156,-1.9335937 -2.0156249,-1.9335937 -1.6640625,0 -3.28125,1.5585937 -3.28125,3.12890624 0,1.125 0.8320312,1.91015626 2.0273437,1.91015626 1.6640625,0 3.2695312,-1.52343751 3.2695312,-3.1054688 z M 8.2692266,1.4016172 c -0.7382813,0 -1.3710938,-0.50390626 -1.3710938,-1.53515626 0,-0.3515625 0.1054688,-1.33593754 0.7382813,-2.13281254 0.46875,-0.5742187 1.1484375,-0.9140625 1.7695312,-0.9140625 0.7265627,0 1.3945317,0.4570313 1.3945317,1.4648438 0,0.515625 -0.210938,1.53515624 -0.8671879,2.27343749 -0.4804688,0.56250001 -1.125,0.84375001 -1.6640625,0.84375001 z m 0,0"
         style="fill:#000000;fill-opacity:1;fill-rule:nonzero;stroke:none" />
    </g>
    <path
       id="path11"
       d="m -67.46501,-13.88982 -9.63793,2e-5 m -31.74839,0 -9.63794,-2e-5"
       style="fill:none;stroke:#000000;stroke-width:0.3985;stroke-linecap:butt;stroke-linejoin:miter;stroke-miterlimit:10;stroke-dasharray:none;stroke-opacity:1"
       transform="matrix(1.3333333,0,0,-1.3333333,180.80267,79.129333)" />
    <path
       id="path12"
       d="m -108.85133,-7.93695 h 31.74839 v -11.9057 h -31.74839 z"
       style="fill:none;stroke:#000000;stroke-width:0.797;stroke-linecap:butt;stroke-linejoin:miter;stroke-miterlimit:10;stroke-dasharray:none;stroke-opacity:1"
       transform="matrix(1.3333333,0,0,-1.3333333,180.80267,79.129333)" />
    <path
       id="path13"
       d="m -65.87785,-13.88982 c 0,0.87658 -0.71059,1.58716 -1.58716,1.58716 -0.87656,0 -1.58714,-0.71058 -1.58714,-1.58716 0,-0.87655 0.71058,-1.58714 1.58714,-1.58714 0.87657,0 1.58716,0.71059 1.58716,1.58714 z"
       style="fill:#000000;fill-opacity:1;fill-rule:nonzero;stroke:#000000;stroke-width:0.3985;stroke-linecap:butt;stroke-linejoin:miter;stroke-miterlimit:10;stroke-dasharray:none;stroke-opacity:1"
       transform="matrix(1.3333333,0,0,-1.3333333,180.80267,79.129333)" />
    <path
       id="path14"
       d="m -116.90213,-13.88982 c 0,0.87658 -0.71059,1.58716 -1.58714,1.58716 -0.87656,0 -1.58715,-0.71058 -1.58715,-1.58716 0,-0.87655 0.71059,-1.58714 1.58715,-1.58714 0.87655,0 1.58714,0.71059 1.58714,1.58714 z"
       style="fill:#ffffff;fill-opacity:1;fill-rule:nonzero;stroke:#000000;stroke-width:0.3985;stroke-linecap:butt;stroke-linejoin:miter;stroke-miterlimit:10;stroke-dasharray:none;stroke-opacity:1"
       transform="matrix(1.3333333,0,0,-1.3333333,180.80267,79.129333)" />
    <g
       id="g14"
       aria-label="R&#10;1"
       transform="matrix(1.3333333,0,0,1.3333333,48.810667,119.68533)">
      <path
         id="path15"
         d="m 3.7396563,-6.1184922 c 0.058594,-0.234375 0.082031,-0.3398437 0.28125,-0.3632812 0.082031,-0.011719 0.3984375,-0.011719 0.5976562,-0.011719 0.7148438,0 1.8164063,0 1.8164063,0.984375 0,0.3398438 -0.1523438,1.0195313 -0.5507813,1.4179688 -0.2578125,0.2578125 -0.7851562,0.5742187 -1.6757812,0.5742187 H 3.095125 Z m 1.4296875,2.7304688 C 6.1771563,-3.6106797 7.36075,-4.3020859 7.36075,-5.3098984 c 0,-0.8554688 -0.890625,-1.5 -2.203125,-1.5 H 2.3216875 c -0.1992187,0 -0.2929687,0 -0.2929687,0.1992187 0,0.1171875 0.09375,0.1171875 0.28125,0.1171875 0.023437,0 0.2109375,0 0.3867187,0.011719 0.1757813,0.023437 0.2578125,0.035156 0.2578125,0.1640625 0,0.035156 0,0.070312 -0.035156,0.1875 l -1.3359375,5.35546871 c -0.09375,0.38671875 -0.1171875,0.46875 -0.9023438,0.46875 -0.17578125,0 -0.26953125,0 -0.26953125,0.19921875 0,0.10546875 0.1171875,0.10546875 0.140625,0.10546875 0.28125,0 0.97265625,-0.03515625 1.25390625,-0.03515625 0.28125,0 0.984375,0.03515625 1.265625,0.03515625 0.082031,0 0.1992188,0 0.1992188,-0.19921875 0,-0.10546875 -0.09375,-0.10546875 -0.28125,-0.10546875 -0.3632813,0 -0.6445313,0 -0.6445313,-0.1875 0,-0.0585938 0.011719,-0.10546875 0.023437,-0.1640625 l 0.65625,-2.63671871 H 4.220125 c 0.9023438,0 1.078125,0.5507812 1.078125,0.9023437 0,0.1523438 -0.082031,0.4570313 -0.140625,0.6914063 -0.070312,0.2695312 -0.1523437,0.6445312 -0.1523437,0.84374996 0,1.078125 1.1953125,1.078125 1.3242187,1.078125 0.84375,0 1.1953125,-1.0078125 1.1953125,-1.1484375 0,-0.11718746 -0.1171875,-0.11718746 -0.1171875,-0.11718746 -0.09375,0 -0.1171875,0.0703125 -0.1289062,0.14062496 -0.2578125,0.73828125 -0.6796875,0.90234375 -0.9140625,0.90234375 -0.328125,0 -0.3984375,-0.22265625 -0.3984375,-0.609375 0,-0.3046875 0.058594,-0.82031251 0.1054687,-1.13671871 0.011719,-0.140625 0.035156,-0.328125 0.035156,-0.46875 0,-0.7617188 -0.6679688,-1.078125 -0.9374997,-1.1718752 z m 0,0"
         style="fill:#000000;fill-opacity:1;fill-rule:nonzero;stroke:none" />
      <path
         id="path16"
         d="m 9.8978594,-2.9368516 c 0,-0.1875 -0.011719,-0.1992187 -0.2109375,-0.1992187 -0.4453125,0.4335937 -1.078125,0.4453125 -1.359375,0.4453125 v 0.2460937 c 0.1640625,0 0.6210937,0 1.0078125,-0.1875 v 3.55078129 c 0,0.23437501 0,0.32812501 -0.6914063,0.32812501 H 8.3744219 v 0.2460937 c 0.1289062,-0.011719 0.984375,-0.023437 1.2421875,-0.023437 0.2109375,0 1.0898436,0.011719 1.2421876,0.023437 V 1.2467422 h -0.257813 c -0.7031246,0 -0.7031246,-0.09375 -0.7031246,-0.32812501 z m 0,0"
         style="fill:#000000;fill-opacity:1;fill-rule:nonzero;stroke:none" />
    </g>
    <g
       id="g16"
       aria-label="u&#10;I"
       transform="matrix(1.3333333,0,0,1.3333333,4.4253333,99.512)">
      <path
         id="path17"
         d="m 3.4925234,-0.56271094 c 0.1054688,0.41015625 0.4570313,0.66796875 0.8789063,0.66796875 0.3515625,0 0.5742187,-0.22265625 0.7382812,-0.5390625 0.1757813,-0.36328125 0.3046875,-0.97265621 0.3046875,-0.99609371 0,-0.09375 -0.09375,-0.09375 -0.1289062,-0.09375 -0.09375,0 -0.1054688,0.035156 -0.140625,0.1757812 -0.1289063,0.56250001 -0.328125,1.24218751 -0.7382813,1.24218751 -0.2109375,0 -0.3164062,-0.12890625 -0.3164062,-0.45703125 0,-0.22265625 0.1289062,-0.69140626 0.1992187,-1.04296876 l 0.28125,-1.078125 c 0.035156,-0.140625 0.1289063,-0.5273437 0.1757813,-0.6679687 0.046875,-0.234375 0.140625,-0.609375 0.140625,-0.6679688 0,-0.1875 -0.140625,-0.2695312 -0.28125,-0.2695312 -0.058594,0 -0.3164063,0 -0.3867188,0.3398437 -0.1992187,0.7265625 -0.6328125,2.4726563 -0.75,3.00000001 -0.011719,0.046875 -0.4101562,0.84375 -1.1367187,0.84375 -0.515625,0 -0.6210938,-0.45703125 -0.6210938,-0.8203125 0,-0.56250001 0.28125,-1.34765621 0.5390625,-2.02734371 0.1171875,-0.3046875 0.1757813,-0.4453125 0.1757813,-0.6328125 0,-0.4453125 -0.328125,-0.8203125 -0.8203125,-0.8203125 -0.94921876,0 -1.31250001,1.453125 -1.31250001,1.5351562 0,0.1054688 0.09375,0.1054688 0.1171875,0.1054688 0.09375,0 0.10546875,-0.023437 0.15234375,-0.1875 0.2578125,-0.8671875 0.63281246,-1.2304688 1.00781246,-1.2304688 0.09375,0 0.2578125,0.011719 0.2578125,0.328125 0,0.234375 -0.1171875,0.5273438 -0.1757812,0.6796875 -0.3632813,0.984375 -0.5742188,1.6054688 -0.5742188,2.0859375 0,0.94921876 0.6796875,1.19531251 1.21875,1.19531251 0.65625,0 1.0195313,-0.4453125 1.1953125,-0.66796875 z m 0,0"
         style="fill:#000000;fill-opacity:1;fill-rule:nonzero;stroke:none" />
      <path
         id="path18"
         d="m 8.58725,-2.7131016 c 0.058594,-0.2460937 0.070312,-0.3046875 0.5976562,-0.3046875 0.1757813,0 0.2578125,0 0.2578125,-0.140625 0,-0.070312 -0.046875,-0.1054687 -0.1171875,-0.1054687 -0.140625,0 -0.3164062,0.011719 -0.4570312,0.011719 -0.1640625,0 -0.328125,0.011719 -0.4804688,0.011719 0,0 -0.4804687,-0.011719 -0.4804687,-0.011719 -0.1523438,0 -0.328125,-0.011719 -0.4804688,-0.011719 -0.046875,0 -0.1523437,0 -0.1523437,0.1523437 0,0.09375 0.082031,0.09375 0.234375,0.09375 0.011719,0 0.1523437,0 0.2695312,0.011719 0.140625,0.011719 0.1875,0.023437 0.1875,0.1054687 0,0.035156 -0.011719,0.082031 -0.035156,0.140625 L 7.0052187,0.94314844 C 6.9583437,1.1775234 6.9349062,1.2478359 6.4075625,1.2478359 c -0.1875,0 -0.2578125,0 -0.2578125,0.1523438 0,0 0,0.09375 0.1171875,0.09375 0.1992187,0 0.7265625,-0.023437 0.9375,-0.023437 h 0.4804687 c 0.1523438,0 0.328125,0.023437 0.4804688,0.023437 0.046875,0 0.1523437,0 0.1523437,-0.1523438 0,-0.09375 -0.09375,-0.09375 -0.234375,-0.09375 -0.011719,0 -0.1523437,0 -0.2929687,-0.023437 -0.1640625,-0.011719 -0.1640625,-0.035156 -0.1640625,-0.1054687 0,0 0,-0.046875 0.035156,-0.15234376 z m 0,0"
         style="fill:#000000;fill-opacity:1;fill-rule:nonzero;stroke:none" />
    </g>
    <path
       id="path19"
       d="m -67.46501,-13.88982 v -9.63792 m 0,-31.7484 v -9.63794"
       style="fill:none;stroke:#000000;stroke-width:0.3985;stroke-linecap:butt;stroke-linejoin:miter;stroke-miterlimit:10;stroke-dasharray:none;stroke-opacity:1"
       transform="matrix(1.3333333,0,0,-1.3333333,180.80267,79.129333)" />
    <path
       id="path20"
       d="m -73.41786,-55.27614 v 31.7484 h 11.90571 v -31.7484 z"
       style="fill:none;stroke:#000000;stroke-width:0.797;stroke-linecap:butt;stroke-linejoin:miter;stroke-miterlimit:10;stroke-dasharray:none;stroke-opacity:1"
       transform="matrix(1.3333333,0,0,-1.3333333,180.80267,79.129333)" />
    <path
       id="path21"
       d="m -67.46501,-64.91408 v -9.92134"
       style="fill:none;stroke:#000000;stroke-width:0.3985;stroke-linecap:butt;stroke-linejoin:miter;stroke-miterlimit:10;stroke-dasharray:none;stroke-opacity:1"
       transform="matrix(1.3333333,0,0,-1.3333333,180.80267,79.129333)" />
    <path
       id="path22"
       d="m -73.41786,-74.83542 h 11.90571"
       style="fill:none;stroke:#000000;stroke-width:0.797;stroke-linecap:round;stroke-linejoin:miter;stroke-miterlimit:10;stroke-dasharray:none;stroke-opacity:1"
       transform="matrix(1.3333333,0,0,-1.3333333,180.80267,79.129333)" />
    <path
       id="path23"
       d="m -67.46501,13.88982 -9.63793,-2e-5 m -31.74839,0 -9.63794,2e-5"
       style="fill:none;stroke:#000000;stroke-width:0.3985;stroke-linecap:butt;stroke-linejoin:miter;stroke-miterlimit:10;stroke-dasharray:none;stroke-opacity:1"
       transform="matrix(1.3333333,0,0,-1.3333333,180.80267,79.129333)" />
    <path
       id="path24"
       d="m -108.85133,19.84265 h 31.74839 V 7.93695 h -31.74839 z"
       style="fill:none;stroke:#000000;stroke-width:0.797;stroke-linecap:butt;stroke-linejoin:miter;stroke-miterlimit:10;stroke-dasharray:none;stroke-opacity:1"
       transform="matrix(1.3333333,0,0,-1.3333333,180.80267,79.129333)" />
    <path
       id="path25"
       d="m -65.87785,13.88982 c 0,0.87655 -0.71059,1.58714 -1.58716,1.58714 -0.87656,0 -1.58714,-0.71059 -1.58714,-1.58714 0,-0.87658 0.71058,-1.58716 1.58714,-1.58716 0.87657,0 1.58716,0.71058 1.58716,1.58716 z"
       style="fill:#000000;fill-opacity:1;fill-rule:nonzero;stroke:#000000;stroke-width:0.3985;stroke-linecap:butt;stroke-linejoin:miter;stroke-miterlimit:10;stroke-dasharray:none;stroke-opacity:1"
       transform="matrix(1.3333333,0,0,-1.3333333,180.80267,79.129333)" />
    <path
       id="path26"
       d="m 3.7379922,-6.1167344 c 0.058594,-0.234375 0.082031,-0.3398437 0.28125,-0.3632812 0.082031,-0.011719 0.3984375,-0.011719 0.5976562,-0.011719 0.7148438,0 1.8164063,0 1.8164063,0.984375 0,0.3398438 -0.1523438,1.0195313 -0.5507813,1.4179688 -0.2578125,0.2578125 -0.7851562,0.5742187 -1.6757812,0.5742187 H 3.0934609 Z m 1.4296875,2.7304688 c 1.0078125,-0.2226563 2.1914062,-0.9140625 2.1914062,-1.921875 0,-0.8554688 -0.890625,-1.5 -2.203125,-1.5 H 2.3200234 c -0.1992187,0 -0.2929687,0 -0.2929687,0.1992187 0,0.1171875 0.09375,0.1171875 0.28125,0.1171875 0.023437,0 0.2109375,0 0.3867187,0.011719 0.1757813,0.023437 0.2578125,0.035156 0.2578125,0.1640625 0,0.035156 0,0.070312 -0.035156,0.1875 l -1.3359375,5.35546872 c -0.09375,0.38671875 -0.1171875,0.46875 -0.90234376,0.46875 -0.17578125,0 -0.26953125,0 -0.26953125,0.19921875 0,0.105468755 0.1171875,0.105468755 0.140625,0.105468755 0.28125,0 0.97265621,-0.035156255 1.25390621,-0.035156255 0.28125,0 0.984375,0.035156255 1.265625,0.035156255 0.082031,0 0.1992188,0 0.1992188,-0.199218755 0,-0.10546875 -0.09375,-0.10546875 -0.28125,-0.10546875 -0.3632813,0 -0.6445313,0 -0.6445313,-0.1875 0,-0.0585938 0.011719,-0.10546875 0.023437,-0.1640625 l 0.65625,-2.63671872 h 1.1953125 c 0.9023438,0 1.078125,0.5507812 1.078125,0.9023437 0,0.1523438 -0.082031,0.4570313 -0.140625,0.6914063 -0.070312,0.2695312 -0.1523437,0.6445312 -0.1523437,0.84374997 0,1.078125 1.1953125,1.078125 1.3242187,1.078125 0.84375,0 1.1953125,-1.0078125 1.1953125,-1.1484375 0,-0.11718747 -0.1171875,-0.11718747 -0.1171875,-0.11718747 -0.09375,0 -0.1171875,0.0703125 -0.1289062,0.14062497 -0.2578125,0.73828125 -0.6796875,0.902343755 -0.9140625,0.902343755 -0.328125,0 -0.3984375,-0.222656255 -0.3984375,-0.609375005 0,-0.3046875 0.058594,-0.82031252 0.1054687,-1.13671872 0.011719,-0.140625 0.035156,-0.328125 0.035156,-0.46875 0,-0.7617188 -0.6679688,-1.078125 -0.9374994,-1.1718752 z m 0,0"
       style="fill:#000000;fill-opacity:1;fill-rule:nonzero;stroke:none"
       aria-label="R"
       transform="matrix(1.3333333,0,0,1.3333333,51.738667,47.585333)" />
    <path
       id="path27"
       d="M -118.48927,13.88982 V 3.96848"
       style="fill:none;stroke:#000000;stroke-width:0.3985;stroke-linecap:butt;stroke-linejoin:miter;stroke-miterlimit:10;stroke-dasharray:none;stroke-opacity:1"
       transform="matrix(1.3333333,0,0,-1.3333333,180.80267,79.129333)" />
    <path
       id="path28"
       d="m -124.44212,3.96848 h 11.9057"
       style="fill:none;stroke:#000000;stroke-width:0.797;stroke-linecap:round;stroke-linejoin:miter;stroke-miterlimit:10;stroke-dasharray:none;stroke-opacity:1"
       transform="matrix(1.3333333,0,0,-1.3333333,180.80267,79.129333)" />
    <path
       id="path29"
       d="m -67.46501,13.88982 v 25.51211 l 33.16649,0.13452 m 31.74692,0.12787 33.16647,0.13452 V 0"
       style="fill:none;stroke:#000000;stroke-width:0.3985;stroke-linecap:butt;stroke-linejoin:miter;stroke-miterlimit:10;stroke-dasharray:none;stroke-opacity:1"
       transform="matrix(1.3333333,0,0,-1.3333333,180.80267,79.129333)" />
    <path
       id="path30"
       d="m -2.52762,33.71175 -31.74693,-0.12789 -0.04796,11.90517 31.74693,0.12787 z"
       style="fill:none;stroke:#000000;stroke-width:0.797;stroke-linecap:butt;stroke-linejoin:miter;stroke-miterlimit:10;stroke-dasharray:none;stroke-opacity:1"
       transform="matrix(1.3333333,0,0,-1.3333333,180.80267,79.129333)" />
    <g
       id="g30"
       aria-label="R&#10;f"
       transform="matrix(1.3333333,0,0,1.3333333,147.71467,13.304)">
      <path
         id="path31"
         d="m 3.7384141,-6.1166719 c 0.058594,-0.234375 0.082031,-0.3398437 0.28125,-0.3632812 0.082031,-0.011719 0.3984375,-0.011719 0.5976562,-0.011719 0.7148438,0 1.8164063,0 1.8164063,0.984375 0,0.3398438 -0.1523438,1.0195313 -0.5507813,1.4179688 -0.2578125,0.2578125 -0.7851562,0.5742187 -1.6757812,0.5742187 H 3.0938828 Z m 1.4296875,2.7304688 c 1.0078125,-0.2226563 2.1914062,-0.9140625 2.1914062,-1.921875 0,-0.8554688 -0.890625,-1.5 -2.203125,-1.5 H 2.3204453 c -0.1992187,0 -0.2929687,0 -0.2929687,0.1992187 0,0.1171875 0.09375,0.1171875 0.28125,0.1171875 0.023437,0 0.2109375,0 0.3867187,0.011719 0.1757813,0.023437 0.2578125,0.035156 0.2578125,0.1640625 0,0.035156 0,0.070312 -0.035156,0.1875 l -1.3359375,5.35546872 c -0.09375,0.38671875 -0.1171875,0.46875 -0.90234379,0.46875 -0.17578125,0 -0.26953125,0 -0.26953125,0.19921875 0,0.105468755 0.1171875,0.105468755 0.140625,0.105468755 0.28125,0 0.97265624,-0.035156255 1.25390624,-0.035156255 0.28125,0 0.984375,0.035156255 1.265625,0.035156255 0.082031,0 0.1992188,0 0.1992188,-0.199218755 0,-0.10546875 -0.09375,-0.10546875 -0.28125,-0.10546875 -0.3632813,0 -0.6445313,0 -0.6445313,-0.1875 0,-0.0585937 0.011719,-0.10546875 0.023437,-0.1640625 L 3.02357,-3.2924529 h 1.1953125 c 0.9023438,0 1.078125,0.5507812 1.078125,0.9023437 0,0.1523438 -0.082031,0.4570313 -0.140625,0.6914063 -0.070312,0.2695312 -0.1523437,0.6445312 -0.1523437,0.84374997 0,1.078125 1.1953125,1.078125 1.3242187,1.078125 0.84375,0 1.1953125,-1.0078125 1.1953125,-1.1484375 0,-0.11718747 -0.1171875,-0.11718747 -0.1171875,-0.11718747 -0.09375,0 -0.1171875,0.0703125 -0.1289062,0.14062497 -0.2578125,0.73828125 -0.6796875,0.902343755 -0.9140625,0.902343755 -0.328125,0 -0.3984375,-0.222656255 -0.3984375,-0.609375005 0,-0.3046875 0.058594,-0.82031252 0.1054687,-1.13671872 0.011719,-0.140625 0.035156,-0.328125 0.035156,-0.46875 0,-0.7617188 -0.6679688,-1.078125 -0.9374994,-1.1718752 z m 0,0"
         style="fill:#000000;fill-opacity:1;fill-rule:nonzero;stroke:none" />
      <path
         id="path32"
         d="m 10.400523,-1.25925 h 0.679688 c 0.140625,0 0.234375,0 0.234375,-0.1523438 0,-0.09375 -0.09375,-0.09375 -0.210938,-0.09375 h -0.65625 c 0.164063,-0.890625 0.222657,-1.2070312 0.28125,-1.4179687 0.03516,-0.1523438 0.1875,-0.2929688 0.351563,-0.2929688 0,0 0.199219,0 0.328125,0.082031 -0.292969,0.09375 -0.304688,0.3398437 -0.304688,0.3867187 0,0.1523438 0.117188,0.2578125 0.269532,0.2578125 0.199218,0 0.398437,-0.1640625 0.398437,-0.4335937 0,-0.3164063 -0.339844,-0.4921875 -0.691406,-0.4921875 -0.304688,0 -0.644531,0.1757812 -0.84375,0.5273437 -0.128906,0.2578125 -0.1875,0.5742188 -0.3398438,1.3828125 H 9.3458359 c -0.140625,0 -0.2226562,0 -0.2226562,0.1523438 0,0.09375 0.082031,0.09375 0.2109375,0.09375 h 0.515625 c 0,0.046875 -0.4453125,2.5546875 -0.609375,3.2929687 -0.035156,0.1640625 -0.1523438,0.6914063 -0.4921875,0.6914063 0,0 -0.1757813,0 -0.3046875,-0.082031 0.28125,-0.09375 0.3046875,-0.3515625 0.3046875,-0.3867187 0,-0.1523438 -0.1171875,-0.2578125 -0.28125,-0.2578125 -0.1875,0 -0.3984375,0.1640625 -0.3984375,0.421875 0,0.3164062 0.328125,0.4921875 0.6796875,0.4921875 0.4453125,0 0.75,-0.4570313 0.84375,-0.609375 C 9.8380234,1.8345 10.002086,0.97903125 10.013805,0.897 Z m 0,0"
         style="fill:#000000;fill-opacity:1;fill-rule:nonzero;stroke:none" />
    </g>
  </g>
</svg>
