<?xml version="1.0" encoding="UTF-8" standalone="no"?>
<!-- Created with Inkscape (http://www.inkscape.org/) -->

<svg
   version="1.1"
   id="svg1"
   width="280.56"
   height="122.61333"
   viewBox="0 0 280.56 122.61333"
   sodipodi:docname="23-24-2-电路与电子学基础-期末（A卷）-题图5.pdf"
   xmlns:inkscape="http://www.inkscape.org/namespaces/inkscape"
   xmlns:sodipodi="http://sodipodi.sourceforge.net/DTD/sodipodi-0.dtd"
   xmlns="http://www.w3.org/2000/svg"
   xmlns:svg="http://www.w3.org/2000/svg">
  <defs
     id="defs1" />
  <sodipodi:namedview
     id="namedview1"
     pagecolor="#ffffff"
     bordercolor="#111111"
     borderopacity="1"
     inkscape:showpageshadow="0"
     inkscape:pageopacity="0"
     inkscape:pagecheckerboard="1"
     inkscape:deskcolor="#d1d1d1">
    <inkscape:page
       x="0"
       y="0"
       inkscape:label="1"
       id="page1"
       width="280.56"
       height="122.61333"
       margin="0"
       bleed="0" />
  </sodipodi:namedview>
  <g
     id="g1"
     inkscape:groupmode="layer"
     inkscape:label="1">
    <path
       id="path1"
       d="m 0,0 v -21.54364 m 0,-7.93695 v -21.54367 h 51.02426 l -10e-6,5.95271 m 0,23.81143 10e-6,5.95269 -10e-6,1.47425 m 0,31.74838 10e-6,1.47427 -40.72882,0.02995"
       style="fill:none;stroke:#000000;stroke-width:0.3985;stroke-linecap:butt;stroke-linejoin:miter;stroke-miterlimit:10;stroke-dasharray:none;stroke-opacity:1"
       transform="matrix(1.3333333,0,0,-1.3333333,164.00133,52.2)" />
    <path
       id="path2"
       d="M 0,1.58714 10.29544,19.41942"
       style="fill:none;stroke:#000000;stroke-width:3.17429;stroke-linecap:round;stroke-linejoin:miter;stroke-miterlimit:10;stroke-dasharray:none;stroke-opacity:1"
       transform="matrix(1.3333333,0,0,-1.3333333,164.00133,52.2)" />
    <path
       id="path3"
       d="M -0.48076,11.87138 C 2.06601,11.99013 4.60847,11.15996 6.61778,9.47401 8.4718,7.91835 9.7187,5.75844 10.13898,3.37502"
       style="fill:none;stroke:#000000;stroke-width:0.797;stroke-linecap:butt;stroke-linejoin:miter;stroke-miterlimit:10;stroke-dasharray:none;stroke-opacity:1"
       transform="matrix(1.3333333,0,0,-1.3333333,164.00133,52.2)" />
    <path
       id="path4"
       d="m 3.1083,0 c -1.29513,0.25902 -3.62635,0.77707 -5.1805,1.94269 1.29513,-1.42464 1.29513,-2.46074 0,-3.88538 C -0.51805,-0.77707 1.81317,-0.25902 3.1083,0 Z"
       style="fill:#000000;fill-opacity:1;fill-rule:nonzero;stroke:none"
       transform="matrix(-1.327,0.12901333,0.12901333,1.327,163.43119,36.78344)" />
    <path
       id="path5"
       d="m 10.29544,21.00658 c -0.87656,0 -1.58714,-0.71059 -1.58714,-1.58716 0,-0.87656 0.71058,-1.58714 1.58714,-1.58714 0.87656,0 1.58714,0.71058 1.58714,1.58714 0,0.87657 -0.71058,1.58716 -1.58714,1.58716 z"
       style="fill:#ffffff;fill-opacity:1;fill-rule:nonzero;stroke:#000000;stroke-width:0.3985;stroke-linecap:butt;stroke-linejoin:miter;stroke-miterlimit:10;stroke-dasharray:none;stroke-opacity:1"
       transform="matrix(1.3333333,0,0,-1.3333333,164.00133,52.2)" />
    <path
       id="path6"
       d="m -10.29544,21.00658 c -0.87656,0 -1.58714,-0.71059 -1.58714,-1.58716 0,-0.87656 0.71058,-1.58714 1.58714,-1.58714 0.87656,0 1.58714,0.71058 1.58714,1.58714 0,0.87657 -0.71058,1.58716 -1.58714,1.58716 z"
       style="fill:#ffffff;fill-opacity:1;fill-rule:nonzero;stroke:#000000;stroke-width:0.3985;stroke-linecap:butt;stroke-linejoin:miter;stroke-miterlimit:10;stroke-dasharray:none;stroke-opacity:1"
       transform="matrix(1.3333333,0,0,-1.3333333,164.00133,52.2)" />
    <path
       id="path7"
       d="m 0,3.17429 c -0.87656,0 -1.58714,-0.71059 -1.58714,-1.58715 C -1.58714,0.71057 -0.87656,0 0,0 0.87656,0 1.58714,0.71057 1.58714,1.58714 1.58714,2.4637 0.87656,3.17429 0,3.17429 Z"
       style="fill:#ffffff;fill-opacity:1;fill-rule:nonzero;stroke:#000000;stroke-width:0.3985;stroke-linecap:butt;stroke-linejoin:miter;stroke-miterlimit:10;stroke-dasharray:none;stroke-opacity:1"
       transform="matrix(1.3333333,0,0,-1.3333333,164.00133,52.2)" />
    <path
       id="path8"
       d="m 6.4223594,-6.9260703 c 0,-0.023437 -0.011719,-0.09375 -0.1054688,-0.09375 -0.046875,0 -0.058594,0.011719 -0.1757812,0.140625 l -0.4804688,0.5742187 c -0.2578125,-0.46875 -0.7734375,-0.7148437 -1.4296875,-0.7148437 -1.265625,0 -2.4609375,1.1367187 -2.4609375,2.34375 0,0.8085937 0.5273438,1.265625 1.0429688,1.4179687 l 1.0664062,0.28125 c 0.3632813,0.082031 0.9140625,0.234375 0.9140625,1.0546875 0,0.890625 -0.8203125,1.82812504 -1.7929687,1.82812504 -0.6445313,0 -1.7460938,-0.2109375 -1.7460938,-1.45312504 0,-0.234375 0.046875,-0.4804687 0.058594,-0.5390625 0.011719,-0.035156 0.023437,-0.046875 0.023437,-0.070312 0,-0.09375 -0.070312,-0.1054687 -0.1171875,-0.1054687 -0.058594,0 -0.070312,0.011719 -0.1054688,0.035156 -0.035156,0.046875 -0.59765622,2.32031254 -0.59765622,2.34375004 0,0.0585937 0.046875,0.10546875 0.1171875,0.10546875 0.046875,0 0.0585938,-0.0117188 0.17578125,-0.15234375 L 1.3012656,-0.50419531 c 0.421875,0.5859375 1.1015625,0.7265625 1.6757813,0.7265625 1.359375,0 2.53125,-1.32421879 2.53125,-2.56640629 0,-0.6796875 -0.3398438,-1.0195312 -0.4921875,-1.1601562 -0.2226563,-0.234375 -0.375,-0.2695313 -1.265625,-0.5039063 -0.2109375,-0.058594 -0.5742188,-0.1523437 -0.65625,-0.1757812 -0.2695313,-0.09375 -0.609375,-0.375 -0.609375,-0.9023438 0,-0.8085937 0.796875,-1.6523437 1.734375,-1.6523437 0.8320312,0 1.4414062,0.421875 1.4414062,1.5351562 0,0.3164063 -0.046875,0.5039063 -0.046875,0.5625 0,0.011719 0,0.09375 0.1289063,0.09375 0.09375,0 0.1054687,-0.023437 0.140625,-0.1992187 z m 0,0"
       style="fill:#000000;fill-opacity:1;fill-rule:nonzero;stroke:none"
       aria-label="S"
       transform="matrix(1.3333333,0,0,1.3333333,168.69467,56.738667)" />
    <path
       id="path9"
       d="m 11.90572,-21.54364 h -23.81144 m 23.81144,-7.93695 h -23.81144"
       style="fill:none;stroke:#000000;stroke-width:0.797;stroke-linecap:butt;stroke-linejoin:miter;stroke-miterlimit:10;stroke-dasharray:none;stroke-opacity:1"
       transform="matrix(1.3333333,0,0,-1.3333333,164.00133,52.2)" />
    <g
       id="g9"
       aria-label="0.1F"
       transform="matrix(1.3333333,0,0,1.3333333,183.61067,89.078667)">
      <path
         id="path10"
         d="m 4.5810625,-3.1879063 c 0,-0.796875 -0.046875,-1.59375 -0.3984375,-2.3320312 -0.4570312,-0.9609375 -1.2773437,-1.1132813 -1.6875,-1.1132813 -0.5976562,0 -1.3359375,0.2578125 -1.734375,1.1835938 -0.328125,0.6914062 -0.375,1.4648437 -0.375,2.2617187 0,0.75 0.046875,1.640625 0.4453125,2.4023438 0.4335938,0.80859375 1.1601563,1.0078125 1.6523438,1.0078125 0.5390625,0 1.2890625,-0.2109375 1.734375,-1.16015625 C 4.5341875,-1.6293125 4.5810625,-2.40275 4.5810625,-3.1879063 Z M 2.4834063,-4.0625e-4 C 2.0966875,-4.0625e-4 1.4990313,-0.2465 1.32325,-1.2074375 1.2177813,-1.8050938 1.2177813,-2.7191563 1.2177813,-3.3050938 c 0,-0.6445312 0,-1.3007812 0.082031,-1.8398437 0.1875,-1.1835938 0.9257813,-1.265625 1.1835938,-1.265625 0.328125,0 0.984375,0.1757812 1.171875,1.1601562 0.09375,0.5625 0.09375,1.3125 0.09375,1.9453125 0,0.75 0,1.4179688 -0.1054688,2.0625 -0.1523437,0.93750005 -0.7148437,1.24218755 -1.160156,1.24218755 z m 0,0"
         style="fill:#000000;fill-opacity:1;fill-rule:nonzero;stroke:none" />
      <path
         id="path11"
         d="m 6.8925859,-0.52775 c 0,-0.29296875 -0.234375,-0.5273438 -0.5273437,-0.5273438 -0.28125,0 -0.5273438,0.23437505 -0.5273438,0.5273438 0,0.29296875 0.2460938,0.52734375 0.5273438,0.52734375 0.2929687,0 0.5273437,-0.234375 0.5273437,-0.52734375 z m 0,0"
         style="fill:#000000;fill-opacity:1;fill-rule:nonzero;stroke:none" />
      <path
         id="path12"
         d="m 10.677742,-6.3754063 c 0,-0.234375 0,-0.2578125 -0.234375,-0.2578125 -0.6093748,0.6328125 -1.4882811,0.6328125 -1.8046873,0.6328125 V -5.684 c 0.1992187,0 0.7851562,0 1.3007812,-0.2578125 v 5.15625 c 0,0.3515625 -0.035156,0.48046875 -0.9257812,0.48046875 H 8.6972734 v 0.3046875 C 9.0488359,-0.0355625 9.9043047,-0.0355625 10.302742,-0.0355625 c 0.398438,0 1.265625,0 1.617188,0.03515625 v -0.3046875 h -0.316407 c -0.902343,0 -0.925781,-0.1171875 -0.925781,-0.48046875 z m 0,0"
         style="fill:#000000;fill-opacity:1;fill-rule:nonzero;stroke:none" />
      <path
         id="path13"
         d="m 20.471688,-4.5355625 -0.28125,-2.2382813 h -5.472657 v 0.3046875 h 0.234375 c 0.773438,0 0.796875,0.1171875 0.796875,0.46875 v 5.22656255 c 0,0.3515625 -0.02344,0.46875 -0.796875,0.46875 h -0.234375 v 0.3046875 c 0.351563,-0.03515625 1.125,-0.03515625 1.511719,-0.03515625 0.410156,0 1.3125,0 1.675781,0.03515625 v -0.3046875 h -0.328125 c -0.949218,0 -0.949218,-0.12890625 -0.949218,-0.48046875 v -2.4492188 h 0.855468 c 0.960938,0 1.054688,0.3164063 1.054688,1.1601563 h 0.257812 v -2.6367188 h -0.257812 c 0,0.8320313 -0.09375,1.1601563 -1.054688,1.1601563 h -0.855468 v -2.5195313 c 0,-0.328125 0.02344,-0.3984375 0.492187,-0.3984375 h 1.195313 c 1.488281,0 1.746093,0.5625 1.898437,1.9335938 z m 0,0"
         style="fill:#000000;fill-opacity:1;fill-rule:nonzero;stroke:none" />
    </g>
    <path
       id="path14"
       d="M 4.0790313,-2.2955781 H 6.856375 c 0.140625,0 0.328125,0 0.328125,-0.1992188 0,-0.1992187 -0.1875,-0.1992187 -0.328125,-0.1992187 H 4.0790313 v -2.7890625 c 0,-0.1289063 0,-0.328125 -0.1992188,-0.328125 -0.1992187,0 -0.1992187,0.1992187 -0.1992187,0.328125 v 2.7890625 H 0.89153125 c -0.140625,0 -0.328125,0 -0.328125,0.1992187 0,0.1992188 0.1875,0.1992188 0.328125,0.1992188 H 3.6805938 v 2.80078122 c 0,0.12890625 0,0.328125 0.1992187,0.328125 0.1992188,0 0.1992188,-0.19921875 0.1992188,-0.328125 z m 0,0"
       style="fill:#000000;fill-opacity:1;fill-rule:nonzero;stroke:none"
       aria-label="+"
       transform="matrix(1.3333333,0,0,1.3333333,149.17067,71.537333)" />
    <path
       id="path15"
       d="m 6.5634063,-2.2955781 c 0.1757812,0 0.3515625,0 0.3515625,-0.1992188 0,-0.1992187 -0.1757813,-0.1992187 -0.3515625,-0.1992187 h -5.390625 c -0.1640625,0 -0.3398438,0 -0.3398438,0.1992187 0,0.1992188 0.1757813,0.1992188 0.3398438,0.1992188 z m 0,0"
       style="fill:#000000;fill-opacity:1;fill-rule:nonzero;stroke:none"
       aria-label="−"
       transform="matrix(1.3333333,0,0,1.3333333,149.17067,107.53733)" />
    <g
       id="g15"
       aria-label="u&#10;C&#10;(t)"
       transform="matrix(1.3333333,0,0,1.3333333,107.716,89.537333)">
      <path
         id="path16"
         d="m 3.4913203,-0.56120313 c 0.1054688,0.41015625 0.4570313,0.66796875 0.8789063,0.66796875 0.3515625,0 0.5742187,-0.22265625 0.7382812,-0.5390625 0.1757813,-0.36328125 0.3046875,-0.97265622 0.3046875,-0.99609372 0,-0.09375 -0.09375,-0.09375 -0.1289062,-0.09375 -0.09375,0 -0.1054688,0.035156 -0.140625,0.1757812 -0.1289063,0.56250002 -0.328125,1.24218752 -0.7382813,1.24218752 -0.2109375,0 -0.3164062,-0.12890625 -0.3164062,-0.45703125 0,-0.22265625 0.1289062,-0.69140627 0.1992187,-1.04296877 l 0.28125,-1.078125 c 0.035156,-0.140625 0.1289063,-0.5273437 0.1757813,-0.6679687 0.046875,-0.234375 0.140625,-0.609375 0.140625,-0.6679688 0,-0.1875 -0.140625,-0.2695312 -0.28125,-0.2695312 -0.058594,0 -0.3164063,0 -0.3867188,0.3398437 -0.1992187,0.7265625 -0.6328125,2.4726563 -0.75,3.00000002 -0.011719,0.046875 -0.4101562,0.84375 -1.1367187,0.84375 -0.515625,0 -0.6210938,-0.45703125 -0.6210938,-0.8203125 0,-0.56250002 0.28125,-1.34765622 0.5390625,-2.02734372 0.1171875,-0.3046875 0.1757813,-0.4453125 0.1757813,-0.6328125 0,-0.4453125 -0.328125,-0.8203125 -0.8203125,-0.8203125 -0.94921879,0 -1.31250004,1.453125 -1.31250004,1.5351562 0,0.1054688 0.09375,0.1054688 0.1171875,0.1054688 0.09375,0 0.10546875,-0.023437 0.15234375,-0.1875 0.2578125,-0.8671875 0.63281249,-1.2304688 1.00781249,-1.2304688 0.09375,0 0.2578125,0.011719 0.2578125,0.328125 0,0.234375 -0.1171875,0.5273438 -0.1757812,0.6796875 -0.3632813,0.984375 -0.5742188,1.6054688 -0.5742188,2.0859375 0,0.94921877 0.6796875,1.19531252 1.21875,1.19531252 0.65625,0 1.0195313,-0.4453125 1.1953125,-0.66796875 z m 0,0"
         style="fill:#000000;fill-opacity:1;fill-rule:nonzero;stroke:none" />
      <path
         id="path17"
         d="m 11.586047,-3.3209688 c 0,-0.035156 -0.02344,-0.082031 -0.09375,-0.082031 -0.04687,0 -0.07031,0.011719 -0.128906,0.082031 l -0.503907,0.5390625 C 10.789172,-2.8639375 10.402453,-3.403 9.5469844,-3.403 c -1.6992188,0 -3.3515625,1.5 -3.3515625,3.0703125 0,1.13671875 0.890625,1.96875 2.1328125,1.96875 0.375,0 1.0546875,-0.082031 1.7695316,-0.6796875 0.550781,-0.46875 0.703125,-1.078125 0.703125,-1.13671875 0,-0.09375 -0.08203,-0.09375 -0.117188,-0.09375 -0.09375,0 -0.105469,0.0351563 -0.128906,0.1171875 C 10.273547,0.7923125 9.2891719,1.37825 8.4454219,1.37825 c -0.7382813,0 -1.5585938,-0.38671875 -1.5585938,-1.48828125 0,-0.2109375 0.046875,-1.31250005 0.8554688,-2.19140625 0.4804687,-0.5273438 1.2070312,-0.8554688 1.875,-0.8554688 0.8085941,0 1.2773441,0.5859375 1.2773441,1.3710938 0,0.1875 -0.02344,0.2460937 -0.02344,0.28125 0,0.09375 0.09375,0.09375 0.128906,0.09375 0.117188,0 0.117188,-0.023437 0.152344,-0.1523438 z m 0,0"
         style="fill:#000000;fill-opacity:1;fill-rule:nonzero;stroke:none" />
      <path
         id="path18"
         d="m 15.696398,2.3919219 c 0,-0.035156 0,-0.046875 -0.164062,-0.2226563 -1.242188,-1.25390623 -1.570313,-3.12890623 -1.570313,-4.6640625 0,-1.7226562 0.386719,-3.4570312 1.605469,-4.7109375 0.128906,-0.1171875 0.128906,-0.1289062 0.128906,-0.1640625 0,-0.070312 -0.03516,-0.1054687 -0.09375,-0.1054687 -0.105468,0 -0.996093,0.6796875 -1.582031,1.9453125 -0.515625,1.1015625 -0.632812,2.203125 -0.632812,3.0351562 0,0.7851563 0.117187,1.99218752 0.65625,3.11718752 0.597656,1.21874998 1.453125,1.87499998 1.558593,1.87499998 0.05859,0 0.09375,-0.035156 0.09375,-0.1054687 z m 0,0"
         style="fill:#000000;fill-opacity:1;fill-rule:nonzero;stroke:none" />
      <path
         id="path19"
         d="m 18.330188,-3.9830781 h 0.9375 c 0.199218,0 0.304687,0 0.304687,-0.1992188 0,-0.1054687 -0.105469,-0.1054687 -0.28125,-0.1054687 h -0.878906 c 0.363281,-1.4179688 0.410156,-1.6171875 0.410156,-1.6757813 0,-0.1757812 -0.117187,-0.2695312 -0.292969,-0.2695312 -0.02344,0 -0.304687,0.011719 -0.398437,0.3515625 l -0.386719,1.59375 h -0.9375 c -0.199219,0 -0.292969,0 -0.292969,0.1875 0,0.1171875 0.07031,0.1171875 0.269532,0.1171875 h 0.878906 c -0.714844,2.8242187 -0.75,2.99999997 -0.75,3.17578122 0,0.5390625 0.375,0.9140625 0.914062,0.9140625 1.007813,0 1.582032,-1.45312502 1.582032,-1.53515622 0,-0.09375 -0.08203,-0.09375 -0.117188,-0.09375 -0.09375,0 -0.105469,0.023437 -0.152344,0.140625 -0.433593,1.03124997 -0.960937,1.27734372 -1.300781,1.27734372 -0.199219,0 -0.304687,-0.12890625 -0.304687,-0.45703125 0,-0.24609375 0.02344,-0.31640625 0.05859,-0.48046877 z m 0,0"
         style="fill:#000000;fill-opacity:1;fill-rule:nonzero;stroke:none" />
      <path
         id="path20"
         d="m 22.759875,-2.4947969 c 0,-0.7734375 -0.117187,-1.9804687 -0.65625,-3.1054687 -0.597656,-1.21875 -1.464844,-1.875 -1.558594,-1.875 -0.05859,0 -0.105468,0.046875 -0.105468,0.1054687 0,0.035156 0,0.046875 0.199218,0.234375 0.972657,0.984375 1.535157,2.5664063 1.535157,4.640625 0,1.71093752 -0.363282,3.45703127 -1.59375,4.7226563 -0.140625,0.1171875 -0.140625,0.1289062 -0.140625,0.1640625 0,0.058594 0.04687,0.1054687 0.105468,0.1054687 0.09375,0 0.996094,-0.6796875 1.582032,-1.94531248 0.503906,-1.1015625 0.632812,-2.20312502 0.632812,-3.04687502 z m 0,0"
         style="fill:#000000;fill-opacity:1;fill-rule:nonzero;stroke:none" />
    </g>
    <path
       id="path21"
       d="m 39.11853,-33.16583 c 0,-6.57541 5.33029,-11.90572 11.90572,-11.90572 6.57542,0 11.90571,5.33031 11.90571,11.90572 0,6.57542 -5.33029,11.90571 -11.90571,11.90571 -6.57543,0 -11.90572,-5.33029 -11.90572,-11.90571 z"
       style="fill:none;stroke:#000000;stroke-width:0.797;stroke-linecap:butt;stroke-linejoin:miter;stroke-miterlimit:10;stroke-dasharray:none;stroke-opacity:1"
       transform="matrix(1.3333333,0,0,-1.3333333,164.00133,52.2)" />
    <path
       id="path22"
       d="m 51.02425,-45.07155 v 23.81143"
       style="fill:none;stroke:#000000;stroke-width:0.797;stroke-linecap:butt;stroke-linejoin:miter;stroke-miterlimit:10;stroke-dasharray:none;stroke-opacity:1"
       transform="matrix(1.3333333,0,0,-1.3333333,164.00133,52.2)" />
    <path
       id="path23"
       d="m 6.5617344,-2.2969922 c 0.1757812,0 0.3515625,0 0.3515625,-0.1992187 0,-0.1992188 -0.1757813,-0.1992188 -0.3515625,-0.1992188 h -5.390625 c -0.1640625,0 -0.33984377,0 -0.33984377,0.1992188 0,0.1992187 0.17578127,0.1992187 0.33984377,0.1992187 z m 0,0"
       style="fill:#000000;fill-opacity:1;fill-rule:nonzero;stroke:none"
       aria-label="−"
       transform="matrix(1.3333333,0,0,1.3333333,247.82133,111.84)" />
    <path
       id="path24"
       d="m 4.0773594,-2.2964766 h 2.7773437 c 0.140625,0 0.328125,0 0.328125,-0.1992187 0,-0.1992188 -0.1875,-0.1992188 -0.328125,-0.1992188 H 4.0773594 v -2.7890625 c 0,-0.1289062 0,-0.328125 -0.1992188,-0.328125 -0.1992187,0 -0.1992187,0.1992188 -0.1992187,0.328125 v 2.7890625 H 0.88985938 c -0.140625,0 -0.328125,0 -0.328125,0.1992188 0,0.1992187 0.1875,0.1992187 0.328125,0.1992187 H 3.6789219 v 2.80078129 c 0,0.12890625 0,0.328125 0.1992187,0.328125 0.1992188,0 0.1992188,-0.19921875 0.1992188,-0.328125 z m 0,0"
       style="fill:#000000;fill-opacity:1;fill-rule:nonzero;stroke:none"
       aria-label="+"
       transform="matrix(1.3333333,0,0,1.3333333,247.82133,87.644)" />
    <g
       id="g24"
       aria-label="8V"
       transform="matrix(1.3333333,0,0,1.3333333,259.08533,100.812)">
      <path
         id="path25"
         d="m 1.6293594,-4.5465 c -0.46875,-0.3046875 -0.5039063,-0.6445313 -0.5039063,-0.8085938 0,-0.609375 0.6445313,-1.03125 1.359375,-1.03125 0.7265625,0 1.359375,0.515625 1.359375,1.2421875 0,0.5625 -0.3867187,1.0429688 -0.984375,1.3945313 z m 1.453125,0.9375 c 0.7148437,-0.3632813 1.2070312,-0.8789063 1.2070312,-1.5351563 0,-0.9257812 -0.890625,-1.4882812 -1.7929687,-1.4882812 -0.9960938,0 -1.80468752,0.7382812 -1.80468752,1.6640625 0,0.1757812 0.0117188,0.6210937 0.43359372,1.0898437 0.1054688,0.1289063 0.4804688,0.375 0.7265625,0.5390625 -0.5742187,0.2929688 -1.42968747,0.84375 -1.42968747,1.8398438 0,1.0546875 1.00781247,1.72265625 2.06249997,1.72265625 1.125,0 2.0625,-0.83203125 2.0625,-1.89843755 0,-0.3515625 -0.1054687,-0.8085937 -0.4804687,-1.21875 C 3.8793594,-3.1050938 3.7152969,-3.2105625 3.0824844,-3.609 Z m -0.9960938,0.421875 1.21875,0.7734375 c 0.28125,0.1875 0.75,0.4921875 0.75,1.1015625 0,0.73828125 -0.75,1.25390625 -1.5585937,1.25390625 -0.8671875,0 -1.58203127,-0.62109375 -1.58203127,-1.44140625 0,-0.5859375 0.31640627,-1.21875 1.17187497,-1.6875 z m 0,0"
         style="fill:#000000;fill-opacity:1;fill-rule:nonzero;stroke:none" />
      <path
         id="path26"
         d="m 13.919398,-6.4918125 v -0.3164063 c -0.316406,0.023437 -0.714843,0.035156 -0.972656,0.035156 l -1.136719,-0.035156 v 0.3164063 c 0.515625,0.011719 0.726563,0.2695312 0.726563,0.4921875 0,0.082031 -0.02344,0.140625 -0.04687,0.1992187 l -1.82813,4.80468755 -1.8984376,-5.02734375 c -0.058594,-0.140625 -0.058594,-0.1875 -0.058594,-0.1875 0,-0.28125 0.5625,-0.28125 0.8203125,-0.28125 v -0.3164063 c -0.3632813,0.035156 -1.0546875,0.035156 -1.4296875,0.035156 l -1.265625,-0.035156 v 0.3164063 c 0.6445312,0 0.84375,0 0.9726562,0.375 L 10.122523,3.75e-4 c 0.07031,0.1875 0.117188,0.22265625 0.246094,0.22265625 0.164063,0 0.1875,-0.0585938 0.234375,-0.1875 l 2.226563,-5.85937505 c 0.140625,-0.375 0.410156,-0.65625 1.089843,-0.6679687 z m 0,0"
         style="fill:#000000;fill-opacity:1;fill-rule:nonzero;stroke:none" />
    </g>
    <path
       id="path27"
       d="M 56.9771,17.9152 V -13.83318 H 45.0714 V 17.9152 Z"
       style="fill:none;stroke:#000000;stroke-width:0.797;stroke-linecap:butt;stroke-linejoin:miter;stroke-miterlimit:10;stroke-dasharray:none;stroke-opacity:1"
       transform="matrix(1.3333333,0,0,-1.3333333,164.00133,52.2)" />
    <path
       id="path28"
       d="M 1.2642422,-0.76283594 2.3189297,-1.7940859 c 1.5585937,-1.3710938 2.15625,-1.9101563 2.15625,-2.90625 0,-1.1367188 -0.9023438,-1.9335938 -2.1210938,-1.9335938 -1.125,0 -1.85156246,0.9140625 -1.85156246,1.8046875 0,0.5507813 0.4921875,0.5507813 0.52734376,0.5507813 0.1640625,0 0.515625,-0.1171875 0.515625,-0.5273438 0,-0.2578125 -0.1875,-0.515625 -0.5273438,-0.515625 -0.0820312,0 -0.10546871,0 -0.12890621,0.011719 C 1.1118984,-5.954242 1.6509609,-6.329242 2.2251797,-6.329242 c 0.9140625,0 1.3359375,0.8085938 1.3359375,1.6289063 0,0.796875 -0.4921875,1.5820312 -1.0429688,2.203125 L 0.60799219,-0.36439844 C 0.50252344,-0.25892969 0.50252344,-0.23549219 0.50252344,-0.00111719 H 4.1939297 l 0.28125,-1.73437501 H 4.2173672 c -0.046875,0.3046875 -0.1171875,0.73828126 -0.2109375,0.89062501 -0.070312,0.0820313 -0.7265625,0.0820313 -0.9492188,0.0820313 z M 13.372641,-1.6183047 h -0.246094 c -0.04687,0.2578125 -0.08203,0.4921875 -0.175781,0.72656251 -0.04687,0.1640625 -0.08203,0.24609375 -0.65625,0.24609375 h -0.796875 c 0.128906,-0.56249996 0.433593,-1.04296876 0.878906,-1.69921876 0.46875,-0.703125 0.878906,-1.3945312 0.878906,-2.1796875 0,-1.3828125 -1.335937,-2.4960937 -3.023437,-2.4960937 -1.7109379,0 -3.0351566,1.1367187 -3.0351566,2.4960937 0,0.7851563 0.3984375,1.4765625 0.8671875,2.1796875 0.4453125,0.65625 0.7617187,1.1367188 0.890625,1.69921876 h -0.796875 c -0.5742188,0 -0.609375,-0.0820313 -0.65625,-0.234375 C 7.4195156,-1.1026797 7.3726406,-1.3604922 7.3257656,-1.6183047 H 7.0679531 l 0.328125,1.61718751 h 1.59375 c 0.2226563,0 0.2578125,0 0.2578125,-0.2109375 0,-0.69140625 -0.3164062,-1.57031251 -0.5390625,-2.21484371 -0.2109375,-0.5742188 -0.4921875,-1.359375 -0.4921875,-2.109375 0,-1.59375 1.1015625,-2.2734375 2.0039064,-2.2734375 0.960937,0 2.015625,0.7265625 2.015625,2.2734375 0,0.75 -0.269531,1.5117187 -0.5625,2.3203125 -0.152344,0.421875 -0.46875,1.31249996 -0.46875,2.00390621 0,0.2109375 0.03516,0.2109375 0.257812,0.2109375 h 1.582032 z m 0,0"
       style="fill:#000000;fill-opacity:1;fill-rule:nonzero;stroke:none"
       aria-label="2Ω"
       transform="matrix(1.3333333,0,0,1.3333333,242.912,52.341333)" />
    <path
       id="path29"
       d="m 4.1705625,-0.00103906 v -0.3046875 H 3.8541563 c -0.9023438,0 -0.9257813,-0.1171875 -0.9257813,-0.48046875 V -6.3760391 c 0,-0.234375 0,-0.2578125 -0.234375,-0.2578125 -0.609375,0.6328125 -1.4882812,0.6328125 -1.8046875,0.6328125 v 0.3164063 c 0.1992188,0 0.7851563,0 1.3007813,-0.2578125 v 5.15624999 c 0,0.3515625 -0.035156,0.48046875 -0.9257813,0.48046875 H 0.94790625 v 0.3046875 C 1.2994688,-0.03619531 2.1549375,-0.03619531 2.553375,-0.03619531 c 0.3984375,0 1.265625,0 1.6171875,0.03515625 z m 0,0"
       style="fill:#000000;fill-opacity:1;fill-rule:nonzero;stroke:none"
       aria-label="1"
       transform="matrix(1.3333333,0,0,1.3333333,174.408,21.614667)" />
    <path
       id="path30"
       d="m 0,-51.02426 -25.51212,10e-6 m 0,0 -25.51214,-10e-6 h -51.02428 v 23.30115 m 0,23.81144 v 23.30114 l 25.51215,-2e-5 m 0,0 25.51213,2e-5 4.49046,0.0036 m 31.74791,0.02273 4.49045,0.0036"
       style="fill:none;stroke:#000000;stroke-width:0.3985;stroke-linecap:butt;stroke-linejoin:miter;stroke-miterlimit:10;stroke-dasharray:none;stroke-opacity:1"
       transform="matrix(1.3333333,0,0,-1.3333333,164.00133,52.2)" />
    <path
       id="path31"
       d="m 1.58714,-51.02426 c 0,0.87656 -0.71058,1.58714 -1.58714,1.58714 -0.87656,0 -1.58714,-0.71058 -1.58714,-1.58714 0,-0.87656 0.71058,-1.58714 1.58714,-1.58714 0.87656,0 1.58714,0.71058 1.58714,1.58714 z"
       style="fill:#000000;fill-opacity:1;fill-rule:nonzero;stroke:#000000;stroke-width:0.3985;stroke-linecap:butt;stroke-linejoin:miter;stroke-miterlimit:10;stroke-dasharray:none;stroke-opacity:1"
       transform="matrix(1.3333333,0,0,-1.3333333,164.00133,52.2)" />
    <path
       id="path32"
       d="m -49.43712,-51.02426 c 0,0.87656 -0.71058,1.58714 -1.58714,1.58714 -0.87656,0 -1.58714,-0.71058 -1.58714,-1.58714 0,-0.87656 0.71058,-1.58714 1.58714,-1.58714 0.87656,0 1.58714,0.71058 1.58714,1.58714 z"
       style="fill:#000000;fill-opacity:1;fill-rule:nonzero;stroke:#000000;stroke-width:0.3985;stroke-linecap:butt;stroke-linejoin:miter;stroke-miterlimit:10;stroke-dasharray:none;stroke-opacity:1"
       transform="matrix(1.3333333,0,0,-1.3333333,164.00133,52.2)" />
    <path
       id="path33"
       d="m -113.95425,-15.8174 c 0,-6.5754 5.3303,-11.90571 11.90571,-11.90571 6.57543,0 11.90574,5.33031 11.90574,11.90571 0,6.57543 -5.33031,11.90573 -11.90574,11.90573 -6.57541,0 -11.90571,-5.3303 -11.90571,-11.90573 z m 0,0 h 23.81145"
       style="fill:none;stroke:#000000;stroke-width:0.797;stroke-linecap:butt;stroke-linejoin:miter;stroke-miterlimit:10;stroke-dasharray:none;stroke-opacity:1"
       transform="matrix(1.3333333,0,0,-1.3333333,164.00133,52.2)" />
    <path
       id="path34"
       d="m -102.04854,6.00266 h 1.98425 l -1.98425,4.21655 -1.98425,-4.21655 z"
       style="fill:#000000;fill-opacity:1;fill-rule:nonzero;stroke:#000000;stroke-width:0.3985;stroke-linecap:butt;stroke-linejoin:miter;stroke-miterlimit:10;stroke-dasharray:none;stroke-opacity:1"
       transform="matrix(1.3333333,0,0,-1.3333333,164.00133,52.2)" />
    <g
       id="g34"
       aria-label="2A"
       transform="matrix(1.3333333,0,0,1.3333333,4.4253333,46.637333)">
      <path
         id="path35"
         d="M 1.2659609,-0.76217969 2.3206484,-1.7934297 c 1.5585938,-1.3710937 2.15625,-1.9101562 2.15625,-2.90625 0,-1.1367187 -0.9023437,-1.9335937 -2.1210937,-1.9335937 -1.125,0 -1.85156251,0.9140625 -1.85156251,1.8046875 0,0.5507812 0.4921875,0.5507812 0.52734371,0.5507812 0.1640625,0 0.515625,-0.1171875 0.515625,-0.5273437 0,-0.2578125 -0.1875,-0.515625 -0.5273437,-0.515625 -0.0820313,0 -0.10546876,0 -0.12890626,0.011719 0.22265626,-0.6445312 0.76171876,-1.0195312 1.33593746,-1.0195312 0.9140625,0 1.3359375,0.8085937 1.3359375,1.6289062 0,0.796875 -0.4921875,1.5820313 -1.0429687,2.203125 L 0.60971094,-0.36374219 C 0.50424219,-0.25827344 0.50424219,-0.23483594 0.50424219,-4.609375e-4 H 4.1956484 L 4.4768984,-1.7348359 H 4.2190859 c -0.046875,0.3046875 -0.1171875,0.73828121 -0.2109375,0.89062496 -0.070312,0.0820313 -0.7265625,0.0820313 -0.9492187,0.0820313 z m 0,0"
         style="fill:#000000;fill-opacity:1;fill-rule:nonzero;stroke:none" />
      <path
         id="path36"
         d="M 13.778656,-4.609375e-4 V -0.30514844 h -0.175781 c -0.597656,0 -0.738281,-0.0703125 -0.84375,-0.3984375 l -2.15625,-6.23437496 c -0.04687,-0.1289063 -0.07031,-0.1992188 -0.222656,-0.1992188 -0.164063,0 -0.1875,0.058594 -0.246094,0.1992188 l -2.0625,5.96484371 c -0.1757813,0.50390625 -0.5742188,0.65625 -1.1132813,0.66796875 V -4.609375e-4 L 7.977875,-0.03561719 9.1263125,-4.609375e-4 V -0.30514844 c -0.5039063,0 -0.75,-0.2578125 -0.75,-0.515625 0,-0.0234375 0.011719,-0.12890625 0.023437,-0.140625 L 8.8567812,-2.2738984 h 2.4609378 l 0.527343,1.52343746 c 0.01172,0.046875 0.02344,0.10546875 0.02344,0.140625 0,0.3046875 -0.550781,0.3046875 -0.820313,0.3046875 V -4.609375e-4 C 11.39975,-0.03561719 12.102875,-0.03561719 12.477875,-0.03561719 Z M 11.200531,-2.5785859 H 8.96225 l 1.113281,-3.234375 z m 0,0"
         style="fill:#000000;fill-opacity:1;fill-rule:nonzero;stroke:none" />
    </g>
    <path
       id="path37"
       d="m -49.43712,19.38947 c 0,0.87655 -0.71058,1.58714 -1.58714,1.58714 -0.87656,0 -1.58714,-0.71059 -1.58714,-1.58714 0,-0.87657 0.71058,-1.58715 1.58714,-1.58715 0.87656,0 1.58714,0.71058 1.58714,1.58715 z"
       style="fill:#000000;fill-opacity:1;fill-rule:nonzero;stroke:#000000;stroke-width:0.3985;stroke-linecap:butt;stroke-linejoin:miter;stroke-miterlimit:10;stroke-dasharray:none;stroke-opacity:1"
       transform="matrix(1.3333333,0,0,-1.3333333,164.00133,52.2)" />
    <path
       id="path38"
       d="m -14.78163,13.46304 -31.74791,-0.02274 -0.0085,11.90553 31.74791,0.02273 z"
       style="fill:none;stroke:#000000;stroke-width:0.797;stroke-linecap:butt;stroke-linejoin:miter;stroke-miterlimit:10;stroke-dasharray:none;stroke-opacity:1"
       transform="matrix(1.3333333,0,0,-1.3333333,164.00133,52.2)" />
    <path
       id="path39"
       d="m 2.9296563,-1.6420391 v 0.86718754 c 0,0.3515625 -0.023437,0.46875 -0.7617188,0.46875 H 1.957 v 0.3046875 c 0.4101563,-0.03515625 0.9375,-0.03515625 1.3476563,-0.03515625 0.421875,0 0.9492187,0 1.359375,0.03515625 v -0.3046875 H 4.4530938 c -0.7382813,0 -0.7617188,-0.1171875 -0.7617188,-0.46875 V -1.6420391 H 4.6874688 V -1.9584453 H 3.691375 v -4.5234375 c 0,-0.1992188 0,-0.2578125 -0.1523437,-0.2578125 -0.09375,0 -0.1171875,0 -0.1992188,0.1171875 l -3.05859375,4.6640625 v 0.3164062 z M 2.98825,-1.9584453 H 0.56246875 L 2.98825,-5.6732891 Z m 10.385742,0.3398437 h -0.246094 c -0.04687,0.2578125 -0.08203,0.4921875 -0.175781,0.72656254 -0.04687,0.1640625 -0.08203,0.24609375 -0.65625,0.24609375 h -0.796875 c 0.128906,-0.56249999 0.433594,-1.04296879 0.878906,-1.69921879 0.46875,-0.703125 0.878907,-1.3945312 0.878907,-2.1796875 0,-1.3828125 -1.335938,-2.4960937 -3.023438,-2.4960937 -1.7109373,0 -3.0351561,1.1367187 -3.0351561,2.4960937 0,0.7851563 0.3984375,1.4765625 0.8671875,2.1796875 0.4453125,0.65625 0.7617188,1.1367188 0.890625,1.69921879 h -0.796875 c -0.5742187,0 -0.609375,-0.0820313 -0.65625,-0.234375 C 7.4208672,-1.1029766 7.3739922,-1.3607891 7.3271172,-1.6186016 H 7.0693047 l 0.328125,1.61718754 h 1.59375 c 0.2226562,0 0.2578125,0 0.2578125,-0.2109375 0,-0.69140625 -0.3164063,-1.57031254 -0.5390625,-2.21484374 -0.2109375,-0.5742188 -0.4921875,-1.359375 -0.4921875,-2.109375 0,-1.59375 1.1015625,-2.2734375 2.0039058,-2.2734375 0.960938,0 2.015625,0.7265625 2.015625,2.2734375 0,0.75 -0.269531,1.5117187 -0.5625,2.3203125 -0.152343,0.421875 -0.46875,1.31249999 -0.46875,2.00390624 0,0.2109375 0.03516,0.2109375 0.257813,0.2109375 h 1.582031 z m 0,0"
       style="fill:#000000;fill-opacity:1;fill-rule:nonzero;stroke:none"
       aria-label="4Ω"
       transform="matrix(1.3333333,0,0,1.3333333,113.89067,13.302667)" />
    <path
       id="path40"
       d="M 4.4764063,-1.7354141 H 4.2185938 c -0.046875,0.3046875 -0.1171875,0.73828129 -0.2109375,0.89062504 -0.070312,0.0820313 -0.7265625,0.0820313 -0.9492188,0.0820313 H 1.2654688 L 2.3201563,-1.7940078 c 1.5585937,-1.3710938 2.15625,-1.9101563 2.15625,-2.90625 0,-1.1367188 -0.9023438,-1.9335938 -2.1210938,-1.9335938 -1.125,0 -1.8515625,0.9140625 -1.8515625,1.8046875 0,0.5507813 0.4921875,0.5507813 0.5273438,0.5507813 0.1640625,0 0.515625,-0.1171875 0.515625,-0.5273438 0,-0.2578125 -0.1875,-0.515625 -0.5273438,-0.515625 -0.0820312,0 -0.10546875,0 -0.12890625,0.011719 0.22265625,-0.6445313 0.76171875,-1.0195313 1.33593755,-1.0195313 0.9140625,0 1.3359375,0.8085938 1.3359375,1.6289063 0,0.796875 -0.4921875,1.5820312 -1.0429688,2.203125 L 0.60921875,-0.36432031 C 0.50375,-0.25885156 0.50375,-0.23541406 0.50375,-0.00103906 h 3.6914063 z m 0,0"
       style="fill:#000000;fill-opacity:1;fill-rule:nonzero;stroke:none"
       aria-label="2"
       transform="matrix(1.3333333,0,0,1.3333333,146.95333,21.614667)" />
    <path
       id="path41"
       d="m -51.02426,19.38947 10e-6,-19.33267 m 0,-31.74839 -10e-6,-19.33267"
       style="fill:none;stroke:#000000;stroke-width:0.3985;stroke-linecap:butt;stroke-linejoin:miter;stroke-miterlimit:10;stroke-dasharray:none;stroke-opacity:1"
       transform="matrix(1.3333333,0,0,-1.3333333,164.00133,52.2)" />
    <path
       id="path42"
       d="M -56.9771,-31.69159 V 0.0568 h 11.9057 v -31.74839 z"
       style="fill:none;stroke:#000000;stroke-width:0.797;stroke-linecap:butt;stroke-linejoin:miter;stroke-miterlimit:10;stroke-dasharray:none;stroke-opacity:1"
       transform="matrix(1.3333333,0,0,-1.3333333,164.00133,52.2)" />
    <path
       id="path43"
       d="M 1.2650937,-0.76146094 2.3197812,-1.7927109 c 1.5585938,-1.3710938 2.15625,-1.9101563 2.15625,-2.90625 0,-1.1367188 -0.9023437,-1.9335938 -2.1210937,-1.9335938 -1.125,0 -1.8515625,0.9140625 -1.8515625,1.8046875 0,0.5507813 0.4921875,0.5507813 0.5273437,0.5507813 0.1640625,0 0.515625,-0.1171875 0.515625,-0.5273438 0,-0.2578125 -0.1875,-0.515625 -0.5273437,-0.515625 -0.0820312,0 -0.10546875,0 -0.12890625,0.011719 C 1.11275,-5.9528672 1.6518125,-6.3278672 2.2260312,-6.3278672 c 0.9140625,0 1.3359375,0.8085938 1.3359375,1.6289063 0,0.796875 -0.4921875,1.5820312 -1.0429687,2.203125 L 0.60884375,-0.36302344 C 0.503375,-0.25755469 0.503375,-0.23411719 0.503375,2.578125e-4 H 4.1947812 L 4.4760312,-1.7341172 H 4.2182187 c -0.046875,0.3046875 -0.1171875,0.73828126 -0.2109375,0.89062501 -0.070313,0.0820313 -0.7265625,0.0820313 -0.9492187,0.0820313 z M 13.373492,-1.6169297 h -0.246094 c -0.04687,0.2578125 -0.08203,0.4921875 -0.175781,0.72656251 -0.04687,0.1640625 -0.08203,0.24609375 -0.65625,0.24609375 h -0.796875 c 0.128906,-0.56249996 0.433594,-1.04296876 0.878906,-1.69921876 0.46875,-0.703125 0.878907,-1.3945312 0.878907,-2.1796875 0,-1.3828125 -1.335938,-2.4960937 -3.023438,-2.4960937 -1.7109373,0 -3.0351561,1.1367187 -3.0351561,2.4960937 0,0.7851563 0.3984375,1.4765625 0.8671875,2.1796875 0.4453125,0.65625 0.7617188,1.1367188 0.890625,1.69921876 h -0.796875 c -0.5742187,0 -0.609375,-0.0820313 -0.65625,-0.234375 C 7.4203672,-1.1013047 7.3734922,-1.3591172 7.3266172,-1.6169297 H 7.0688047 l 0.328125,1.6171875125 h 1.59375 c 0.2226562,0 0.2578125,0 0.2578125,-0.2109375025 0,-0.69140625 -0.3164063,-1.57031251 -0.5390625,-2.21484371 -0.2109375,-0.5742188 -0.4921875,-1.359375 -0.4921875,-2.109375 0,-1.59375 1.1015625,-2.2734375 2.0039058,-2.2734375 0.960938,0 2.015625,0.7265625 2.015625,2.2734375 0,0.75 -0.269531,1.5117187 -0.5625,2.3203125 -0.152343,0.421875 -0.46875,1.31249996 -0.46875,2.00390621 0,0.2109375025 0.03516,0.2109375025 0.257813,0.2109375025 h 1.582031 z m 0,0"
       style="fill:#000000;fill-opacity:1;fill-rule:nonzero;stroke:none"
       aria-label="2Ω"
       transform="matrix(1.3333333,0,0,1.3333333,66.641333,76.152)" />
  </g>
</svg>
