<?xml version="1.0" encoding="UTF-8" standalone="no"?>
<!-- Created with Inkscape (http://www.inkscape.org/) -->

<svg
   version="1.1"
   id="svg1"
   width="373.93332"
   height="150.45332"
   viewBox="0 0 373.93332 150.45332"
   sodipodi:docname="23-24-2-电路与电子学基础-期末（A卷）-题图7.pdf"
   xmlns:inkscape="http://www.inkscape.org/namespaces/inkscape"
   xmlns:sodipodi="http://sodipodi.sourceforge.net/DTD/sodipodi-0.dtd"
   xmlns="http://www.w3.org/2000/svg"
   xmlns:svg="http://www.w3.org/2000/svg">
  <defs
     id="defs1" />
  <sodipodi:namedview
     id="namedview1"
     pagecolor="#ffffff"
     bordercolor="#111111"
     borderopacity="1"
     inkscape:showpageshadow="0"
     inkscape:pageopacity="0"
     inkscape:pagecheckerboard="1"
     inkscape:deskcolor="#d1d1d1">
    <inkscape:page
       x="0"
       y="0"
       inkscape:label="1"
       id="page1"
       width="373.93332"
       height="150.45332"
       margin="0"
       bleed="0" />
  </sodipodi:namedview>
  <g
     id="g1"
     inkscape:groupmode="layer"
     inkscape:label="1">
    <path
       id="path1"
       d="m 0,0 v 51.02426 l -17.802,-10e-6 m -31.74838,0 -17.80201,10e-6 -0.11262,-37.13444 -9.63793,-2e-5 m -31.74839,0 -9.63794,2e-5"
       style="fill:none;stroke:#000000;stroke-width:0.3985;stroke-linecap:butt;stroke-linejoin:miter;stroke-miterlimit:10;stroke-dasharray:none;stroke-opacity:1"
       transform="matrix(1.3333333,0,0,-1.3333333,169.19333,94.364)" />
    <path
       id="path2"
       d="m -10.11984,0 -47.2253,27.77963 v -55.55926 z"
       style="fill:none;stroke:#000000;stroke-width:0.797;stroke-linecap:butt;stroke-linejoin:miter;stroke-miterlimit:10;stroke-dasharray:none;stroke-opacity:1"
       transform="matrix(1.3333333,0,0,-1.3333333,169.19333,94.364)" />
    <path
       id="path3"
       d="m -67.46501,13.88982 h 10.11987 m -10.11987,-27.77964 h 10.11987 M 0,0 h -10.11986"
       style="fill:none;stroke:#000000;stroke-width:0.3985;stroke-linecap:square;stroke-linejoin:miter;stroke-miterlimit:10;stroke-dasharray:none;stroke-opacity:1"
       transform="matrix(1.3333333,0,0,-1.3333333,169.19333,94.364)" />
    <path
       id="path4"
       d="m 7.4884687,-2.1923594 c 0.1523438,0 0.4453125,0 0.4453125,-0.3046875 0,-0.3046875 -0.28125,-0.3046875 -0.4453125,-0.3046875 H 1.4064375 c -0.1523438,0 -0.4453125,0 -0.4453125,0.3046875 0,0.3046875 0.28125,0.3046875 0.4453125,0.3046875 z m 0,0"
       style="fill:#000000;fill-opacity:1;fill-rule:nonzero;stroke:none"
       aria-label="−"
       transform="matrix(1.3333333,0,0,1.3333333,97.156,79.165333)" />
    <path
       id="path5"
       d="m 4.7462812,-2.1901328 h 3.0820313 c 0.1289062,0 0.4335937,0 0.4335937,-0.3046875 0,-0.3046875 -0.2929687,-0.3046875 -0.4335937,-0.3046875 H 4.7462812 v -3.0820313 c 0,-0.1289062 0,-0.421875 -0.2929687,-0.421875 -0.3046875,0 -0.3046875,0.2929688 -0.3046875,0.421875 v 3.0820313 H 1.0665937 c -0.14062495,0 -0.4335937,0 -0.4335937,0.3046875 0,0.3046875 0.3046875,0.3046875 0.4335937,0.3046875 H 4.148625 v 3.09374999 c 0,0.11718751 0,0.41015621 0.2929687,0.41015621 0.3046875,0 0.3046875,-0.28125 0.3046875,-0.41015621 z m 0,0"
       style="fill:#000000;fill-opacity:1;fill-rule:nonzero;stroke:none"
       aria-label="+"
       transform="matrix(1.3333333,0,0,1.3333333,97.156,116.20533)" />
    <g
       id="g5"
       aria-label="A&#10;1"
       transform="matrix(1.3333333,0,0,1.3333333,114.664,97.906667)">
      <path
         id="path6"
         d="m 1.7812969,-1.14875 c -0.3984375,0.66796875 -0.78515628,0.80859375 -1.21875003,0.84375 -0.12890625,0 -0.2109375,0 -0.2109375,0.19921875 0,0.05859375 0.046875,0.10546875 0.12890625,0.10546875 0.26953125,0 0.57421878,-0.03515625 0.85546878,-0.03515625 0.328125,0 0.6796875,0.03515625 0.9960937,0.03515625 0.058594,0 0.1875,0 0.1875,-0.1875 C 2.5195781,-0.305 2.4258281,-0.305 2.3555156,-0.305 2.1328594,-0.3284375 1.8984844,-0.41046875 1.8984844,-0.6565625 c 0,-0.1171875 0.058594,-0.234375 0.1289062,-0.375 l 0.7617188,-1.265625 h 2.4960937 c 0.023437,0.1992188 0.1640625,1.55859375 0.1640625,1.6640625 0,0.29296875 -0.515625,0.328125 -0.7148437,0.328125 -0.140625,0 -0.2460938,0 -0.2460938,0.19921875 0,0.10546875 0.1289063,0.10546875 0.140625,0.10546875 0.4101563,0 0.84375,-0.03515625 1.2539063,-0.03515625 0.2460937,0 0.8671875,0.03515625 1.125,0.03515625 0.058594,0 0.1757812,0 0.1757812,-0.19921875 C 7.1836406,-0.305 7.0781719,-0.305 6.9492656,-0.305 c -0.609375,0 -0.609375,-0.0703125 -0.6445312,-0.36328125 L 5.6953594,-6.8909375 c -0.011719,-0.1992187 -0.011719,-0.2460937 -0.1875,-0.2460937 -0.1640625,0 -0.1992188,0.070312 -0.2578125,0.1757812 z m 1.1953125,-1.4648437 1.96875,-3.28125 0.3164062,3.28125 z m 0,0"
         style="fill:#000000;fill-opacity:1;fill-rule:nonzero;stroke:none" />
      <path
         id="path7"
         d="m 9.8027812,-2.9358594 c 0,-0.1875 -0.011719,-0.1992187 -0.2109375,-0.1992187 -0.4453125,0.4335937 -1.078125,0.4453125 -1.359375,0.4453125 v 0.2460937 c 0.1640625,0 0.6210938,0 1.0078125,-0.1875 v 3.55078128 c 0,0.23437502 0,0.32812502 -0.6914062,0.32812502 H 8.2793437 v 0.2460937 c 0.1289063,-0.011719 0.984375,-0.023437 1.2421875,-0.023437 0.2109375,0 1.0898438,0.011719 1.2421878,0.023437 V 1.2477344 h -0.257813 c -0.7031248,0 -0.7031248,-0.09375 -0.7031248,-0.32812502 z m 0,0"
         style="fill:#000000;fill-opacity:1;fill-rule:nonzero;stroke:none" />
    </g>
    <path
       id="path8"
       d="M -49.55038,56.9771 H -17.802 V 45.0714 h -31.74838 z"
       style="fill:none;stroke:#000000;stroke-width:0.797;stroke-linecap:butt;stroke-linejoin:miter;stroke-miterlimit:10;stroke-dasharray:none;stroke-opacity:1"
       transform="matrix(1.3333333,0,0,-1.3333333,169.19333,94.364)" />
    <g
       id="g8"
       aria-label="100kΩ"
       transform="matrix(1.3333333,0,0,1.3333333,104.91867,48.368)">
      <path
         id="path9"
         d="m 2.9291641,-6.3756094 c 0,-0.234375 0,-0.2578125 -0.234375,-0.2578125 -0.609375,0.6328125 -1.4882813,0.6328125 -1.80468754,0.6328125 v 0.3164063 c 0.19921874,0 0.78515624,0 1.30078124,-0.2578125 v 5.15624998 c 0,0.3515625 -0.035156,0.48046875 -0.9257812,0.48046875 H 0.94869531 V -6.09375e-4 C 1.3002578,-0.03576562 2.1557266,-0.03576562 2.5541641,-0.03576562 c 0.3984375,0 1.265625,0 1.6171875,0.035156245 V -0.30529687 H 3.8549453 c -0.9023437,0 -0.9257812,-0.1171875 -0.9257812,-0.48046875 z m 6.6328125,3.1875 c 0,-0.796875 -0.046875,-1.59375 -0.3984375,-2.3320312 -0.4570313,-0.9609375 -1.2773438,-1.1132813 -1.6875,-1.1132813 -0.5976563,0 -1.3359375,0.2578125 -1.734375,1.1835938 -0.328125,0.6914062 -0.375,1.4648437 -0.375,2.2617187 0,0.75 0.046875,1.640625 0.4453125,2.40234378 0.4335937,0.80859375 1.1601562,1.0078125 1.6523437,1.0078125 0.5390625,0 1.2890625,-0.2109375 1.734375,-1.16015625 C 9.5151016,-1.6295156 9.5619766,-2.4029531 9.5619766,-3.1881094 Z M 7.4643203,-6.09375e-4 c -0.3867187,0 -0.984375,-0.246093745 -1.1601562,-1.207031225 -0.1054688,-0.5976563 -0.1054688,-1.5117188 -0.1054688,-2.0976563 0,-0.6445312 0,-1.3007812 0.082031,-1.8398437 0.1875,-1.1835938 0.9257812,-1.265625 1.1835937,-1.265625 0.328125,0 0.984375,0.1757812 1.171875,1.1601562 0.09375,0.5625 0.09375,1.3125 0.09375,1.9453125 0,0.75 0,1.4179688 -0.1054687,2.0625 -0.1523435,0.93750003 -0.7148435,1.242187525 -1.160156,1.242187525 z M 14.545375,-3.1881094 c 0,-0.796875 -0.04687,-1.59375 -0.398437,-2.3320312 -0.457032,-0.9609375 -1.277344,-1.1132813 -1.6875,-1.1132813 -0.597657,0 -1.335938,0.2578125 -1.734375,1.1835938 -0.328125,0.6914062 -0.375,1.4648437 -0.375,2.2617187 0,0.75 0.04687,1.640625 0.445312,2.40234378 0.433594,0.80859375 1.160156,1.0078125 1.652344,1.0078125 0.539062,0 1.289062,-0.2109375 1.734375,-1.16015625 0.316406,-0.69140623 0.363281,-1.46484373 0.363281,-2.25000003 z m -2.097656,3.187500025 c -0.386719,0 -0.984375,-0.246093745 -1.160156,-1.207031225 -0.105469,-0.5976563 -0.105469,-1.5117188 -0.105469,-2.0976563 0,-0.6445312 0,-1.3007812 0.08203,-1.8398437 0.1875,-1.1835938 0.925781,-1.265625 1.183594,-1.265625 0.328125,0 0.984375,0.1757812 1.171875,1.1601562 0.09375,0.5625 0.09375,1.3125 0.09375,1.9453125 0,0.75 0,1.4179688 -0.105469,2.0625 -0.152344,0.93750003 -0.714844,1.242187525 -1.160156,1.242187525 z m 0,0"
         style="fill:#000000;fill-opacity:1;fill-rule:nonzero;stroke:none" />
      <path
         id="path10"
         d="M 21.690883,-6.09375e-4 V -0.30529687 c -0.363281,0 -0.585938,0 -0.960938,-0.52734375 L 19.46432,-2.6256094 c -0.01172,-0.011719 -0.05859,-0.070312 -0.05859,-0.1054687 0,-0.035156 0.703125,-0.6328125 0.808593,-0.7148438 0.621094,-0.5039062 1.042969,-0.5273437 1.253907,-0.5390625 v -0.3046875 c -0.292969,0.023437 -0.421875,0.023437 -0.703125,0.023437 -0.351563,0 -0.972657,-0.023437 -1.113282,-0.023437 v 0.3046875 c 0.1875,0.011719 0.292969,0.1171875 0.292969,0.2460938 0,0.1992187 -0.140625,0.3164062 -0.222656,0.3867187 l -1.40625,1.21875 v -4.78125 l -1.429688,0.1054688 v 0.3164062 c 0.691407,0 0.773438,0.070312 0.773438,0.5507813 v 5.17968748 c 0,0.45703125 -0.105469,0.45703125 -0.773438,0.45703125 V -6.09375e-4 L 17.96432,-0.03576562 19.065883,-6.09375e-4 V -0.30529687 c -0.667969,0 -0.773438,0 -0.773438,-0.45703125 V -1.7818594 l 0.632813,-0.5507812 c 0.773437,1.0546875 1.183594,1.61718748 1.183594,1.79296873 0,0.1875 -0.164063,0.234375 -0.351563,0.234375 v 0.304687495 l 1.066406,-0.035156245 c 0.292969,0 0.585938,0.01171875 0.867188,0.035156245 z m 0,0"
         style="fill:#000000;fill-opacity:1;fill-rule:nonzero;stroke:none" />
      <path
         id="path11"
         d="m 28.602016,-1.6177969 h -0.246094 c -0.04687,0.2578125 -0.08203,0.4921875 -0.175781,0.72656253 -0.04687,0.1640625 -0.08203,0.24609375 -0.65625,0.24609375 h -0.796875 c 0.128906,-0.56249998 0.433593,-1.04296878 0.878906,-1.69921878 0.46875,-0.703125 0.878906,-1.3945312 0.878906,-2.1796875 0,-1.3828125 -1.335937,-2.4960937 -3.023437,-2.4960937 -1.710938,0 -3.035157,1.1367187 -3.035157,2.4960937 0,0.7851563 0.398438,1.4765625 0.867188,2.1796875 0.445312,0.65625 0.761719,1.1367188 0.890625,1.69921878 h -0.796875 c -0.574219,0 -0.609375,-0.0820313 -0.65625,-0.234375 -0.08203,-0.22265628 -0.128906,-0.48046878 -0.175781,-0.73828128 h -0.257813 l 0.328125,1.617187525 h 1.59375 c 0.222656,0 0.257813,0 0.257813,-0.210937495 0,-0.69140625 -0.316407,-1.57031253 -0.539063,-2.21484373 -0.210937,-0.5742188 -0.492187,-1.359375 -0.492187,-2.109375 0,-1.59375 1.101562,-2.2734375 2.003906,-2.2734375 0.960937,0 2.015625,0.7265625 2.015625,2.2734375 0,0.75 -0.269531,1.5117187 -0.5625,2.3203125 -0.152344,0.421875 -0.46875,1.31249998 -0.46875,2.00390623 0,0.210937495 0.03516,0.210937495 0.257812,0.210937495 h 1.582032 z m 0,0"
         style="fill:#000000;fill-opacity:1;fill-rule:nonzero;stroke:none" />
    </g>
    <g
       id="g11"
       aria-label="R&#10;2"
       transform="matrix(1.3333333,0,0,1.3333333,116.26933,13.306667)">
      <path
         id="path12"
         d="m 3.7384297,-6.1157422 c 0.058594,-0.234375 0.082031,-0.3398437 0.28125,-0.3632812 0.082031,-0.011719 0.3984375,-0.011719 0.5976562,-0.011719 0.7148438,0 1.8164063,0 1.8164063,0.984375 0,0.3398438 -0.1523438,1.0195313 -0.5507813,1.4179688 -0.2578125,0.2578125 -0.7851562,0.5742187 -1.6757812,0.5742187 H 3.0938984 Z m 1.4296875,2.7304688 c 1.0078125,-0.2226563 2.1914062,-0.9140625 2.1914062,-1.921875 0,-0.8554688 -0.890625,-1.5 -2.203125,-1.5 H 2.3204609 c -0.1992187,0 -0.2929687,0 -0.2929687,0.1992187 0,0.1171875 0.09375,0.1171875 0.28125,0.1171875 0.023437,0 0.2109375,0 0.3867187,0.011719 0.1757813,0.023437 0.2578125,0.035156 0.2578125,0.1640625 0,0.035156 0,0.070312 -0.035156,0.1875 l -1.3359375,5.35546871 c -0.09375,0.38671875 -0.1171875,0.46875 -0.90234376,0.46875 -0.17578125,0 -0.26953125,0 -0.26953125,0.19921875 0,0.10546875 0.1171875,0.10546875 0.140625,0.10546875 0.28125,0 0.97265621,-0.03515625 1.25390621,-0.03515625 0.28125,0 0.984375,0.03515625 1.265625,0.03515625 0.082031,0 0.1992188,0 0.1992188,-0.19921875 0,-0.10546875 -0.09375,-0.10546875 -0.28125,-0.10546875 -0.3632813,0 -0.6445313,0 -0.6445313,-0.1875 0,-0.0585937 0.011719,-0.10546875 0.023437,-0.1640625 l 0.65625,-2.63671871 h 1.1953125 c 0.9023438,0 1.078125,0.5507812 1.078125,0.9023437 0,0.1523438 -0.082031,0.4570313 -0.140625,0.6914063 -0.070312,0.2695312 -0.1523437,0.6445312 -0.1523437,0.84374996 0,1.078125 1.1953125,1.078125 1.3242187,1.078125 0.84375,0 1.1953125,-1.0078125 1.1953125,-1.1484375 0,-0.11718746 -0.1171875,-0.11718746 -0.1171875,-0.11718746 -0.09375,0 -0.1171875,0.0703125 -0.1289062,0.14062496 -0.2578125,0.73828125 -0.6796875,0.90234375 -0.9140625,0.90234375 -0.328125,0 -0.3984375,-0.22265625 -0.3984375,-0.609375 0,-0.3046875 0.058594,-0.82031251 0.1054687,-1.13671871 0.011719,-0.140625 0.035156,-0.328125 0.035156,-0.46875 0,-0.7617188 -0.6679688,-1.078125 -0.9374994,-1.1718752 z m 0,0"
         style="fill:#000000;fill-opacity:1;fill-rule:nonzero;stroke:none" />
      <path
         id="path13"
         d="m 11.080227,0.22703125 h -0.234375 c -0.02344,0.15234375 -0.08203,0.5625 -0.175782,0.6328125 C 10.611477,0.895 10.072414,0.895 9.9786641,0.895 H 8.6896016 c 0.7382812,-0.64453125 0.984375,-0.84375 1.3945314,-1.171875 0.515625,-0.41015625 0.996094,-0.84375 0.996094,-1.5 0,-0.84375 -0.738282,-1.359375 -1.6289067,-1.359375 -0.8671875,0 -1.453125,0.609375 -1.453125,1.2421875 0,0.3632813 0.3046875,0.3984375 0.375,0.3984375 0.1640625,0 0.375,-0.1171875 0.375,-0.375 0,-0.1289062 -0.058594,-0.3632812 -0.421875,-0.3632812 0.2226563,-0.5039063 0.6914063,-0.65625 1.0195313,-0.65625 0.7031254,0 1.0664064,0.5507812 1.0664064,1.1132812 0,0.609375 -0.4335939,1.08984375 -0.6562502,1.3359375 l -1.6875,1.6640625 c -0.070313,0.058594 -0.070313,0.070312 -0.070313,0.2695313 h 2.8828122 z m 0,0"
         style="fill:#000000;fill-opacity:1;fill-rule:nonzero;stroke:none" />
    </g>
    <path
       id="path14"
       d="m -108.85133,19.84265 h 31.74839 V 7.93695 h -31.74839 z"
       style="fill:none;stroke:#000000;stroke-width:0.797;stroke-linecap:butt;stroke-linejoin:miter;stroke-miterlimit:10;stroke-dasharray:none;stroke-opacity:1"
       transform="matrix(1.3333333,0,0,-1.3333333,169.19333,94.364)" />
    <path
       id="path15"
       d="m -65.87785,13.88982 c 0,0.87655 -0.71059,1.58714 -1.58716,1.58714 -0.87656,0 -1.58714,-0.71059 -1.58714,-1.58714 0,-0.87658 0.71058,-1.58716 1.58714,-1.58716 0.87657,0 1.58716,0.71058 1.58716,1.58716 z"
       style="fill:#000000;fill-opacity:1;fill-rule:nonzero;stroke:#000000;stroke-width:0.3985;stroke-linecap:butt;stroke-linejoin:miter;stroke-miterlimit:10;stroke-dasharray:none;stroke-opacity:1"
       transform="matrix(1.3333333,0,0,-1.3333333,169.19333,94.364)" />
    <g
       id="g15"
       aria-label="10kΩ"
       transform="matrix(1.3333333,0,0,1.3333333,29.170667,97.88)">
      <path
         id="path16"
         d="m 2.9305938,-6.3758203 c 0,-0.234375 0,-0.2578125 -0.234375,-0.2578125 -0.609375,0.6328125 -1.4882813,0.6328125 -1.80468755,0.6328125 v 0.3164062 c 0.19921875,0 0.78515625,0 1.30078125,-0.2578125 v 5.15625004 c 0,0.3515625 -0.035156,0.48046875 -0.9257812,0.48046875 H 0.950125 V -8.203125e-4 C 1.3016875,-0.03597656 2.1571563,-0.03597656 2.5555938,-0.03597656 c 0.3984375,0 1.265625,0 1.6171875,0.0351562475 V -0.30550781 H 3.856375 c -0.9023437,0 -0.9257812,-0.1171875 -0.9257812,-0.48046875 z m 6.6328125,3.1875 c 0,-0.796875 -0.046875,-1.59375 -0.3984375,-2.3320313 -0.4570313,-0.9609375 -1.2773438,-1.1132812 -1.6875,-1.1132812 -0.5976563,0 -1.3359375,0.2578125 -1.734375,1.1835937 -0.328125,0.6914063 -0.375,1.4648438 -0.375,2.2617188 0,0.75 0.046875,1.640625 0.4453125,2.40234374 0.4335937,0.80859375 1.1601562,1.0078125 1.6523437,1.0078125 0.5390625,0 1.2890625,-0.2109375 1.734375,-1.16015625 C 9.5165313,-1.6297266 9.5634063,-2.4031641 9.5634063,-3.1883203 Z M 7.46575,-8.203125e-4 c -0.3867187,0 -0.984375,-0.2460937475 -1.1601562,-1.2070312875 C 6.200125,-1.8055078 6.200125,-2.7195703 6.200125,-3.3055078 c 0,-0.6445313 0,-1.3007813 0.082031,-1.8398438 0.1875,-1.1835937 0.9257812,-1.265625 1.1835937,-1.265625 0.328125,0 0.984375,0.1757813 1.171875,1.1601563 0.09375,0.5625 0.09375,1.3125 0.09375,1.9453125 0,0.75 0,1.4179687 -0.1054687,2.0625 C 8.4735625,-0.30550781 7.9110625,-8.203125e-4 7.46575,-8.203125e-4 Z m 0,0"
         style="fill:#000000;fill-opacity:1;fill-rule:nonzero;stroke:none" />
      <path
         id="path17"
         d="M 16.708914,-8.203125e-4 V -0.30550781 c -0.363281,0 -0.585937,0 -0.960937,-0.52734375 L 14.482352,-2.6258203 c -0.01172,-0.011719 -0.05859,-0.070312 -0.05859,-0.1054688 0,-0.035156 0.703125,-0.6328125 0.808594,-0.7148437 0.621093,-0.5039063 1.042968,-0.5273438 1.253906,-0.5390625 v -0.3046875 c -0.292969,0.023437 -0.421875,0.023437 -0.703125,0.023437 -0.351563,0 -0.972656,-0.023437 -1.113281,-0.023437 v 0.3046875 c 0.1875,0.011719 0.292968,0.1171875 0.292968,0.2460937 0,0.1992188 -0.140625,0.3164063 -0.222656,0.3867188 l -1.40625,1.21875 v -4.78125 l -1.429687,0.1054687 v 0.3164063 c 0.691406,0 0.773437,0.070312 0.773437,0.5507812 v 5.17968754 c 0,0.45703125 -0.105469,0.45703125 -0.773437,0.45703125 V -8.203125e-4 L 12.982352,-0.03597656 14.083914,-8.203125e-4 V -0.30550781 c -0.667969,0 -0.773437,0 -0.773437,-0.45703125 V -1.7820703 l 0.632812,-0.5507813 c 0.773438,1.0546875 1.183594,1.61718754 1.183594,1.79296879 0,0.1875 -0.164063,0.234375 -0.351563,0.234375 V -8.203125e-4 L 15.841727,-0.03597656 c 0.292968,0 0.585937,0.01171875 0.867187,0.0351562475 z m 0,0"
         style="fill:#000000;fill-opacity:1;fill-rule:nonzero;stroke:none" />
      <path
         id="path18"
         d="m 23.620047,-1.6180078 h -0.246094 c -0.04687,0.2578125 -0.08203,0.4921875 -0.175781,0.72656249 -0.04687,0.1640625 -0.08203,0.24609375 -0.65625,0.24609375 h -0.796875 c 0.128906,-0.56250004 0.433594,-1.04296874 0.878906,-1.69921874 0.46875,-0.703125 0.878906,-1.3945313 0.878906,-2.1796875 0,-1.3828125 -1.335937,-2.4960938 -3.023437,-2.4960938 -1.710938,0 -3.035156,1.1367188 -3.035156,2.4960938 0,0.7851562 0.398437,1.4765625 0.867187,2.1796875 0.445313,0.65625 0.761719,1.1367187 0.890625,1.69921874 h -0.796875 c -0.574219,0 -0.609375,-0.0820313 -0.65625,-0.234375 -0.08203,-0.22265624 -0.128906,-0.48046874 -0.175781,-0.73828124 h -0.257813 l 0.328125,1.6171874875 h 1.59375 c 0.222657,0 0.257813,0 0.257813,-0.2109374975 0,-0.69140625 -0.316406,-1.57031249 -0.539063,-2.21484379 -0.210937,-0.5742187 -0.492187,-1.359375 -0.492187,-2.109375 0,-1.59375 1.101562,-2.2734375 2.003906,-2.2734375 0.960938,0 2.015625,0.7265625 2.015625,2.2734375 0,0.75 -0.269531,1.5117188 -0.5625,2.3203125 -0.152344,0.421875 -0.46875,1.31250004 -0.46875,2.00390629 0,0.2109374975 0.03516,0.2109374975 0.257813,0.2109374975 h 1.582031 z m 0,0"
         style="fill:#000000;fill-opacity:1;fill-rule:nonzero;stroke:none" />
    </g>
    <g
       id="g18"
       aria-label="R&#10;1"
       transform="matrix(1.3333333,0,0,1.3333333,37.201333,62.82)">
      <path
         id="path19"
         d="m 3.739625,-6.1169531 c 0.058594,-0.234375 0.082031,-0.3398438 0.28125,-0.3632813 0.082031,-0.011719 0.3984375,-0.011719 0.5976563,-0.011719 0.7148437,0 1.8164062,0 1.8164062,0.984375 0,0.3398437 -0.1523437,1.0195312 -0.5507812,1.4179687 C 5.6263438,-3.8317969 5.099,-3.5153906 4.208375,-3.5153906 H 3.0950938 Z m 1.4296875,2.7304687 c 1.0078125,-0.2226562 2.1914063,-0.9140625 2.1914063,-1.921875 0,-0.8554687 -0.890625,-1.5 -2.203125,-1.5 H 2.3216563 c -0.1992188,0 -0.2929688,0 -0.2929688,0.1992188 0,0.1171875 0.09375,0.1171875 0.28125,0.1171875 0.023437,0 0.2109375,0 0.3867188,0.011719 0.1757812,0.023437 0.2578125,0.035156 0.2578125,0.1640625 0,0.035156 0,0.070312 -0.035156,0.1875 L 1.583375,-0.77320312 c -0.09375,0.38671875 -0.1171875,0.46875 -0.90234375,0.46875 -0.17578125,0 -0.26953125,0 -0.26953125,0.19921875 0,0.105468745 0.1171875,0.105468745 0.140625,0.105468745 0.28125,0 0.9726563,-0.035156245 1.2539063,-0.035156245 0.28125,0 0.984375,0.035156245 1.265625,0.035156245 0.082031,0 0.1992187,0 0.1992187,-0.199218745 0,-0.10546875 -0.09375,-0.10546875 -0.28125,-0.10546875 -0.3632812,0 -0.6445312,0 -0.6445312,-0.1875 0,-0.0585938 0.011719,-0.10546875 0.023437,-0.1640625 l 0.65625,-2.63671878 h 1.1953125 c 0.9023437,0 1.078125,0.5507813 1.078125,0.9023438 0,0.1523437 -0.082031,0.4570312 -0.140625,0.6914062 -0.070312,0.2695313 -0.1523438,0.6445313 -0.1523438,0.84375003 0,1.078125 1.1953125,1.078125 1.3242188,1.078125 0.84375,0 1.1953125,-1.0078125 1.1953125,-1.1484375 0,-0.11718753 -0.1171875,-0.11718753 -0.1171875,-0.11718753 -0.09375,0 -0.1171875,0.0703125 -0.1289063,0.14062503 C 7.020875,-0.16382812 6.599,2.34375e-4 6.364625,2.34375e-4 c -0.328125,0 -0.3984375,-0.222656245 -0.3984375,-0.609374995 0,-0.3046875 0.058594,-0.82031248 0.1054688,-1.13671878 0.011719,-0.140625 0.035156,-0.328125 0.035156,-0.46875 0,-0.7617187 -0.6679687,-1.078125 -0.9374998,-1.171875 z m 0,0"
         style="fill:#000000;fill-opacity:1;fill-rule:nonzero;stroke:none" />
      <path
         id="path20"
         d="m 9.8948984,-2.9353125 c 0,-0.1875 -0.011719,-0.1992187 -0.2109375,-0.1992187 -0.4453125,0.4335937 -1.078125,0.4453125 -1.359375,0.4453125 v 0.2460937 c 0.1640625,0 0.6210938,0 1.0078125,-0.1875 v 3.55078125 c 0,0.23437505 0,0.32812505 -0.6914062,0.32812505 H 8.3714609 V 1.494375 c 0.1289063,-0.011719 0.984375,-0.023437 1.2421875,-0.023437 0.2109375,0 1.0898436,0.011719 1.2421876,0.023437 V 1.2482813 h -0.257813 c -0.7031246,0 -0.7031246,-0.09375 -0.7031246,-0.32812505 z m 0,0"
         style="fill:#000000;fill-opacity:1;fill-rule:nonzero;stroke:none" />
    </g>
    <path
       id="path21"
       d="M -118.48927,13.88982 V 3.96848"
       style="fill:none;stroke:#000000;stroke-width:0.3985;stroke-linecap:butt;stroke-linejoin:miter;stroke-miterlimit:10;stroke-dasharray:none;stroke-opacity:1"
       transform="matrix(1.3333333,0,0,-1.3333333,169.19333,94.364)" />
    <path
       id="path22"
       d="m -124.44212,3.96848 h 11.9057"
       style="fill:none;stroke:#000000;stroke-width:0.797;stroke-linecap:round;stroke-linejoin:miter;stroke-miterlimit:10;stroke-dasharray:none;stroke-opacity:1"
       transform="matrix(1.3333333,0,0,-1.3333333,169.19333,94.364)" />
    <path
       id="path23"
       d="m -67.46501,-13.88982 -9.63793,2e-5 m -31.74839,0 -9.63794,-2e-5"
       style="fill:none;stroke:#000000;stroke-width:0.3985;stroke-linecap:butt;stroke-linejoin:miter;stroke-miterlimit:10;stroke-dasharray:none;stroke-opacity:1"
       transform="matrix(1.3333333,0,0,-1.3333333,169.19333,94.364)" />
    <path
       id="path24"
       d="m -108.85133,-7.93695 h 31.74839 v -11.9057 h -31.74839 z"
       style="fill:none;stroke:#000000;stroke-width:0.797;stroke-linecap:butt;stroke-linejoin:miter;stroke-miterlimit:10;stroke-dasharray:none;stroke-opacity:1"
       transform="matrix(1.3333333,0,0,-1.3333333,169.19333,94.364)" />
    <path
       id="path25"
       d="m -116.90213,-13.88982 c 0,0.87658 -0.71059,1.58716 -1.58714,1.58716 -0.87656,0 -1.58715,-0.71058 -1.58715,-1.58716 0,-0.87655 0.71059,-1.58714 1.58715,-1.58714 0.87655,0 1.58714,0.71059 1.58714,1.58714 z"
       style="fill:#ffffff;fill-opacity:1;fill-rule:nonzero;stroke:#000000;stroke-width:0.3985;stroke-linecap:butt;stroke-linejoin:miter;stroke-miterlimit:10;stroke-dasharray:none;stroke-opacity:1"
       transform="matrix(1.3333333,0,0,-1.3333333,169.19333,94.364)" />
    <g
       id="g25"
       aria-label="R&#10;3"
       transform="matrix(1.3333333,0,0,1.3333333,37.201333,134.92)">
      <path
         id="path26"
         d="m 3.739625,-6.1157812 c 0.058594,-0.234375 0.082031,-0.3398438 0.28125,-0.3632813 0.082031,-0.011719 0.3984375,-0.011719 0.5976563,-0.011719 0.7148437,0 1.8164062,0 1.8164062,0.984375 0,0.3398437 -0.1523437,1.0195312 -0.5507812,1.4179687 C 5.6263438,-3.830625 5.099,-3.5142187 4.208375,-3.5142187 H 3.0950938 Z m 1.4296875,2.7304687 c 1.0078125,-0.2226562 2.1914063,-0.9140625 2.1914063,-1.921875 0,-0.8554687 -0.890625,-1.5 -2.203125,-1.5 H 2.3216563 c -0.1992188,0 -0.2929688,0 -0.2929688,0.1992188 0,0.1171875 0.09375,0.1171875 0.28125,0.1171875 0.023437,0 0.2109375,0 0.3867188,0.011719 0.1757812,0.023437 0.2578125,0.035156 0.2578125,0.1640625 0,0.035156 0,0.070312 -0.035156,0.1875 L 1.583375,-0.77203125 c -0.09375,0.38671875 -0.1171875,0.46875 -0.90234375,0.46875 -0.17578125,0 -0.26953125,0 -0.26953125,0.19921875 0,0.10546875 0.1171875,0.10546875 0.140625,0.10546875 0.28125,0 0.9726563,-0.03515625 1.2539063,-0.03515625 0.28125,0 0.984375,0.03515625 1.265625,0.03515625 0.082031,0 0.1992187,0 0.1992187,-0.19921875 0,-0.10546875 -0.09375,-0.10546875 -0.28125,-0.10546875 -0.3632812,0 -0.6445312,0 -0.6445312,-0.1875 0,-0.0585937 0.011719,-0.10546875 0.023437,-0.1640625 l 0.65625,-2.63671875 h 1.1953125 c 0.9023437,0 1.078125,0.5507813 1.078125,0.9023438 0,0.1523437 -0.082031,0.4570312 -0.140625,0.6914062 -0.070312,0.2695313 -0.1523438,0.6445313 -0.1523438,0.84375 0,1.078125 1.1953125,1.078125 1.3242188,1.078125 0.84375,0 1.1953125,-1.0078125 1.1953125,-1.1484375 0,-0.1171875 -0.1171875,-0.1171875 -0.1171875,-0.1171875 -0.09375,0 -0.1171875,0.0703125 -0.1289063,0.140625 C 7.020875,-0.16265625 6.599,0.00140625 6.364625,0.00140625 c -0.328125,0 -0.3984375,-0.22265625 -0.3984375,-0.609375 0,-0.3046875 0.058594,-0.82031245 0.1054688,-1.13671875 0.011719,-0.140625 0.035156,-0.328125 0.035156,-0.46875 0,-0.7617187 -0.6679687,-1.078125 -0.9374998,-1.171875 z m 0,0"
         style="fill:#000000;fill-opacity:1;fill-rule:nonzero;stroke:none" />
      <path
         id="path27"
         d="m 9.4613047,-0.83941406 c 0.5507813,0 0.9375003,0.375 0.9375003,1.125 0,0.86718746 -0.5039066,1.12499996 -0.9023441,1.12499996 -0.28125,0 -0.890625,-0.082031 -1.1835937,-0.49218746 0.328125,-0.0117188 0.3984375,-0.24609375 0.3984375,-0.38671875 0,-0.22265625 -0.1640625,-0.38671875 -0.3867188,-0.38671875 -0.1875,0 -0.3867187,0.1171875 -0.3867187,0.41015625 0,0.65625001 0.7265625,1.07812501 1.5703125,1.07812501 0.9726563,0 1.6406253,-0.64453126 1.6406253,-1.34765626 0,-0.5390625 -0.445313,-1.08984375 -1.2187503,-1.2421875 0.7382813,-0.26953124 0.9960933,-0.79687504 0.9960933,-1.21875004 0,-0.5507812 -0.632812,-0.9609375 -1.4062496,-0.9609375 -0.7734375,0 -1.359375,0.375 -1.359375,0.9375 0,0.234375 0.1523438,0.3632813 0.3632813,0.3632813 0.2109375,0 0.3515625,-0.1640625 0.3515625,-0.3515625 0,-0.1992188 -0.140625,-0.3515625 -0.3515625,-0.3632813 0.234375,-0.3046875 0.7148437,-0.3867187 0.9726562,-0.3867187 0.3164063,0 0.7617191,0.1523437 0.7617191,0.7617187 0,0.2929688 -0.105469,0.609375 -0.2812503,0.8320313 -0.234375,0.2578125 -0.421875,0.28125 -0.7734375,0.2929687 -0.1757813,0.023437 -0.1875,0.023437 -0.2226563,0.023437 -0.011719,0 -0.070312,0.011719 -0.070312,0.09375 0,0.09375 0.058594,0.09375 0.1757813,0.09375 z m 0,0"
         style="fill:#000000;fill-opacity:1;fill-rule:nonzero;stroke:none" />
    </g>
    <g
       id="g27"
       aria-label="u&#10;1"
       transform="matrix(1.3333333,0,0,1.3333333,4.4253333,123.296)">
      <path
         id="path28"
         d="M 3.4925234,-0.56184375 C 3.5979922,-0.1516875 3.9495547,0.106125 4.3714297,0.106125 c 0.3515625,0 0.5742187,-0.22265625 0.7382812,-0.5390625 0.1757813,-0.36328125 0.3046875,-0.9726562 0.3046875,-0.9960937 0,-0.09375 -0.09375,-0.09375 -0.1289062,-0.09375 -0.09375,0 -0.1054688,0.035156 -0.140625,0.1757812 -0.1289063,0.5625 -0.328125,1.2421875 -0.7382813,1.2421875 -0.2109375,0 -0.3164062,-0.12890625 -0.3164062,-0.45703125 0,-0.22265625 0.1289062,-0.69140625 0.1992187,-1.04296875 l 0.28125,-1.078125 c 0.035156,-0.140625 0.1289063,-0.5273437 0.1757813,-0.6679687 0.046875,-0.234375 0.140625,-0.609375 0.140625,-0.6679688 0,-0.1875 -0.140625,-0.2695312 -0.28125,-0.2695312 -0.058594,0 -0.3164063,0 -0.3867188,0.3398437 -0.1992187,0.7265625 -0.6328125,2.4726563 -0.75,3 -0.011719,0.046875 -0.4101562,0.84375 -1.1367187,0.84375 -0.515625,0 -0.6210938,-0.45703125 -0.6210938,-0.8203125 0,-0.5625 0.28125,-1.3476562 0.5390625,-2.0273437 0.1171875,-0.3046875 0.1757813,-0.4453125 0.1757813,-0.6328125 0,-0.4453125 -0.328125,-0.8203125 -0.8203125,-0.8203125 -0.94921876,0 -1.31250001,1.453125 -1.31250001,1.5351562 0,0.1054688 0.09375,0.1054688 0.1171875,0.1054688 0.09375,0 0.10546875,-0.023437 0.15234375,-0.1875 0.2578125,-0.8671875 0.63281246,-1.2304688 1.00781246,-1.2304688 0.09375,0 0.2578125,0.011719 0.2578125,0.328125 0,0.234375 -0.1171875,0.5273438 -0.1757812,0.6796875 -0.3632813,0.984375 -0.5742188,1.6054688 -0.5742188,2.0859375 0,0.94921875 0.6796875,1.1953125 1.21875,1.1953125 0.65625,0 1.0195313,-0.4453125 1.1953125,-0.66796875 z m 0,0"
         style="fill:#000000;fill-opacity:1;fill-rule:nonzero;stroke:none" />
      <path
         id="path29"
         d="m 8.0364687,-2.9348906 c 0,-0.1875 -0.011719,-0.1992188 -0.2109375,-0.1992188 -0.4453125,0.4335938 -1.078125,0.4453125 -1.359375,0.4453125 v 0.2460938 c 0.1640625,0 0.6210938,0 1.0078125,-0.1875 v 3.55078123 c 0,0.23437497 0,0.32812497 -0.6914062,0.32812497 H 6.5130312 v 0.2460938 c 0.1289063,-0.011719 0.984375,-0.023437 1.2421875,-0.023437 0.2109375,0 1.0898438,0.011719 1.2421875,0.023437 V 1.2487031 H 8.7395937 c -0.703125,0 -0.703125,-0.09375 -0.703125,-0.32812497 z m 0,0"
         style="fill:#000000;fill-opacity:1;fill-rule:nonzero;stroke:none" />
    </g>
    <path
       id="path30"
       d="M 0,0 H 9.63792 M 41.3863,0 h 9.63796 v 35.71681 l 17.80199,-1e-5 m 31.7484,0 17.80201,1e-5 0.11261,-49.60663 12.75606,2e-5 m 0,0 12.75607,-2e-5"
       style="fill:none;stroke:#000000;stroke-width:0.3985;stroke-linecap:butt;stroke-linejoin:miter;stroke-miterlimit:10;stroke-dasharray:none;stroke-opacity:1"
       transform="matrix(1.3333333,0,0,-1.3333333,169.19333,94.364)" />
    <g
       id="g30"
       aria-label="u&#10;O1"
       transform="matrix(1.3333333,0,0,1.3333333,158.22933,104.776)">
      <path
         id="path31"
         d="m 3.4930391,-0.56149219 c 0.1054687,0.41015625 0.4570312,0.66796875 0.8789062,0.66796875 0.3515625,0 0.5742188,-0.22265625 0.7382813,-0.5390625 0.1757812,-0.36328125 0.3046875,-0.97265626 0.3046875,-0.99609376 0,-0.09375 -0.09375,-0.09375 -0.1289063,-0.09375 -0.09375,0 -0.1054687,0.035156 -0.140625,0.1757813 -0.1289062,0.56249996 -0.328125,1.24218746 -0.7382812,1.24218746 -0.2109375,0 -0.3164063,-0.12890625 -0.3164063,-0.45703125 0,-0.22265625 0.1289063,-0.69140621 0.1992188,-1.04296871 l 0.28125,-1.078125 c 0.035156,-0.140625 0.1289062,-0.5273438 0.1757812,-0.6679688 0.046875,-0.234375 0.140625,-0.609375 0.140625,-0.6679687 0,-0.1875 -0.140625,-0.2695313 -0.28125,-0.2695313 -0.058594,0 -0.3164062,0 -0.3867187,0.3398438 -0.1992188,0.7265625 -0.6328125,2.4726562 -0.75,2.99999996 -0.011719,0.046875 -0.4101563,0.84375 -1.1367188,0.84375 -0.515625,0 -0.6210937,-0.45703125 -0.6210937,-0.8203125 0,-0.56249996 0.28125,-1.34765626 0.5390625,-2.02734376 0.1171875,-0.3046875 0.1757812,-0.4453125 0.1757812,-0.6328125 0,-0.4453125 -0.328125,-0.8203125 -0.8203125,-0.8203125 -0.94921874,0 -1.31249999,1.453125 -1.31249999,1.5351563 0,0.1054687 0.09375,0.1054687 0.1171875,0.1054687 0.09375,0 0.10546875,-0.023437 0.15234375,-0.1875 0.2578125,-0.8671875 0.63281254,-1.2304687 1.00781254,-1.2304687 0.09375,0 0.2578125,0.011719 0.2578125,0.328125 0,0.234375 -0.1171875,0.5273437 -0.1757813,0.6796875 -0.3632812,0.984375 -0.5742187,1.6054687 -0.5742187,2.0859375 0,0.94921871 0.6796875,1.19531246 1.21875,1.19531246 0.65625,0 1.0195312,-0.4453125 1.1953125,-0.66796875 z m 0,0"
         style="fill:#000000;fill-opacity:1;fill-rule:nonzero;stroke:none" />
      <path
         id="path32"
         d="m 11.479367,-1.4696953 c 0,-1.0898438 -0.785156,-1.9335938 -2.0156248,-1.9335938 -1.6640625,0 -3.28125,1.5585938 -3.28125,3.12890629 0,1.125 0.8320312,1.91015621 2.0273437,1.91015621 1.6640625,0 3.2695311,-1.52343746 3.2695311,-3.1054687 z M 8.2684297,1.4013984 c -0.7382813,0 -1.3710938,-0.50390621 -1.3710938,-1.53515621 0,-0.3515625 0.1054688,-1.33593749 0.7382813,-2.13281249 0.46875,-0.5742188 1.1484375,-0.9140625 1.7695312,-0.9140625 0.7265626,0 1.3945316,0.4570312 1.3945316,1.4648437 0,0.515625 -0.210938,1.53515629 -0.8671878,2.27343754 -0.4804688,0.56249996 -1.125,0.84374996 -1.6640625,0.84374996 z m 0,0"
         style="fill:#000000;fill-opacity:1;fill-rule:nonzero;stroke:none" />
      <path
         id="path33"
         d="m 14.309445,-2.9345391 c 0,-0.1875 -0.01172,-0.1992187 -0.210937,-0.1992187 -0.445313,0.4335937 -1.078125,0.4453125 -1.359375,0.4453125 v 0.2460937 c 0.164062,0 0.621094,0 1.007812,-0.1875 v 3.55078129 c 0,0.23437501 0,0.32812501 -0.691406,0.32812501 h -0.269531 v 0.2460937 c 0.128906,-0.011719 0.984375,-0.023437 1.242187,-0.023437 0.210938,0 1.089844,0.011719 1.242188,0.023437 V 1.2490547 H 15.01257 c -0.703125,0 -0.703125,-0.09375 -0.703125,-0.32812501 z m 0,0"
         style="fill:#000000;fill-opacity:1;fill-rule:nonzero;stroke:none" />
    </g>
    <path
       id="path34"
       d="M 9.63792,5.95285 H 41.3863 V -5.95285 H 9.63792 Z"
       style="fill:none;stroke:#000000;stroke-width:0.797;stroke-linecap:butt;stroke-linejoin:miter;stroke-miterlimit:10;stroke-dasharray:none;stroke-opacity:1"
       transform="matrix(1.3333333,0,0,-1.3333333,169.19333,94.364)" />
    <path
       id="path35"
       d="M 1.58714,0 C 1.58714,0.87656 0.87656,1.58714 0,1.58714 -0.87656,1.58714 -1.58714,0.87656 -1.58714,0 c 0,-0.87656 0.71058,-1.58714 1.58714,-1.58714 0.87656,0 1.58714,0.71058 1.58714,1.58714 z"
       style="fill:#000000;fill-opacity:1;fill-rule:nonzero;stroke:#000000;stroke-width:0.3985;stroke-linecap:butt;stroke-linejoin:miter;stroke-miterlimit:10;stroke-dasharray:none;stroke-opacity:1"
       transform="matrix(1.3333333,0,0,-1.3333333,169.19333,94.364)" />
    <path
       id="path36"
       d="m 52.6114,0 c 0,0.87656 -0.71058,1.58714 -1.58714,1.58714 -0.87656,0 -1.58714,-0.71058 -1.58714,-1.58714 0,-0.87656 0.71058,-1.58714 1.58714,-1.58714 0.87656,0 1.58714,0.71058 1.58714,1.58714 z"
       style="fill:#000000;fill-opacity:1;fill-rule:nonzero;stroke:#000000;stroke-width:0.3985;stroke-linecap:butt;stroke-linejoin:miter;stroke-miterlimit:10;stroke-dasharray:none;stroke-opacity:1"
       transform="matrix(1.3333333,0,0,-1.3333333,169.19333,94.364)" />
    <g
       id="g36"
       aria-label="R&#10;4"
       transform="matrix(1.3333333,0,0,1.3333333,195.18667,81.338667)">
      <path
         id="path37"
         d="m 3.7389063,-6.1163047 c 0.058594,-0.234375 0.082031,-0.3398437 0.28125,-0.3632812 0.082031,-0.011719 0.3984375,-0.011719 0.5976562,-0.011719 0.7148438,0 1.8164063,0 1.8164063,0.984375 0,0.3398438 -0.1523438,1.0195313 -0.5507813,1.4179688 -0.2578125,0.2578125 -0.7851562,0.5742187 -1.6757812,0.5742187 H 3.094375 Z m 1.4296875,2.7304688 C 6.1764063,-3.6084922 7.36,-4.2998984 7.36,-5.3077109 c 0,-0.8554688 -0.890625,-1.5 -2.203125,-1.5 H 2.3209375 c -0.1992187,0 -0.2929687,0 -0.2929687,0.1992187 0,0.1171875 0.09375,0.1171875 0.28125,0.1171875 0.023437,0 0.2109375,0 0.3867187,0.011719 0.1757813,0.023437 0.2578125,0.035156 0.2578125,0.1640625 0,0.035156 0,0.070312 -0.035156,0.1875 l -1.3359375,5.35546871 c -0.09375,0.38671875 -0.1171875,0.46875 -0.9023438,0.46875 -0.17578125,0 -0.26953125,0 -0.26953125,0.19921875 0,0.1054687525 0.1171875,0.1054687525 0.140625,0.1054687525 0.28125,0 0.97265625,-0.0351562525 1.25390625,-0.0351562525 0.28125,0 0.984375,0.0351562525 1.265625,0.0351562525 0.082031,0 0.1992188,0 0.1992188,-0.1992187525 0,-0.10546875 -0.09375,-0.10546875 -0.28125,-0.10546875 -0.3632813,0 -0.6445313,0 -0.6445313,-0.1875 0,-0.0585938 0.011719,-0.10546875 0.023437,-0.1640625 l 0.65625,-2.63671871 H 4.219375 c 0.9023438,0 1.078125,0.5507812 1.078125,0.9023437 0,0.1523438 -0.082031,0.4570313 -0.140625,0.6914063 -0.070312,0.2695312 -0.1523437,0.6445312 -0.1523437,0.84374996 0,1.078125 1.1953125,1.078125 1.3242187,1.078125 0.84375,0 1.1953125,-1.0078125 1.1953125,-1.1484375 0,-0.11718746 -0.1171875,-0.11718746 -0.1171875,-0.11718746 -0.09375,0 -0.1171875,0.0703125 -0.1289062,0.14062496 -0.2578125,0.73828125 -0.6796875,0.9023437525 -0.9140625,0.9023437525 -0.328125,0 -0.3984375,-0.2226562525 -0.3984375,-0.6093750025 0,-0.3046875 0.058594,-0.82031251 0.1054687,-1.13671871 0.011719,-0.140625 0.035156,-0.328125 0.035156,-0.46875 0,-0.7617188 -0.6679688,-1.078125 -0.9374997,-1.1718752 z m 0,0"
         style="fill:#000000;fill-opacity:1;fill-rule:nonzero;stroke:none" />
      <path
         id="path38"
         d="M 11.256484,0.34658594 V 0.10049219 H 10.483047 V -3.0049766 c 0,-0.1523437 0,-0.1992187 -0.152344,-0.1992187 -0.09375,0 -0.117187,0 -0.1875,0.09375 L 7.8346094,0.10049219 v 0.24609375 h 2.0507812 v 0.57421875 c 0,0.23437501 0,0.32812501 -0.5625,0.32812501 h -0.1875 v 0.2460937 c 0.3515625,-0.011719 0.796875,-0.023437 1.0429684,-0.023437 0.257813,0 0.703125,0.011719 1.054688,0.023437 V 1.2489297 h -0.1875 c -0.5625,0 -0.5625,-0.09375 -0.5625,-0.32812501 V 0.34658594 Z M 9.9322656,-2.4541953 V 0.10049219 H 8.0924219 Z m 0,0"
         style="fill:#000000;fill-opacity:1;fill-rule:nonzero;stroke:none" />
    </g>
    <g
       id="g38"
       aria-label="100kΩ"
       transform="matrix(1.3333333,0,0,1.3333333,183.836,116.4)">
      <path
         id="path39"
         d="m 2.9296406,-6.3761719 c 0,-0.234375 0,-0.2578125 -0.234375,-0.2578125 -0.609375,0.6328125 -1.4882812,0.6328125 -1.80468748,0.6328125 v 0.3164063 c 0.19921878,0 0.78515628,0 1.30078128,-0.2578125 v 5.15624998 c 0,0.3515625 -0.035156,0.48046875 -0.9257813,0.48046875 H 0.94917187 v 0.3046875 C 1.3007344,-0.03632812 2.1562031,-0.03632812 2.5546406,-0.03632812 c 0.3984375,0 1.265625,0 1.6171875,0.03515625 v -0.3046875 H 3.8554219 c -0.9023438,0 -0.9257813,-0.1171875 -0.9257813,-0.48046875 z m 6.6328125,3.1875 c 0,-0.796875 -0.046875,-1.59375 -0.3984375,-2.3320312 -0.4570312,-0.9609375 -1.2773437,-1.1132813 -1.6875,-1.1132813 -0.5976562,0 -1.3359375,0.2578125 -1.734375,1.1835938 -0.328125,0.6914062 -0.375,1.4648437 -0.375,2.2617187 0,0.75 0.046875,1.640625 0.4453125,2.40234378 0.4335938,0.80859375 1.1601563,1.0078125 1.6523438,1.0078125 0.5390625,0 1.2890625,-0.2109375 1.734375,-1.16015625 C 9.5155781,-1.6300781 9.5624531,-2.4035156 9.5624531,-3.1886719 Z m -2.0976562,3.18750003 c -0.3867188,0 -0.984375,-0.24609375 -1.1601563,-1.20703123 -0.1054687,-0.5976563 -0.1054687,-1.5117188 -0.1054687,-2.0976563 0,-0.6445312 0,-1.3007812 0.082031,-1.8398437 0.1875,-1.1835938 0.9257813,-1.265625 1.1835938,-1.265625 0.328125,0 0.984375,0.1757812 1.171875,1.1601562 0.09375,0.5625 0.09375,1.3125 0.09375,1.9453125 0,0.75 0,1.4179688 -0.1054688,2.0625 -0.1523437,0.93750003 -0.7148437,1.24218753 -1.160156,1.24218753 z M 14.545852,-3.1886719 c 0,-0.796875 -0.04687,-1.59375 -0.398438,-2.3320312 -0.457031,-0.9609375 -1.277344,-1.1132813 -1.6875,-1.1132813 -0.597656,0 -1.335937,0.2578125 -1.734375,1.1835938 -0.328125,0.6914062 -0.375,1.4648437 -0.375,2.2617187 0,0.75 0.04687,1.640625 0.445313,2.40234378 0.433593,0.80859375 1.160156,1.0078125 1.652343,1.0078125 0.539063,0 1.289063,-0.2109375 1.734375,-1.16015625 0.316407,-0.69140623 0.363282,-1.46484373 0.363282,-2.25000003 z m -2.097657,3.18750003 c -0.386718,0 -0.984375,-0.24609375 -1.160156,-1.20703123 -0.105469,-0.5976563 -0.105469,-1.5117188 -0.105469,-2.0976563 0,-0.6445312 0,-1.3007812 0.08203,-1.8398437 0.1875,-1.1835938 0.925781,-1.265625 1.183593,-1.265625 0.328125,0 0.984375,0.1757812 1.171875,1.1601562 0.09375,0.5625 0.09375,1.3125 0.09375,1.9453125 0,0.75 0,1.4179688 -0.105468,2.0625 -0.152344,0.93750003 -0.714844,1.24218753 -1.160157,1.24218753 z m 0,0"
         style="fill:#000000;fill-opacity:1;fill-rule:nonzero;stroke:none" />
      <path
         id="path40"
         d="m 21.691359,-0.00117187 v -0.3046875 c -0.363281,0 -0.585937,0 -0.960937,-0.52734375 L 19.464797,-2.6261719 c -0.01172,-0.011719 -0.05859,-0.070312 -0.05859,-0.1054687 0,-0.035156 0.703125,-0.6328125 0.808594,-0.7148438 0.621094,-0.5039062 1.042969,-0.5273437 1.253906,-0.5390625 v -0.3046875 c -0.292969,0.023437 -0.421875,0.023437 -0.703125,0.023437 -0.351562,0 -0.972656,-0.023437 -1.113281,-0.023437 v 0.3046875 c 0.1875,0.011719 0.292969,0.1171875 0.292969,0.2460938 0,0.1992187 -0.140625,0.3164062 -0.222657,0.3867187 l -1.40625,1.21875 v -4.78125 l -1.429687,0.1054688 v 0.3164062 c 0.691406,0 0.773437,0.070312 0.773437,0.5507813 v 5.17968748 c 0,0.45703125 -0.105468,0.45703125 -0.773437,0.45703125 v 0.3046875 l 1.078125,-0.03515625 1.101562,0.03515625 v -0.3046875 c -0.667968,0 -0.773437,0 -0.773437,-0.45703125 V -1.7824219 l 0.632812,-0.5507812 c 0.773438,1.0546875 1.183594,1.61718748 1.183594,1.79296873 0,0.1875 -0.164062,0.234375 -0.351562,0.234375 v 0.3046875 l 1.066406,-0.03515625 c 0.292969,0 0.585937,0.01171875 0.867187,0.03515625 z m 0,0"
         style="fill:#000000;fill-opacity:1;fill-rule:nonzero;stroke:none" />
      <path
         id="path41"
         d="m 28.602492,-1.6183594 h -0.246094 c -0.04687,0.2578125 -0.08203,0.4921875 -0.175781,0.72656253 -0.04687,0.1640625 -0.08203,0.24609375 -0.65625,0.24609375 h -0.796875 c 0.128906,-0.56249998 0.433594,-1.04296878 0.878906,-1.69921878 0.46875,-0.703125 0.878907,-1.3945312 0.878907,-2.1796875 0,-1.3828125 -1.335938,-2.4960937 -3.023438,-2.4960937 -1.710937,0 -3.035156,1.1367187 -3.035156,2.4960937 0,0.7851563 0.398437,1.4765625 0.867187,2.1796875 0.445313,0.65625 0.761719,1.1367188 0.890625,1.69921878 h -0.796875 c -0.574218,0 -0.609375,-0.0820313 -0.65625,-0.234375 -0.08203,-0.22265628 -0.128906,-0.48046878 -0.175781,-0.73828128 h -0.257812 l 0.328125,1.61718753 h 1.59375 c 0.222656,0 0.257812,0 0.257812,-0.2109375 0,-0.69140625 -0.316406,-1.57031253 -0.539062,-2.21484373 -0.210938,-0.5742188 -0.492188,-1.359375 -0.492188,-2.109375 0,-1.59375 1.101563,-2.2734375 2.003906,-2.2734375 0.960938,0 2.015625,0.7265625 2.015625,2.2734375 0,0.75 -0.269531,1.5117187 -0.5625,2.3203125 -0.152343,0.421875 -0.46875,1.31249998 -0.46875,2.00390623 0,0.2109375 0.03516,0.2109375 0.257813,0.2109375 h 1.582031 z m 0,0"
         style="fill:#000000;fill-opacity:1;fill-rule:nonzero;stroke:none" />
    </g>
    <path
       id="path42"
       d="M 108.36943,-13.88982 61.14413,13.88982 V -41.66945 Z"
       style="fill:none;stroke:#000000;stroke-width:0.797;stroke-linecap:butt;stroke-linejoin:miter;stroke-miterlimit:10;stroke-dasharray:none;stroke-opacity:1"
       transform="matrix(1.3333333,0,0,-1.3333333,169.19333,94.364)" />
    <path
       id="path43"
       d="M 51.02426,0 H 61.14413 M 51.02426,-27.77963 h 10.11987 m 57.34514,13.88981 h -10.11985"
       style="fill:none;stroke:#000000;stroke-width:0.3985;stroke-linecap:square;stroke-linejoin:miter;stroke-miterlimit:10;stroke-dasharray:none;stroke-opacity:1"
       transform="matrix(1.3333333,0,0,-1.3333333,169.19333,94.364)" />
    <path
       id="path44"
       d="m 7.48775,-2.1927109 c 0.1523438,0 0.4453125,0 0.4453125,-0.3046875 0,-0.3046875 -0.28125,-0.3046875 -0.4453125,-0.3046875 H 1.4057188 c -0.1523438,0 -0.44531255,0 -0.44531255,0.3046875 0,0.3046875 0.28125005,0.3046875 0.44531255,0.3046875 z m 0,0"
       style="fill:#000000;fill-opacity:1;fill-rule:nonzero;stroke:none"
       aria-label="−"
       transform="matrix(1.3333333,0,0,1.3333333,255.14133,97.685333)" />
    <path
       id="path45"
       d="m 4.7455625,-2.1924141 h 3.0820313 c 0.1289062,0 0.4335937,0 0.4335937,-0.3046875 0,-0.3046875 -0.2929687,-0.3046875 -0.4335937,-0.3046875 H 4.7455625 v -3.0820312 c 0,-0.1289063 0,-0.421875 -0.2929687,-0.421875 -0.3046875,0 -0.3046875,0.2929687 -0.3046875,0.421875 v 3.0820312 H 1.065875 c -0.140625,0 -0.43359375,0 -0.43359375,0.3046875 0,0.3046875 0.3046875,0.3046875 0.43359375,0.3046875 h 3.0820313 v 3.09375004 c 0,0.11718746 0,0.41015626 0.2929687,0.41015626 0.3046875,0 0.3046875,-0.28125 0.3046875,-0.41015626 z m 0,0"
       style="fill:#000000;fill-opacity:1;fill-rule:nonzero;stroke:none"
       aria-label="+"
       transform="matrix(1.3333333,0,0,1.3333333,255.14133,134.724)" />
    <g
       id="g45"
       aria-label="A&#10;2"
       transform="matrix(1.3333333,0,0,1.3333333,272.64933,116.42667)">
      <path
         id="path46"
         d="m 1.7805781,-1.1491016 c -0.3984375,0.66796879 -0.78515622,0.80859379 -1.21874997,0.84375004 -0.12890625,0 -0.2109375,0 -0.2109375,0.19921875 0,0.05859375 0.046875,0.1054687475 0.12890625,0.1054687475 0.26953125,0 0.57421872,-0.0351562475 0.85546872,-0.0351562475 0.328125,0 0.6796875,0.0351562475 0.9960938,0.0351562475 0.058594,0 0.1875,0 0.1875,-0.1874999975 0,-0.1171875 -0.09375,-0.1171875 -0.1640625,-0.1171875 -0.2226563,-0.0234375 -0.4570313,-0.10546875 -0.4570313,-0.3515625 0,-0.1171875 0.058594,-0.234375 0.1289063,-0.37500004 l 0.7617187,-1.265625 h 2.4960938 c 0.023437,0.1992188 0.1640625,1.55859379 0.1640625,1.66406254 0,0.29296875 -0.515625,0.328125 -0.7148438,0.328125 -0.140625,0 -0.2460937,0 -0.2460937,0.19921875 0,0.1054687475 0.1289062,0.1054687475 0.140625,0.1054687475 0.4101562,0 0.84375,-0.0351562475 1.2539062,-0.0351562475 0.2460938,0 0.8671875,0.0351562475 1.125,0.0351562475 0.058594,0 0.1757813,0 0.1757813,-0.1992187475 0,-0.10546875 -0.1054688,-0.10546875 -0.234375,-0.10546875 -0.609375,0 -0.609375,-0.0703125 -0.6445313,-0.36328125 L 5.6946406,-6.8912891 c -0.011719,-0.1992187 -0.011719,-0.2460937 -0.1875,-0.2460937 -0.1640625,0 -0.1992187,0.070312 -0.2578125,0.1757812 z m 1.1953125,-1.4648437 1.96875,-3.28125 0.3164063,3.28125 z m 0,0"
         style="fill:#000000;fill-opacity:1;fill-rule:nonzero;stroke:none" />
      <path
         id="path47"
         d="m 10.988586,0.22785156 h -0.234375 c -0.02344,0.15234375 -0.08203,0.5625 -0.175781,0.6328125 -0.05859,0.0351563 -0.5976566,0.0351563 -0.6914066,0.0351563 H 8.5979609 c 0.7382813,-0.64453125 0.984375,-0.84375 1.3945313,-1.171875 0.5156248,-0.41015625 0.9960938,-0.84374996 0.9960938,-1.49999996 0,-0.84375 -0.738281,-1.359375 -1.6289063,-1.359375 -0.8671875,0 -1.453125,0.609375 -1.453125,1.2421875 0,0.3632813 0.3046875,0.3984375 0.375,0.3984375 0.1640625,0 0.375,-0.1171875 0.375,-0.375 0,-0.1289062 -0.058594,-0.3632812 -0.421875,-0.3632812 0.2226562,-0.5039063 0.6914062,-0.65625 1.0195312,-0.65625 0.703125,0 1.0664061,0.5507812 1.0664061,1.1132812 0,0.609375 -0.4335936,1.08984371 -0.6562498,1.33593746 l -1.6875,1.66406254 c -0.070312,0.058594 -0.070312,0.070312 -0.070312,0.2695313 h 2.8828128 z m 0,0"
         style="fill:#000000;fill-opacity:1;fill-rule:nonzero;stroke:none" />
    </g>
    <path
       id="path48"
       d="m 68.82625,41.66965 h 31.74838 V 29.76395 H 68.82625 Z"
       style="fill:none;stroke:#000000;stroke-width:0.797;stroke-linecap:butt;stroke-linejoin:miter;stroke-miterlimit:10;stroke-dasharray:none;stroke-opacity:1"
       transform="matrix(1.3333333,0,0,-1.3333333,169.19333,94.364)" />
    <g
       id="g48"
       aria-label="R&#10;5"
       transform="matrix(1.3333333,0,0,1.3333333,274.104,33.717333)">
      <path
         id="path49"
         d="m 3.7393828,-6.116125 c 0.058594,-0.234375 0.082031,-0.3398437 0.28125,-0.3632812 0.082031,-0.011719 0.3984375,-0.011719 0.5976563,-0.011719 0.7148437,0 1.8164062,0 1.8164062,0.984375 0,0.3398438 -0.1523437,1.0195313 -0.5507812,1.4179688 -0.2578125,0.2578125 -0.7851563,0.5742187 -1.6757813,0.5742187 H 3.0948516 Z m 1.4296875,2.7304688 c 1.0078125,-0.2226563 2.1914063,-0.9140625 2.1914063,-1.921875 0,-0.8554688 -0.890625,-1.5 -2.203125,-1.5 H 2.3214141 c -0.1992188,0 -0.2929688,0 -0.2929688,0.1992187 0,0.1171875 0.09375,0.1171875 0.28125,0.1171875 0.023437,0 0.2109375,0 0.3867188,0.011719 0.1757812,0.023437 0.2578125,0.035156 0.2578125,0.1640625 0,0.035156 0,0.070312 -0.035156,0.1875 L 1.5831328,-0.772375 c -0.09375,0.38671875 -0.1171875,0.46875 -0.90234374,0.46875 -0.17578125,0 -0.26953125,0 -0.26953125,0.19921875 0,0.10546875 0.1171875,0.10546875 0.140625,0.10546875 0.28125,0 0.97265629,-0.03515625 1.25390629,-0.03515625 0.28125,0 0.984375,0.03515625 1.265625,0.03515625 0.082031,0 0.1992187,0 0.1992187,-0.19921875 0,-0.10546875 -0.09375,-0.10546875 -0.28125,-0.10546875 -0.3632812,0 -0.6445312,0 -0.6445312,-0.1875 0,-0.0585938 0.011719,-0.10546875 0.023437,-0.1640625 l 0.65625,-2.6367187 h 1.1953125 c 0.9023437,0 1.078125,0.5507812 1.078125,0.9023437 0,0.1523438 -0.082031,0.4570313 -0.140625,0.6914063 -0.070312,0.2695312 -0.1523438,0.6445312 -0.1523438,0.84374995 0,1.078125 1.1953125,1.078125 1.3242188,1.078125 0.84375,0 1.1953125,-1.0078125 1.1953125,-1.1484375 0,-0.11718745 -0.1171875,-0.11718745 -0.1171875,-0.11718745 -0.09375,0 -0.1171875,0.0703124 -0.1289063,0.14062495 C 7.0206328,-0.163 6.5987578,0.0010625 6.3643828,0.0010625 c -0.328125,0 -0.3984375,-0.22265625 -0.3984375,-0.609375 0,-0.3046875 0.058594,-0.8203125 0.1054688,-1.1367187 0.011719,-0.140625 0.035156,-0.328125 0.035156,-0.46875 0,-0.7617188 -0.6679687,-1.078125 -0.9374998,-1.171875 z m 0,0"
         style="fill:#000000;fill-opacity:1;fill-rule:nonzero;stroke:none" />
      <path
         id="path50"
         d="m 8.64075,-2.3954219 c 0.3632813,0.09375 0.5625,0.09375 0.6796875,0.09375 0.9140625,0 1.4648435,-0.6328125 1.4648435,-0.7382812 0,-0.070312 -0.04687,-0.09375 -0.08203,-0.09375 -0.01172,0 -0.03516,0 -0.05859,0.023437 -0.164062,0.058594 -0.539062,0.1992187 -1.0546872,0.1992187 -0.1992188,0 -0.5625,-0.011719 -1.0195313,-0.1875 -0.070312,-0.035156 -0.082031,-0.035156 -0.082031,-0.035156 -0.09375,0 -0.09375,0.070312 -0.09375,0.1875 v 2.06249998 c 0,0.1171875 0,0.19921875 0.1054687,0.19921875 0.070312,0 0.070312,-0.0117188 0.140625,-0.10546875 0.3046875,-0.37499998 0.7265625,-0.43359378 0.9726563,-0.43359378 0.4218745,0 0.6093745,0.33984378 0.6445315,0.38671878 0.117187,0.234375 0.164062,0.50390625 0.164062,0.90234375 0,0.2109375 0,0.62109375 -0.210937,0.92578125 C 10.035281,1.2491094 9.7423125,1.4131719 9.39075,1.4131719 c -0.4453125,0 -0.9140625,-0.2578125 -1.0898437,-0.71484377 0.2695312,0.0234375 0.3984375,-0.15234375 0.3984375,-0.33984375 0,-0.3046875 -0.2578125,-0.3515625 -0.3515625,-0.3515625 -0.011719,0 -0.3515625,0 -0.3515625,0.375 0,0.62109372 0.5742187,1.25390622 1.4179687,1.25390622 0.8906255,0 1.6640625,-0.66796872 1.6640625,-1.54687497 0,-0.78515625 -0.597656,-1.51171873 -1.453125,-1.51171873 -0.3164062,0 -0.6796875,0.082031 -0.984375,0.3398437 z m 0,0"
         style="fill:#000000;fill-opacity:1;fill-rule:nonzero;stroke:none" />
    </g>
    <path
       id="path51"
       d="m 120.07642,-13.88982 c 0,0.87658 -0.71059,1.58716 -1.58715,1.58716 -0.87655,0 -1.58714,-0.71058 -1.58714,-1.58716 0,-0.87655 0.71059,-1.58714 1.58714,-1.58714 0.87656,0 1.58715,0.71059 1.58715,1.58714 z"
       style="fill:#000000;fill-opacity:1;fill-rule:nonzero;stroke:#000000;stroke-width:0.3985;stroke-linecap:butt;stroke-linejoin:miter;stroke-miterlimit:10;stroke-dasharray:none;stroke-opacity:1"
       transform="matrix(1.3333333,0,0,-1.3333333,169.19333,94.364)" />
    <path
       id="path52"
       d="m 145.58855,-13.88982 c 0,0.87658 -0.71059,1.58716 -1.58715,1.58716 -0.87655,0 -1.58714,-0.71058 -1.58714,-1.58716 0,-0.87655 0.71059,-1.58714 1.58714,-1.58714 0.87656,0 1.58715,0.71059 1.58715,1.58714 z"
       style="fill:#ffffff;fill-opacity:1;fill-rule:nonzero;stroke:#000000;stroke-width:0.3985;stroke-linecap:butt;stroke-linejoin:miter;stroke-miterlimit:10;stroke-dasharray:none;stroke-opacity:1"
       transform="matrix(1.3333333,0,0,-1.3333333,169.19333,94.364)" />
    <g
       id="g52"
       aria-label="u&#10;O"
       transform="matrix(1.3333333,0,0,1.3333333,352.87867,123.296)">
      <path
         id="path53"
         d="M 3.4923672,-0.56184375 C 3.5978359,-0.1516875 3.9493984,0.106125 4.3712734,0.106125 c 0.3515625,0 0.5742188,-0.22265625 0.7382813,-0.5390625 0.1757812,-0.36328125 0.3046875,-0.9726562 0.3046875,-0.9960937 0,-0.09375 -0.09375,-0.09375 -0.1289063,-0.09375 -0.09375,0 -0.1054687,0.035156 -0.140625,0.1757812 -0.1289062,0.5625 -0.328125,1.2421875 -0.7382812,1.2421875 -0.2109375,0 -0.3164063,-0.12890625 -0.3164063,-0.45703125 0,-0.22265625 0.1289063,-0.69140625 0.1992188,-1.04296875 l 0.28125,-1.078125 c 0.035156,-0.140625 0.1289062,-0.5273437 0.1757812,-0.6679687 0.046875,-0.234375 0.140625,-0.609375 0.140625,-0.6679688 0,-0.1875 -0.140625,-0.2695312 -0.28125,-0.2695312 -0.058594,0 -0.3164062,0 -0.3867187,0.3398437 -0.1992188,0.7265625 -0.6328125,2.4726563 -0.75,3 -0.011719,0.046875 -0.4101563,0.84375 -1.1367188,0.84375 -0.515625,0 -0.6210937,-0.45703125 -0.6210937,-0.8203125 0,-0.5625 0.28125,-1.3476562 0.5390625,-2.0273437 0.1171875,-0.3046875 0.1757812,-0.4453125 0.1757812,-0.6328125 0,-0.4453125 -0.328125,-0.8203125 -0.8203125,-0.8203125 -0.94921871,0 -1.31249996,1.453125 -1.31249996,1.5351562 0,0.1054688 0.09375,0.1054688 0.1171875,0.1054688 0.09375,0 0.10546875,-0.023437 0.15234375,-0.1875 0.2578125,-0.8671875 0.63281251,-1.2304688 1.00781251,-1.2304688 0.09375,0 0.2578125,0.011719 0.2578125,0.328125 0,0.234375 -0.1171875,0.5273438 -0.1757813,0.6796875 -0.3632812,0.984375 -0.5742187,1.6054688 -0.5742187,2.0859375 0,0.94921875 0.6796875,1.1953125 1.21875,1.1953125 0.65625,0 1.0195312,-0.4453125 1.1953125,-0.66796875 z m 0,0"
         style="fill:#000000;fill-opacity:1;fill-rule:nonzero;stroke:none" />
      <path
         id="path54"
         d="m 11.481625,-1.4700469 c 0,-1.0898437 -0.785156,-1.9335937 -2.015625,-1.9335937 -1.6640625,0 -3.28125,1.5585937 -3.28125,3.12890623 0,1.125 0.8320313,1.91015627 2.0273438,1.91015627 1.6640625,0 3.2695312,-1.52343752 3.2695312,-3.1054688 z M 8.2706875,1.4010469 c -0.7382812,0 -1.3710937,-0.50390627 -1.3710937,-1.53515627 0,-0.3515625 0.1054687,-1.33593753 0.7382812,-2.13281253 0.46875,-0.5742187 1.1484375,-0.9140625 1.7695313,-0.9140625 0.7265627,0 1.3945317,0.4570313 1.3945317,1.4648438 0,0.515625 -0.210938,1.53515623 -0.867188,2.27343748 C 9.4542813,1.1197969 8.80975,1.4010469 8.2706875,1.4010469 Z m 0,0"
         style="fill:#000000;fill-opacity:1;fill-rule:nonzero;stroke:none" />
    </g>
    <path
       id="path55"
       d="M 51.02426,-27.77963 H 41.3863 m -31.74838,0 H 0"
       style="fill:none;stroke:#000000;stroke-width:0.3985;stroke-linecap:butt;stroke-linejoin:miter;stroke-miterlimit:10;stroke-dasharray:none;stroke-opacity:1"
       transform="matrix(1.3333333,0,0,-1.3333333,169.19333,94.364)" />
    <path
       id="path56"
       d="M 9.63792,-21.82678 H 41.3863 v -11.9057 H 9.63792 Z"
       style="fill:none;stroke:#000000;stroke-width:0.797;stroke-linecap:butt;stroke-linejoin:miter;stroke-miterlimit:10;stroke-dasharray:none;stroke-opacity:1"
       transform="matrix(1.3333333,0,0,-1.3333333,169.19333,94.364)" />
    <path
       id="path57"
       d="m 0,-27.77963 v -9.92134"
       style="fill:none;stroke:#000000;stroke-width:0.3985;stroke-linecap:butt;stroke-linejoin:miter;stroke-miterlimit:10;stroke-dasharray:none;stroke-opacity:1"
       transform="matrix(1.3333333,0,0,-1.3333333,169.19333,94.364)" />
    <path
       id="path58"
       d="M -5.95285,-37.70097 H 5.95285"
       style="fill:none;stroke:#000000;stroke-width:0.797;stroke-linecap:round;stroke-linejoin:miter;stroke-miterlimit:10;stroke-dasharray:none;stroke-opacity:1"
       transform="matrix(1.3333333,0,0,-1.3333333,169.19333,94.364)" />
  </g>
</svg>
