<?xml version="1.0" encoding="UTF-8" standalone="no"?>
<!-- Created with Inkscape (http://www.inkscape.org/) -->

<svg
   version="1.1"
   id="svg1"
   width="221.65334"
   height="171.14667"
   viewBox="0 0 221.65334 171.14667"
   sodipodi:docname="23-24-2-电路与电子学基础-期末（A卷）-题图3.3.pdf"
   xmlns:inkscape="http://www.inkscape.org/namespaces/inkscape"
   xmlns:sodipodi="http://sodipodi.sourceforge.net/DTD/sodipodi-0.dtd"
   xmlns="http://www.w3.org/2000/svg"
   xmlns:svg="http://www.w3.org/2000/svg">
  <defs
     id="defs1" />
  <sodipodi:namedview
     id="namedview1"
     pagecolor="#ffffff"
     bordercolor="#111111"
     borderopacity="1"
     inkscape:showpageshadow="0"
     inkscape:pageopacity="0"
     inkscape:pagecheckerboard="1"
     inkscape:deskcolor="#d1d1d1">
    <inkscape:page
       x="0"
       y="0"
       inkscape:label="1"
       id="page1"
       width="221.65334"
       height="171.14667"
       margin="0"
       bleed="0" />
  </sodipodi:namedview>
  <g
     id="g1"
     inkscape:groupmode="layer"
     inkscape:label="1">
    <path
       id="path1"
       d="m 0,0 h 15.30743 m 0,0 h 15.30744"
       style="fill:none;stroke:#000000;stroke-width:0.3985;stroke-linecap:butt;stroke-linejoin:miter;stroke-miterlimit:10;stroke-dasharray:none;stroke-opacity:1"
       transform="matrix(1.3333333,0,0,-1.3333333,168.67733,70.836)" />
    <path
       id="path2"
       d="m -10.11984,0 -47.2253,27.77963 v -55.55926 z"
       style="fill:none;stroke:#000000;stroke-width:0.797;stroke-linecap:butt;stroke-linejoin:miter;stroke-miterlimit:10;stroke-dasharray:none;stroke-opacity:1"
       transform="matrix(1.3333333,0,0,-1.3333333,168.67733,70.836)" />
    <path
       id="path3"
       d="m -67.46501,13.88982 h 10.11987 m -10.11987,-27.77964 h 10.11987 M 0,0 h -10.11986"
       style="fill:none;stroke:#000000;stroke-width:0.3985;stroke-linecap:square;stroke-linejoin:miter;stroke-miterlimit:10;stroke-dasharray:none;stroke-opacity:1"
       transform="matrix(1.3333333,0,0,-1.3333333,168.67733,70.836)" />
    <path
       id="path4"
       d="m 7.48775,-2.1918672 c 0.1523438,0 0.4453125,0 0.4453125,-0.3046875 0,-0.3046875 -0.28125,-0.3046875 -0.4453125,-0.3046875 H 1.4057188 c -0.1523438,0 -0.44531255,0 -0.44531255,0.3046875 0,0.3046875 0.28125005,0.3046875 0.44531255,0.3046875 z m 0,0"
       style="fill:#000000;fill-opacity:1;fill-rule:nonzero;stroke:none"
       aria-label="−"
       transform="matrix(1.3333333,0,0,1.3333333,96.641333,55.637333)" />
    <path
       id="path5"
       d="m 4.7455625,-2.1925703 h 3.0820313 c 0.1289062,0 0.4335937,0 0.4335937,-0.3046875 0,-0.3046875 -0.2929687,-0.3046875 -0.4335937,-0.3046875 H 4.7455625 v -3.0820313 c 0,-0.1289062 0,-0.421875 -0.2929687,-0.421875 -0.3046875,0 -0.3046875,0.2929688 -0.3046875,0.421875 v 3.0820313 H 1.065875 c -0.140625,0 -0.43359375,0 -0.43359375,0.3046875 0,0.3046875 0.3046875,0.3046875 0.43359375,0.3046875 h 3.0820313 v 3.09374999 c 0,0.11718751 0,0.41015621 0.2929687,0.41015621 0.3046875,0 0.3046875,-0.28125 0.3046875,-0.41015621 z m 0,0"
       style="fill:#000000;fill-opacity:1;fill-rule:nonzero;stroke:none"
       aria-label="+"
       transform="matrix(1.3333333,0,0,1.3333333,96.641333,92.677333)" />
    <path
       id="path6"
       d="m 1.7812422,-1.1481875 c -0.3984375,0.66796875 -0.78515626,0.80859375 -1.21875001,0.84375 -0.12890625,0 -0.2109375,0 -0.2109375,0.19921875 0,0.05859375 0.046875,0.10546875 0.12890625,0.10546875 0.26953125,0 0.57421876,-0.03515625 0.85546876,-0.03515625 0.328125,0 0.6796875,0.03515625 0.9960937,0.03515625 0.058594,0 0.1875,0 0.1875,-0.1875 0,-0.1171875 -0.09375,-0.1171875 -0.1640625,-0.1171875 C 2.1328047,-0.327875 1.8984297,-0.40990625 1.8984297,-0.656 c 0,-0.1171875 0.058594,-0.234375 0.1289062,-0.375 l 0.7617188,-1.265625 h 2.4960937 c 0.023437,0.1992187 0.1640625,1.55859375 0.1640625,1.6640625 0,0.29296875 -0.515625,0.328125 -0.7148437,0.328125 -0.140625,0 -0.2460938,0 -0.2460938,0.19921875 0,0.10546875 0.1289063,0.10546875 0.140625,0.10546875 0.4101563,0 0.84375,-0.03515625 1.2539063,-0.03515625 0.2460937,0 0.8671875,0.03515625 1.125,0.03515625 0.058594,0 0.1757812,0 0.1757812,-0.19921875 0,-0.10546875 -0.1054687,-0.10546875 -0.234375,-0.10546875 -0.609375,0 -0.609375,-0.0703125 -0.6445312,-0.36328125 L 5.6953047,-6.890375 c -0.011719,-0.1992188 -0.011719,-0.2460938 -0.1875,-0.2460938 -0.1640625,0 -0.1992188,0.070312 -0.2578125,0.1757813 z m 1.1953125,-1.4648438 1.96875,-3.28125 0.3164062,3.28125 z m 0,0"
       style="fill:#000000;fill-opacity:1;fill-rule:nonzero;stroke:none"
       aria-label="A"
       transform="matrix(1.3333333,0,0,1.3333333,117.72267,75.374667)" />
    <path
       id="path7"
       d="m 32.20201,0 c 0,0.87656 -0.71059,1.58714 -1.58714,1.58714 -0.87657,0 -1.58716,-0.71058 -1.58716,-1.58714 0,-0.87656 0.71059,-1.58714 1.58716,-1.58714 0.87655,0 1.58714,0.71058 1.58714,1.58714 z"
       style="fill:#ffffff;fill-opacity:1;fill-rule:nonzero;stroke:#000000;stroke-width:0.3985;stroke-linecap:butt;stroke-linejoin:miter;stroke-miterlimit:10;stroke-dasharray:none;stroke-opacity:1"
       transform="matrix(1.3333333,0,0,-1.3333333,168.67733,70.836)" />
    <g
       id="g7"
       aria-label="v&#10;O"
       transform="matrix(1.3333333,0,0,1.3333333,201.76267,81.248)">
      <path
         id="path8"
         d="m 4.6633516,-3.7045547 c 0,-0.5390625 -0.2578125,-0.703125 -0.4453125,-0.703125 -0.2460938,0 -0.4804688,0.2578125 -0.4804688,0.4804688 0,0.1289062 0.046875,0.1875 0.1523438,0.3046875 0.2109375,0.1992187 0.3398437,0.4570312 0.3398437,0.8085937 0,0.421875 -0.609375,2.70703126 -1.7695312,2.70703126 -0.5039063,0 -0.7382813,-0.3515625 -0.7382813,-0.8671875 0,-0.56249996 0.2695313,-1.28906246 0.5742188,-2.12109376 0.070312,-0.1640625 0.1289062,-0.3046875 0.1289062,-0.4921875 0,-0.4453125 -0.328125,-0.8203125 -0.8203125,-0.8203125 -0.93749999,0 -1.31249999,1.453125 -1.31249999,1.5351563 0,0.1054687 0.09375,0.1054687 0.1171875,0.1054687 0.09375,0 0.10546875,-0.023437 0.15234375,-0.1875 0.29296875,-0.9960937 0.72656254,-1.2304687 1.00781254,-1.2304687 0.082031,0 0.2578125,0 0.2578125,0.3164062 0,0.2460938 -0.1054688,0.515625 -0.1757813,0.703125 -0.4335937,1.1484375 -0.5625,1.6054688 -0.5625,2.0390625 0,1.07812501 0.8671875,1.23046876 1.3359375,1.23046876 1.6640625,0 2.2382813,-3.29296876 2.2382813,-3.80859376 z m 0,0"
         style="fill:#000000;fill-opacity:1;fill-rule:nonzero;stroke:none" />
      <path
         id="path9"
         d="m 10.607687,-1.4721328 c 0,-1.0898438 -0.7851558,-1.9335938 -2.0156245,-1.9335938 -1.6640625,0 -3.28125,1.5585938 -3.28125,3.12890629 0,1.125 0.8320312,1.91015621 2.0273437,1.91015621 1.6640625,0 3.2695308,-1.52343746 3.2695308,-3.1054687 z M 7.39675,1.3989609 c -0.7382813,0 -1.3710938,-0.50390621 -1.3710938,-1.53515621 0,-0.3515625 0.1054688,-1.33593749 0.7382813,-2.13281249 0.46875,-0.5742188 1.1484375,-0.9140625 1.7695312,-0.9140625 0.7265625,0 1.3945313,0.4570312 1.3945313,1.4648437 0,0.515625 -0.2109375,1.53515629 -0.8671875,2.27343754 C 8.5803437,1.1177109 7.9358125,1.3989609 7.39675,1.3989609 Z m 0,0"
         style="fill:#000000;fill-opacity:1;fill-rule:nonzero;stroke:none" />
    </g>
    <path
       id="path10"
       d="m 10.20468,0 v 40.81955 h -34.93735 m -7.93695,0 H -67.607 l 0.14199,-26.92973 -9.63793,-2e-5 m -31.74839,0 -9.63794,2e-5"
       style="fill:none;stroke:#000000;stroke-width:0.3985;stroke-linecap:butt;stroke-linejoin:miter;stroke-miterlimit:10;stroke-dasharray:none;stroke-opacity:1"
       transform="matrix(1.3333333,0,0,-1.3333333,168.67733,70.836)" />
    <path
       id="path11"
       d="M -24.73267,28.91383 V 52.72527 M -32.66962,28.91383 V 52.72527"
       style="fill:none;stroke:#000000;stroke-width:0.797;stroke-linecap:butt;stroke-linejoin:miter;stroke-miterlimit:10;stroke-dasharray:none;stroke-opacity:1"
       transform="matrix(1.3333333,0,0,-1.3333333,168.67733,70.836)" />
    <path
       id="path12"
       d="m 7.5709375,-6.9269453 c 0,-0.023437 -0.023437,-0.09375 -0.1054688,-0.09375 -0.035156,0 -0.046875,0.011719 -0.1523437,0.1171875 L 6.61,-6.1417891 c -0.082031,-0.140625 -0.5390625,-0.8789062 -1.6523438,-0.8789062 -2.2148437,0 -4.45312495,2.203125 -4.45312495,4.5117187 0,1.64062504 1.17187495,2.73046879 2.69531245,2.73046879 0.8671875,0 1.6171875,-0.3984375 2.1445313,-0.85546875 0.9375,-0.82031254 1.1015625,-1.72265624 1.1015625,-1.75781254 0,-0.1054687 -0.1054688,-0.1054687 -0.1171875,-0.1054687 -0.058594,0 -0.1171875,0.023437 -0.1289063,0.1054687 -0.09375,0.2929688 -0.3164062,0.9960938 -1.0078125,1.57031254 -0.6914062,0.5625 -1.3125,0.7265625 -1.8398437,0.7265625 -0.890625,0 -1.9453125,-0.515625 -1.9453125,-2.06250004 0,-0.5742187 0.2109375,-2.1914062 1.2070312,-3.3515625 0.609375,-0.703125 1.5351563,-1.2070312 2.4257813,-1.2070312 1.0195312,0 1.6054687,0.7734375 1.6054687,1.921875 0,0.3984375 -0.035156,0.4101562 -0.035156,0.5039062 0,0.1054688 0.1171875,0.1054688 0.1523437,0.1054688 0.1289063,0 0.1289063,-0.023437 0.1757813,-0.1992188 z m 0,0"
       style="fill:#000000;fill-opacity:1;fill-rule:nonzero;stroke:none"
       aria-label="C"
       transform="matrix(1.3333333,0,0,1.3333333,125.18667,47.177333)" />
    <path
       id="path13"
       d="m 7.5352031,-5.7544531 c 0.09375,-0.3984375 0.2695313,-0.7148438 1.0664063,-0.7382813 0.058594,0 0.1757812,-0.011719 0.1757812,-0.1992187 0,-0.011719 0,-0.1171875 -0.1289062,-0.1171875 -0.328125,0 -0.6796875,0.035156 -1.0078125,0.035156 -0.3398438,0 -0.6914063,-0.035156 -1.0195313,-0.035156 -0.058594,0 -0.1757812,0 -0.1757812,0.1992187 0,0.1171875 0.09375,0.1171875 0.1757812,0.1171875 0.5742188,0.011719 0.6796875,0.2109375 0.6796875,0.4335938 0,0.035156 -0.023437,0.1757812 -0.023437,0.2109375 l -1.125,4.4296875 -2.203125,-5.1914063 c -0.070312,-0.1875 -0.082031,-0.1992187 -0.3164062,-0.1992187 h -1.335938 c -0.1992188,0 -0.28125,0 -0.28125,0.1992187 0,0.1171875 0.082031,0.1171875 0.28125,0.1171875 0.046875,0 0.6679687,0 0.6679687,0.082031 l -1.3359375,5.3554687 c -0.09375,0.39843752 -0.2695312,0.71484377 -1.06640623,0.75000002 -0.0585938,0 -0.17578125,0 -0.17578125,0.19921875 0,0.0703125 0.046875,0.105468755 0.12890625,0.105468755 0.31640625,0 0.66796873,-0.035156255 0.99609373,-0.035156255 0.3398438,0 0.703125,0.035156255 1.03125,0.035156255 0.046875,0 0.1757813,0 0.1757813,-0.199218755 0,-0.10546875 -0.09375,-0.10546875 -0.1992188,-0.10546875 -0.5742187,-0.0234375 -0.65625,-0.24609375 -0.65625,-0.4453125 0,-0.0703125 0.011719,-0.1171875 0.035156,-0.22265625 l 1.324219,-5.26171847 c 0.035156,0.058594 0.035156,0.082031 0.082031,0.1757813 l 2.484375,5.87109372 c 0.070312,0.1640625 0.09375,0.187500005 0.1875,0.187500005 0.1054687,0 0.1054687,-0.035156255 0.1640625,-0.210937505 z m 0,0"
       style="fill:#000000;fill-opacity:1;fill-rule:nonzero;stroke:none"
       aria-label="N"
       transform="matrix(1.3333333,0,0,1.3333333,72.664,66.086667)" />
    <path
       id="path14"
       d="m -108.85133,19.84265 h 31.74839 V 7.93695 h -31.74839 z"
       style="fill:none;stroke:#000000;stroke-width:0.797;stroke-linecap:butt;stroke-linejoin:miter;stroke-miterlimit:10;stroke-dasharray:none;stroke-opacity:1"
       transform="matrix(1.3333333,0,0,-1.3333333,168.67733,70.836)" />
    <path
       id="path15"
       d="m -116.90213,13.88982 c 0,0.87655 -0.71059,1.58714 -1.58714,1.58714 -0.87656,0 -1.58715,-0.71059 -1.58715,-1.58714 0,-0.87658 0.71059,-1.58716 1.58715,-1.58716 0.87655,0 1.58714,0.71058 1.58714,1.58716 z"
       style="fill:#ffffff;fill-opacity:1;fill-rule:nonzero;stroke:#000000;stroke-width:0.3985;stroke-linecap:butt;stroke-linejoin:miter;stroke-miterlimit:10;stroke-dasharray:none;stroke-opacity:1"
       transform="matrix(1.3333333,0,0,-1.3333333,168.67733,70.836)" />
    <g
       id="g15"
       aria-label="R&#10;1"
       transform="matrix(1.3333333,0,0,1.3333333,36.685333,39.292)">
      <path
         id="path16"
         d="m 3.7369766,-6.1164609 c 0.058594,-0.234375 0.082031,-0.3398438 0.28125,-0.3632813 0.082031,-0.011719 0.3984375,-0.011719 0.5976562,-0.011719 0.7148438,0 1.8164063,0 1.8164063,0.984375 0,0.3398437 -0.1523438,1.0195312 -0.5507813,1.4179687 -0.2578125,0.2578125 -0.7851562,0.5742188 -1.6757812,0.5742188 H 3.0924453 Z m 1.4296875,2.7304687 c 1.0078125,-0.2226562 2.1914062,-0.9140625 2.1914062,-1.921875 0,-0.8554687 -0.890625,-1.5 -2.203125,-1.5 H 2.3190078 c -0.1992187,0 -0.2929687,0 -0.2929687,0.1992188 0,0.1171875 0.09375,0.1171875 0.28125,0.1171875 0.023437,0 0.2109375,0 0.3867187,0.011719 0.1757813,0.023437 0.2578125,0.035156 0.2578125,0.1640625 0,0.035156 0,0.070312 -0.035156,0.1875 l -1.3359375,5.35546876 c -0.09375,0.38671875 -0.1171875,0.46875 -0.90234379,0.46875 -0.17578125,0 -0.26953125,0 -0.26953125,0.19921875 0,0.1054687525 0.1171875,0.1054687525 0.140625,0.1054687525 0.28125,0 0.97265624,-0.0351562525 1.25390624,-0.0351562525 0.28125,0 0.984375,0.0351562525 1.265625,0.0351562525 0.082031,0 0.1992188,0 0.1992188,-0.1992187525 0,-0.10546875 -0.09375,-0.10546875 -0.28125,-0.10546875 -0.3632813,0 -0.6445313,0 -0.6445313,-0.1875 0,-0.0585937 0.011719,-0.10546875 0.023437,-0.1640625 l 0.65625,-2.63671876 H 4.217445 c 0.9023438,0 1.078125,0.5507813 1.078125,0.9023438 0,0.1523437 -0.082031,0.4570312 -0.140625,0.6914062 -0.070312,0.2695313 -0.1523437,0.6445313 -0.1523437,0.84375001 0,1.078125 1.1953125,1.078125 1.3242187,1.078125 0.84375,0 1.1953125,-1.0078125 1.1953125,-1.1484375 0,-0.11718751 -0.1171875,-0.11718751 -0.1171875,-0.11718751 -0.09375,0 -0.1171875,0.0703125 -0.1289062,0.14062501 -0.2578125,0.73828125 -0.6796875,0.9023437525 -0.9140625,0.9023437525 -0.328125,0 -0.3984375,-0.2226562525 -0.3984375,-0.6093750025 0,-0.3046875 0.058594,-0.82031246 0.1054687,-1.13671876 0.011719,-0.140625 0.035156,-0.328125 0.035156,-0.46875 0,-0.7617187 -0.6679688,-1.078125 -0.9374994,-1.1718753 z m 0,0"
         style="fill:#000000;fill-opacity:1;fill-rule:nonzero;stroke:none" />
      <path
         id="path17"
         d="m 9.8981094,-2.9348203 c 0,-0.1875 -0.011719,-0.1992188 -0.2109375,-0.1992188 -0.4453125,0.4335938 -1.078125,0.4453125 -1.359375,0.4453125 v 0.2460938 c 0.1640625,0 0.6210937,0 1.0078125,-0.1875 v 3.55078124 c 0,0.23437496 0,0.32812496 -0.6914063,0.32812496 H 8.3746719 v 0.2460938 c 0.1289062,-0.011719 0.984375,-0.023437 1.2421875,-0.023437 0.2109375,0 1.0898436,0.011719 1.2421876,0.023437 V 1.2487734 h -0.257813 c -0.7031246,0 -0.7031246,-0.09375 -0.7031246,-0.32812496 z m 0,0"
         style="fill:#000000;fill-opacity:1;fill-rule:nonzero;stroke:none" />
    </g>
    <g
       id="g17"
       aria-label="v&#10;I"
       transform="matrix(1.3333333,0,0,1.3333333,4.4253333,45.630667)">
      <path
         id="path18"
         d="m 4.6643984,-3.7044453 c 0,-0.5390625 -0.2578125,-0.703125 -0.4453125,-0.703125 -0.2460937,0 -0.4804687,0.2578125 -0.4804687,0.4804687 0,0.1289063 0.046875,0.1875 0.1523437,0.3046875 0.2109375,0.1992188 0.3398438,0.4570313 0.3398438,0.8085938 0,0.421875 -0.609375,2.70703124 -1.7695313,2.70703124 -0.5039062,0 -0.7382812,-0.3515625 -0.7382812,-0.8671875 0,-0.56250004 0.2695312,-1.28906254 0.5742187,-2.12109374 0.070312,-0.1640625 0.1289063,-0.3046875 0.1289063,-0.4921875 0,-0.4453125 -0.328125,-0.8203125 -0.8203125,-0.8203125 -0.93750001,0 -1.31250001,1.453125 -1.31250001,1.5351562 0,0.1054688 0.09375,0.1054688 0.1171875,0.1054688 0.09375,0 0.10546875,-0.023437 0.15234375,-0.1875 0.29296875,-0.9960938 0.72656246,-1.2304688 1.00781246,-1.2304688 0.082031,0 0.2578125,0 0.2578125,0.3164063 0,0.2460937 -0.1054687,0.515625 -0.1757812,0.703125 -0.4335938,1.1484375 -0.5625,1.6054687 -0.5625,2.0390625 0,1.07812499 0.8671875,1.23046874 1.3359375,1.23046874 1.6640625,0 2.2382812,-3.29296874 2.2382812,-3.80859374 z m 0,0"
         style="fill:#000000;fill-opacity:1;fill-rule:nonzero;stroke:none" />
      <path
         id="path19"
         d="m 7.7112734,-2.7142109 c 0.058594,-0.2460938 0.070312,-0.3046875 0.5976563,-0.3046875 0.1757812,0 0.2578125,0 0.2578125,-0.140625 0,-0.070312 -0.046875,-0.1054688 -0.1171875,-0.1054688 -0.140625,0 -0.3164063,0.011719 -0.4570313,0.011719 -0.1640625,0 -0.328125,0.011719 -0.4804687,0.011719 0,0 -0.4804688,-0.011719 -0.4804688,-0.011719 -0.1523437,0 -0.328125,-0.011719 -0.4804687,-0.011719 -0.046875,0 -0.1523438,0 -0.1523438,0.1523438 0,0.09375 0.082031,0.09375 0.234375,0.09375 0.011719,0 0.1523438,0 0.2695313,0.011719 0.140625,0.011719 0.1875,0.023437 0.1875,0.1054688 0,0.035156 -0.011719,0.082031 -0.035156,0.140625 L 6.1292422,0.94203906 C 6.0823672,1.1764141 6.0589297,1.2467266 5.5315859,1.2467266 c -0.1875,0 -0.2578125,0 -0.2578125,0.1523437 0,0 0,0.09375 0.1171875,0.09375 0.1992188,0 0.7265625,-0.023437 0.9375,-0.023437 h 0.4804688 c 0.1523437,0 0.328125,0.023437 0.4804687,0.023437 0.046875,0 0.1523438,0 0.1523438,-0.1523437 0,-0.09375 -0.09375,-0.09375 -0.234375,-0.09375 -0.011719,0 -0.1523438,0 -0.2929688,-0.023437 -0.1640625,-0.011719 -0.1640625,-0.035156 -0.1640625,-0.1054688 0,0 0,-0.046875 0.035156,-0.15234374 z m 0,0"
         style="fill:#000000;fill-opacity:1;fill-rule:nonzero;stroke:none" />
    </g>
    <path
       id="path20"
       d="m -67.46501,-13.88982 v -9.63792 m 0,-31.7484 v -9.63794"
       style="fill:none;stroke:#000000;stroke-width:0.3985;stroke-linecap:butt;stroke-linejoin:miter;stroke-miterlimit:10;stroke-dasharray:none;stroke-opacity:1"
       transform="matrix(1.3333333,0,0,-1.3333333,168.67733,70.836)" />
    <path
       id="path21"
       d="m 3.0247344,-3.1512969 h 1.6875 c 1.4179687,0 2.8007812,-1.03125 2.8007812,-2.1445312 0,-0.7734375 -0.65625,-1.5117188 -1.96875,-1.5117188 H 2.3216094 c -0.1875,0 -0.2929688,0 -0.2929688,0.1992188 0,0.1171875 0.082031,0.1171875 0.28125,0.1171875 0.1289063,0 0.3164063,0.011719 0.4335938,0.011719 0.1523437,0.023437 0.2109375,0.058594 0.2109375,0.1640625 0,0.035156 0,0.070312 -0.035156,0.1875 l -1.3359375,5.35546878 c -0.09375,0.38671875 -0.1171875,0.46875 -0.90234373,0.46875 -0.17578125,0 -0.28125,0 -0.28125,0.1875 0,0.1171875 0.1171875,0.1171875 0.15234375,0.1171875 0.28125,0 0.98437498,-0.03515625 1.26562498,-0.03515625 0.2109375,0 0.421875,0.01171875 0.6328125,0.01171875 0.2226563,0 0.4453125,0.0234375 0.6445313,0.0234375 0.070312,0 0.1992187,0 0.1992187,-0.19921875 0,-0.10546875 -0.082031,-0.10546875 -0.2695312,-0.10546875 -0.375,0 -0.65625,0 -0.65625,-0.1875 0,-0.0585938 0.023437,-0.10546875 0.035156,-0.1640625 z m 0.7148437,-2.9648437 c 0.082031,-0.3515625 0.1054688,-0.375 0.5390625,-0.375 h 0.9492188 c 0.8320312,0 1.359375,0.2695312 1.359375,0.9492187 0,0.3984375 -0.1992188,1.2539063 -0.5859375,1.6054688 -0.5039063,0.4453125 -1.1015625,0.5273437 -1.5351563,0.5273437 h -1.40625 z m 0,0"
       style="fill:#000000;fill-opacity:1;fill-rule:nonzero;stroke:none"
       aria-label="P"
       transform="matrix(1.3333333,0,0,1.3333333,73.537333,84.662667)" />
    <path
       id="path22"
       d="m -73.41786,-55.27614 v 31.7484 h 11.90571 v -31.7484 z"
       style="fill:none;stroke:#000000;stroke-width:0.797;stroke-linecap:butt;stroke-linejoin:miter;stroke-miterlimit:10;stroke-dasharray:none;stroke-opacity:1"
       transform="matrix(1.3333333,0,0,-1.3333333,168.67733,70.836)" />
    <g
       id="g22"
       aria-label="R&#10;2"
       transform="matrix(1.3333333,0,0,1.3333333,89.601333,126.23467)">
      <path
         id="path23"
         d="m 3.7384531,-6.1174063 c 0.058594,-0.234375 0.082031,-0.3398437 0.28125,-0.3632812 0.082031,-0.011719 0.3984375,-0.011719 0.5976563,-0.011719 0.7148437,0 1.8164062,0 1.8164062,0.984375 0,0.3398438 -0.1523437,1.0195313 -0.5507812,1.4179688 C 5.6251719,-3.83225 5.0978281,-3.5158438 4.2072031,-3.5158438 H 3.0939219 Z m 1.4296875,2.7304688 C 6.1759531,-3.6095938 7.3595469,-4.301 7.3595469,-5.3088125 c 0,-0.8554688 -0.890625,-1.5 -2.203125,-1.5 H 2.3204844 c -0.1992188,0 -0.2929688,0 -0.2929688,0.1992187 0,0.1171875 0.09375,0.1171875 0.28125,0.1171875 0.023437,0 0.2109375,0 0.3867188,0.011719 0.1757812,0.023437 0.2578125,0.035156 0.2578125,0.1640625 0,0.035156 0,0.070312 -0.035156,0.1875 l -1.3359375,5.35546875 c -0.09375,0.38671875 -0.1171875,0.46875 -0.90234373,0.46875 -0.17578125,0 -0.26953125,0 -0.26953125,0.19921875 0,0.10546875 0.1171875,0.10546875 0.140625,0.10546875 0.28125,0 0.97265628,-0.03515625 1.25390628,-0.03515625 0.28125,0 0.984375,0.03515625 1.265625,0.03515625 0.082031,0 0.1992187,0 0.1992187,-0.19921875 0,-0.10546875 -0.09375,-0.10546875 -0.28125,-0.10546875 -0.3632812,0 -0.6445312,0 -0.6445312,-0.1875 0,-0.0585938 0.011719,-0.10546875 0.023437,-0.1640625 l 0.65625,-2.63671875 h 1.1953125 c 0.9023437,0 1.078125,0.5507812 1.078125,0.9023437 0,0.1523438 -0.082031,0.4570313 -0.140625,0.6914063 -0.070312,0.2695312 -0.1523438,0.6445312 -0.1523438,0.84375 0,1.078125 1.1953125,1.078125 1.3242188,1.078125 0.84375,0 1.1953125,-1.0078125 1.1953125,-1.1484375 0,-0.1171875 -0.1171875,-0.1171875 -0.1171875,-0.1171875 -0.09375,0 -0.1171875,0.0703125 -0.1289063,0.140625 -0.2578125,0.73828125 -0.6796875,0.90234375 -0.9140625,0.90234375 -0.328125,0 -0.3984375,-0.22265625 -0.3984375,-0.609375 0,-0.3046875 0.058594,-0.82031255 0.1054688,-1.13671875 0.011719,-0.140625 0.035156,-0.328125 0.035156,-0.46875 0,-0.7617188 -0.6679687,-1.078125 -0.9374996,-1.1718752 z m 0,0"
         style="fill:#000000;fill-opacity:1;fill-rule:nonzero;stroke:none" />
      <path
         id="path24"
         d="m 11.08025,0.22829687 h -0.234375 c -0.02344,0.15234375 -0.08203,0.5625 -0.175781,0.6328125 -0.05859,0.0351563 -0.597657,0.0351563 -0.6914065,0.0351563 H 8.689625 c 0.7382812,-0.64453125 0.984375,-0.84375 1.394531,-1.171875 0.515625,-0.41015625 0.996094,-0.84374997 0.996094,-1.50000007 0,-0.84375 -0.738281,-1.359375 -1.6289063,-1.359375 -0.8671875,0 -1.453125,0.609375 -1.453125,1.2421876 0,0.3632813 0.3046875,0.3984375 0.375,0.3984375 0.1640625,0 0.375,-0.1171875 0.375,-0.375 0,-0.1289062 -0.058594,-0.3632812 -0.421875,-0.3632812 0.2226563,-0.5039064 0.6914063,-0.65625 1.0195313,-0.65625 0.703125,0 1.066406,0.5507811 1.066406,1.1132812 0,0.609375 -0.4335935,1.08984372 -0.6562498,1.33593747 l -1.6875,1.66406253 c -0.070313,0.058594 -0.070313,0.070312 -0.070313,0.2695313 h 2.8828128 z m 0,0"
         style="fill:#000000;fill-opacity:1;fill-rule:nonzero;stroke:none" />
    </g>
    <path
       id="path25"
       d="m -67.46501,-64.91408 v -9.92134"
       style="fill:none;stroke:#000000;stroke-width:0.3985;stroke-linecap:butt;stroke-linejoin:miter;stroke-miterlimit:10;stroke-dasharray:none;stroke-opacity:1"
       transform="matrix(1.3333333,0,0,-1.3333333,168.67733,70.836)" />
    <path
       id="path26"
       d="m -73.41786,-74.83542 h 11.90571"
       style="fill:none;stroke:#000000;stroke-width:0.797;stroke-linecap:round;stroke-linejoin:miter;stroke-miterlimit:10;stroke-dasharray:none;stroke-opacity:1"
       transform="matrix(1.3333333,0,0,-1.3333333,168.67733,70.836)" />
  </g>
</svg>
