<svg viewBox="0 0 167.098066142 113.763344094" width="167.098066142pt" height="113.763344094pt" xmlns="http://www.w3.org/2000/svg" xmlns:xlink="http://www.w3.org/1999/xlink" xmlns:h5="http://www.w3.org/1999/xhtml"><path fill="#ffffff" fill-rule="nonzero" d="M 0 0v 113.763344094h 167.098066142v -113.763344094Z "/><g><path fill="none" transform="translate(0 34.720298031)" d="M 0 0m 0 0h 11.0099v 10.307h -11.0099v -10.307Z "/><g transform="translate(-6.3e-8 34.720297969)"><g transform="matrix(1 0 0 -1 0 7.513)"><use xlink:href="#gFCA8B7969079D7A79412C4845E7994CD" x="0" y="0" fill="#000000" fill-rule="nonzero"/></g><g transform="matrix(1 0 0 -1 5.72 10.23)"><use xlink:href="#g27BE0F1E2FF1C0C15FBC6B0BA9307B9" x="0" y="0" fill="#000000" fill-rule="nonzero"/></g></g><path fill="none" stroke="#000000" stroke-width="1" stroke-linecap="butt" stroke-linejoin="miter" stroke-miterlimit="4" transform="translate(49.725422441 33.070648425)" d="M 0 0m 0 0v 13.606299213h 13.606299213v -13.606299213h -13.606299213Z "/><path fill="none" transform="translate(51.952572047 36.117298031)" d="M 0 0m 0 0h 9.152v 7.513h -9.152v -7.513Z "/><g transform="translate(51.952571937 36.117297953)"><g transform="matrix(1 0 0 -1 0 7.513)"><use xlink:href="#gA30C1F05476B808055AD3E588DE806F" x="0" y="0" fill="#000000" fill-rule="nonzero"/></g></g><path fill="none" stroke="#000000" stroke-width="1" stroke-linecap="butt" stroke-linejoin="miter" stroke-miterlimit="4" transform="translate(83.741170472 33.070648425)" d="M 0 0m 0 0v 13.606299213h 13.606299213v -13.606299213h -13.606299213Z "/><path fill="none" transform="translate(85.968320079 36.117298031)" d="M 0 0m 0 0h 9.152v 7.513h -9.152v -7.513Z "/><g transform="translate(85.968319969 36.117297953)"><g transform="matrix(1 0 0 -1 0 7.513)"><use xlink:href="#gA30C1F05476B808055AD3E588DE806F" x="0" y="0" fill="#000000" fill-rule="nonzero"/></g></g><path fill="none" stroke="#000000" stroke-width="1" stroke-linecap="butt" stroke-linejoin="miter" stroke-miterlimit="4" transform="translate(68.434083858 0.755687795)" d="M 0 0m 5.102362205 0c -2.815401827 0 -5.102362205 2.286960378 -5.102362205 5.102362205c 0 2.815401827 2.286960378 5.102362205 5.102362205 5.102362205c 2.815401827 0 5.102362205 -2.286960378 5.102362205 -5.102362205c 0 -2.815401827 -2.286960378 -5.102362205 -5.102362205 -5.102362205Z "/><path fill="none" transform="translate(68.090446063 0.49605)" d="M 0 0m 0 0h 10.892v 10.724h -10.892v -10.724Z "/><g transform="translate(68.090446 0.496049984)"><g transform="matrix(1 0 0 -1 0 9.062)"><use xlink:href="#g7BAE0EF57901632238DEB322C4E420FD" x="0" y="0" fill="#000000" fill-rule="nonzero"/></g></g><path fill="none" stroke="#000000" stroke-width="1" stroke-linecap="butt" stroke-linejoin="miter" stroke-miterlimit="4" transform="translate(102.44983189 0.755687795)" d="M 0 0m 5.102362205 0c -2.815401827 0 -5.102362205 2.286960378 -5.102362205 5.102362205c 0 2.815401827 2.286960378 5.102362205 5.102362205 5.102362205c 2.815401827 0 5.102362205 -2.286960378 5.102362205 -5.102362205c 0 -2.815401827 -2.286960378 -5.102362205 -5.102362205 -5.102362205Z "/><path fill="none" transform="translate(102.106194094 0.49605)" d="M 0 0m 0 0h 10.892v 10.724h -10.892v -10.724Z "/><g transform="translate(102.106194031 0.496049984)"><g transform="matrix(1 0 0 -1 0 9.062)"><use xlink:href="#g7BAE0EF57901632238DEB322C4E420FD" x="0" y="0" fill="#000000" fill-rule="nonzero"/></g></g><path fill="none" stroke="#000000" stroke-width="1" stroke-linecap="butt" stroke-linejoin="miter" stroke-miterlimit="4" transform="translate(102.44983189 68.787183858)" d="M 0 0m 5.102362205 0c -2.815401827 0 -5.102362205 2.286960378 -5.102362205 5.102362205c 0 2.815401827 2.286960378 5.102362205 5.102362205 5.102362205c 2.815401827 0 5.102362205 -2.286960378 5.102362205 -5.102362205c 0 -2.815401827 -2.286960378 -5.102362205 -5.102362205 -5.102362205Z "/><path fill="none" transform="translate(102.106194094 68.527546063)" d="M 0 0h 10.892v 10.724h -10.892v -10.724Z "/><g transform="translate(102.106194031 68.527546047)"><g transform="matrix(1 0 0 -1 0 9.062)"><use xlink:href="#g7BAE0EF57901632238DEB322C4E420FD" x="0" y="0" fill="#000000" fill-rule="nonzero"/></g></g><path fill="none" stroke="#000000" stroke-width="1" stroke-linecap="butt" stroke-linejoin="miter" stroke-miterlimit="4" transform="translate(119.457705906 102.80293189)" d="M 0 0m 5.102362205 0c -2.815401827 0 -5.102362205 2.286960378 -5.102362205 5.102362205c 0 2.815401827 2.286960378 5.102362205 5.102362205 5.102362205c 2.815401827 0 5.102362205 -2.286960378 5.102362205 -5.102362205c 0 -2.815401827 -2.286960378 -5.102362205 -5.102362205 -5.102362205Z "/><path fill="none" transform="translate(119.11406811 102.543294094)" d="M 0 0m 0 0h 10.892v 10.724h -10.892v -10.724Z "/><g transform="translate(119.114068047 102.543294079)"><g transform="matrix(1 0 0 -1 0 9.062)"><use xlink:href="#g7BAE0EF57901632238DEB322C4E420FD" x="0" y="0" fill="#000000" fill-rule="nonzero"/></g></g><path fill="none" transform="translate(150.053566142)" d="M 0 0m 0 0h 17.0445v 11.7161h -17.0445v -11.7161Z "/><g transform="translate(150.053566047 -1.1e-7)"><g transform="matrix(1 0 0 -1 0 7.513)"><use xlink:href="#g40FE25E54F5492ED24B9F95C84D97EA9" x="0" y="0" fill="#000000" fill-rule="nonzero"/></g><g transform="matrix(1 0 0 -1 4.763 10.23)"><use xlink:href="#gBFCC2410A697C41E2DD3187C83DA8F3" x="0" y="0" fill="#000000" fill-rule="nonzero"/></g><g transform="matrix(1 0 0 -1 9.1443 10.23)"><use xlink:href="#g5543B9A24A71B8940C9FCBE5E83534C1" x="0" y="0" fill="#000000" fill-rule="nonzero"/></g><g transform="matrix(1 0 0 -1 11.7546 10.23)"><use xlink:href="#g27BE0F1E2FF1C0C15FBC6B0BA9307B9" x="0" y="0" fill="#000000" fill-rule="nonzero"/></g></g><path fill="none" transform="translate(150.053566142 68.031496063)" d="M 0 0m 0 0h 17.0445v 11.7161h -17.0445v -11.7161Z "/><g transform="translate(150.053566047 68.031495953)"><g transform="matrix(1 0 0 -1 0 7.513)"><use xlink:href="#g40FE25E54F5492ED24B9F95C84D97EA9" x="0" y="0" fill="#000000" fill-rule="nonzero"/></g><g transform="matrix(1 0 0 -1 4.763 10.23)"><use xlink:href="#g25B224D96CA3F5CCC7E774117FEA026D" x="0" y="0" fill="#000000" fill-rule="nonzero"/></g><g transform="matrix(1 0 0 -1 9.1443 10.23)"><use xlink:href="#g5543B9A24A71B8940C9FCBE5E83534C1" x="0" y="0" fill="#000000" fill-rule="nonzero"/></g><g transform="matrix(1 0 0 -1 11.7546 10.23)"><use xlink:href="#g27BE0F1E2FF1C0C15FBC6B0BA9307B9" x="0" y="0" fill="#000000" fill-rule="nonzero"/></g></g><path fill="none" transform="translate(150.053566142 102.047244094)" d="M 0 0m 0 0h 17.0445v 11.7161h -17.0445v -11.7161Z "/><g transform="translate(150.053566047 102.047243984)"><g transform="matrix(1 0 0 -1 0 7.513)"><use xlink:href="#g40FE25E54F5492ED24B9F95C84D97EA9" x="0" y="0" fill="#000000" fill-rule="nonzero"/></g><g transform="matrix(1 0 0 -1 4.763 10.23)"><use xlink:href="#g777C235EA19CAB599B58B593B0044621" x="0" y="0" fill="#000000" fill-rule="nonzero"/></g><g transform="matrix(1 0 0 -1 9.1443 10.23)"><use xlink:href="#g5543B9A24A71B8940C9FCBE5E83534C1" x="0" y="0" fill="#000000" fill-rule="nonzero"/></g><g transform="matrix(1 0 0 -1 11.7546 10.23)"><use xlink:href="#g27BE0F1E2FF1C0C15FBC6B0BA9307B9" x="0" y="0" fill="#000000" fill-rule="nonzero"/></g></g><path fill="none" stroke="#000000" stroke-width="1" stroke-linecap="butt" stroke-linejoin="miter" stroke-miterlimit="4" transform="translate(11.0099 39.873798031)" d="M 0 0m 0 0h 38.715522441"/><path fill="none" stroke="#000000" stroke-width="1" stroke-linecap="butt" stroke-linejoin="miter" stroke-miterlimit="4" transform="translate(22.512824016 39.873798031)" d="M 0 0m 0 0v 68.031496063h 89.851589927"/><path fill="#000000" fill-rule="nonzero" stroke="#000000" stroke-width="1" stroke-linecap="butt" stroke-linejoin="miter" stroke-miterlimit="4" stroke-dashoffset="0" stroke-dasharray="" transform="translate(112.364413942 105.779309843)" d="M 0 0m 5.669291339 2.125984252l -5.669291339 2.125984252v -4.251968504l 5.669291339 2.125984252Z "/><path fill="none" stroke="#000000" stroke-width="1" stroke-linecap="butt" stroke-linejoin="miter" stroke-miterlimit="4" transform="translate(22.512824016 5.85805)" d="M 0 0m 0 34.015748031v -34.015748031l 38.82796788 0"/><path fill="#000000" fill-rule="nonzero" stroke="#000000" stroke-width="1" stroke-linecap="butt" stroke-linejoin="miter" stroke-miterlimit="4" stroke-dashoffset="0" stroke-dasharray="" transform="translate(61.340791895 3.732065748)" d="M 0 0m 5.669291339 2.125984252l -5.669291339 2.125984252v -4.251968504l 5.669291339 2.125984252Z "/><path fill="none" stroke="#000000" stroke-width="1" stroke-linecap="butt" stroke-linejoin="miter" stroke-miterlimit="4" transform="translate(63.331721654 39.873798031)" d="M 0 0m 0 0h 13.316156856"/><path fill="#000000" fill-rule="nonzero" stroke="#000000" stroke-width="1" stroke-linecap="butt" stroke-linejoin="miter" stroke-miterlimit="4" stroke-dashoffset="0" stroke-dasharray="" transform="translate(76.647878509 37.74781378)" d="M 0 0m 5.669291339 2.125984252l -5.669291339 2.125984252v -4.251968504l 5.669291339 2.125984252Z "/><path fill="none" stroke="#000000" stroke-width="1" stroke-linecap="butt" stroke-linejoin="miter" stroke-miterlimit="4" transform="translate(97.347469685 39.873798031)" d="M 0 0m 0 0h 10.204724409l 17.007874016 10.204724409v 45.631117486"/><path fill="#000000" fill-rule="nonzero" stroke="#000000" stroke-width="1" stroke-linecap="butt" stroke-linejoin="miter" stroke-miterlimit="4" stroke-dashoffset="0" stroke-dasharray="" transform="translate(122.434083858 95.709639926)" d="M 0 0m 2.125984252 5.669291339l -2.125984252 -5.669291339h 4.251968504l -2.125984252 5.669291339Z "/><path fill="none" stroke="#000000" stroke-width="1" stroke-linecap="butt" stroke-linejoin="miter" stroke-miterlimit="4" transform="translate(78.638808268 5.85805)" d="M 0 0l 16.717731659 0"/><path fill="#000000" fill-rule="nonzero" stroke="#000000" stroke-width="1" stroke-linecap="butt" stroke-linejoin="miter" stroke-miterlimit="4" stroke-dashoffset="0" stroke-dasharray="" transform="translate(95.356539926 3.732065748)" d="M 0 0m 5.669291339 2.125984252l -5.669291339 2.125984252v -4.251968504l 5.669291339 2.125984252Z "/><path fill="none" stroke="#000000" stroke-width="1" stroke-linecap="butt" stroke-linejoin="miter" stroke-miterlimit="4" transform="translate(112.654556299 5.85805)" d="M 0 0m 0 0l 30.30571788 0"/><path fill="#000000" fill-rule="nonzero" stroke="#000000" stroke-width="1" stroke-linecap="butt" stroke-linejoin="miter" stroke-miterlimit="4" stroke-dashoffset="0" stroke-dasharray="" transform="translate(142.960274177 3.732065748)" d="M 0 0m 5.669291339 2.125984252l -5.669291339 2.125984252v -4.251968504l 5.669291339 2.125984252Z "/><path fill="none" stroke="#000000" stroke-width="1" stroke-linecap="butt" stroke-linejoin="miter" stroke-miterlimit="4" transform="translate(112.654556299 73.889546063)" d="M 0 0m 0 0h 30.30571788"/><path fill="#000000" fill-rule="nonzero" stroke="#000000" stroke-width="1" stroke-linecap="butt" stroke-linejoin="miter" stroke-miterlimit="4" stroke-dashoffset="0" stroke-dasharray="" transform="translate(142.960274177 71.763561811)" d="M 0 0m 5.669291339 2.125984252l -5.669291339 2.125984252v -4.251968504l 5.669291339 2.125984252Z "/><path fill="none" stroke="#000000" stroke-width="1" stroke-linecap="butt" stroke-linejoin="miter" stroke-miterlimit="4" transform="translate(129.662430315 107.905294094)" d="M 0 0l 13.297843864 0"/><path fill="#000000" fill-rule="nonzero" stroke="#000000" stroke-width="1" stroke-linecap="butt" stroke-linejoin="miter" stroke-miterlimit="4" stroke-dashoffset="0" stroke-dasharray="" transform="translate(142.960274177 105.779309843)" d="M 0 0m 5.669291339 2.125984252l -5.669291339 2.125984252v -4.251968504l 5.669291339 2.125984252Z "/><path fill="none" stroke="#000000" stroke-width="1" stroke-linecap="butt" stroke-linejoin="miter" stroke-miterlimit="4" transform="translate(107.552194094 18.053704168)" d="M 0 0m 0 21.820093864l 0 -21.820093864"/><path fill="#000000" fill-rule="nonzero" stroke="#000000" stroke-width="1" stroke-linecap="butt" stroke-linejoin="miter" stroke-miterlimit="4" stroke-dashoffset="0" stroke-dasharray="" transform="translate(105.426209843 12.38441283)" d="M 0 0m 2.125984252 0l 2.125984252 5.669291339h -4.251968504l 2.125984252 -5.669291339Z "/><path fill="none" stroke="#000000" stroke-width="1" stroke-linecap="butt" stroke-linejoin="miter" stroke-miterlimit="4" transform="translate(107.552194094 39.873798031)" d="M 0 0m 0 0v 21.820093864"/><path fill="#000000" fill-rule="nonzero" stroke="#000000" stroke-width="1" stroke-linecap="butt" stroke-linejoin="miter" stroke-miterlimit="4" stroke-dashoffset="0" stroke-dasharray="" transform="translate(105.426209843 61.693891895)" d="M 0 0m 2.125984252 5.669291339l -2.125984252 -5.669291339h 4.251968504l -2.125984252 5.669291339Z "/><path fill="none" stroke="#000000" stroke-width="1" stroke-linecap="butt" stroke-linejoin="miter" stroke-miterlimit="4" transform="translate(73.536446063 18.053704168)" d="M 0 0m 28.913385827 55.835841895h -28.913385827v -34.015748031v -21.820093864"/><path fill="#000000" fill-rule="nonzero" stroke="#000000" stroke-width="1" stroke-linecap="butt" stroke-linejoin="miter" stroke-miterlimit="4" stroke-dashoffset="0" stroke-dasharray="" transform="translate(71.410461811 12.38441283)" d="M 0 0m 2.125984252 0l 2.125984252 5.669291339h -4.251968504l 2.125984252 -5.669291339Z "/><path fill="#000000" fill-rule="nonzero" stroke="#000000" stroke-width="1" stroke-linecap="butt" stroke-linejoin="miter" stroke-miterlimit="4" transform="translate(21.152194094 38.51316811)" d="M 0 0m 1.360629921 0c -0.75077382 0 -1.360629921 0.609856101 -1.360629921 1.360629921c 0 0.75077382 0.609856101 1.360629921 1.360629921 1.360629921c 0.75077382 0 1.360629921 -0.609856101 1.360629921 -1.360629921c 0 -0.75077382 -0.609856101 -1.360629921 -1.360629921 -1.360629921Z "/><path fill="#000000" fill-rule="nonzero" stroke="#000000" stroke-width="1" stroke-linecap="butt" stroke-linejoin="miter" stroke-miterlimit="4" transform="translate(72.175816142 38.51316811)" d="M 0 0m 1.360629921 0c -0.75077382 0 -1.360629921 0.609856101 -1.360629921 1.360629921c 0 0.75077382 0.609856101 1.360629921 1.360629921 1.360629921c 0.75077382 0 1.360629921 -0.609856101 1.360629921 -1.360629921c 0 -0.75077382 -0.609856101 -1.360629921 -1.360629921 -1.360629921Z "/><path fill="#000000" fill-rule="nonzero" stroke="#000000" stroke-width="1" stroke-linecap="butt" stroke-linejoin="miter" stroke-miterlimit="4" transform="translate(106.191564173 38.51316811)" d="M 0 0m 1.360629921 0c -0.75077382 0 -1.360629921 0.609856101 -1.360629921 1.360629921c 0 0.75077382 0.609856101 1.360629921 1.360629921 1.360629921c 0.75077382 0 1.360629921 -0.609856101 1.360629921 -1.360629921c 0 -0.75077382 -0.609856101 -1.360629921 -1.360629921 -1.360629921Z "/></g><defs><symbol id="gFCA8B7969079D7A79412C4845E7994CD" overflow="visible"><path d="M 0 0m 4.719 6.952l -0.649 -2.673c -0.231 0.407 -0.55 0.616 -0.979 0.616c -0.715 0 -1.342 -0.363 -1.892 -1.1c -0.506 -0.682 -0.759 -1.397 -0.759 -2.134c 0 -0.968 0.561 -1.782 1.485 -1.782c 0.473 0 0.935 0.253 1.375 0.77c 0.121 -0.418 0.495 -0.77 1.012 -0.77c 0.759 0 1.001 0.902 1.166 1.716c 0 0.099 -0.055 0.154 -0.165 0.154c -0.099 0 -0.165 -0.077 -0.198 -0.231c -0.22 -0.869 -0.484 -1.309 -0.781 -1.309c -0.187 0 -0.286 0.154 -0.286 0.451c 0 0.165 0.022 0.341 0.066 0.517l 1.562 6.292v 0.044c -0.033 0.077 -0.099 0.121 -0.187 0.121c -0.253 0 -0.715 -0.044 -1.375 -0.121c -0.121 -0.011 -0.187 -0.099 -0.187 -0.253c 0 -0.11 0.099 -0.165 0.297 -0.165c 0.209 0 0.495 0.011 0.495 -0.143Z m -0.968 -2.816c 0.11 -0.231 0.165 -0.385 0.165 -0.484c -0.011 -0.044 -0.022 -0.099 -0.033 -0.176l -0.539 -2.134c -0.033 -0.121 -0.11 -0.253 -0.209 -0.385c -0.407 -0.495 -0.803 -0.748 -1.188 -0.748c -0.429 0 -0.649 0.33 -0.649 0.979c 0 0.264 0.066 0.66 0.198 1.188c 0.231 0.935 0.561 1.573 0.968 1.914c 0.22 0.187 0.429 0.275 0.638 0.275c 0.297 0 0.517 -0.143 0.649 -0.429Z "/></symbol><symbol id="g27BE0F1E2FF1C0C15FBC6B0BA9307B9" overflow="visible"><path d="M 0 0m 4.3659 2.8567c 0 0.3388 -0.2772 0.5621 -0.616 0.5621c -0.3465 0 -0.7546 -0.2233 -1.232 -0.6776c -0.3465 -0.3311 -0.6237 -0.5467 -0.8162 -0.6391l 0.7392 2.9722c 0.0077 0.0154 0.0154 0.0616 0.0308 0.1309c 0 0.0924 -0.0539 0.1386 -0.154 0.1386l -0.9702 -0.077c -0.1309 -0.0077 -0.1925 -0.077 -0.1925 -0.2079c 0 -0.0847 0.077 -0.1309 0.2233 -0.1309c 0.1309 0 0.3388 0 0.3388 -0.0847c 0 -0.0308 -0.0077 -0.0847 -0.0308 -0.1617c -0.3696 -1.4707 -0.7238 -2.9568 -1.1011 -4.4198c -0.0077 -0.0308 -0.0077 -0.0539 -0.0077 -0.0616c 0 -0.1848 0.0924 -0.2772 0.2849 -0.2772c 0.1925 0 0.3157 0.1155 0.3773 0.3388c 0.1232 0.4697 0.3003 1.1704 0.3696 1.4553c 0.6083 -0.0693 0.9163 -0.2618 0.9163 -0.5929c 0 -0.0693 -0.0462 -0.3157 -0.0462 -0.385c 0 -0.4774 0.3619 -0.8162 0.8316 -0.8162c 0.2772 0 0.5082 0.1386 0.6853 0.4158c 0.1617 0.2541 0.2618 0.5082 0.308 0.7777c 0 0.0847 -0.0539 0.1309 -0.154 0.1309c -0.0462 0 -0.077 -0.0077 -0.1001 -0.0231c -0.0385 -0.0693 -0.0693 -0.1309 -0.077 -0.1848c -0.154 -0.5621 -0.3696 -0.8393 -0.6391 -0.8393c -0.154 0 -0.231 0.1232 -0.231 0.3619c 0 0.0924 0.0154 0.2002 0.0385 0.3311c 0.0231 0.0847 0.0385 0.1617 0.0385 0.2464c 0 0.3311 -0.1694 0.5621 -0.5159 0.6776c -0.2156 0.077 -0.4312 0.1309 -0.6468 0.154c 0.1463 0.1001 0.3311 0.2541 0.5544 0.4543c 0.3619 0.3234 0.7007 0.7161 1.1704 0.7161c 0.0847 0 0.1463 -0.0154 0.1925 -0.0462c -0.2387 -0.0616 -0.3619 -0.2079 -0.3619 -0.4466c 0 -0.1848 0.1463 -0.3157 0.3311 -0.3157c 0.2772 0 0.462 0.2464 0.462 0.5236Z "/></symbol><symbol id="gA30C1F05476B808055AD3E588DE806F" overflow="visible"><path d="M 0 0m 6.237 7.513h -3.652c -0.253 0 -0.374 -0.011 -0.374 -0.253c 0 -0.121 0.121 -0.176 0.363 -0.176c 0.22 0 0.66 0.033 0.66 -0.143c 0 -0.022 -0.011 -0.088 -0.044 -0.198l -1.452 -5.841c -0.055 -0.242 -0.165 -0.385 -0.33 -0.44c -0.077 -0.022 -0.275 -0.033 -0.616 -0.033c -0.242 0 -0.352 -0.022 -0.352 -0.253c 0 -0.121 0.121 -0.176 0.352 -0.176h 3.597c 0.748 0 1.463 0.22 2.156 0.671c 1.177 0.759 2.299 2.244 2.299 4.048c 0 1.628 -1.001 2.794 -2.607 2.794Z m 1.573 -2.387c 0 -1.243 -0.561 -2.75 -1.133 -3.487c -0.627 -0.803 -1.452 -1.21 -2.486 -1.21h -1.221c -0.121 0 -0.198 0 -0.242 0.011c -0.066 0 -0.099 0.022 -0.099 0.055c 0 0.022 0.022 0.099 0.055 0.242l 1.485 5.973c 0.099 0.363 0.088 0.374 0.55 0.374h 1.166c 1.232 0 1.925 -0.726 1.925 -1.958Z "/></symbol><symbol id="g7BAE0EF57901632238DEB322C4E420FD" overflow="visible"><path d="M 0 0m 9.772 3.836h -3.99v 3.99c 0 0.224 -0.112 0.336 -0.336 0.336c -0.224 0 -0.336 -0.112 -0.336 -0.336v -3.99h -3.99c -0.224 0 -0.336 -0.112 -0.336 -0.336c 0 -0.224 0.112 -0.336 0.336 -0.336h 3.99v -3.99c 0 -0.224 0.112 -0.336 0.336 -0.336c 0.224 0 0.336 0.112 0.336 0.336v 3.99h 3.99c 0.224 0 0.336 0.112 0.336 0.336c 0 0.182 -0.154 0.336 -0.336 0.336Z "/></symbol><symbol id="g40FE25E54F5492ED24B9F95C84D97EA9" overflow="visible"><path d="M 0 0m 3.608 3.575c 0 -0.275 0.143 -0.418 0.44 -0.418c 0.396 0 0.649 0.341 0.649 0.737c 0 0.616 -0.649 0.968 -1.309 0.968c -0.759 0 -1.452 -0.33 -2.046 -0.979c -0.594 -0.649 -0.891 -1.364 -0.891 -2.134c 0 -1.078 0.715 -1.87 1.793 -1.87c 0.583 0 1.1 0.143 1.551 0.418c 0.374 0.231 0.649 0.462 0.825 0.693c 0.077 0.099 0.11 0.176 0.11 0.209c 0 0.121 -0.055 0.187 -0.176 0.187c -0.055 0 -0.11 -0.044 -0.176 -0.132c -0.363 -0.484 -0.814 -0.792 -1.331 -0.924c -0.341 -0.088 -0.594 -0.132 -0.781 -0.132c -0.627 0 -0.935 0.385 -0.935 1.144c 0 0.682 0.319 1.672 0.583 2.145c 0.264 0.484 0.825 1.056 1.474 1.056c 0.418 0 0.704 -0.121 0.858 -0.352c -0.341 -0.033 -0.638 -0.253 -0.638 -0.616Z "/></symbol><symbol id="gBFCC2410A697C41E2DD3187C83DA8F3" overflow="visible"><path d="M 0 0m 2.3331 5.1128c -0.3311 -0.3234 -0.8239 -0.4851 -1.4938 -0.4851v -0.3388c 0.4543 0 0.8162 0.0693 1.0934 0.2002v -3.8346c 0 -0.1001 -0.0077 -0.1617 -0.0308 -0.1925c -0.0385 -0.0847 -0.2695 -0.1309 -0.693 -0.1309h -0.3157v -0.3311l 1.3706 0.0308l 1.3783 -0.0308v 0.3311h -0.3157c -0.4235 0 -0.6545 0.0462 -0.7007 0.1309c -0.0154 0.0308 -0.0231 0.0924 -0.0231 0.1925v 4.2119c 0 0.2079 -0.0308 0.2464 -0.2695 0.2464Z "/></symbol><symbol id="g5543B9A24A71B8940C9FCBE5E83534C1" overflow="visible"><path d="M 0 0m 1.3013 0.8855c -0.2464 0 -0.4389 -0.2002 -0.4389 -0.4543c 0 -0.2695 0.1848 -0.4697 0.4466 -0.4697c 0.1001 0 0.1925 0.0308 0.2695 0.0847c -0.0154 -0.5082 -0.2002 -0.9394 -0.5544 -1.2859c -0.0385 -0.0385 -0.0616 -0.0693 -0.0616 -0.1078c 0 -0.0924 0.0462 -0.1386 0.1309 -0.1386c 0.0539 0 0.1309 0.0616 0.2464 0.1848c 0.2541 0.2772 0.5005 0.8393 0.5005 1.3398c 0 0.4235 -0.154 0.847 -0.539 0.847Z "/></symbol><symbol id="g25B224D96CA3F5CCC7E774117FEA026D" overflow="visible"><path d="M 0 0m 0.9163 3.2648c 0.2464 0 0.4312 0.1848 0.4312 0.4312c 0 0.2772 -0.1463 0.4235 -0.4312 0.4312c 0.1694 0.3619 0.5544 0.6545 1.0549 0.6545c 0.6776 0 1.1242 -0.5082 1.1242 -1.1858c 0 -0.3696 -0.1309 -0.7238 -0.4004 -1.0703c -0.1309 -0.1771 -0.231 -0.3003 -0.3003 -0.3696l -1.8249 -1.8095c -0.1001 -0.0924 -0.0847 -0.1155 -0.0847 -0.3465h 3.1724l 0.2387 1.4476h -0.3234c -0.0539 -0.4081 -0.1155 -0.6468 -0.1848 -0.7007c -0.0385 -0.0231 -0.2772 -0.0385 -0.7315 -0.0385h -1.309c 0.5159 0.4543 0.9933 0.8624 1.4476 1.2243c 0.3465 0.2695 0.5929 0.5082 0.7469 0.7161c 0.231 0.3003 0.3465 0.616 0.3465 0.9471c 0 0.4774 -0.1848 0.8547 -0.5621 1.1319c -0.3311 0.2541 -0.7469 0.385 -1.2397 0.385c -0.4235 0 -0.7854 -0.1232 -1.1011 -0.3696c -0.3311 -0.2695 -0.5005 -0.6083 -0.5005 -1.0241c 0 -0.2618 0.1925 -0.4543 0.4312 -0.4543Z "/></symbol><symbol id="g777C235EA19CAB599B58B593B0044621" overflow="visible"><path d="M 0 0m 2.7181 2.7181c 0.5159 0.2079 1.0087 0.6622 1.0087 1.3167c 0 0.3465 -0.1848 0.6237 -0.5467 0.8239c -0.3003 0.1694 -0.6391 0.2541 -1.0164 0.2541c -0.3773 0 -0.7084 -0.077 -0.9933 -0.2387c -0.3465 -0.1925 -0.5236 -0.462 -0.5236 -0.8085c 0 -0.2926 0.1463 -0.4389 0.4312 -0.4389c 0.2387 0 0.4158 0.1848 0.4158 0.4235c 0 0.2387 -0.1232 0.3773 -0.3619 0.4158c 0.2233 0.2387 0.5544 0.3619 1.0087 0.3619c 0.5005 0 0.7854 -0.3003 0.7854 -0.7931c 0 -0.3619 -0.1001 -0.6545 -0.2926 -0.8855c -0.2156 -0.2541 -0.3696 -0.2926 -0.8162 -0.3234c -0.2079 -0.0154 -0.3465 0.0077 -0.3465 -0.1463c 0 -0.0924 0.077 -0.1386 0.2233 -0.1386h 0.4081c 0.6622 0 0.9856 -0.5005 0.9856 -1.1935c 0 -0.6776 -0.308 -1.1935 -0.9548 -1.1935c -0.5621 0 -0.9702 0.154 -1.2243 0.4697c 0.2695 0.0308 0.4081 0.1848 0.4081 0.4543c 0 0.2541 -0.1925 0.4466 -0.4466 0.4466c -0.3003 0 -0.4543 -0.154 -0.4543 -0.4697c 0 -0.3927 0.2002 -0.7084 0.5929 -0.9317c 0.3311 -0.1848 0.7084 -0.2772 1.1396 -0.2772c 0.4697 0 0.8778 0.1309 1.232 0.3927c 0.385 0.2849 0.5775 0.6545 0.5775 1.1088c 0 0.7161 -0.6237 1.2089 -1.2397 1.3706Z "/></symbol></defs></svg>